<?xml version="1.0" standalone="no"?>
<!DOCTYPE svg PUBLIC "-//W3C//DTD SVG 1.1//EN" "http://www.w3.org/Graphics/SVG/1.1/DTD/svg11.dtd" >
<svg>
<metadata>
Created by FontForge 20090914 at Thu Jan 26 11:36:04 2017
 By www-data
Copyright (c) 2002, 2005 Parachute&#194;&#168;, www.parachute.gr.  All rights reserved.
</metadata>
<defs>
<font id="PFDinTextCondPro-Bold" horiz-adv-x="1003" >
  <font-face 
    font-family="PF Din Text Cond Pro"
    font-weight="700"
    font-stretch="normal"
    units-per-em="2048"
    panose-1="2 0 0 0 0 0 0 0 0 0"
    ascent="1536"
    descent="-512"
    x-height="1012"
    cap-height="1425"
    bbox="-295 -604 2071 1921"
    underline-thickness="102"
    underline-position="-102"
    unicode-range="U+000D-U+FB02"
  />
<missing-glyph horiz-adv-x="748" 
d="M68 0v1365h544v-1365h-544zM136 68h408v1229h-408v-1229z" />
    <glyph glyph-name="uniFB01" unicode="fi" horiz-adv-x="1089" 
d="M37 791l-0.000976562 221.003h102v129c0 65.333 11 121.166 33 167.499s51.667 84.166 89 113.499s81 50.833 131 64.5s103 20.5 159 20.5c64 0 130.833 -8.83301 200.5 -26.5s129.834 -53.167 180.501 -106.5l-154 -203c-27.333 27.333 -59.333 47.166 -96 59.499
s-75 18.5 -115 18.5c-31.333 0 -56.5 -4.66699 -75.5 -14s-33.667 -20.833 -44 -34.5s-16.833 -28 -19.5 -43s-4 -28.167 -4 -39.5v-106h549v-1012h-287v791h-262v-791h-285v791h-102z" />
    <glyph glyph-name="uniFB02" unicode="fl" horiz-adv-x="1128" 
d="M37 791l0.000976562 221.002h102v123c0 65.333 10 121.166 30 167.499s47.667 84.166 83 113.499s77.666 50.833 126.999 64.5s102.666 20.5 159.999 20.5c13.333 0 34 -0.333008 62 -1s61.167 -3.33398 99.5 -8.00098s81.333 -11.834 129 -21.501
s98.167 -23.167 151.5 -40.5v-1084c0 -39.333 7.5 -65.166 22.5 -77.499s34.167 -18.5 57.5 -18.5h29v-254h-78c-48 0 -91.5 4.83301 -130.5 14.5s-72.5 26.334 -100.5 50.001s-49.5 55 -64.5 94s-22.5 87.833 -22.5 146.5v924c-28.667 8 -52.167 13 -70.5 15
s-37.166 3 -56.499 3c-31.333 0 -56.5 -4.83301 -75.5 -14.5s-33.667 -21.167 -44 -34.5s-16.833 -28 -19.5 -44s-4 -29.333 -4 -40v-98h182v-221h-182v-791h-285v791h-102z" />
    <glyph glyph-name=".notdef" horiz-adv-x="748" 
d="M68 0v1365h544v-1365h-544zM136 68h408v1229h-408v-1229z" />
    <glyph glyph-name="glyph1" horiz-adv-x="2048" 
 />
    <glyph glyph-name="glyph1" horiz-adv-x="2048" 
 />
    <glyph glyph-name="uni000D" unicode="&#xd;" horiz-adv-x="2048" 
 />
    <glyph glyph-name="space" unicode=" " horiz-adv-x="507" 
 />
    <glyph glyph-name="exclam" unicode="!" horiz-adv-x="583" 
d="M150 1425h284l-24 -1022h-234zM152 0v272h282v-272h-282z" />
    <glyph glyph-name="quotedbl" unicode="&#x22;" horiz-adv-x="737" 
d="M96 969v456h219v-456h-219zM412 969v456h223v-456h-223z" />
    <glyph glyph-name="numbersign" unicode="#" horiz-adv-x="1046" 
d="M27 420l0.000976562 196.001h174l16 101.5c5.33301 32.333 11.666 66.166 18.999 101.499h-144v199h174l32.5 202.5l33.5 202.5h221l-66 -405h158l68 405h221l-68 -405h150v-199h-180l-33 -203h149v-196h-182l-32.5 -211l-32.5 -209h-224l68 420h-158l-67 -420h-226
l70 420h-141zM422.001 616.001l160 0.000976562l16 101.5c5.33301 32.333 11.333 66.166 18 101.499h-159z" />
    <glyph glyph-name="dollar" unicode="$" 
d="M29 268l235 152.004c56 -84.667 121 -134 195 -148v322c-66.667 24.667 -124 50 -172 76s-87.333 55.333 -118 88s-53.5 70.167 -68.5 112.5s-22.5 92.166 -22.5 149.499s9.16699 110.166 27.5 158.499s44.166 91 77.499 128s73.333 66.833 120 89.5
s98.667 36.667 156 42v133h94v-133c88.667 -6.66699 163.667 -30.5 225 -71.5s112 -93.167 152 -156.5l-203 -163c-27.333 31.333 -55.333 55.166 -84 71.499s-58.667 27.833 -90 34.5v-276c74 -31.333 136.833 -61.833 188.5 -91.5s94 -61.834 127 -96.501
s56.667 -73.5 71 -116.5s21.5 -93.167 21.5 -150.5c0 -128.667 -35.167 -230.167 -105.5 -304.5s-171.166 -116.166 -302.499 -125.499v-185h-94v185c-102.667 5.33301 -187.5 32.166 -254.5 80.499s-125.5 113.5 -175.5 195.5zM362 1034
c0 -24.667 8.66699 -46.167 26 -64.5s41 -34.833 71 -49.5v233c-28.667 -6.66699 -52 -20.667 -70 -42s-27 -47 -27 -77zM553 274.004c40.667 6.66699 69.334 22.832 86.001 48.499s25 54.834 25 87.501c0 35.333 -10.333 64.5 -31 87.5s-47.334 42.833 -80.001 59.5v-283z
" />
    <glyph glyph-name="percent" unicode="%" horiz-adv-x="1576" 
d="M98 801l0.000976562 400.999c0 36.667 7.16699 69.334 21.5 98.001s33.833 53.334 58.5 74.001s52.667 36.167 84 46.5s64.666 15.5 99.999 15.5c36.667 0 71.167 -5.16699 103.5 -15.5s60.5 -25.833 84.5 -46.5s43.167 -45.334 57.5 -74.001s21.5 -61.334 21.5 -98.001
v-401c0 -36.667 -7.16699 -69.5 -21.5 -98.5s-33.833 -53.333 -58.5 -73s-53 -35 -85 -46s-66 -16.5 -102 -16.5c-35.333 0 -69 5.5 -101 16.5s-60 26.333 -84 46s-43.167 43.834 -57.5 72.501s-21.5 61.667 -21.5 99zM303.001 -35.001l758 1495h188l-760 -1495h-186z
M305.001 806.999c0 -15.333 5.16797 -28 15.501 -38s24.166 -15 41.499 -15c16.667 0 30.167 5 40.5 15s15.5 22.667 15.5 38v389c0 16.667 -4.83301 30 -14.5 40s-24.167 15 -43.5 15c-18 0 -31.667 -5 -41 -15s-14 -23.333 -14 -40v-389zM948.002 226.999l0.000976562 402
c0 36.667 7.16699 69.334 21.5 98.001s33.833 53.167 58.5 73.5s52.667 35.666 84 45.999s64.666 15.5 99.999 15.5c36.667 0 71.167 -5.16699 103.5 -15.5s60.5 -25.666 84.5 -45.999s43.167 -44.833 57.5 -73.5s21.5 -61.334 21.5 -98.001v-402
c0 -36.667 -7.16699 -69.334 -21.5 -98.001s-33.833 -52.834 -58.5 -72.501s-53 -35 -85 -46s-66 -16.5 -102 -16.5c-35.333 0 -69 5.5 -101 16.5s-60 26.333 -84 46s-43.167 43.834 -57.5 72.501s-21.5 61.334 -21.5 98.001zM1155 232.999
c0 -15.333 5.16797 -28 15.501 -38s24.166 -15 41.499 -15c16.667 0 30.167 5.16699 40.5 15.5s15.5 22.833 15.5 37.5v390c0 16.667 -4.83301 30 -14.5 40s-24.167 15 -43.5 15c-18 0 -31.667 -5.16699 -41 -15.5s-14 -23.5 -14 -39.5v-390z" />
    <glyph glyph-name="ampersand" unicode="&#x26;" horiz-adv-x="1189" 
d="M111 373c0 83.333 17.6689 157.672 53.002 223.005s88 126.666 158 183.999c-36.667 54.667 -66.334 105.667 -89.001 153s-34 99.666 -34 156.999c0 50.667 8.16699 97 24.5 139s39.833 78.333 70.5 109s68.167 54.667 112.5 72s94.5 26 150.5 26
c69.333 0 136.833 -13 202.5 -39s124.5 -74 176.5 -144l-188 -168c-32.667 39.333 -63.834 66 -93.501 80s-58.167 21 -85.5 21c-32.667 0 -57.167 -10 -73.5 -30s-24.5 -42 -24.5 -66c0 -24.667 5.5 -50.334 16.5 -77.001s27.5 -57 49.5 -91l258 -390
c6.66699 22 13 49.5 19 82.5s10.333 63.167 13 90.5l246 -35c-5.33301 -64 -17.833 -129.5 -37.5 -196.5s-43.834 -125.167 -72.501 -174.5c5.33301 -10.667 17.833 -30.334 37.5 -59.001l63.5 -90.5l63.5 -90.5c19.667 -28.667 32.834 -48.334 39.501 -59.001h-317l-64 94
c-44 -36.667 -91.5 -63.5 -142.5 -80.5s-103.167 -25.5 -156.5 -25.5c-61.333 0 -115.5 9.83301 -162.5 29.5s-86.5 47 -118.5 82s-55.833 76 -71.5 123s-23.5 97.167 -23.5 150.5zM375.002 383.006c0 -39.333 10.834 -72.667 32.501 -100s54.5 -41 98.5 -41
c26 0 51.167 5 75.5 15s46.166 22.667 65.499 38l-184 272c-27.333 -27.333 -48.833 -56 -64.5 -86s-23.5 -62.667 -23.5 -98z" />
    <glyph glyph-name="quotesingle" unicode="'" horiz-adv-x="471" 
d="M129 969v456h219v-456h-219z" />
    <glyph glyph-name="parenleft" unicode="(" horiz-adv-x="686" 
d="M123 627c0 86 9.17188 168.834 27.5049 248.501s43.166 156.5 74.499 230.5s68.166 144.333 110.499 211s87.5 130 135.5 190l176 -98c-40.667 -61.333 -76.334 -124.833 -107.001 -190.5s-56.334 -131.5 -77.001 -197.5s-36.167 -131.5 -46.5 -196.5
s-15.5 -127.5 -15.5 -187.5c0 -65.333 5.5 -132.166 16.5 -200.499s27.167 -136.333 48.5 -204s47 -133.834 77 -198.501s64 -126 102 -184l-160 -112c-52 62.667 -99.833 128.5 -143.5 197.5s-81.834 141 -114.501 216s-58.167 152.167 -76.5 231.5
s-27.5 160.666 -27.5 243.999z" />
    <glyph glyph-name="parenright" unicode=")" horiz-adv-x="686" 
d="M111 1409l176.002 98c48 -60 93 -123.333 135 -190s79.167 -137 111.5 -211s57.666 -150.833 75.999 -230.5s27.5 -162.5 27.5 -248.5c0 -83.333 -9.16699 -164.666 -27.5 -243.999s-44 -156.5 -77 -231.5s-71.667 -147 -116 -216s-91.833 -134.833 -142.5 -197.5
l-161 112c38 57.333 72.333 118.5 103 183.5s56.667 131.333 78 199s37.333 135.667 48 204s16 135.166 16 200.499c0 60 -5 122.5 -15 187.5s-25.667 130.5 -47 196.5s-47.333 131.833 -78 197.5s-66.334 129.167 -107.001 190.5z" />
    <glyph glyph-name="asterisk" unicode="*" horiz-adv-x="878" 
d="M78 1077l61 189l226 -92l-25 247h207l-25 -247l223 92l64 -189l-240 -59l164 -191l-166 -118l-125 213l-131 -213l-164 118l164 191z" />
    <glyph glyph-name="plus" unicode="+" 
d="M39 494v233h342v342h240v-342h342v-233h-342v-344h-240v344h-342z" />
    <glyph glyph-name="comma" unicode="," horiz-adv-x="546" 
d="M113 -311l73 307h-67v328h313v-318l-166 -317h-153z" />
    <glyph glyph-name="hyphen" unicode="-" horiz-adv-x="843" 
d="M98 418v256h658v-256h-658z" />
    <glyph glyph-name="period" unicode="." horiz-adv-x="538" 
d="M115 0v324h311v-324h-311z" />
    <glyph glyph-name="slash" unicode="/" horiz-adv-x="673" 
d="M-16 -86l450 1571h228l-453 -1571h-225z" />
    <glyph glyph-name="zero" unicode="0" 
d="M123 367v690c0 60 10.5 113.5 31.5 160.5s49.667 86.5 86 118.5s78 56.667 125 74s97.167 26 150.5 26s103.833 -8.66699 151.5 -26s89.334 -42 125.001 -74s63.667 -71.5 84 -118.5s30.5 -100.5 30.5 -160.5v-690c0 -60 -10.5 -113.333 -31.5 -160s-49.333 -86 -85 -118
s-77 -56.5 -124 -73.5s-97.167 -25.5 -150.5 -25.5s-103.833 8.5 -151.5 25.5s-89.334 41.5 -125.001 73.5s-64 71.167 -85 117.5s-31.5 99.833 -31.5 160.5zM410 369c0 -35.333 9.83301 -62 29.5 -80s45.167 -27 76.5 -27c30 0 55 8.83301 75 26.5s30 44.5 30 80.5v688
c0 35.333 -10 61.833 -30 79.5s-45 26.5 -75 26.5c-31.333 0 -56.833 -8.83301 -76.5 -26.5s-29.5 -44.167 -29.5 -79.5v-688z" />
    <glyph glyph-name="one" unicode="1" 
d="M258 946v311l229 168h258v-1425h-286v1094z" />
    <glyph glyph-name="two" unicode="2" 
d="M84 1030c4 65.333 17.333 123.334 40 174.001s52 93 88 127s77.667 60 125 78s96.666 27 147.999 27c126.667 0 225.334 -32.5 296.001 -97.5s106 -158.833 106 -281.5c0 -58.667 -7.83301 -112 -23.5 -160s-39.167 -96.333 -70.5 -145l-332 -476h416v-276h-785v250
l461 651c15.333 23.333 25.666 46.666 30.999 69.999s8 47.666 8 72.999c0 28.667 -8.5 55.667 -25.5 81s-43.5 38 -79.5 38c-27.333 0 -53.166 -12.167 -77.499 -36.5s-38.5 -70.166 -42.5 -137.499z" />
    <glyph glyph-name="three" unicode="3" 
d="M82 375l282.999 37.0059c0 -30 3.66699 -54.667 11 -74s16.833 -34.833 28.5 -46.5s24.667 -19.5 39 -23.5s28.833 -6 43.5 -6c31.333 0 59.333 11.667 84 35s37 63.666 37 120.999c0 68 -10.5 118.333 -31.5 151s-60.167 49 -117.5 49h-92v234h102
c52 0 88.5 14.333 109.5 43s31.5 67.667 31.5 117c0 16.667 -2 33.834 -6 51.501s-10.5 33.667 -19.5 48s-20.667 26.166 -35 35.499s-31.5 14 -51.5 14c-26 0 -51 -10.167 -75 -30.5s-38.667 -62.5 -44 -126.5l-279 43c5.33301 61.333 20.333 116.166 45 164.499
s55.167 89.166 91.5 122.499s77.666 58.666 123.999 75.999s95.5 26 147.5 26c80.667 0 146.834 -12.333 198.501 -37s92.167 -56.5 121.5 -95.5s49.833 -83 61.5 -132s17.5 -98.167 17.5 -147.5c0 -24.667 -2.66699 -51 -8 -79s-14.166 -55.333 -26.499 -82
s-28 -51 -47 -73s-42.167 -39 -69.5 -51c36.667 -24.667 65.167 -49.5 85.5 -74.5s35.666 -51.5 45.999 -79.5s16.833 -57 19.5 -87s4 -61.667 4 -95c0 -61.333 -9.5 -117.5 -28.5 -168.5s-46.667 -94.667 -83 -131s-80.666 -64.333 -132.999 -84s-111.5 -29.5 -177.5 -29.5
c-56 0 -107.5 7.5 -154.5 22.5s-88.5 38.167 -124.5 69.5s-65 71.166 -87 119.499s-35.667 106.166 -41 173.499z" />
    <glyph glyph-name="four" unicode="4" 
d="M53 199v233l400 993h303l-385 -958h192v313h285v-313h98v-268h-98v-199h-285v199h-510z" />
    <glyph glyph-name="five" unicode="5" 
d="M115 420l286 -0.00292969c1.33301 -61.333 12.333 -102.333 33 -123s46.667 -31 78 -31c45.333 0 74.333 22.167 87 66.5s19 99.5 19 165.5c0 30 -1 58.667 -3 86s-6.66699 50.5 -14 69.5s-18.166 34.333 -32.499 46s-33.833 17.5 -58.5 17.5
c-18 0 -38.167 -6.16699 -60.5 -18.5s-40.5 -38.166 -54.5 -77.499h-252v804h742v-268h-467v-237h10c27.333 23.333 57.666 38 90.999 44s58.333 9 75 9c58.667 0 108.167 -10.667 148.5 -32s73.166 -52.166 98.499 -92.499s43.333 -89.166 54 -146.499s16 -121.333 16 -192
c0 -80.667 -7.16699 -153 -21.5 -217s-37.166 -118.667 -68.499 -164s-72.166 -79.833 -122.499 -103.5s-111.833 -35.5 -184.5 -35.5c-56 0 -107.833 6.16699 -155.5 18.5s-89.334 34.833 -125.001 67.5s-64 76.667 -85 132s-32.167 126 -33.5 212z" />
    <glyph glyph-name="six" unicode="6" 
d="M121 432c0 49.333 4.83008 99.1689 14.4971 149.502s21.834 92.166 36.501 125.499l324 718h319c-44 -96.667 -85.667 -194.167 -125 -292.5s-82.333 -194.5 -129 -288.5l6 -6c10.667 4 23.667 7 39 9s27 3 35 3c34 0 67.5 -7.16699 100.5 -21.5s62 -37.5 87 -69.5
s45.333 -73 61 -123s23.5 -110.333 23.5 -181c0 -148.667 -32.667 -263.334 -98 -344.001s-167.666 -121 -306.999 -121c-125.333 0 -221.166 34.167 -287.499 102.5s-99.5 181.5 -99.5 339.5zM409.997 440.003c0 -65.333 7.83203 -111.332 23.499 -137.999
s41.834 -40 78.501 -40c44 0 73.167 16 87.5 48s21.5 83.667 21.5 155c0 57.333 -8.33301 97.666 -25 120.999s-42 35 -76 35c-35.333 0 -62.5 -13.667 -81.5 -41s-28.5 -74 -28.5 -140z" />
    <glyph glyph-name="seven" unicode="7" 
d="M111 989v436h788v-245l-432 -1180h-297l410 1153h-193v-164h-276z" />
    <glyph glyph-name="eight" unicode="8" 
d="M106 422c0 27.333 2.16797 56.3281 6.50098 86.9951s12 60.334 23 89.001s26 55.334 45 80.001s44.167 44.334 75.5 59.001v11c-27.333 12 -49.5 28.5 -66.5 49.5s-30.667 43.833 -41 68.5s-17.5 50.667 -21.5 78s-6 54 -6 80c0 60 8.16699 115.333 24.5 166
s40.833 94 73.5 130s73.334 64.333 122.001 85s105 31 169 31c124 0 221.167 -33.5 291.5 -100.5s105.5 -170.833 105.5 -311.5c0 -27.333 -2 -54.666 -6 -81.999s-11.167 -53.333 -21.5 -78s-24.333 -47.167 -42 -67.5s-40.167 -36.5 -67.5 -48.5l2 -11
c30 -12 54.5 -30 73.5 -54s34 -50.667 45 -80s18.667 -59.666 23 -90.999s6.5 -61.333 6.5 -90c0 -79.333 -11 -146.333 -33 -201s-51.833 -99 -89.5 -133s-81.334 -58.833 -131.001 -74.5s-101.834 -23.5 -156.501 -23.5s-106.5 7.83301 -155.5 23.5s-92 40.5 -129 74.5
s-66.167 78.333 -87.5 133s-32 121.667 -32 201zM395.001 445.995c0 -66.667 9.66699 -113.998 29 -141.998s48.666 -42 87.999 -42c44 0 75.167 17.167 93.5 51.5s27.5 80.166 27.5 137.499c0 52 -9.66699 92.167 -29 120.5s-50 42.5 -92 42.5
c-39.333 0 -68.666 -15.333 -87.999 -46s-29 -71.334 -29 -122.001zM410.001 1016c0 -57.333 8.5 -97.666 25.5 -120.999s43.167 -35 78.5 -35c38 0 65.333 14 82 42s25 67.333 25 118c0 45.333 -8.66699 80.5 -26 105.5s-44.333 37.5 -81 37.5
c-35.333 0 -61.5 -13.333 -78.5 -40s-25.5 -62.334 -25.5 -107.001z" />
    <glyph glyph-name="nine" unicode="9" 
d="M117 973c0 148.667 31.334 263 94.001 343s163.667 120 303 120c72.667 0 133.834 -10 183.501 -30s90.167 -48.667 121.5 -86s54.166 -83 68.499 -137s21.5 -115.333 21.5 -184c0 -24.667 -1.33301 -50.5 -4 -77.5s-6.33398 -53.167 -11.001 -78.5
s-10.5 -49.333 -17.5 -72s-13.833 -40.667 -20.5 -54l-321 -717h-320l252 582l-6 6c-10.667 -4 -22.167 -7.16699 -34.5 -9.5s-22.833 -3.5 -31.5 -3.5c-86 0 -153.833 31.167 -203.5 93.5s-74.5 163.833 -74.5 304.5zM410.001 950c0 -52 7.83203 -89.167 23.499 -111.5
s39.834 -33.5 72.501 -33.5c38 0 65.833 13.667 83.5 41s28.167 73.666 31.5 138.999c0 61.333 -7.66699 106.333 -23 135s-41.333 43 -78 43c-44 0 -73.333 -16.667 -88 -50s-22 -87.666 -22 -162.999z" />
    <glyph glyph-name="colon" unicode=":" horiz-adv-x="544" 
d="M117 0v324h311v-324h-311zM117 541v321h311v-321h-311z" />
    <glyph glyph-name="semicolon" unicode=";" horiz-adv-x="550" 
d="M115 -311l73 307h-67v328h313v-318l-166 -317h-153zM121 541v321h311v-321h-311z" />
    <glyph glyph-name="less" unicode="&#x3c;" 
d="M37 510v209l926 424v-271l-615 -260l610 -258v-270z" />
    <glyph glyph-name="equal" unicode="=" 
d="M37 291v227h926v-227h-926zM37 709v227h926v-227h-926z" />
    <glyph glyph-name="greater" unicode="&#x3e;" 
d="M39 872v271l926 -424v-209l-922 -426v270l612 258z" />
    <glyph glyph-name="question" unicode="?" horiz-adv-x="960" 
d="M61 1022c4 66.667 17.9971 125.666 41.9971 176.999s54.833 94.333 92.5 129s81.334 61.334 131.001 80.001s103.167 28 160.5 28c134 0 235.5 -36 304.5 -108s103.5 -167.333 103.5 -286c0 -60 -7.5 -108.667 -22.5 -146s-34.167 -73.333 -57.5 -108
c-18 -26 -36.833 -51.167 -56.5 -75.5s-38 -49.833 -55 -76.5s-31.333 -55 -43 -85s-17.5 -62 -17.5 -96v-62h-287v68c0 56 4.5 102.667 13.5 140s26.5 76.666 52.5 117.999l57.5 90c19 28.667 36.333 56.334 52 83.001s28.334 52.667 38.001 78s14.5 50 14.5 74
c0 10.667 -1.83301 23 -5.5 37s-9.5 26.833 -17.5 38.5s-19.167 21.5 -33.5 29.5s-33.166 12 -56.499 12c-34 0 -63 -13 -87 -39s-36.667 -70.333 -38 -133c-48 6.66699 -95.5 12.5 -142.5 17.5zM357.997 -0.000976562v272h283v-272h-283z" />
    <glyph glyph-name="at" unicode="@" horiz-adv-x="1773" 
d="M127 684c0 114.667 18.8369 220.836 56.5039 318.503s90.834 182.667 159.501 255s151.167 129 247.5 170s203.833 61.5 322.5 61.5c116 0 219.5 -17.833 310.5 -53.5s167.5 -84.5 229.5 -146.5s109 -136 141 -222s48 -179.667 48 -281
c0 -79.333 -9.16699 -151.333 -27.5 -216s-44.5 -119.834 -78.5 -165.501s-76.333 -81.167 -127 -106.5s-107.334 -38 -170.001 -38c-15.333 0 -33.166 2 -53.499 6s-41 10.833 -62 20.5s-41.167 22 -60.5 37s-33.666 33.5 -42.999 55.5l-8 2
c-22 -34 -52.833 -61.667 -92.5 -83s-81.167 -32 -124.5 -32c-82 0 -145.167 22.833 -189.5 68.5s-66.5 108.167 -66.5 187.5c0 35.333 5.66699 68.833 17 100.5s29 59.334 53 83.001s54.167 42.334 90.5 56.001s78.833 20.5 127.5 20.5h136v43
c0 19.333 -6.5 38.166 -19.5 56.499s-42.167 27.5 -87.5 27.5c-28.667 0 -52.834 -5 -72.501 -15s-39.167 -28.667 -58.5 -56l-164 106c32.667 61.333 76.667 105.666 132 132.999s117.333 41 186 41c44 0 85 -4.33301 123 -13s71 -23.667 99 -45s50.167 -49.333 66.5 -84
s24.5 -77.334 24.5 -128.001v-4l-2 -312c0 -20.667 7.16699 -39.334 21.5 -56.001s33.166 -25 56.499 -25c56 0 99 27.5 129 82.5s45 138.5 45 250.5c0 78 -12.333 149.5 -37 214.5s-59.834 120.333 -105.501 166s-101.334 81.167 -167.001 106.5s-138.834 38 -219.501 38
c-94 0 -177.167 -17.167 -249.5 -51.5s-133.833 -80.166 -184.5 -137.499s-88.834 -123.833 -114.501 -199.5s-38.5 -155.167 -38.5 -238.5c0 -96.667 14.333 -183.334 43 -260.001s69.167 -142 121.5 -196s114.666 -95.333 186.999 -124s152.5 -43 240.5 -43
c80.667 0 152.334 8.33301 215.001 25s128 42.667 196 78l74 -176c-79.333 -34 -156.5 -60.667 -231.5 -80s-156.167 -29 -243.5 -29c-114.667 0 -221.167 16.667 -319.5 50s-183 83.833 -254 151.5s-126.667 152 -167 253s-60.5 218.5 -60.5 352.5zM770.004 539.002
c0 -16.667 6.16602 -32.833 18.499 -48.5s35.5 -23.5 69.5 -23.5c28.667 0 53.334 8.16699 74.001 24.5s31 40.833 31 73.5v53h-105c-31.333 0 -53.833 -7.16699 -67.5 -21.5s-20.5 -33.5 -20.5 -57.5z" />
    <glyph glyph-name="A" unicode="A" horiz-adv-x="1136" 
d="M6 0l412 1425h295l411 -1425h-319l-70 291h-338l-37.5 -145.5l-40.5 -145.5h-313zM463 555h205l-39 203l-58 284h-10l-57 -282z" />
    <glyph glyph-name="B" unicode="B" horiz-adv-x="1110" 
d="M125 0l0.000976562 1425h461c139.333 0 245.166 -35.5 317.499 -106.5s108.5 -169.167 108.5 -294.5c0 -53.333 -13 -106.333 -39 -159s-69 -91 -129 -115v-11c32.667 -10.667 60.667 -27 84 -49s42.5 -47 57.5 -75s25.833 -57.667 32.5 -89s10 -62 10 -92
c0 -69.333 -10.167 -131 -30.5 -185s-49 -99.5 -86 -136.5s-81.5 -65 -133.5 -84s-109.333 -28.5 -172 -28.5h-481zM422.001 281h163.999c58.667 0 98.834 16.333 120.501 49s32.5 73 32.5 121s-11.833 86.167 -35.5 114.5s-62.167 42.5 -115.5 42.5h-166v-327zM422 866h147
c54.667 0 93.667 13.667 117 41s35 63 35 107c0 48 -11.667 83.5 -35 106.5s-63 34.5 -119 34.5h-145v-289z" />
    <glyph glyph-name="C" unicode="C" horiz-adv-x="1052" 
d="M92 471l0.000976562 508.001c0 53.333 8.16699 107 24.5 161s42.666 102.833 78.999 146.5s83.5 79.5 141.5 107.5s128.667 42 212 42c65.333 0 124 -10 176 -30s96.333 -46.333 133 -79s66.667 -70.5 90 -113.5s39.666 -87.833 48.999 -134.5l-280 -84
c-2.66699 13.333 -7.16699 29.333 -13.5 48s-16.333 35.5 -30 50.5s-30.667 28 -51 39s-44.833 16.5 -73.5 16.5c-30 0 -55.333 -5.16699 -76 -15.5s-37 -23.333 -49 -39s-20.833 -32.667 -26.5 -51s-8.5 -35.833 -8.5 -52.5v-528c0 -54.667 12 -99.834 36 -135.501
s65.333 -53.5 124 -53.5c40.667 0 76.834 13.333 108.501 40s50.167 63.334 55.5 110.001l282 -82c-20.667 -110.667 -71.167 -197.334 -151.5 -260.001s-178.5 -94 -294.5 -94c-82 0 -152 13 -210 39s-105.167 61.167 -141.5 105.5s-63 95.833 -80 154.5
s-25.5 120 -25.5 184z" />
    <glyph glyph-name="D" unicode="D" horiz-adv-x="1130" 
d="M125 0v1425h471c95.333 0 176.833 -17.667 244.5 -53s117.167 -94 148.5 -176c19.333 -48 30.666 -107.167 33.999 -177.5s5 -148.5 5 -234.5c0 -124 -0.666992 -229.333 -2 -316s-13.666 -160.667 -36.999 -222c-18 -48 -40.833 -87.667 -68.5 -119
s-60 -56.166 -97 -74.499s-77 -31.666 -120 -39.999s-87.833 -12.5 -134.5 -12.5h-444zM420 273.998l125 0.000976562c75.333 0 125.5 19.167 150.5 57.5s37.5 90.833 37.5 157.5v345c0 40.667 -2 80.167 -6 118.5s-12.5 72.166 -25.5 101.499s-32.167 52.5 -57.5 69.5
s-59 25.5 -101 25.5h-123v-875z" />
    <glyph glyph-name="E" unicode="E" 
d="M125 0v1425h829v-274h-532v-295h459v-272h-459v-303h532v-281h-829z" />
    <glyph glyph-name="F" unicode="F" horiz-adv-x="983" 
d="M125 0v1425h829v-274h-532v-301h459v-270h-459v-580h-297z" />
    <glyph glyph-name="G" unicode="G" horiz-adv-x="1103" 
d="M102 471l0.000976562 508.002c0 53.333 8.33301 107 25 161s43 102.833 79 146.5s83 79.5 141 107.5s128.667 42 212 42c65.333 0 124 -10 176 -30s96.5 -46.333 133.5 -79s67 -70.5 90 -113.5s39.5 -87.833 49.5 -134.5l-281 -84c-2.66699 13.333 -7 29.333 -13 48
s-15.833 35.5 -29.5 50.5s-30.834 28 -51.501 39s-45.334 16.5 -74.001 16.5c-30 0 -55.167 -5.16699 -75.5 -15.5s-36.666 -23.333 -48.999 -39s-21.333 -32.667 -27 -51s-8.5 -35.833 -8.5 -52.5v-528c0 -53.333 12 -98.5 36 -135.5s64.667 -55.5 122 -55.5
c62.667 0 106.667 15.5 132 46.5s38 68.167 38 111.5v111h-192v252h487v-310c0 -74 -9.5 -141.333 -28.5 -202s-48 -112.834 -87 -156.501s-87.5 -77.334 -145.5 -101.001s-125.333 -35.5 -202 -35.5c-82 0 -152 13 -210 39s-105 61.167 -141 105.5
s-62.667 95.833 -80 154.5s-26 120 -26 184z" />
    <glyph glyph-name="H" unicode="H" horiz-adv-x="1161" 
d="M123 0v1425h297v-569h323v569h293v-1425h-293v586h-323v-586h-297z" />
    <glyph glyph-name="I" unicode="I" horiz-adv-x="548" 
d="M129 0v1425h297v-1425h-297z" />
    <glyph glyph-name="J" unicode="J" horiz-adv-x="892" 
d="M-16 170l194 199c12 -19.333 25.667 -35.5 41 -48.5s30.833 -23.667 46.5 -32s31 -14.166 46 -17.499s27.833 -5 38.5 -5c42 0 74.333 14 97 42s34 63.333 34 106v1011h295v-1022c0 -74 -10.833 -136.833 -32.5 -188.5s-51.334 -94.167 -89.001 -127.5
s-82.167 -57.833 -133.5 -73.5s-105.666 -23.5 -162.999 -23.5c-74 0 -142.667 13.667 -206 41s-119.333 73.666 -168 138.999z" />
    <glyph glyph-name="K" unicode="K" horiz-adv-x="1130" 
d="M123 0v1425h297v-528h10c12 18 24.167 37.5 36.5 58.5l53.5 88l93.5 146.5l156.5 235h352l-397 -583l212.5 -421l215.5 -421h-336l-138.5 282.5l-137.5 284.5l-121 -186v-381h-297z" />
    <glyph glyph-name="L" unicode="L" horiz-adv-x="987" 
d="M125 0v1425h297v-1144h532v-281h-829z" />
    <glyph glyph-name="M" unicode="M" horiz-adv-x="1396" 
d="M119 0v1425h272l166 -397l141 -356h11l137 358l164 395h278v-1425h-295v672l-8 2l-98 -256l-76 -185h-213l-80 197l-96 246l-8 -2v-674h-295z" />
    <glyph glyph-name="N" unicode="N" horiz-adv-x="1220" 
d="M121 0v1425h262l233 -426l187 -344l6 2v768h295v-1425h-260l-264 475l-156 301l-6 -2v-774h-297z" />
    <glyph glyph-name="O" unicode="O" horiz-adv-x="1095" 
d="M90 471l-0.00195312 508c0 53.333 8.16699 107 24.5 161s43 102.833 80 146.5s84.5 79.5 142.5 107.5s128.667 42 212 42c78 0 145.667 -13.333 203 -40s104.333 -61.5 141 -104.5s64.334 -91.833 83.001 -146.5s28 -110 28 -166v-530
c0 -70.667 -11.333 -134.5 -34 -191.5s-54.167 -105.667 -94.5 -146s-88.166 -71 -143.499 -92s-116.333 -31.5 -183 -31.5c-82 0 -152 13 -210 39s-105.5 61.167 -142.5 105.5s-64 95.833 -81 154.5s-25.5 120 -25.5 184zM384.998 463c0 -54.667 12.667 -99.833 38 -135.5
s67.333 -53.5 126 -53.5c42 0 78.5 13.667 109.5 41s46.5 65 46.5 113v563c0 13.333 -2.5 29 -7.5 47s-13.667 35.167 -26 51.5s-28.333 30.333 -48 42s-44.5 17.5 -74.5 17.5s-55.333 -5.16699 -76 -15.5s-37.5 -23.333 -50.5 -39s-22.5 -32.667 -28.5 -51
s-9 -35.833 -9 -52.5v-528z" />
    <glyph glyph-name="P" unicode="P" horiz-adv-x="1062" 
d="M125 0l-0.000976562 1425h453c66.667 0 128.334 -8.83301 185.001 -26.5s105.167 -44.834 145.5 -81.501s71.666 -83.334 93.999 -140.001s33.5 -124 33.5 -202c0 -68 -10.167 -130 -30.5 -186s-49.666 -103.833 -87.999 -143.5s-84.833 -70.5 -139.5 -92.5
s-116 -33 -184 -33h-172v-520h-297zM421.999 797.002h158c44 0 82.5 13.667 115.5 41s49.5 74.333 49.5 141c0 61.333 -15 105.333 -45 132s-70.667 40 -122 40h-156v-354z" />
    <glyph glyph-name="Q" unicode="Q" horiz-adv-x="1110" 
d="M100 471l-0.00292969 508c0 53.333 8.33301 107 25 161s43.334 102.833 80.001 146.5s84 79.5 142 107.5s128.667 42 212 42c78 0 145.667 -13.333 203 -40s104.333 -61.5 141 -104.5s64.334 -91.833 83.001 -146.5s28 -110 28 -166v-530
c0 -82 -14.333 -154.667 -43 -218l143 -118l-137 -158l-141 115c-75.333 -54.667 -167.666 -82 -276.999 -82c-82 0 -152 13 -210 39s-105.333 61.167 -142 105.5s-63.667 95.833 -81 154.5s-26 120 -26 184zM394.997 463c0 -54.667 12.667 -99.833 38 -135.5
s67.333 -53.5 126 -53.5c10.667 0 19 0.666992 25 2l-49 119l63 74l113 -20l4 -5v547c0 13.333 -2.5 29 -7.5 47s-13.5 35.167 -25.5 51.5s-28 30.333 -48 42s-45 17.5 -75 17.5s-55.167 -5.16699 -75.5 -15.5s-37 -23.333 -50 -39s-22.667 -32.667 -29 -51
s-9.5 -35.833 -9.5 -52.5v-528z" />
    <glyph glyph-name="R" unicode="R" horiz-adv-x="1124" 
d="M125 0v1425h471c60 0 117 -8.16699 171 -24.5s101.167 -41.5 141.5 -75.5s72 -77.333 95 -130s34.5 -115.667 34.5 -189c0 -91.333 -17.667 -169.833 -53 -235.5s-87.333 -117.167 -156 -154.5l230 -616h-322l-190 563h-125v-563h-297zM422 834h160
c48 0 88.667 12.667 122 38s50 69.333 50 132c0 54.667 -15.333 93.5 -46 116.5s-70 34.5 -118 34.5h-168v-321z" />
    <glyph glyph-name="S" unicode="S" horiz-adv-x="1083" 
d="M63 231l234.004 189.005c36.667 -52 75.167 -90.333 115.5 -115s86.5 -37 138.5 -37c62.667 0 106 13.667 130 41s36 61 36 101c0 27.333 -6.5 50.833 -19.5 70.5s-30.833 37 -53.5 52s-49 28 -79 39s-62.667 21.167 -98 30.5c-65.333 20.667 -121.333 44 -168 70
s-84.667 55.333 -114 88s-50.833 70.167 -64.5 112.5s-20.5 90.166 -20.5 143.499c0 61.333 11 117.666 33 168.999s52.833 95.666 92.5 132.999s87.167 66.333 142.5 87s116.333 31 183 31c108 0 196.5 -16.833 265.5 -50.5s127.167 -83.167 174.5 -148.5l-213 -201
c-68 80.667 -143.667 121 -227 121c-44 0 -80 -11.667 -108 -35s-42 -54 -42 -92c0 -20.667 6.83301 -39.167 20.5 -55.5s32.167 -31.333 55.5 -45s50.666 -26.667 81.999 -39s64.666 -23.833 99.999 -34.5c70.667 -22 130 -47 178 -75s86.333 -60 115 -96
s48.834 -75.833 60.501 -119.5s17.5 -91.5 17.5 -143.5c0 -136.667 -42 -242.834 -126 -318.501s-203 -113.5 -357 -113.5c-60 0 -114.333 6.16699 -163 18.5s-92.334 29 -131.001 50s-73.834 46.167 -105.501 75.5s-59.834 61.666 -84.501 96.999z" />
    <glyph glyph-name="T" unicode="T" horiz-adv-x="937" 
d="M12 1155v270h906v-270h-306v-1155h-295v1155h-305z" />
    <glyph glyph-name="U" unicode="U" horiz-adv-x="1128" 
d="M109 471l-0.000976562 954.001h294v-962c0 -54.667 12.667 -99.834 38 -135.501s67.333 -53.5 126 -53.5c42 0 78.5 14.667 109.5 44s46.5 68 46.5 116v991h299v-976c0 -70.667 -11.333 -134.5 -34 -191.5s-54 -105.667 -94 -146s-87.667 -71 -143 -92
s-116.666 -31.5 -183.999 -31.5c-82 0 -152 13 -210 39s-105.333 61.167 -142 105.5s-63.5 95.833 -80.5 154.5s-25.5 120 -25.5 184z" />
    <glyph glyph-name="V" unicode="V" horiz-adv-x="1079" 
d="M4 1425h320l133 -591l80 -394h10l76 387l133 598h317l-387 -1425h-295z" />
    <glyph glyph-name="W" unicode="W" horiz-adv-x="1531" 
d="M8 1423l324 0.000976562l45 -259l43 -257c8 -48 15.5 -95.5 22.5 -142.5s14.5 -94.167 22.5 -141.5h8c15.333 65.333 29.833 131.166 43.5 197.499l42.5 197.5l92 405h232l48 -203.5l46 -203.5c15.333 -66.667 30 -133.5 44 -200.5l44 -201.5h10l20.5 141.5l20.5 141.5
l84 526h324l-301 -1425h-267l-55.5 222.5l-54.5 221.5l-74 306h-8l-36.5 -155c-12.333 -51.333 -25.5 -103 -39.5 -155c-16.667 -74 -35.167 -147.833 -55.5 -221.5s-39.5 -146.5 -57.5 -218.5h-266z" />
    <glyph glyph-name="X" unicode="X" horiz-adv-x="1105" 
d="M2 0l389 735l-364 690h342l89 -196.5l89 -194.5l184 391h342l-368 -690l393 -735h-342l-205 434l-209 -434h-340z" />
    <glyph glyph-name="Y" unicode="Y" horiz-adv-x="1044" 
d="M10 1430h330l94 -291l84 -273h12l88 275l105 284h315l-368 -854v-571h-291v571z" />
    <glyph glyph-name="Z" unicode="Z" horiz-adv-x="931" 
d="M51 0v258l484 897h-461v270h807v-249l-482 -895h482v-281h-830z" />
    <glyph glyph-name="bracketleft" unicode="[" horiz-adv-x="587" 
d="M131 -201v1631h422v-209h-158v-1215h158v-207h-422z" />
    <glyph glyph-name="backslash" unicode="\" horiz-adv-x="673" 
d="M-6 1485h227l451 -1571h-226z" />
    <glyph glyph-name="bracketright" unicode="]" horiz-adv-x="587" 
d="M35 4h155v1217h-155v209h420v-1633h-420v207z" />
    <glyph glyph-name="asciicircum" unicode="^" 
d="M27 555l368 868h209l184.5 -434l186.5 -434h-268l-205 539l-207 -539h-268z" />
    <glyph glyph-name="underscore" unicode="_" horiz-adv-x="1024" 
d="M0 -141h1024v-187h-1024v187z" />
    <glyph glyph-name="grave" unicode="`" horiz-adv-x="923" 
d="M246 1464l248 103l198 -389l-157 -84z" />
    <glyph glyph-name="a" unicode="a" horiz-adv-x="946" 
d="M66 303c0 42 7.16504 81.8311 21.498 119.498s35.833 70.834 64.5 99.501s64.5 51.167 107.5 67.5s93.833 24.5 152.5 24.5h163v60c0 22 -8.16699 43.833 -24.5 65.5s-47.5 32.5 -93.5 32.5c-35.333 0 -66.666 -5.83301 -93.999 -17.5s-50.666 -33.834 -69.999 -66.501
l-207 131c38 75.333 89.5 128.333 154.5 159s139.833 46 224.5 46c57.333 0 110.5 -5.5 159.5 -16.5s91 -29.167 126 -54.5s62.333 -58.666 82 -99.999s29.5 -93.666 29.5 -156.999v-696h-287v82l-8 2c-26 -34 -58.667 -58.167 -98 -72.5s-75 -21.5 -107 -21.5
c-100 0 -174.333 26.667 -223 80s-73 131 -73 233zM343.998 323.998c0 -19.333 7.83301 -38.168 23.5 -56.501s44.167 -27.5 85.5 -27.5c32.667 0 61.167 9.5 85.5 28.5s36.5 46.833 36.5 83.5v62h-124c-38 0 -65.333 -8.16699 -82 -24.5s-25 -38.166 -25 -65.499z" />
    <glyph glyph-name="b" unicode="b" horiz-adv-x="956" 
d="M94 0l0.00292969 1487h287v-549l8 -2c9.33301 13.333 21.666 25.5 36.999 36.5s31.5 20.667 48.5 29s34 14.5 51 18.5s32.167 6 45.5 6c74 0 132.167 -15.667 174.5 -47s73.666 -72 93.999 -122s33.333 -105.333 39 -166s8.5 -119.667 8.5 -177
c0 -54.667 -2.83301 -113 -8.5 -175s-19.334 -119 -41.001 -171s-54 -95.333 -97 -130s-102.167 -52 -177.5 -52c-30 0 -61 8.16699 -93 24.5s-59.667 39.5 -83 69.5l-6 -4v-76h-287zM381.003 502c0 -79.333 6.16504 -139.835 18.498 -181.502s40.833 -62.5 85.5 -62.5
c23.333 0 41.833 6.83301 55.5 20.5s24.334 32.167 32.001 55.5s12.834 51.333 15.501 84s4 67.334 4 104.001c0 27.333 -1 55 -3 83s-6.83301 53.333 -14.5 76s-18.667 41.167 -33 55.5s-33.833 21.5 -58.5 21.5s-43.667 -8.16699 -57 -24.5s-23.5 -37.166 -30.5 -62.499
s-11.167 -53 -12.5 -83s-2 -58.667 -2 -86z" />
    <glyph glyph-name="c" unicode="c" horiz-adv-x="864" 
d="M59 502c0 74 6.49902 142.997 19.499 206.997s34.833 119.5 65.5 166.5s71.334 83.833 122.001 110.5s113.667 40 189 40c86 0 161 -19.833 225 -59.5s109.667 -98.167 137 -175.5l-242 -117c-15.333 32.667 -31 55.834 -47 69.501s-35.667 20.5 -59 20.5
c-52 0 -85.167 -23.833 -99.5 -71.5s-21.5 -111.167 -21.5 -190.5c0 -86 7.83301 -149.167 23.5 -189.5s48.167 -60.5 97.5 -60.5c24.667 0 45.167 7.16699 61.5 21.5s32.166 36.5 47.499 66.5l241 -119c-27.333 -75.333 -72.666 -132.666 -135.999 -171.999
s-138 -59 -224 -59c-76.667 0 -140.667 12.667 -192 38s-92.333 60.833 -123 106.5s-52.5 99.834 -65.5 162.501s-19.5 131 -19.5 205z" />
    <glyph glyph-name="d" unicode="d" horiz-adv-x="956" 
d="M76 514c0 61.333 3.6709 122.331 11.0039 182.998s22.666 115.334 45.999 164.001s56.166 88.334 98.499 119.001s98.166 46 167.499 46c26 0 56.833 -7.83301 92.5 -23.5s62.834 -36.5 81.501 -62.5l9 2v545h286v-1487h-286v72l-7 4
c-23.333 -30 -51.666 -51.833 -84.999 -65.5s-65 -20.5 -95 -20.5c-76.667 0 -136.334 15.667 -179.001 47s-74.334 71.833 -95.001 121.5s-33.334 106 -38.001 169s-7 125.167 -7 186.5zM371.004 521.998c0 -36.667 1.33594 -71.332 4.00293 -103.999
s7.66699 -60.667 15 -84s17.833 -41.833 31.5 -55.5s32.167 -20.5 55.5 -20.5c45.333 0 74.166 20.833 86.499 62.5s18.5 102.167 18.5 181.5c0 27.333 -0.666992 56 -2 86s-5.83301 57.667 -13.5 83s-18.334 46.166 -32.001 62.499s-32.834 24.5 -57.501 24.5
s-44.167 -7.16699 -58.5 -21.5s-24.833 -32.833 -31.5 -55.5s-11 -48 -13 -76s-3 -55.667 -3 -83z" />
    <glyph glyph-name="e" unicode="e" horiz-adv-x="950" 
d="M74 506c0 79.333 6.83496 150.999 20.502 214.999s36.167 118.5 67.5 163.5s73 79.833 125 104.5s116.667 37 194 37c82 0 149 -13.667 201 -41s92.667 -63.833 122 -109.5s49.5 -99.167 60.5 -160.5s16.5 -127 16.5 -197v-80h-516v-16
c0 -23.333 1.33301 -45.166 4 -65.499s8 -38.333 16 -54s19.167 -28 33.5 -37s33.166 -13.5 56.499 -13.5c28.667 0 54.667 6.5 78 19.5s46.666 36.5 69.999 70.5l239 -129c-35.333 -76.667 -87.833 -133 -157.5 -169s-145.5 -54 -227.5 -54
c-75.333 0 -138.5 11.5 -189.5 34.5s-92.5 56.833 -124.5 101.5s-54.833 98.667 -68.5 162s-20.5 136 -20.5 218zM365.002 617.999l214.997 0.000976562c0 18 -1.5 35.833 -4.5 53.5s-8.16699 33.334 -15.5 47.001s-18.166 24.667 -32.499 33s-33.166 12.5 -56.499 12.5
c-19.333 0 -35.833 -4.5 -49.5 -13.5s-24.5 -20.333 -32.5 -34s-13.667 -29.334 -17 -47.001s-5.66602 -34.834 -6.99902 -51.501z" />
    <glyph glyph-name="f" unicode="f" horiz-adv-x="604" 
d="M35 791v223h102v178c0 50.667 7.83301 94.667 23.5 132s36.834 68 63.501 92s58.167 41.833 94.5 53.5s74.166 17.5 113.499 17.5h160v-250h-94c-23.333 0 -41.833 -7.16699 -55.5 -21.5s-20.5 -33.833 -20.5 -58.5v-143h172v-223h-172v-791h-285v791h-102z" />
    <glyph glyph-name="g" unicode="g" horiz-adv-x="956" 
d="M66 506c0 54.667 2.66504 112.334 7.99805 173.001s18.5 116.667 39.5 168s52.667 93.666 95 126.999s100.5 50 174.5 50c30 0 62 -7.5 96 -22.5s62.667 -37.5 86 -67.5l6 4v76h287v-1028c0 -61.333 -8.5 -117 -25.5 -167s-42.5 -92.667 -76.5 -128s-76.667 -63 -128 -83
s-110.333 -30 -177 -30c-151.333 0 -272.333 53.333 -363 160l201 186c46.667 -57.333 100.667 -86 162 -86c32.667 0 60.834 9.66699 84.501 29s35.5 46 35.5 80v147l-8 2c-9.33301 -13.333 -21.5 -25.5 -36.5 -36.5s-31 -20.667 -48 -29s-34.167 -14.833 -51.5 -19.5
s-32.666 -7 -45.999 -7c-74 0 -132.167 15.333 -174.5 46s-74 70 -95 118s-33.833 102 -38.5 162s-7 118.667 -7 176zM355.998 498c0 -27.333 1.00195 -54.3311 3.00195 -80.998s6.5 -50.667 13.5 -72s17.667 -38.5 32 -51.5s33.833 -19.5 58.5 -19.5s44.167 7.5 58.5 22.5
s25.166 34.167 32.499 57.5s12 49.666 14 78.999s3 57.666 3 84.999c0 79.333 -6.83301 138.833 -20.5 178.5s-42.834 59.5 -87.501 59.5c-23.333 0 -41.833 -6.5 -55.5 -19.5s-24.167 -30.833 -31.5 -53.5s-12.5 -50 -15.5 -82s-4.5 -66.333 -4.5 -103z" />
    <glyph glyph-name="h" unicode="h" horiz-adv-x="987" 
d="M109 0l0.00195312 1487h286v-549l11 -2c23.333 23.333 51.666 43.833 84.999 61.5s67.666 26.5 102.999 26.5c94 0 166.667 -29 218 -87s77 -134 77 -228v-709h-287v641c0 39.333 -9.83301 68.333 -29.5 87s-43.167 28 -70.5 28c-30 0 -55.333 -10 -76 -30
s-31 -49 -31 -87v-639h-286z" />
    <glyph glyph-name="i" unicode="i" horiz-adv-x="518" 
d="M117 0v1014h286v-1014h-286zM117 1165v260h286v-260h-286z" />
    <glyph glyph-name="j" unicode="j" horiz-adv-x="524" 
d="M-23 -147h52c38 0 62.833 13.5 74.5 40.5s17.5 57.833 17.5 92.5v1030h287v-1106c0 -104 -32.5 -182.667 -97.5 -236s-152.167 -80 -261.5 -80h-72v259zM121 1165v260h287v-260h-287z" />
    <glyph glyph-name="k" unicode="k" horiz-adv-x="989" 
d="M109 0v1483h284v-764h6l217 293h363l-330 -402l348 -610h-344l-198 377l-62 -84v-293h-284z" />
    <glyph glyph-name="l" unicode="l" horiz-adv-x="532" 
d="M98 283l0.000976562 1204h287v-1141c0 -39.333 7.16699 -65.166 21.5 -77.499s35.166 -18.5 62.499 -18.5h33v-254h-105c-95.333 0 -169 21.5 -221 64.5s-78 117.167 -78 222.5z" />
    <glyph glyph-name="m" unicode="m" horiz-adv-x="1490" 
d="M111 0l-0.000976562 1014h286v-90l11 -2c23.333 28.667 53.666 52.834 90.999 72.501s73 29.5 107 29.5c58.667 0 107.5 -11.333 146.5 -34s70.833 -55 95.5 -97c31.333 38 67.833 69.333 109.5 94s85.834 37 132.501 37c57.333 0 105 -9.83301 143 -29.5
s68.333 -46.667 91 -81s38.334 -73.333 47.001 -117s13 -89.5 13 -137.5v-659h-286v643c0 39.333 -10 68.333 -30 87s-43.667 28 -71 28c-30 0 -55.167 -9.66699 -75.5 -29s-30.5 -47.333 -30.5 -84v-645h-287v643c0 39.333 -9.83301 68.333 -29.5 87s-43.167 28 -70.5 28
c-30 0 -55.333 -10 -76 -30s-31 -49 -31 -87v-641h-286z" />
    <glyph glyph-name="n" unicode="n" horiz-adv-x="987" 
d="M104 0v1014h287v-82l8 -2c23.333 27.333 52.5 49.833 87.5 67.5s70.167 26.5 105.5 26.5c102.667 0 177.167 -28 223.5 -84s69.5 -131.667 69.5 -227v-713h-287v641c0 39.333 -9.83301 68.333 -29.5 87s-43.167 28 -70.5 28c-30 0 -55.333 -10 -76 -30s-31 -49 -31 -87
v-639h-287z" />
    <glyph glyph-name="o" unicode="o" horiz-adv-x="940" 
d="M74 504c1.33301 57.333 4.66797 114.999 10.001 172.999s15.666 104.667 30.999 140c28.667 65.333 72.667 116.833 132 154.5s136.666 56.5 231.999 56.5c94 0 168.667 -18.333 224 -55s94.666 -83 117.999 -139c19.333 -44 31.666 -93.667 36.999 -149
s8 -115.666 8 -180.999c0 -72.667 -3.66699 -135.5 -11 -188.5s-20.666 -99.5 -39.999 -139.5c-35.333 -72.667 -84.166 -122.5 -146.499 -149.5s-132.166 -40.5 -209.499 -40.5c-69.333 0 -128.333 10.833 -177 32.5s-88.667 52.5 -120 92.5c-32.667 44 -55.5 98 -68.5 162
s-19.5 141 -19.5 231zM358.002 499.999c0 -34 1.16895 -66.833 3.50195 -98.5s8.16602 -59.167 17.499 -82.5c16.667 -46 46.667 -69 90 -69h2c9.33301 0 19.166 1 29.499 3s20.333 6.83301 30 14.5s18.167 18.667 25.5 33s13 32.833 17 55.5
c2.66699 19.333 5.16699 43 7.5 71s3.5 60.333 3.5 97c0 70.667 -7 126 -21 166c-18 49.333 -47.333 74 -88 74c-45.333 0 -77.333 -24 -96 -72c-8 -23.333 -13.5 -50.333 -16.5 -81s-4.5 -67.667 -4.5 -111z" />
    <glyph glyph-name="p" unicode="p" horiz-adv-x="956" 
d="M98 -412l-0.00292969 1426h287v-72l6 -4c23.333 30 51.666 51.833 84.999 65.5s65 20.5 95 20.5c75.333 0 134.166 -17 176.499 -51s74 -77 95 -129s34.333 -108.667 40 -170s8.5 -119.333 8.5 -174c0 -61.333 -3.5 -122.5 -10.5 -183.5s-21.667 -115.667 -44 -164
s-54.666 -87.833 -96.999 -118.5s-99.166 -46 -170.499 -46c-13.333 0 -28.166 2 -44.499 6s-32.666 9.83301 -48.999 17.5s-31.666 16.5 -45.999 26.5s-26.5 22 -36.5 36l-8 -2v-484h-287zM384.997 510c0 -27.333 1.00098 -56 3.00098 -86s6.5 -57.333 13.5 -82
s17.667 -45.167 32 -61.5s33.833 -24.5 58.5 -24.5s44 7.83301 58 23.5s24.833 35.5 32.5 59.5s12.5 50.667 14.5 80s3 57.666 3 84.999c0 36.667 -1 70.667 -3 102s-6.83301 58 -14.5 80s-18.334 39.167 -32.001 51.5s-31.834 18.5 -54.501 18.5
c-45.333 0 -75.166 -21.167 -89.499 -63.5s-21.5 -103.166 -21.5 -182.499z" />
    <glyph glyph-name="q" unicode="q" horiz-adv-x="956" 
d="M78 498c0 58.667 3.33398 118.667 10.001 180s21 117.666 43 168.999s54.167 93.333 96.5 126s99.5 49 171.5 49c30 0 61.833 -7.5 95.5 -22.5s62.167 -37.5 85.5 -67.5l6 4v76h286v-1424h-286v486l-8 2c-9.33301 -13.333 -21.666 -25.5 -36.999 -36.5
s-31.5 -20.667 -48.5 -29s-34 -14.5 -51 -18.5s-32.5 -6 -46.5 -6c-69.333 0 -124.833 14.333 -166.5 43s-73.834 66.834 -96.501 114.501s-37.334 102.167 -44.001 163.5s-10 125 -10 191zM371.001 489c0 -27.333 1.00195 -54.8311 3.00195 -82.498
s6.66699 -52.834 14 -75.501s18.166 -41.167 32.499 -55.5s33.166 -21.5 56.499 -21.5c24.667 0 44.167 8.16699 58.5 24.5s25.333 37.166 33 62.499s12.5 53 14.5 83s3 58.667 3 86c0 79.333 -6.83301 139.5 -20.5 180.5s-43.167 61.5 -88.5 61.5
c-23.333 0 -41.833 -6.5 -55.5 -19.5s-24.167 -31.5 -31.5 -55.5s-12.333 -52 -15 -84s-4 -66.667 -4 -104z" />
    <glyph glyph-name="r" unicode="r" horiz-adv-x="745" 
d="M113 -2l-0.000976562 1016h284v-113l6 -2c26 45.333 58.167 77.5 96.5 96.5s80.166 28.5 125.499 28.5c22 0 42.833 -2 62.5 -6s38.167 -12.333 55.5 -25l-51 -266c-23.333 10.667 -45.166 18.167 -65.499 22.5s-40.166 6.5 -59.499 6.5c-50.667 0 -91 -13.333 -121 -40
s-45 -70.667 -45 -132v-586h-288z" />
    <glyph glyph-name="s" unicode="s" horiz-adv-x="905" 
d="M51 172l198.998 168.003c26 -38 55 -64.5 87 -79.5s67.667 -22.5 107 -22.5c38 0 67.333 8.16699 88 24.5s31 33.833 31 52.5c0 23.333 -7.5 40.833 -22.5 52.5s-40.167 20.834 -75.5 27.501c-45.333 8 -91.166 18.5 -137.499 31.5s-88 31.167 -125 54.5
s-67.333 53.166 -91 89.499s-35.5 82.5 -35.5 138.5c0 49.333 10.167 93.333 30.5 132s48 71.667 83 99s75.333 48.166 121 62.499s94.5 21.5 146.5 21.5c91.333 0 166.666 -13.667 225.999 -41s111 -65 155 -113l-172 -180c-26 30 -54.333 51.833 -85 65.5
s-68 20.5 -112 20.5c-39.333 0 -66.5 -6.83301 -81.5 -20.5s-22.5 -27.167 -22.5 -40.5c0 -12 4 -22.167 12 -30.5s18.833 -15.333 32.5 -21s28.334 -10.5 44.001 -14.5s31.834 -7.33301 48.501 -10c46.667 -9.33301 91.334 -20.833 134.001 -34.5
s80.5 -32.834 113.5 -57.501s59 -55.834 78 -93.501s28.5 -84.5 28.5 -140.5c0 -96.667 -35.833 -174.667 -107.5 -234s-170.167 -89 -295.5 -89c-92.667 0 -170.834 14 -234.501 42s-119.5 74.667 -167.5 140z" />
    <glyph glyph-name="t" unicode="t" horiz-adv-x="624" 
d="M49 791l-0.000976562 225h103v272h274v-272h135v-225h-133v-437c0 -34 5.83301 -59.167 17.5 -75.5s35.834 -24.5 72.501 -24.5h43v-254h-135c-90 0 -158.5 25.667 -205.5 77s-70.5 114.333 -70.5 189v525h-101z" />
    <glyph glyph-name="u" unicode="u" horiz-adv-x="987" 
d="M106 301v712.999h287v-641c0 -39.333 10 -68.333 30 -87s43.667 -28 71 -28c30 0 55.167 9.83301 75.5 29.5s30.5 48.834 30.5 87.501v639h287v-1014h-287v82l-8 2c-23.333 -27.333 -52.333 -49.833 -87 -67.5s-70 -26.5 -106 -26.5c-102.667 0 -177.167 28 -223.5 84
s-69.5 131.667 -69.5 227z" />
    <glyph glyph-name="v" unicode="v" horiz-adv-x="927" 
d="M8 1012h314c16.667 -65.333 32 -129.833 46 -193.5l44 -193.5l49 -234h10c6.66699 38 14.167 75.833 22.5 113.5l24.5 113.5c13.333 65.333 28 130.833 44 196.5l46 197.5h310l-318 -1012h-274l-158 506z" />
    <glyph glyph-name="w" unicode="w" horiz-adv-x="1368" 
d="M14 1014h305l54 -301l53 -289h10l62 289l61 301h250l63 -303l66 -287h10l53 291l52 299h299l-269 -1014h-278l-55 227l-62 277h-8l-62 -275l-57 -229h-276z" />
    <glyph glyph-name="x" unicode="x" horiz-adv-x="960" 
d="M6 0l313 516l-301 498h332l127 -275h2l127 275h328l-305 -498l319 -516h-332l-69.5 145.5l-69.5 145.5l-141 -291h-330z" />
    <glyph glyph-name="y" unicode="y" horiz-adv-x="905" 
d="M2 1014h307l70 -328l63 -280h11l65 278l82 330h299l-379 -1192c-26 -82 -65.5 -141.167 -118.5 -177.5s-117.833 -54.5 -194.5 -54.5h-101v246h60c56 0 94.333 35 115 105l32 112z" />
    <glyph glyph-name="z" unicode="z" horiz-adv-x="833" 
d="M57 0v246l377 518h-350v250h690v-232l-379 -520h379v-262h-717z" />
    <glyph glyph-name="braceleft" unicode="{" horiz-adv-x="587" 
d="M23 522v190.998c45.333 2.66699 79.833 18 103.5 46s35.5 72.667 35.5 134v281c0 78 22.5 139.333 67.5 184s100.167 67 165.5 67h170v-202h-65c-22 0 -40.167 -9.66699 -54.5 -29s-21.5 -44.666 -21.5 -75.999v-258c0 -60 -13.333 -110 -40 -150
s-59.667 -69.667 -99 -89c42 -23.333 75.667 -54.166 101 -92.499s38 -90.166 38 -155.499v-242c0 -16.667 0.666992 -32.834 2 -48.501s4.33301 -29.5 9 -41.5s12.167 -21.833 22.5 -29.5s24.5 -11.5 42.5 -11.5h65v-201h-170c-65.333 0 -120.5 22.5 -165.5 67.5
s-67.5 106.5 -67.5 184.5v291c0 61.333 -12.333 106.333 -37 135s-58.667 43.667 -102 45z" />
    <glyph glyph-name="bar" unicode="|" horiz-adv-x="530" 
d="M145 -399v1894h238v-1894h-238z" />
    <glyph glyph-name="braceright" unicode="}" horiz-adv-x="587" 
d="M25 0l65 0.00195312c18 0 32 3.83301 42 11.5s17.5 17.5 22.5 29.5s8.16699 25.833 9.5 41.5s2 31.834 2 48.501v242c0 65.333 12.667 117.166 38 155.499s59 69.166 101 92.499c-39.333 19.333 -72.333 49 -99 89s-40 90 -40 150v258
c0 31.333 -7.16699 56.666 -21.5 75.999s-32.5 29 -54.5 29h-65v202h170c65.333 0 120.5 -22.5 165.5 -67.5s67.5 -106.167 67.5 -183.5v-281c0 -61.333 12 -106 36 -134s58.333 -43.333 103 -46v-191c-44 -1.33301 -78.167 -16.333 -102.5 -45s-36.5 -73.667 -36.5 -135
v-291c0 -78 -22.5 -139.5 -67.5 -184.5s-100.167 -67.5 -165.5 -67.5h-170v201z" />
    <glyph glyph-name="asciitilde" unicode="~" 
d="M51 512c38 80.667 80.001 142.166 126.001 184.499s103.667 63.5 173 63.5c28.667 0 57 -5.83301 85 -17.5s54.333 -24.334 79 -38.001l69.5 -37c21.667 -11 42.167 -16.5 61.5 -16.5c48 0 100 37 156 111l153 -92c-39.333 -87.333 -81.833 -150.166 -127.5 -188.499
s-94.5 -57.5 -146.5 -57.5c-30 0 -59.333 5.5 -88 16.5s-56 23.333 -82 37s-51 25.834 -75 36.501s-46 16 -66 16c-26 0 -52.333 -7.5 -79 -22.5s-56.334 -44.167 -89.001 -87.5z" />
    <glyph glyph-name="uni00A0" unicode="&#xa0;" horiz-adv-x="507" 
 />
    <glyph glyph-name="exclamdown" unicode="&#xa1;" horiz-adv-x="583" 
d="M154 -412l20 1022h242l20 -1022h-282zM154 741v273h280v-273h-280z" />
    <glyph glyph-name="cent" unicode="&#xa2;" 
d="M121 502c0 70.667 5.83203 137.168 17.499 199.501s31.5 116.666 59.5 162.999s65.167 83.5 111.5 111.5s104.166 44 173.499 48v168h70v-168c78 -5.33301 145.667 -27.833 203 -67.5s98.333 -94.834 123 -165.501l-242 -117c-13.333 27.333 -26.166 47.833 -38.499 61.5
s-27.5 22.5 -45.5 26.5v-508c31.333 6.66699 60 35.334 86 86.001l242 -119c-26 -70.667 -67.667 -125.5 -125 -164.5s-125 -60.5 -203 -64.5v-193h-70v193c-69.333 4 -127.166 19.333 -173.499 46s-83.5 62.5 -111.5 107.5s-47.833 97.833 -59.5 158.5
s-17.5 126.667 -17.5 198zM409.999 502.001c0 -69.333 4.66699 -123.832 14 -163.499s29 -65.834 59 -78.501v494c-31.333 -15.333 -51.333 -44.833 -60 -88.5s-13 -98.167 -13 -163.5z" />
    <glyph glyph-name="sterling" unicode="&#xa3;" 
d="M61 549v211.001h117c-15.333 54.667 -31.166 105.167 -47.499 151.5s-24.5 96.166 -24.5 149.499c0 52 9 100.833 27 146.5s44.333 85.167 79 118.5s77.667 60 129 80s109.666 30 174.999 30c105.333 0 192.166 -23 260.499 -69s121.5 -123.333 159.5 -232l-250 -111
c-22 50.667 -45.333 86.5 -70 107.5s-54.667 31.5 -90 31.5c-24.667 0 -50.5 -10.167 -77.5 -30.5s-40.5 -49.833 -40.5 -88.5c0 -20.667 3 -41.5 9 -62.5s13.5 -42.667 22.5 -65s17.833 -46.5 26.5 -72.5s16.334 -54 23.001 -84h246v-211h-243
c-8 -113.333 -32.667 -211 -74 -293h493v-256h-843v225c36.667 49.333 65.167 98.5 85.5 147.5s33.5 107.833 39.5 176.5h-132z" />
    <glyph glyph-name="currency" unicode="&#xa4;" horiz-adv-x="1095" 
d="M51 362l66 67.0049l67 67c-31.333 58.667 -47 122 -47 190c0 31.333 4.5 62.333 13.5 93s20.833 61 35.5 91l-133 134l78 76.5l78 78.5l133 -133c61.333 34 123.333 51 186 51c69.333 0 133 -15.667 191 -47l133 133l154 -155l-134 -131
c15.333 -28.667 27.833 -57.334 37.5 -86.001s14.5 -58.334 14.5 -89.001c0 -36.667 -3.83301 -71.334 -11.5 -104.001s-21.167 -66.667 -40.5 -102l68 -65l66 -64l-156 -158l-131 133c-31.333 -16.667 -62.666 -29.334 -93.999 -38.001s-65 -13 -101 -13
c-31.333 0 -63.333 4.66699 -96 14s-63.334 21.666 -92.001 36.999l-131 -133zM336 684.005c0 -24.667 4.33301 -47.833 13 -69.5s21 -41.167 37 -58.5s34.167 -31 54.5 -41s42.833 -15 67.5 -15c60 0 110.167 16.667 150.5 50s60.5 78.666 60.5 135.999
c0 56 -18.833 101.833 -56.5 137.5s-82.5 53.5 -134.5 53.5c-52 -2.66699 -97 -21.167 -135 -55.5s-57 -80.166 -57 -137.499z" />
    <glyph glyph-name="yen" unicode="&#xa5;" 
d="M-2 1425h317.001l57.5 -154.5c19 -52.333 36.167 -104.5 51.5 -156.5l74 -248h12c12 39.333 23.167 81.333 33.5 126s23.166 86.667 38.499 126l106 307h318l-289 -690h168v-153h-228l-10 -21v-63h238v-154h-238v-344h-291v344h-231v154h231v63l-10 21h-221v153h160z" />
    <glyph glyph-name="brokenbar" unicode="&#xa6;" horiz-adv-x="530" 
d="M145 -408v869h238v-869h-238zM145 625v862h238v-862h-238z" />
    <glyph glyph-name="section" unicode="&#xa7;" horiz-adv-x="956" 
d="M55 14l159.996 182.997c44 -39.333 86.833 -68.666 128.5 -87.999s78.834 -29 111.501 -29c48 0 83.5 9.16699 106.5 27.5s34.5 41.833 34.5 70.5c0 16.667 -4.16699 31.834 -12.5 45.501s-21.666 27.667 -39.999 42s-43.166 29 -74.499 44s-69.666 31.833 -114.999 50.5
c-44 18 -82.667 36.833 -116 56.5s-61.5 42.167 -84.5 67.5s-40.333 54 -52 86s-17.5 70.667 -17.5 116c0 44 12.667 85 38 123s56.333 66 93 84c-62.667 58.667 -94 127.667 -94 207c0 50.667 9.5 96.334 28.5 137.001s45.333 75.667 79 105s73.334 52 119.001 68
s95.167 24 148.5 24c74 0 141.667 -9.66699 203 -29s124 -54.333 188 -105l-74 -95l-76 -95c-49.333 36.667 -94 60.167 -134 70.5s-78 15.5 -114 15.5c-38 0 -65.5 -6.83301 -82.5 -20.5s-25.5 -31.5 -25.5 -53.5c0 -20.667 8.5 -39.5 25.5 -56.5s37.833 -33 62.5 -48
s51 -29 79 -42l75 -35.5c34 -16.667 67.333 -34.167 100 -52.5s61.667 -40.166 87 -65.499s45.5 -55 60.5 -89s22.5 -75 22.5 -123s-11.333 -90.333 -34 -127s-51 -64.667 -85 -84c30 -30 52.167 -63.333 66.5 -100s21.5 -73 21.5 -109c0 -53.333 -10.167 -101 -30.5 -143
s-49 -78 -86 -108s-80.333 -53 -130 -69s-103.834 -24 -162.501 -24c-70.667 0 -141 15.167 -211 45.5s-132.333 71.166 -187 122.499zM337.996 693.997c0 -32.667 27.333 -62.667 82 -90c27.333 -13.333 56 -25.833 86 -37.5s60.667 -24.5 92 -38.5
c24.667 15.333 37 39.333 37 72c0 24.667 -12 47.167 -36 67.5s-68.667 42.833 -134 67.5c-23.333 6.66699 -49.333 17 -78 31c-32.667 -18 -49 -42 -49 -72z" />
    <glyph glyph-name="dieresis" unicode="&#xa8;" horiz-adv-x="882" 
d="M106 1143v266h273v-266h-273zM508 1143v266h274v-266h-274z" />
    <glyph glyph-name="copyright" unicode="&#xa9;" horiz-adv-x="1560" 
d="M98 698c0 105.333 16.167 202.334 48.5 291.001s77.833 165.5 136.5 230.5s129.667 115.833 213 152.5s176 55 278 55c101.333 0 193.666 -18 276.999 -54s154.666 -86.5 213.999 -151.5s105 -141.833 137 -230.5s48 -186.334 48 -293.001
c0 -104 -16 -199.833 -48 -287.5s-77.667 -164 -137 -229s-130.666 -115.667 -213.999 -152s-175.666 -54.5 -276.999 -54.5c-102.667 0 -195.5 17.833 -278.5 53.5s-153.833 85.5 -212.5 149.5s-104.167 140.5 -136.5 229.5s-48.5 185.833 -48.5 290.5zM274 698.001
c0 -78 11.998 -151.333 35.998 -220s57.833 -128.334 101.5 -179.001s96.334 -90.667 158.001 -120s129.834 -44 204.501 -44c76.667 0 146 14.667 208 44s114.5 69.333 157.5 120s76.167 110.5 99.5 179.5s35 142.167 35 219.5c0 82 -12 157.5 -36 226.5
s-57.5 129.167 -100.5 180.5s-95.5 91.333 -157.5 120s-130.667 43 -206 43c-78 0 -147.667 -14.667 -209 -44s-113.5 -69.666 -156.5 -120.999s-76.167 -111.833 -99.5 -181.5s-35 -144.167 -35 -223.5zM482.998 549.001l-0.00390625 260.001c0 44 5.83301 85.667 17.5 125
s29.167 73.666 52.5 102.999s53.333 52.666 90 69.999s80.334 26 131.001 26c78 0 142.5 -21.167 193.5 -63.5s82.833 -96.5 95.5 -162.5l-176 -53c-5.33301 28.667 -17.333 52.5 -36 71.5s-43.667 28.5 -75 28.5c-23.333 0 -42.166 -4 -56.499 -12
s-25.166 -18.833 -32.499 -32.5s-12.333 -28.667 -15 -45s-4 -33.5 -4 -51.5v-258c0 -34 6.83301 -65.667 20.5 -95s42.167 -44 85.5 -44c30 0 54.667 8.83301 74 26.5s31 42.834 35 75.501l89 -27.5c29.333 -9 59 -17.5 89 -25.5
c-13.333 -70.667 -44.666 -126.167 -93.999 -166.5s-113.666 -60.5 -192.999 -60.5c-57.333 0 -104.833 8.83301 -142.5 26.5s-67.334 41.167 -89.001 70.5s-37 62.333 -46 99s-13.5 75 -13.5 115z" />
    <glyph glyph-name="ordfeminine" unicode="&#xaa;" horiz-adv-x="653" 
d="M39 776c0 57.333 19.833 105.831 59.5 145.498s101.834 59.5 186.501 59.5h100v33c0 10.667 -5.5 21.834 -16.5 33.501s-28.167 17.5 -51.5 17.5c-19.333 0 -38.5 -3.5 -57.5 -10.5s-35.167 -20.5 -48.5 -40.5l-154 94c30 52 68 88.833 114 110.5s98.333 32.5 157 32.5
c83.333 0 149.5 -16.667 198.5 -50s73.5 -92.333 73.5 -177v-453h-215v58c-19.333 -23.333 -42.333 -40.166 -69 -50.499s-50 -15.5 -70 -15.5c-72.667 0 -125.334 18.5 -158.001 55.5s-49 89.5 -49 157.5zM244 790.998c0 -10.667 5.33301 -21.332 16 -31.999
s27.667 -16 51 -16c20.667 0 38.167 5.16699 52.5 15.5s21.5 27.166 21.5 50.499v35h-76c-22 0 -38.333 -5.16699 -49 -15.5s-16 -22.833 -16 -37.5z" />
    <glyph glyph-name="guillemotleft" unicode="&#xab;" horiz-adv-x="1157" 
d="M94 481l268 424h277l-264 -424l264 -424h-277zM537 481l268 424h276l-264 -424l264 -424h-276z" />
    <glyph glyph-name="logicalnot" unicode="&#xac;" 
d="M39 494v233h922l2 -577h-240v344h-684z" />
    <glyph glyph-name="uni00AD" unicode="&#xad;" horiz-adv-x="843" 
d="M98 418v256h658v-256h-658z" />
    <glyph glyph-name="registered" unicode="&#xae;" horiz-adv-x="1036" 
d="M88 977c0 66.667 10.668 128 32.001 184s51 104.5 89 145.5s83.667 73.167 137 96.5s112.666 35 177.999 35s124.666 -11.667 177.999 -35s98.833 -55.5 136.5 -96.5s67 -89.5 88 -145.5s31.5 -117.333 31.5 -184c0 -65.333 -10.833 -126.333 -32.5 -183
s-51.667 -105.5 -90 -146.5s-84.166 -73.167 -137.499 -96.5s-111.333 -35 -174 -35c-66.667 0 -127 11.667 -181 35s-99.667 55.5 -137 96.5s-66.333 89.833 -87 146.5s-31 117.667 -31 183zM205.001 979c0 -50.667 7.49707 -97.167 22.4971 -139.5
s36.5 -79.166 64.5 -110.499s61.833 -55.833 101.5 -73.5s83.167 -26.5 130.5 -26.5c49.333 0 93.166 8.83301 131.499 26.5s70.833 42.5 97.5 74.5s47.167 69.167 61.5 111.5s21.5 88.166 21.5 137.499s-7.16699 95.5 -21.5 138.5s-35.166 80.167 -62.499 111.5
s-60.166 56.166 -98.499 74.499s-81.5 27.5 -129.5 27.5c-49.333 0 -93.666 -9.16699 -132.999 -27.5s-72.666 -43.166 -99.999 -74.499s-48.5 -68.5 -63.5 -111.5s-22.5 -89.167 -22.5 -138.5zM361.998 717v532h179c48 0 86.5 -14 115.5 -42s43.5 -68.667 43.5 -122
c0 -28.667 -5.33301 -55.5 -16 -80.5s-29.667 -46.5 -57 -64.5l19 -46l27.5 -66.5l28 -65.5l19.5 -45h-127l-78 203h-39v-203h-115zM476.998 1024h58c38 0 57 20.333 57 61c0 38 -19 57.333 -57 58h-58v-119z" />
    <glyph glyph-name="macron" unicode="&#xaf;" horiz-adv-x="921" 
d="M182 1171v234h598v-234h-598z" />
    <glyph glyph-name="degree" unicode="&#xb0;" horiz-adv-x="804" 
d="M102 1145c0 39.333 8.00098 76.832 24.001 112.499s37.5 66.834 64.5 93.501s59 47.5 96 62.5s75.833 22.5 116.5 22.5c42 0 81.167 -7.5 117.5 -22.5s68.166 -35.833 95.499 -62.5s49 -57.834 65 -93.501s24 -73.167 24 -112.5c0 -40.667 -8 -78.5 -24 -113.5
s-37.667 -65.833 -65 -92.5s-59 -47.5 -95 -62.5s-75.333 -22.5 -118 -22.5c-40.667 0 -79.5 7.5 -116.5 22.5s-69 35.833 -96 62.5s-48.5 57.334 -64.5 92.001s-24 72.667 -24 114zM289.001 1145c0 -31.333 11.167 -58 33.5 -80s49.166 -33 80.499 -33
c32.667 0 60 11 82 33s33 48.667 33 80s-10.833 57.5 -32.5 78.5s-49.167 31.5 -82.5 31.5c-31.333 0 -58.166 -10.5 -80.499 -31.5s-33.5 -47.167 -33.5 -78.5z" />
    <glyph glyph-name="plusminus" unicode="&#xb1;" 
d="M33 0v223h934v-223h-934zM37 610v230h344v331h240v-331h342v-230h-342v-321h-240v321h-344z" />
    <glyph glyph-name="uni00B2" unicode="&#xb2;" horiz-adv-x="638" 
d="M41 1362c4 42 13.835 79.499 29.502 112.499s36.167 60.333 61.5 82s53.666 38.334 84.999 50.001s64.666 17.5 99.999 17.5c84.667 0 151 -20.167 199 -60.5s72 -97.833 72 -172.5c0 -34 -5.83301 -65.833 -17.5 -95.5s-28.5 -59.5 -50.5 -89.5l-192 -258h250v-188h-529
v166l299 383c16.667 22 25 46.333 25 73c0 15.333 -4.5 28.5 -13.5 39.5s-23.167 16.5 -42.5 16.5c-16.667 0 -31.667 -7.5 -45 -22.5s-21.333 -41.833 -24 -80.5z" />
    <glyph glyph-name="uni00B3" unicode="&#xb3;" horiz-adv-x="641" 
d="M49 991l203 24.999c2.66699 -31.333 11.167 -51.833 25.5 -61.5s27.5 -14.5 39.5 -14.5c16.667 0 29.5 3 38.5 9s15.5 13.833 19.5 23.5s6.33301 20 7 31s1 20.5 1 28.5c0 23.333 -4.16699 43.5 -12.5 60.5s-26.833 25.5 -55.5 25.5h-75v160h67
c30 0 49.833 8.16699 59.5 24.5s14.5 36.833 14.5 61.5c0 13.333 -3.5 28.333 -10.5 45s-24.167 25 -51.5 25c-13.333 0 -26.833 -6.5 -40.5 -19.5s-21.834 -37.5 -24.501 -73.5l-201 31c10.667 78 41.834 138.833 93.501 182.5s112.167 65.5 181.5 65.5
c49.333 0 90.666 -6.83301 123.999 -20.5s60.833 -31.834 82.5 -54.501s37.334 -49.667 47.001 -81s14.5 -64 14.5 -98c0 -27.333 -6.5 -58 -19.5 -92s-36.5 -59.333 -70.5 -76c38 -13.333 63.167 -36.833 75.5 -70.5s18.5 -69.5 18.5 -107.5
c0 -79.333 -22.833 -144.166 -68.5 -194.499s-115.5 -75.5 -209.5 -75.5c-32.667 0 -64.5 4.66699 -95.5 14s-58.833 24 -83.5 44s-45.5 45.333 -62.5 76s-27.5 66.334 -31.5 107.001z" />
    <glyph glyph-name="acute" unicode="&#xb4;" horiz-adv-x="923" 
d="M319 1167l191 400l246 -99l-277 -374z" />
    <glyph glyph-name="paragraph" unicode="&#xb6;" horiz-adv-x="1050" 
d="M35 1026c0 49.333 7.49902 97.834 22.499 145.501s38.167 91 69.5 130s71.166 70.5 119.499 94.5s106.833 36 175.5 36c95.333 0 187.333 -0.333008 276 -1s182.334 -1 281.001 -1v-197h-90v-1372h-205v1372h-113v-1372h-211v768
c-57.333 5.33301 -106.666 19.666 -147.999 42.999s-75 53 -101 89s-45.167 76.833 -57.5 122.5s-18.5 93.167 -18.5 142.5z" />
    <glyph glyph-name="periodcentered" unicode="&#xb7;" horiz-adv-x="544" 
d="M117 420v321h311v-321h-311z" />
    <glyph glyph-name="cedilla" unicode="&#xb8;" horiz-adv-x="915" 
d="M205 -393l47.0059 125.002c31.333 -15.333 57.166 -25 77.499 -29s40.166 -6 59.499 -6c20.667 0 38.167 5.83301 52.5 17.5s21.5 26.167 21.5 43.5c0 19.333 -5.83301 33.5 -17.5 42.5s-25.834 13.5 -42.501 13.5c-10.667 0 -20 -2.33301 -28 -7
c-12 8 -24.333 15.5 -37 22.5s-25 14.833 -37 23.5l74 231c23.333 0 46.166 0.333008 68.499 1s45.166 1 68.499 1l-55 -160c36.667 -4 67 -12.5 91 -25.5s43.5 -28 58.5 -45s25.5 -35.333 31.5 -55s9 -38.5 9 -56.5c0 -50.667 -17.667 -94 -53 -130s-92 -54 -170 -54
c-36.667 1.33301 -73.834 4.66602 -111.501 9.99902s-73.5 17.666 -107.5 36.999z" />
    <glyph glyph-name="uni00B9" unicode="&#xb9;" horiz-adv-x="522" 
d="M68 1296v215l155 103h183v-854h-213v622z" />
    <glyph glyph-name="ordmasculine" unicode="&#xba;" horiz-adv-x="649" 
d="M47 907c1.33301 36.667 3.66895 73.833 7.00195 111.5s10.666 68.167 21.999 91.5c19.333 44 51.166 78.5 95.499 103.5s98.5 37.5 162.5 37.5c65.333 0 117.5 -12.167 156.5 -36.5s67.167 -55.833 84.5 -94.5c12 -27.333 20.167 -59 24.5 -95s6.5 -75.333 6.5 -118
c0 -48 -2.33301 -89.333 -7 -124s-14.667 -65 -30 -91c-26 -48 -60.5 -81.5 -103.5 -100.5s-91.833 -28.5 -146.5 -28.5c-49.333 0 -91 7.5 -125 22.5s-62.333 35.5 -85 61.5c-23.333 28.667 -39.5 64.167 -48.5 106.5s-13.5 93.5 -13.5 153.5zM260.003 902.999
c0 -23.333 0.333008 -44.834 1 -64.501s4.33398 -37.167 11.001 -52.5c10.667 -22 28.667 -32.667 54 -32c26 0 43.667 11.333 53 34c5.33301 12 8.66602 29 9.99902 51s2 49 2 81c0 23.333 -0.666992 43.833 -2 61.5s-4.66602 32.5 -9.99902 44.5
c-10.667 24.667 -27.667 37 -51 37c-26 0 -44.667 -12.333 -56 -37c-6.66699 -15.333 -10.334 -33.166 -11.001 -53.499s-1 -43.5 -1 -69.5z" />
    <glyph glyph-name="guillemotright" unicode="&#xbb;" horiz-adv-x="1157" 
d="M94 57l264 424l-264 424h277l268 -424l-268 -424h-277zM539 57l264 424l-264 424h274l268 -424l-268 -424h-274z" />
    <glyph glyph-name="onequarter" unicode="&#xbc;" horiz-adv-x="1576" 
d="M145 1108v215l156 102h182v-854h-213v623zM272 -35l758 1495h189l-760 -1495h-187zM840 115v151l252 586h215l-238 -559h98v162h201v-162h62v-178h-62v-117h-201v117h-327z" />
    <glyph glyph-name="onehalf" unicode="&#xbd;" horiz-adv-x="1576" 
d="M133 1108v215l156 102h182v-854h-213v623zM264 -35l758 1495h188l-759 -1495h-187zM897 600c4 42 13.835 79.499 29.502 112.499s36.167 60.333 61.5 82s53.666 38.334 84.999 50.001s65 17.5 101 17.5c84.667 0 150.834 -20.167 198.501 -60.5s71.5 -97.833 71.5 -172.5
c0 -34 -5.83301 -65.833 -17.5 -95.5s-28.5 -59.5 -50.5 -89.5l-192 -258h250v-188h-529v166l299 383c16.667 22 25 46.667 25 74c0 15.333 -4.5 28.333 -13.5 39s-22.833 16 -41.5 16c-16.667 0 -31.834 -7.5 -45.501 -22.5s-21.834 -41.833 -24.501 -80.5z" />
    <glyph glyph-name="threequarters" unicode="&#xbe;" horiz-adv-x="1576" 
d="M111 807l202.003 23.998c2.66699 -31.333 11.167 -51.666 25.5 -60.999s27.833 -14 40.5 -14c16.667 0 29.334 3 38.001 9s15 13.833 19 23.5s6.33301 20 7 31s1 20.5 1 28.5c0 23.333 -4 43.5 -12 60.5s-26.333 25.5 -55 25.5h-76v160h68c30 0 49.667 8.16699 59 24.5
s14 36.833 14 61.5c0 13.333 -3.33301 28.166 -10 44.499s-23.667 24.5 -51 24.5c-13.333 0 -27 -6.5 -41 -19.5s-22.333 -37.167 -25 -72.5l-200 31c10.667 78 41.667 138.833 93 182.5s111.666 65.5 180.999 65.5c49.333 0 90.666 -6.83301 123.999 -20.5
s61 -31.834 83 -54.501s37.667 -49.667 47 -81s14 -64 14 -98c0 -27.333 -6.5 -58.166 -19.5 -92.499s-36.5 -59.5 -70.5 -75.5c38 -13.333 63.333 -36.833 76 -70.5s19 -69.5 19 -107.5c0 -79.333 -23 -144.333 -69 -195s-116 -76 -210 -76
c-32.667 0 -64.334 4.83301 -95.001 14.5s-58.334 24.334 -83.001 44.001s-45.5 44.834 -62.5 75.501s-27.5 66.667 -31.5 108zM352.003 -35.002l758 1495h188l-759 -1495h-187zM877.003 114.998v151l251 586h215l-237 -559h98v162h201v-162h61v-178h-61v-117h-201v117h-327
z" />
    <glyph glyph-name="questiondown" unicode="&#xbf;" horiz-adv-x="933" 
d="M111 -31c0 60 7.5 108.833 22.5 146.5s33.833 73.5 56.5 107.5c18 26 36.833 51.333 56.5 76s38.167 50.334 55.5 77.001s31.666 54.667 42.999 84s17 61.666 17 96.999v61h287v-94c0 -62.667 -13 -121 -39 -175s-54.667 -104.667 -86 -152
c-27.333 -40.667 -51.166 -79.834 -71.499 -117.501s-30.5 -74.5 -30.5 -110.5c0 -35.333 9.83301 -64 29.5 -86s47.5 -33 83.5 -33c34 0 62.833 13 86.5 39s36.167 70.667 37.5 134c48 -6.66699 95.5 -12.5 142.5 -17.5l142.5 -15.5c-4 -65.333 -18 -124 -42 -176
s-54.667 -95.5 -92 -130.5s-81 -61.667 -131 -80s-103.667 -27.5 -161 -27.5c-134 0 -235.333 35.833 -304 107.5s-103 166.834 -103 285.501zM365 739v273h282v-273h-282z" />
    <glyph glyph-name="Agrave" unicode="&#xc0;" horiz-adv-x="1136" 
d="M6 0l412 1425h295l411 -1425h-319l-70 291h-338l-37.5 -145.5l-40.5 -145.5h-313zM182 1686l172 204l355 -264l-107 -139zM463 555h205l-39 203l-58 284h-10l-57 -282z" />
    <glyph glyph-name="Aacute" unicode="&#xc1;" horiz-adv-x="1136" 
d="M6 0l412 1425h295l411 -1425h-319l-70 291h-338l-37.5 -145.5l-40.5 -145.5h-313zM412 1626l354 264l172 -204l-420 -199zM463 555h205l-39 203l-58 284h-10l-57 -282z" />
    <glyph glyph-name="Acircumflex" unicode="&#xc2;" horiz-adv-x="1136" 
d="M6 0l412 1425h295l411 -1425h-319l-70 291h-338l-37.5 -145.5l-40.5 -145.5h-313zM186 1591l291 271h180l287 -271l-104 -108l-275 162l-276 -162zM463 555h205l-39 203l-58 284h-10l-57 -282z" />
    <glyph glyph-name="Atilde" unicode="&#xc3;" horiz-adv-x="1136" 
d="M6 0l412 1425h295l411 -1425h-319l-70 291h-338l-37.5 -145.5l-40.5 -145.5h-313zM166 1569c32.667 74 70.498 127.999 113.498 161.999s89.833 51 140.5 51c24.667 0 48.167 -4.83301 70.5 -14.5s43.833 -19.667 64.5 -30l57.5 -28.5
c17.667 -8.66699 34.167 -13 49.5 -13c22 0 41.833 6.16699 59.5 18.5s39.834 35.5 66.501 69.5c23.333 -12 46.333 -24.667 69 -38l69 -40c-35.333 -78 -72.166 -133 -110.499 -165s-79.5 -48 -123.5 -48c-26 0 -50.5 4.5 -73.5 13.5s-45.5 18.5 -67.5 28.5l-61.5 28.5
c-19 9 -37.5 13.5 -55.5 13.5c-20.667 0 -41.5 -6.16699 -62.5 -18.5s-45.167 -36.166 -72.5 -71.499zM462.998 554.999h205l-39 203l-58 284h-10l-57 -282z" />
    <glyph glyph-name="Adieresis" unicode="&#xc4;" horiz-adv-x="1136" 
d="M6 0l412 1425h295l411 -1425h-319l-70 291h-338l-37.5 -145.5l-40.5 -145.5h-313zM225 1509v269h279v-269h-279zM463 555h205l-39 203l-58 284h-10l-57 -282zM625 1509v269h276v-269h-276z" />
    <glyph glyph-name="Aring" unicode="&#xc5;" horiz-adv-x="1136" 
d="M6 0l412 1425h78c-48 15.333 -86.667 42 -116 80s-44 82.333 -44 133c0 30 6.16699 58.667 18.5 86s28.666 51.333 48.999 72s44.5 36.834 72.5 48.501s58.333 17.5 91 17.5s63 -5.83301 91 -17.5s52.333 -27.834 73 -48.501s36.834 -44.667 48.501 -72
s17.5 -56 17.5 -86c0 -50.667 -15 -95 -45 -133s-69 -64.667 -117 -80h78l411 -1425h-319l-70 291h-338l-37.5 -145.5l-40.5 -145.5h-313zM463 555h205l-39 203l-58 284h-10l-57 -282zM494 1636c0 -19.333 7.16699 -35.666 21.5 -48.999s31.5 -20 51.5 -20
c19.333 0 36.166 6.66699 50.499 20s21.5 29.666 21.5 48.999s-7.16699 35.833 -21.5 49.5s-31.166 20.5 -50.499 20.5c-20.667 0 -38 -6.83301 -52 -20.5s-21 -30.167 -21 -49.5z" />
    <glyph glyph-name="AE" unicode="&#xc6;" horiz-adv-x="1775" 
d="M53 0l633 1425h1010v-274h-535v-295h459v-272h-459v-303h535v-281h-832v307h-352l-125 -307h-334zM621 578h243v571h-8z" />
    <glyph glyph-name="Ccedilla" unicode="&#xc7;" horiz-adv-x="1052" 
d="M92 471l0.00195312 508.003c0 53.333 8.16699 107 24.5 161s42.666 102.833 78.999 146.5s83.5 79.5 141.5 107.5s128.667 42 212 42c65.333 0 124 -10 176 -30s96.333 -46.333 133 -79s66.667 -70.5 90 -113.5s39.666 -87.833 48.999 -134.5l-280 -84
c-2.66699 13.333 -7.16699 29.333 -13.5 48s-16.333 35.5 -30 50.5s-30.667 28 -51 39s-44.833 16.5 -73.5 16.5c-30 0 -55.333 -5.16699 -76 -15.5s-37 -23.333 -49 -39s-20.833 -32.667 -26.5 -51s-8.5 -35.833 -8.5 -52.5v-528c0 -54.667 12 -99.834 36 -135.501
s65.333 -53.5 124 -53.5c40.667 0 76.834 13.333 108.501 40s50.167 63.334 55.5 110.001l282 -82c-19.333 -105.333 -65.833 -188.666 -139.5 -249.999s-163.5 -95.333 -269.5 -102l-21 -64c36.667 -4 67 -12.5 91 -25.5s43.5 -28 58.5 -45s25.667 -35.333 32 -55
s9.5 -38.5 9.5 -56.5c0 -50.667 -17.833 -94 -53.5 -130s-92.5 -54 -170.5 -54c-36.667 1.33301 -73.667 4.66602 -111 9.99902s-73.333 17.666 -108 36.999l47 125c31.333 -15.333 57.333 -25 78 -29s40.667 -6 60 -6c20.667 0 38 5.83301 52 17.5s21 26.167 21 43.5
c0 19.333 -5.66699 33.5 -17 42.5s-25.333 13.5 -42 13.5c-10.667 0 -20.334 -2.33301 -29.001 -7c-12 8 -24.167 15.5 -36.5 22.5s-24.5 14.833 -36.5 23.5l21 70.5c7.33301 23.667 15.333 47.167 24 70.5c-64 9.33301 -119 28.666 -165 57.999s-83.667 65.5 -113 108.5
s-50.833 91.167 -64.5 144.5s-20.5 108.666 -20.5 165.999z" />
    <glyph glyph-name="Egrave" unicode="&#xc8;" 
d="M125 0v1425h829v-274h-532v-295h459v-272h-459v-303h532v-281h-829zM164 1686l172 204l354 -264l-106 -139z" />
    <glyph glyph-name="Eacute" unicode="&#xc9;" 
d="M125 0v1425h829v-274h-532v-295h459v-272h-459v-303h532v-281h-829zM350 1626l355 264l172 -204l-420 -199z" />
    <glyph glyph-name="Ecircumflex" unicode="&#xca;" 
d="M125 0v1425h829v-274h-532v-295h459v-272h-459v-303h532v-281h-829zM158 1591l291 271h180l286 -271l-104 -108l-274 162l-277 -162z" />
    <glyph glyph-name="Edieresis" unicode="&#xcb;" 
d="M125 0v1425h829v-274h-532v-295h459v-272h-459v-303h532v-281h-829zM182 1491v266h273v-266h-273zM584 1491v266h274v-266h-274z" />
    <glyph glyph-name="Igrave" unicode="&#xcc;" horiz-adv-x="548" 
d="M-111 1686l172 204l355 -264l-107 -139zM129 0v1425h297v-1425h-297z" />
    <glyph glyph-name="Iacute" unicode="&#xcd;" horiz-adv-x="548" 
d="M111 1626l354 264l172 -204l-420 -199zM129 0v1425h297v-1425h-297z" />
    <glyph glyph-name="Icircumflex" unicode="&#xce;" horiz-adv-x="548" 
d="M-96 1591l291 271h180l287 -271l-105 -108l-274 162l-277 -162zM129 0v1425h297v-1425h-297z" />
    <glyph glyph-name="Idieresis" unicode="&#xcf;" horiz-adv-x="548" 
d="M-61 1491v266h272v-266h-272zM129 0v1425h297v-1425h-297zM340 1491v266h274v-266h-274z" />
    <glyph glyph-name="Eth" unicode="&#xd0;" horiz-adv-x="1130" 
d="M33 633v179.998h92v612h471c95.333 0 176.833 -17.667 244.5 -53s117.167 -94 148.5 -176c19.333 -48 30.666 -107.167 33.999 -177.5s5 -148.5 5 -234.5c0 -124 -0.666992 -229.333 -2 -316s-13.666 -160.667 -36.999 -222c-18 -48 -40.833 -87.667 -68.5 -119
s-60 -56.166 -97 -74.499s-77 -31.666 -120 -39.999s-87.833 -12.5 -134.5 -12.5h-444v633h-92zM420 273.998l125 0.000976562c75.333 0 125.5 19.167 150.5 57.5s37.5 90.833 37.5 157.5v345c0 40.667 -2 80.167 -6 118.5s-12.5 72.166 -25.5 101.499
s-32.167 52.5 -57.5 69.5s-59 25.5 -101 25.5h-123v-336h192v-180h-192v-359z" />
    <glyph glyph-name="Ntilde" unicode="&#xd1;" horiz-adv-x="1220" 
d="M121 0v1425h262l233 -426l187 -344l6 2v768h295v-1425h-260l-264 475l-156 301l-6 -2v-774h-297zM213 1565c32.667 74 70.5 127.999 113.5 161.999s89.833 51 140.5 51c24.667 0 48.167 -4.83301 70.5 -14.5s43.833 -19.667 64.5 -30l57.5 -28.5
c17.667 -8.66699 34.167 -13 49.5 -13c22 0 41.833 6.16699 59.5 18.5s40.167 35.5 67.5 69.5c23.333 -12 46.166 -24.667 68.499 -38l68.5 -40c-35.333 -78 -72.166 -133 -110.499 -165s-79.5 -48 -123.5 -48c-26 0 -50.5 4.5 -73.5 13.5s-45.5 18.5 -67.5 28.5l-61.5 28.5
c-19 9 -37.5 13.5 -55.5 13.5c-20.667 0 -41.5 -6.16699 -62.5 -18.5s-45.167 -36.166 -72.5 -71.499z" />
    <glyph glyph-name="Ograve" unicode="&#xd2;" horiz-adv-x="1095" 
d="M90 471l-0.00195312 508c0 53.333 8.16699 107 24.5 161s43 102.833 80 146.5s84.5 79.5 142.5 107.5s128.667 42 212 42c78 0 145.667 -13.333 203 -40s104.333 -61.5 141 -104.5s64.334 -91.833 83.001 -146.5s28 -110 28 -166v-530
c0 -70.667 -11.333 -134.5 -34 -191.5s-54.167 -105.667 -94.5 -146s-88.166 -71 -143.499 -92s-116.333 -31.5 -183 -31.5c-82 0 -152 13 -210 39s-105.5 61.167 -142.5 105.5s-64 95.833 -81 154.5s-25.5 120 -25.5 184zM167.998 1686l172 204l354 -264l-106 -139z
M384.998 463c0 -54.667 12.667 -99.833 38 -135.5s67.333 -53.5 126 -53.5c42 0 78.5 13.667 109.5 41s46.5 65 46.5 113v563c0 13.333 -2.5 29 -7.5 47s-13.667 35.167 -26 51.5s-28.333 30.333 -48 42s-44.5 17.5 -74.5 17.5s-55.333 -5.16699 -76 -15.5
s-37.5 -23.333 -50.5 -39s-22.5 -32.667 -28.5 -51s-9 -35.833 -9 -52.5v-528z" />
    <glyph glyph-name="Oacute" unicode="&#xd3;" horiz-adv-x="1095" 
d="M90 471l-0.00195312 508c0 53.333 8.16699 107 24.5 161s43 102.833 80 146.5s84.5 79.5 142.5 107.5s128.667 42 212 42c78 0 145.667 -13.333 203 -40s104.333 -61.5 141 -104.5s64.334 -91.833 83.001 -146.5s28 -110 28 -166v-530
c0 -70.667 -11.333 -134.5 -34 -191.5s-54.167 -105.667 -94.5 -146s-88.166 -71 -143.499 -92s-116.333 -31.5 -183 -31.5c-82 0 -152 13 -210 39s-105.5 61.167 -142.5 105.5s-64 95.833 -81 154.5s-25.5 120 -25.5 184zM384.998 463c0 -54.667 12.667 -99.833 38 -135.5
s67.333 -53.5 126 -53.5c42 0 78.5 13.667 109.5 41s46.5 65 46.5 113v563c0 13.333 -2.5 29 -7.5 47s-13.667 35.167 -26 51.5s-28.333 30.333 -48 42s-44.5 17.5 -74.5 17.5s-55.333 -5.16699 -76 -15.5s-37.5 -23.333 -50.5 -39s-22.5 -32.667 -28.5 -51
s-9 -35.833 -9 -52.5v-528zM405.998 1626l354 264l172 -204l-420 -199z" />
    <glyph glyph-name="Ocircumflex" unicode="&#xd4;" horiz-adv-x="1095" 
d="M90 471l-0.00195312 508c0 53.333 8.16699 107 24.5 161s43 102.833 80 146.5s84.5 79.5 142.5 107.5s128.667 42 212 42c78 0 145.667 -13.333 203 -40s104.333 -61.5 141 -104.5s64.334 -91.833 83.001 -146.5s28 -110 28 -166v-530
c0 -70.667 -11.333 -134.5 -34 -191.5s-54.167 -105.667 -94.5 -146s-88.166 -71 -143.499 -92s-116.333 -31.5 -183 -31.5c-82 0 -152 13 -210 39s-105.5 61.167 -142.5 105.5s-64 95.833 -81 154.5s-25.5 120 -25.5 184zM157.998 1591l291 271h180l286 -271l-104 -108
l-274 162l-277 -162zM384.998 463c0 -54.667 12.667 -99.833 38 -135.5s67.333 -53.5 126 -53.5c42 0 78.5 13.667 109.5 41s46.5 65 46.5 113v563c0 13.333 -2.5 29 -7.5 47s-13.667 35.167 -26 51.5s-28.333 30.333 -48 42s-44.5 17.5 -74.5 17.5
s-55.333 -5.16699 -76 -15.5s-37.5 -23.333 -50.5 -39s-22.5 -32.667 -28.5 -51s-9 -35.833 -9 -52.5v-528z" />
    <glyph glyph-name="Otilde" unicode="&#xd5;" horiz-adv-x="1095" 
d="M90 471l-0.00195312 508c0 53.333 8.16699 107 24.5 161s43 102.833 80 146.5s84.5 79.5 142.5 107.5s128.667 42 212 42c78 0 145.667 -13.333 203 -40s104.333 -61.5 141 -104.5s64.334 -91.833 83.001 -146.5s28 -110 28 -166v-530
c0 -70.667 -11.333 -134.5 -34 -191.5s-54.167 -105.667 -94.5 -146s-88.166 -71 -143.499 -92s-116.333 -31.5 -183 -31.5c-82 0 -152 13 -210 39s-105.5 61.167 -142.5 105.5s-64 95.833 -81 154.5s-25.5 120 -25.5 184zM165.998 1569
c32.667 74 70.498 127.999 113.498 161.999s89.833 51 140.5 51c24.667 0 48.167 -4.83301 70.5 -14.5s43.833 -19.667 64.5 -30l57.5 -28.5c17.667 -8.66699 34.167 -13 49.5 -13c22 0 41.833 6.16699 59.5 18.5s39.834 35.5 66.501 69.5c23.333 -12 46.333 -24.667 69 -38
l69 -40c-35.333 -78 -72.166 -133 -110.499 -165s-79.5 -48 -123.5 -48c-26 0 -50.5 4.5 -73.5 13.5s-45.5 18.5 -67.5 28.5l-61.5 28.5c-19 9 -37.5 13.5 -55.5 13.5c-20.667 0 -41.5 -6.16699 -62.5 -18.5s-45.167 -36.166 -72.5 -71.499zM384.996 462.999
c0 -54.667 12.667 -99.833 38 -135.5s67.333 -53.5 126 -53.5c42 0 78.5 13.667 109.5 41s46.5 65 46.5 113v563c0 13.333 -2.5 29 -7.5 47s-13.667 35.167 -26 51.5s-28.333 30.333 -48 42s-44.5 17.5 -74.5 17.5s-55.333 -5.16699 -76 -15.5s-37.5 -23.333 -50.5 -39
s-22.5 -32.667 -28.5 -51s-9 -35.833 -9 -52.5v-528z" />
    <glyph glyph-name="Odieresis" unicode="&#xd6;" horiz-adv-x="1095" 
d="M90 471l-0.00195312 508c0 53.333 8.16699 107 24.5 161s43 102.833 80 146.5s84.5 79.5 142.5 107.5s128.667 42 212 42c78 0 145.667 -13.333 203 -40s104.333 -61.5 141 -104.5s64.334 -91.833 83.001 -146.5s28 -110 28 -166v-530
c0 -70.667 -11.333 -134.5 -34 -191.5s-54.167 -105.667 -94.5 -146s-88.166 -71 -143.499 -92s-116.333 -31.5 -183 -31.5c-82 0 -152 13 -210 39s-105.5 61.167 -142.5 105.5s-64 95.833 -81 154.5s-25.5 120 -25.5 184zM220.998 1509v269h279v-269h-279zM384.998 463
c0 -54.667 12.667 -99.833 38 -135.5s67.333 -53.5 126 -53.5c42 0 78.5 13.667 109.5 41s46.5 65 46.5 113v563c0 13.333 -2.5 29 -7.5 47s-13.667 35.167 -26 51.5s-28.333 30.333 -48 42s-44.5 17.5 -74.5 17.5s-55.333 -5.16699 -76 -15.5s-37.5 -23.333 -50.5 -39
s-22.5 -32.667 -28.5 -51s-9 -35.833 -9 -52.5v-528zM620.998 1509v269h276v-269h-276z" />
    <glyph glyph-name="multiply" unicode="&#xd7;" 
d="M49 915l166 162l295 -301l291 287l166 -172l-289 -285l295 -301l-166 -162l-295 301l-293 -286l-166 168l293 288z" />
    <glyph glyph-name="Oslash" unicode="&#xd8;" horiz-adv-x="1095" 
d="M84 43l79.999 132.999c-26 42 -44.833 88 -56.5 138s-17.5 102.333 -17.5 157v508c0 53.333 8.16699 107 24.5 161s43 102.833 80 146.5s84.5 79.5 142.5 107.5s128.667 42 212 42c65.333 0 123.333 -9.66699 174 -29s94.334 -44.666 131.001 -75.999l64 107l88 -58
l-80 -133c26 -39.333 45.5 -81.833 58.5 -127.5s19.5 -92.5 19.5 -140.5v-530c0 -70.667 -11.333 -134.5 -34 -191.5s-54.167 -105.667 -94.5 -146s-88.166 -71 -143.499 -92s-116.333 -31.5 -183 -31.5c-70.667 0 -132.334 9.5 -185.001 28.5s-97.667 45.5 -135 79.5
l-63 -106zM384.999 546.999l305 510c-10.667 23.333 -27 44.5 -49 63.5s-52.667 28.5 -92 28.5c-30 0 -55.333 -5.16699 -76 -15.5s-37.5 -23.333 -50.5 -39s-22.5 -32.667 -28.5 -51s-9 -35.833 -9 -52.5v-444zM396.999 374.999c10.667 -31.333 28.333 -56 53 -74
s57.667 -27 99 -27c42 0 78.5 13.667 109.5 41s46.5 65 46.5 113v453z" />
    <glyph glyph-name="Ugrave" unicode="&#xd9;" horiz-adv-x="1128" 
d="M109 471l-0.000976562 954.001h294v-962c0 -54.667 12.667 -99.834 38 -135.501s67.333 -53.5 126 -53.5c42 0 78.5 14.667 109.5 44s46.5 68 46.5 116v991h299v-976c0 -70.667 -11.333 -134.5 -34 -191.5s-54 -105.667 -94 -146s-87.667 -71 -143 -92
s-116.666 -31.5 -183.999 -31.5c-82 0 -152 13 -210 39s-105.333 61.167 -142 105.5s-63.5 95.833 -80.5 154.5s-25.5 120 -25.5 184zM181.999 1686l172 204l355 -264l-107 -139z" />
    <glyph glyph-name="Uacute" unicode="&#xda;" horiz-adv-x="1128" 
d="M109 471l-0.000976562 954.001h294v-962c0 -54.667 12.667 -99.834 38 -135.501s67.333 -53.5 126 -53.5c42 0 78.5 14.667 109.5 44s46.5 68 46.5 116v991h299v-976c0 -70.667 -11.333 -134.5 -34 -191.5s-54 -105.667 -94 -146s-87.667 -71 -143 -92
s-116.666 -31.5 -183.999 -31.5c-82 0 -152 13 -210 39s-105.333 61.167 -142 105.5s-63.5 95.833 -80.5 154.5s-25.5 120 -25.5 184zM390.999 1626l354 264l173 -204l-420 -199z" />
    <glyph glyph-name="Ucircumflex" unicode="&#xdb;" horiz-adv-x="1128" 
d="M109 471l-0.000976562 954.001h294v-962c0 -54.667 12.667 -99.834 38 -135.501s67.333 -53.5 126 -53.5c42 0 78.5 14.667 109.5 44s46.5 68 46.5 116v991h299v-976c0 -70.667 -11.333 -134.5 -34 -191.5s-54 -105.667 -94 -146s-87.667 -71 -143 -92
s-116.666 -31.5 -183.999 -31.5c-82 0 -152 13 -210 39s-105.333 61.167 -142 105.5s-63.5 95.833 -80.5 154.5s-25.5 120 -25.5 184zM169.999 1591l291 271h180l287 -271l-105 -108l-274 162l-277 -162z" />
    <glyph glyph-name="Udieresis" unicode="&#xdc;" horiz-adv-x="1128" 
d="M109 471l-0.000976562 954.001h294v-962c0 -54.667 12.667 -99.834 38 -135.501s67.333 -53.5 126 -53.5c42 0 78.5 14.667 109.5 44s46.5 68 46.5 116v991h299v-976c0 -70.667 -11.333 -134.5 -34 -191.5s-54 -105.667 -94 -146s-87.667 -71 -143 -92
s-116.666 -31.5 -183.999 -31.5c-82 0 -152 13 -210 39s-105.333 61.167 -142 105.5s-63.5 95.833 -80.5 154.5s-25.5 120 -25.5 184zM226.999 1509v269h279v-269h-279zM626.999 1509v269h276v-269h-276z" />
    <glyph glyph-name="Yacute" unicode="&#xdd;" horiz-adv-x="1044" 
d="M10 1430h330l94 -291l84 -273h12l88 275l105 284h315l-368 -854v-571h-291v571zM365 1626l354 264l172 -204l-420 -199z" />
    <glyph glyph-name="Thorn" unicode="&#xde;" horiz-adv-x="1062" 
d="M125 0l-0.000976562 1425h295v-249h158c66.667 0 128.334 -9 185.001 -27s105.167 -45.333 145.5 -82s71.666 -83.334 93.999 -140.001s33.5 -124 33.5 -202c0 -68 -10.167 -130 -30.5 -186s-49.666 -103.833 -87.999 -143.5s-84.833 -70.5 -139.5 -92.5
s-116 -33 -184 -33h-172v-270h-297zM421.999 547.001h158c44 0 82.5 13.667 115.5 41s49.5 74.333 49.5 141c0 61.333 -15 105.333 -45 132s-70.667 40 -122 40h-156v-354z" />
    <glyph glyph-name="germandbls" unicode="&#xdf;" horiz-adv-x="1019" 
d="M106 0l-0.000976562 1057c0 66.667 7.66699 126.334 23 179.001s38.666 97.334 69.999 134.001s71.5 65 120.5 85s108.5 30 178.5 30c66.667 0 124.167 -9.66699 172.5 -29s88.333 -44.666 120 -75.999s55 -68.5 70 -111.5s22.5 -87.5 22.5 -133.5
c0 -57.333 -10 -111 -30 -161s-49.667 -85.333 -89 -106v-8c40.667 -16.667 72.334 -39.5 95.001 -68.5s39.5 -60.667 50.5 -95s17.5 -68.833 19.5 -103.5s3 -66.334 3 -95.001c0 -65.333 -4.5 -128.5 -13.5 -189.5s-27.167 -115 -54.5 -162s-66.5 -84.833 -117.5 -113.5
s-118.833 -43 -203.5 -43h-24.5c-8.33301 0 -16.5 0.666992 -24.5 2v241c60 0 99.167 24 117.5 72s27.5 118.333 27.5 211c0 23.333 -1 48 -3 74s-7.16699 50.167 -15.5 72.5s-20.666 41 -36.999 56s-38.833 22.5 -67.5 22.5v215c34 0 57.5 11.667 70.5 35
s19.5 53.333 19.5 90c0 12 -0.666992 26.667 -2 44s-5.33301 33.833 -12 49.5s-16.5 28.667 -29.5 39s-31.833 15.5 -56.5 15.5s-44.5 -4.83301 -59.5 -14.5s-26.333 -22.334 -34 -38.001s-12.5 -33.334 -14.5 -53.001s-3 -40.5 -3 -62.5v-1061h-289z" />
    <glyph glyph-name="agrave" unicode="&#xe0;" horiz-adv-x="946" 
d="M66 303c0 42 7.16504 81.8311 21.498 119.498s35.833 70.834 64.5 99.501s64.5 51.167 107.5 67.5s93.833 24.5 152.5 24.5h163v60c0 22 -8.16699 43.833 -24.5 65.5s-47.5 32.5 -93.5 32.5c-35.333 0 -66.666 -5.83301 -93.999 -17.5s-50.666 -33.834 -69.999 -66.501
l-207 131c38 75.333 89.5 128.333 154.5 159s139.833 46 224.5 46c57.333 0 110.5 -5.5 159.5 -16.5s91 -29.167 126 -54.5s62.333 -58.666 82 -99.999s29.5 -93.666 29.5 -156.999v-696h-287v82l-8 2c-26 -34 -58.667 -58.167 -98 -72.5s-75 -21.5 -107 -21.5
c-100 0 -174.333 26.667 -223 80s-73 131 -73 233zM204.998 1464l248 103l198 -389l-157 -84zM343.998 323.998c0 -19.333 7.83301 -38.168 23.5 -56.501s44.167 -27.5 85.5 -27.5c32.667 0 61.167 9.5 85.5 28.5s36.5 46.833 36.5 83.5v62h-124
c-38 0 -65.333 -8.16699 -82 -24.5s-25 -38.166 -25 -65.499z" />
    <glyph glyph-name="aacute" unicode="&#xe1;" horiz-adv-x="946" 
d="M66 303c0 42 7.16504 81.8311 21.498 119.498s35.833 70.834 64.5 99.501s64.5 51.167 107.5 67.5s93.833 24.5 152.5 24.5h163v60c0 22 -8.16699 43.833 -24.5 65.5s-47.5 32.5 -93.5 32.5c-35.333 0 -66.666 -5.83301 -93.999 -17.5s-50.666 -33.834 -69.999 -66.501
l-207 131c38 75.333 89.5 128.333 154.5 159s139.833 46 224.5 46c57.333 0 110.5 -5.5 159.5 -16.5s91 -29.167 126 -54.5s62.333 -58.666 82 -99.999s29.5 -93.666 29.5 -156.999v-696h-287v82l-8 2c-26 -34 -58.667 -58.167 -98 -72.5s-75 -21.5 -107 -21.5
c-100 0 -174.333 26.667 -223 80s-73 131 -73 233zM343.998 323.998c0 -19.333 7.83301 -38.168 23.5 -56.501s44.167 -27.5 85.5 -27.5c32.667 0 61.167 9.5 85.5 28.5s36.5 46.833 36.5 83.5v62h-124c-38 0 -65.333 -8.16699 -82 -24.5s-25 -38.166 -25 -65.499z
M355.998 1167l191 400l246 -99l-277 -374z" />
    <glyph glyph-name="acircumflex" unicode="&#xe2;" horiz-adv-x="946" 
d="M66 303c0 42 7.16504 81.8311 21.498 119.498s35.833 70.834 64.5 99.501s64.5 51.167 107.5 67.5s93.833 24.5 152.5 24.5h163v60c0 22 -8.16699 43.833 -24.5 65.5s-47.5 32.5 -93.5 32.5c-35.333 0 -66.666 -5.83301 -93.999 -17.5s-50.666 -33.834 -69.999 -66.501
l-207 131c38 75.333 89.5 128.333 154.5 159s139.833 46 224.5 46c57.333 0 110.5 -5.5 159.5 -16.5s91 -29.167 126 -54.5s62.333 -58.666 82 -99.999s29.5 -93.666 29.5 -156.999v-696h-287v82l-8 2c-26 -34 -58.667 -58.167 -98 -72.5s-75 -21.5 -107 -21.5
c-100 0 -174.333 26.667 -223 80s-73 131 -73 233zM110.998 1159l288 322h187l282 -320l-110 -100l-269 203c-12 -8 -30.667 -21.667 -56 -41l-80 -61l-78.5 -59.5c-24.333 -18.333 -42.833 -31.5 -55.5 -39.5zM343.998 323.998c0 -19.333 7.83301 -38.168 23.5 -56.501
s44.167 -27.5 85.5 -27.5c32.667 0 61.167 9.5 85.5 28.5s36.5 46.833 36.5 83.5v62h-124c-38 0 -65.333 -8.16699 -82 -24.5s-25 -38.166 -25 -65.499z" />
    <glyph glyph-name="atilde" unicode="&#xe3;" horiz-adv-x="946" 
d="M66 303c0 42 7.16504 81.8311 21.498 119.498s35.833 70.834 64.5 99.501s64.5 51.167 107.5 67.5s93.833 24.5 152.5 24.5h163v60c0 22 -8.16699 43.833 -24.5 65.5s-47.5 32.5 -93.5 32.5c-35.333 0 -66.666 -5.83301 -93.999 -17.5s-50.666 -33.834 -69.999 -66.501
l-207 131c38 75.333 89.5 128.333 154.5 159s139.833 46 224.5 46c57.333 0 110.5 -5.5 159.5 -16.5s91 -29.167 126 -54.5s62.333 -58.666 82 -99.999s29.5 -93.666 29.5 -156.999v-696h-287v82l-8 2c-26 -34 -58.667 -58.167 -98 -72.5s-75 -21.5 -107 -21.5
c-100 0 -174.333 26.667 -223 80s-73 131 -73 233zM101.998 1221c32.667 74 70.4971 127.999 113.497 161.999s89.833 51 140.5 51c24.667 0 48.334 -4.83301 71.001 -14.5s44.167 -19.667 64.5 -30l57 -28.5c17.667 -8.66699 34.167 -13 49.5 -13c22 0 41.833 6 59.5 18
s40.167 35.333 67.5 70c23.333 -12 46.166 -24.667 68.499 -38l68.5 -40c-35.333 -78 -72.166 -133 -110.499 -165s-79.166 -48 -122.499 -48c-26 0 -50.667 4.33301 -74 13s-45.833 18.167 -67.5 28.5l-61.5 29c-19.333 9 -37.666 13.5 -54.999 13.5
c-20.667 0 -41.667 -6.16699 -63 -18.5s-45.333 -36.166 -72 -71.499zM343.995 323.997c0 -19.333 7.83301 -38.168 23.5 -56.501s44.167 -27.5 85.5 -27.5c32.667 0 61.167 9.5 85.5 28.5s36.5 46.833 36.5 83.5v62h-124c-38 0 -65.333 -8.16699 -82 -24.5
s-25 -38.166 -25 -65.499z" />
    <glyph glyph-name="adieresis" unicode="&#xe4;" horiz-adv-x="946" 
d="M66 303c0 42 7.16504 81.8311 21.498 119.498s35.833 70.834 64.5 99.501s64.5 51.167 107.5 67.5s93.833 24.5 152.5 24.5h163v60c0 22 -8.16699 43.833 -24.5 65.5s-47.5 32.5 -93.5 32.5c-35.333 0 -66.666 -5.83301 -93.999 -17.5s-50.666 -33.834 -69.999 -66.501
l-207 131c38 75.333 89.5 128.333 154.5 159s139.833 46 224.5 46c57.333 0 110.5 -5.5 159.5 -16.5s91 -29.167 126 -54.5s62.333 -58.666 82 -99.999s29.5 -93.666 29.5 -156.999v-696h-287v82l-8 2c-26 -34 -58.667 -58.167 -98 -72.5s-75 -21.5 -107 -21.5
c-100 0 -174.333 26.667 -223 80s-73 131 -73 233zM157.998 1143v266h272v-266h-272zM343.998 323.998c0 -19.333 7.83301 -38.168 23.5 -56.501s44.167 -27.5 85.5 -27.5c32.667 0 61.167 9.5 85.5 28.5s36.5 46.833 36.5 83.5v62h-124c-38 0 -65.333 -8.16699 -82 -24.5
s-25 -38.166 -25 -65.499zM558.998 1143v266h275v-266h-275z" />
    <glyph glyph-name="aring" unicode="&#xe5;" horiz-adv-x="946" 
d="M66 303c0 42 7.16504 81.8311 21.498 119.498s35.833 70.834 64.5 99.501s64.5 51.167 107.5 67.5s93.833 24.5 152.5 24.5h163v60c0 22 -8.16699 43.833 -24.5 65.5s-47.5 32.5 -93.5 32.5c-35.333 0 -66.666 -5.83301 -93.999 -17.5s-50.666 -33.834 -69.999 -66.501
l-207 131c38 75.333 89.5 128.333 154.5 159s139.833 46 224.5 46c57.333 0 110.5 -5.5 159.5 -16.5s91 -29.167 126 -54.5s62.333 -58.666 82 -99.999s29.5 -93.666 29.5 -156.999v-696h-287v82l-8 2c-26 -34 -58.667 -58.167 -98 -72.5s-75 -21.5 -107 -21.5
c-100 0 -174.333 26.667 -223 80s-73 131 -73 233zM259.998 1294c0 30 6.16699 58.667 18.5 86s28.666 51.333 48.999 72s44.5 36.834 72.5 48.501s58.667 17.5 92 17.5c32.667 0 63 -5.83301 91 -17.5s52.167 -27.834 72.5 -48.501s36.333 -44.667 48 -72
s17.5 -56 17.5 -86c0 -31.333 -5.83301 -60.333 -17.5 -87s-28 -50.167 -49 -70.5s-45.5 -36.333 -73.5 -48s-58.667 -17.5 -92 -17.5c-31.333 0 -61 5.83301 -89 17.5s-52.167 27.667 -72.5 48s-36.666 43.833 -48.999 70.5s-18.5 55.667 -18.5 87zM343.998 323.998
c0 -19.333 7.83301 -38.168 23.5 -56.501s44.167 -27.5 85.5 -27.5c32.667 0 61.167 9.5 85.5 28.5s36.5 46.833 36.5 83.5v62h-124c-38 0 -65.333 -8.16699 -82 -24.5s-25 -38.166 -25 -65.499zM417.998 1292c0 -19.333 7.16699 -35.666 21.5 -48.999s31.833 -20 52.5 -20
c19.333 0 36 6.66699 50 20s21 29.666 21 48.999s-7.16699 35.833 -21.5 49.5s-30.833 20.5 -49.5 20.5c-20.667 0 -38.167 -6.83301 -52.5 -20.5s-21.5 -30.167 -21.5 -49.5z" />
    <glyph glyph-name="ae" unicode="&#xe6;" horiz-adv-x="1447" 
d="M66 303c0 42 7.16406 81.832 21.4971 119.499s35.833 70.834 64.5 99.501s64.5 51.167 107.5 67.5s93.833 24.5 152.5 24.5h163v39c0 10.667 -2.66699 22.667 -8 36s-13.166 25.666 -23.499 36.999s-23.333 21.166 -39 29.499s-34.167 12.5 -55.5 12.5
c-35.333 0 -66.5 -6.5 -93.5 -19.5s-47.833 -33.167 -62.5 -60.5l-207 131c38 75.333 89.5 128.333 154.5 159s139.833 46 224.5 46c54.667 0 106.5 -5.16699 155.5 -15.5s88.5 -33.166 118.5 -68.499c27.333 31.333 61.166 53.5 101.499 66.5s86.5 19.5 138.5 19.5
c82 0 149.333 -13.667 202 -41s94 -63.833 124 -109.5s50.667 -99.167 62 -160.5s17 -127 17 -197v-102h-516c0 -50.667 6.83301 -90.667 20.5 -120s43.834 -44 90.501 -44c28.667 0 54.667 6.5 78 19.5s46.333 36.5 69 70.5l242 -131
c-35.333 -76.667 -86.833 -132.667 -154.5 -168s-142.5 -53 -224.5 -53c-70.667 0 -131 9.83301 -181 29.5s-91.333 48.5 -124 86.5c-32.667 -31.333 -66.167 -55.166 -100.5 -71.499s-66.166 -27.833 -95.499 -34.5s-55.166 -10 -77.499 -10h-48.5
c-100 0 -174.333 26.667 -223 80s-73 131 -73 233zM343.997 323.999c0 -19.333 7.83301 -38.168 23.5 -56.501s44.167 -27.5 85.5 -27.5c32.667 0 61.167 9.5 85.5 28.5s36.5 46.833 36.5 83.5v62h-124c-38 0 -65.333 -8.16699 -82 -24.5s-25 -38.166 -25 -65.499z
M867.997 617.997l219 0.000976562c0 18 -1.33301 35.833 -4 53.5s-8 33.334 -16 47.001s-19.5 24.667 -34.5 33s-34.167 12.5 -57.5 12.5c-20.667 0 -37.5 -4.5 -50.5 -13.5s-23.5 -20.333 -31.5 -34s-13.833 -29.334 -17.5 -47.001s-6.16699 -34.834 -7.5 -51.501z" />
    <glyph glyph-name="ccedilla" unicode="&#xe7;" horiz-adv-x="864" 
d="M59 502c0 74 6.5 143.002 19.5 207.002s34.833 119.5 65.5 166.5s71.334 83.833 122.001 110.5s113.667 40 189 40c86 0 161 -19.833 225 -59.5s109.667 -98.167 137 -175.5l-242 -117c-15.333 32.667 -31 55.834 -47 69.501s-35.667 20.5 -59 20.5
c-52 0 -85.167 -23.833 -99.5 -71.5s-21.5 -111.167 -21.5 -190.5c0 -86 7.83301 -149.167 23.5 -189.5s48.167 -60.5 97.5 -60.5c24.667 0 45.167 7.16699 61.5 21.5s32.166 36.5 47.499 66.5l241 -119c-26 -69.333 -67.333 -123.833 -124 -163.5
s-123.667 -61.5 -201 -65.5l-23 -66c36.667 -4 67 -12.5 91 -25.5s43.5 -28 58.5 -45s25.667 -35.333 32 -55s9.5 -38.5 9.5 -56.5c0 -50.667 -17.833 -94 -53.5 -130s-92.5 -54 -170.5 -54c-36.667 1.33301 -73.834 4.66602 -111.501 9.99902s-73.5 17.666 -107.5 36.999
l47 125c31.333 -15.333 57.333 -25 78 -29s40.334 -6 59.001 -6c20.667 0 38.167 5.83301 52.5 17.5s21.5 26.167 21.5 43.5c0 19.333 -5.83301 33.5 -17.5 42.5s-25.5 13.5 -41.5 13.5c-10.667 0 -20.334 -2.33301 -29.001 -7c-12 8 -24.167 15.5 -36.5 22.5
s-24.833 14.833 -37.5 23.5c6.66699 24.667 14.167 49.167 22.5 73.5l24.5 71.5c-57.333 9.33301 -105.333 28.666 -144 57.999s-69.667 65.833 -93 109.5s-40.166 94.167 -50.499 151.5s-15.5 119 -15.5 185z" />
    <glyph glyph-name="egrave" unicode="&#xe8;" horiz-adv-x="950" 
d="M74 506c0 79.333 6.83496 150.999 20.502 214.999s36.167 118.5 67.5 163.5s73 79.833 125 104.5s116.667 37 194 37c82 0 149 -13.667 201 -41s92.667 -63.833 122 -109.5s49.5 -99.167 60.5 -160.5s16.5 -127 16.5 -197v-80h-516v-16
c0 -23.333 1.33301 -45.166 4 -65.499s8 -38.333 16 -54s19.167 -28 33.5 -37s33.166 -13.5 56.499 -13.5c28.667 0 54.667 6.5 78 19.5s46.666 36.5 69.999 70.5l239 -129c-35.333 -76.667 -87.833 -133 -157.5 -169s-145.5 -54 -227.5 -54
c-75.333 0 -138.5 11.5 -189.5 34.5s-92.5 56.833 -124.5 101.5s-54.833 98.667 -68.5 162s-20.5 136 -20.5 218zM131.002 1464l248 103l199 -389l-158 -84zM365.002 617.999l214.997 0.000976562c0 18 -1.5 35.833 -4.5 53.5s-8.16699 33.334 -15.5 47.001
s-18.166 24.667 -32.499 33s-33.166 12.5 -56.499 12.5c-19.333 0 -35.833 -4.5 -49.5 -13.5s-24.5 -20.333 -32.5 -34s-13.667 -29.334 -17 -47.001s-5.66602 -34.834 -6.99902 -51.501z" />
    <glyph glyph-name="eacute" unicode="&#xe9;" horiz-adv-x="950" 
d="M74 506c0 79.333 6.83496 150.999 20.502 214.999s36.167 118.5 67.5 163.5s73 79.833 125 104.5s116.667 37 194 37c82 0 149 -13.667 201 -41s92.667 -63.833 122 -109.5s49.5 -99.167 60.5 -160.5s16.5 -127 16.5 -197v-80h-516v-16
c0 -23.333 1.33301 -45.166 4 -65.499s8 -38.333 16 -54s19.167 -28 33.5 -37s33.166 -13.5 56.499 -13.5c28.667 0 54.667 6.5 78 19.5s46.666 36.5 69.999 70.5l239 -129c-35.333 -76.667 -87.833 -133 -157.5 -169s-145.5 -54 -227.5 -54
c-75.333 0 -138.5 11.5 -189.5 34.5s-92.5 56.833 -124.5 101.5s-54.833 98.667 -68.5 162s-20.5 136 -20.5 218zM338.002 1167l190 400l246 -99l-276 -374zM365.002 617.999l214.997 0.000976562c0 18 -1.5 35.833 -4.5 53.5s-8.16699 33.334 -15.5 47.001
s-18.166 24.667 -32.499 33s-33.166 12.5 -56.499 12.5c-19.333 0 -35.833 -4.5 -49.5 -13.5s-24.5 -20.333 -32.5 -34s-13.667 -29.334 -17 -47.001s-5.66602 -34.834 -6.99902 -51.501z" />
    <glyph glyph-name="ecircumflex" unicode="&#xea;" horiz-adv-x="950" 
d="M74 506c0 79.333 6.83496 150.999 20.502 214.999s36.167 118.5 67.5 163.5s73 79.833 125 104.5s116.667 37 194 37c82 0 149 -13.667 201 -41s92.667 -63.833 122 -109.5s49.5 -99.167 60.5 -160.5s16.5 -127 16.5 -197v-80h-516v-16
c0 -23.333 1.33301 -45.166 4 -65.499s8 -38.333 16 -54s19.167 -28 33.5 -37s33.166 -13.5 56.499 -13.5c28.667 0 54.667 6.5 78 19.5s46.666 36.5 69.999 70.5l239 -129c-35.333 -76.667 -87.833 -133 -157.5 -169s-145.5 -54 -227.5 -54
c-75.333 0 -138.5 11.5 -189.5 34.5s-92.5 56.833 -124.5 101.5s-54.833 98.667 -68.5 162s-20.5 136 -20.5 218zM94.002 1159l289 322h186l283 -320l-111 -100l-268 203c-12 -8 -30.667 -21.667 -56 -41l-80 -61l-79 -59.5c-24.667 -18.333 -43 -31.5 -55 -39.5z
M365.002 617.999l214.997 0.000976562c0 18 -1.5 35.833 -4.5 53.5s-8.16699 33.334 -15.5 47.001s-18.166 24.667 -32.499 33s-33.166 12.5 -56.499 12.5c-19.333 0 -35.833 -4.5 -49.5 -13.5s-24.5 -20.333 -32.5 -34s-13.667 -29.334 -17 -47.001
s-5.66602 -34.834 -6.99902 -51.501z" />
    <glyph glyph-name="edieresis" unicode="&#xeb;" horiz-adv-x="950" 
d="M74 506c0 79.333 6.83496 150.999 20.502 214.999s36.167 118.5 67.5 163.5s73 79.833 125 104.5s116.667 37 194 37c82 0 149 -13.667 201 -41s92.667 -63.833 122 -109.5s49.5 -99.167 60.5 -160.5s16.5 -127 16.5 -197v-80h-516v-16
c0 -23.333 1.33301 -45.166 4 -65.499s8 -38.333 16 -54s19.167 -28 33.5 -37s33.166 -13.5 56.499 -13.5c28.667 0 54.667 6.5 78 19.5s46.666 36.5 69.999 70.5l239 -129c-35.333 -76.667 -87.833 -133 -157.5 -169s-145.5 -54 -227.5 -54
c-75.333 0 -138.5 11.5 -189.5 34.5s-92.5 56.833 -124.5 101.5s-54.833 98.667 -68.5 162s-20.5 136 -20.5 218zM139.002 1143v266h273v-266h-273zM365.002 617.999l214.997 0.000976562c0 18 -1.5 35.833 -4.5 53.5s-8.16699 33.334 -15.5 47.001
s-18.166 24.667 -32.499 33s-33.166 12.5 -56.499 12.5c-19.333 0 -35.833 -4.5 -49.5 -13.5s-24.5 -20.333 -32.5 -34s-13.667 -29.334 -17 -47.001s-5.66602 -34.834 -6.99902 -51.501zM540.999 1143v266h274v-266h-274z" />
    <glyph glyph-name="igrave" unicode="&#xec;" horiz-adv-x="559" 
d="M-49 1464l248 103l198 -389l-157 -84zM158 0v1014h286v-1014h-286z" />
    <glyph glyph-name="iacute" unicode="&#xed;" horiz-adv-x="518" 
d="M117 0v1014h286v-1014h-286zM139 1167l191 400l245 -99l-276 -374z" />
    <glyph glyph-name="icircumflex" unicode="&#xee;" horiz-adv-x="675" 
d="M-41 1159l289 322h186l283 -320l-111 -100l-268 203c-12 -8 -30.667 -21.667 -56 -41l-80 -61l-79 -59.5c-24.667 -18.333 -43 -31.5 -55 -39.5zM193 0v1014h286v-1014h-286z" />
    <glyph glyph-name="idieresis" unicode="&#xef;" horiz-adv-x="593" 
d="M-41 1143v266h272v-266h-272zM154 0v1014h286v-1014h-286zM360 1143v266h275v-266h-275z" />
    <glyph glyph-name="eth" unicode="&#xf0;" horiz-adv-x="960" 
d="M66 475c0 49.333 3.33594 100.67 10.0029 154.003s17.667 99.666 33 138.999c26 64 66.5 114.5 121.5 151.5s123.5 55.5 205.5 55.5c16.667 0 35.167 -2 55.5 -6s40.5 -9.83301 60.5 -17.5s38.5 -17.334 55.5 -29.001s30.833 -24.167 41.5 -37.5
c1.33301 0 2.66602 0.666992 3.99902 2c-2.66699 48 -6.66699 89.667 -12 125s-19 73.333 -41 114l-102 -86c-13.333 15.333 -27 32.166 -41 50.499s-27.667 35.166 -41 50.499l102 82c-30 23.333 -64.5 41 -103.5 53s-83.5 21 -133.5 27c4 32.667 8.66699 66 14 100
s10 67.333 14 100c101.333 -6.66699 183.666 -23 246.999 -49s110.666 -54.667 141.999 -86l125 100l86 -94l-127 -100c24.667 -32.667 44.167 -74.667 58.5 -126s25.666 -106 33.999 -164s13.5 -117.333 15.5 -178s3 -117 3 -169c0 -48 -2 -96.5 -6 -145.5
s-11.5 -97.167 -22.5 -144.5s-25.667 -91.666 -44 -132.999s-41.166 -78 -68.499 -110c-34 -39.333 -75 -68.5 -123 -87.5s-106.667 -28.5 -176 -28.5c-68 0 -126.333 10.167 -175 30.5s-88 48.833 -118 85.5c-38 48 -63.167 103.5 -75.5 166.5s-18.5 131.167 -18.5 204.5z
M354.003 467.004c0 -60 7.83398 -110.832 23.501 -152.499s44.834 -62.5 87.501 -62.5c39.333 0 67.166 17.667 83.499 53s24.5 96.666 24.5 183.999c0 75.333 -7 130.833 -21 166.5s-43 53.5 -87 53.5c-16.667 0 -31.834 -3.16699 -45.501 -9.5s-25.167 -18.333 -34.5 -36
s-16.833 -42.167 -22.5 -73.5s-8.5 -72.333 -8.5 -123z" />
    <glyph glyph-name="ntilde" unicode="&#xf1;" horiz-adv-x="987" 
d="M68 1221c32.667 74 70.498 127.999 113.498 161.999s89.833 51 140.5 51c24.667 0 48.167 -4.83301 70.5 -14.5s43.666 -19.667 63.999 -30l57.5 -28.5c18 -8.66699 34.333 -13 49 -13c22 0 41.833 6 59.5 18s40.167 35.333 67.5 70c23.333 -12 46.333 -24.667 69 -38
l68 -40c-35.333 -78 -72.166 -133 -110.499 -165s-79.166 -48 -122.499 -48c-26 0 -50.667 4.33301 -74 13s-45.833 18.167 -67.5 28.5l-61.5 29c-19.333 9 -37.666 13.5 -54.999 13.5c-20.667 0 -41.5 -6.16699 -62.5 -18.5s-45.167 -36.166 -72.5 -71.499z
M103.998 -0.000976562v1014h287v-82l8 -2c23.333 27.333 52.5 49.833 87.5 67.5s70.167 26.5 105.5 26.5c102.667 0 177.167 -28 223.5 -84s69.5 -131.667 69.5 -227v-713h-287v641c0 39.333 -9.83301 68.333 -29.5 87s-43.167 28 -70.5 28c-30 0 -55.333 -10 -76 -30
s-31 -49 -31 -87v-639h-287z" />
    <glyph glyph-name="ograve" unicode="&#xf2;" horiz-adv-x="940" 
d="M74 504c1.33301 57.333 4.66797 114.999 10.001 172.999s15.666 104.667 30.999 140c28.667 65.333 72.667 116.833 132 154.5s136.666 56.5 231.999 56.5c94 0 168.667 -18.333 224 -55s94.666 -83 117.999 -139c19.333 -44 31.666 -93.667 36.999 -149
s8 -115.666 8 -180.999c0 -72.667 -3.66699 -135.5 -11 -188.5s-20.666 -99.5 -39.999 -139.5c-35.333 -72.667 -84.166 -122.5 -146.499 -149.5s-132.166 -40.5 -209.499 -40.5c-69.333 0 -128.333 10.833 -177 32.5s-88.667 52.5 -120 92.5c-32.667 44 -55.5 98 -68.5 162
s-19.5 141 -19.5 231zM160.002 1464l248 103l198 -389l-157 -84zM358.002 499.999c0 -34 1.16797 -66.833 3.50098 -98.5s8.16602 -59.167 17.499 -82.5c16.667 -46.667 47.334 -69.667 92.001 -69c9.33301 0 19.166 1 29.499 3s20.333 6.83301 30 14.5
s18.167 18.667 25.5 33s13 32.833 17 55.5c2.66699 19.333 5.16699 43 7.5 71s3.5 60.333 3.5 97c0 70.667 -7 126 -21 166c-18 49.333 -47.333 74 -88 74c-45.333 0 -77.333 -24 -96 -72c-8 -23.333 -13.5 -50.333 -16.5 -81s-4.5 -67.667 -4.5 -111z" />
    <glyph glyph-name="oacute" unicode="&#xf3;" horiz-adv-x="940" 
d="M74 504c1.33301 57.333 4.66797 114.999 10.001 172.999s15.666 104.667 30.999 140c28.667 65.333 72.667 116.833 132 154.5s136.666 56.5 231.999 56.5c94 0 168.667 -18.333 224 -55s94.666 -83 117.999 -139c19.333 -44 31.666 -93.667 36.999 -149
s8 -115.666 8 -180.999c0 -72.667 -3.66699 -135.5 -11 -188.5s-20.666 -99.5 -39.999 -139.5c-35.333 -72.667 -84.166 -122.5 -146.499 -149.5s-132.166 -40.5 -209.499 -40.5c-69.333 0 -128.333 10.833 -177 32.5s-88.667 52.5 -120 92.5c-32.667 44 -55.5 98 -68.5 162
s-19.5 141 -19.5 231zM334.002 1167l190 400l246 -99l-276 -374zM358.002 499.999c0 -34 1.16797 -66.833 3.50098 -98.5s8.16602 -59.167 17.499 -82.5c16.667 -46.667 47.334 -69.667 92.001 -69c9.33301 0 19.166 1 29.499 3s20.333 6.83301 30 14.5
s18.167 18.667 25.5 33s13 32.833 17 55.5c2.66699 19.333 5.16699 43 7.5 71s3.5 60.333 3.5 97c0 70.667 -7 126 -21 166c-18 49.333 -47.333 74 -88 74c-45.333 0 -77.333 -24 -96 -72c-8 -23.333 -13.5 -50.333 -16.5 -81s-4.5 -67.667 -4.5 -111z" />
    <glyph glyph-name="ocircumflex" unicode="&#xf4;" horiz-adv-x="940" 
d="M74 504c1.33301 57.333 4.66797 114.999 10.001 172.999s15.666 104.667 30.999 140c28.667 65.333 72.667 116.833 132 154.5s136.666 56.5 231.999 56.5c94 0 168.667 -18.333 224 -55s94.666 -83 117.999 -139c19.333 -44 31.666 -93.667 36.999 -149
s8 -115.666 8 -180.999c0 -72.667 -3.66699 -135.5 -11 -188.5s-20.666 -99.5 -39.999 -139.5c-35.333 -72.667 -84.166 -122.5 -146.499 -149.5s-132.166 -40.5 -209.499 -40.5c-69.333 0 -128.333 10.833 -177 32.5s-88.667 52.5 -120 92.5c-32.667 44 -55.5 98 -68.5 162
s-19.5 141 -19.5 231zM90.002 1159l289 322h186l283 -320l-111 -100l-268 203c-12 -8 -30.667 -21.667 -56 -41l-80 -61l-79 -59.5c-24.667 -18.333 -43 -31.5 -55 -39.5zM358.002 499.999c0 -34 1.16797 -66.833 3.50098 -98.5s8.16602 -59.167 17.499 -82.5
c16.667 -46.667 47.334 -69.667 92.001 -69c9.33301 0 19.166 1 29.499 3s20.333 6.83301 30 14.5s18.167 18.667 25.5 33s13 32.833 17 55.5c2.66699 19.333 5.16699 43 7.5 71s3.5 60.333 3.5 97c0 70.667 -7 126 -21 166c-18 49.333 -47.333 74 -88 74
c-45.333 0 -77.333 -24 -96 -72c-8 -23.333 -13.5 -50.333 -16.5 -81s-4.5 -67.667 -4.5 -111z" />
    <glyph glyph-name="otilde" unicode="&#xf5;" horiz-adv-x="940" 
d="M74 504c1.33301 57.333 4.66797 114.999 10.001 172.999s15.666 104.667 30.999 140c28.667 65.333 72.667 116.833 132 154.5s136.666 56.5 231.999 56.5c94 0 168.667 -18.333 224 -55s94.666 -83 117.999 -139c19.333 -44 31.666 -93.667 36.999 -149
s8 -115.666 8 -180.999c0 -72.667 -3.66699 -135.5 -11 -188.5s-20.666 -99.5 -39.999 -139.5c-35.333 -72.667 -84.166 -122.5 -146.499 -149.5s-132.166 -40.5 -209.499 -40.5c-69.333 0 -128.333 10.833 -177 32.5s-88.667 52.5 -120 92.5c-32.667 44 -55.5 98 -68.5 162
s-19.5 141 -19.5 231zM90.002 1221c32.667 74 70.499 127.999 113.499 161.999s89.833 51 140.5 51c24.667 0 48.334 -4.83301 71.001 -14.5s44.167 -19.667 64.5 -30l57 -28.5c17.667 -8.66699 34.167 -13 49.5 -13c22 0 41.833 6 59.5 18s40.167 35.333 67.5 70
c23.333 -12 46.166 -24.667 68.499 -38l68.5 -40c-35.333 -78 -72.166 -133 -110.499 -165s-79.5 -48 -123.5 -48c-26 0 -50.5 4.33301 -73.5 13s-45.5 18.167 -67.5 28.5l-61.5 29c-19 9 -37.5 13.5 -55.5 13.5c-20.667 0 -41.5 -6.16699 -62.5 -18.5
s-45.167 -36.166 -72.5 -71.499zM358.001 499.998c0 -34 1.16797 -66.833 3.50098 -98.5s8.16602 -59.167 17.499 -82.5c16.667 -46.667 47.334 -69.667 92.001 -69c9.33301 0 19.166 1 29.499 3s20.333 6.83301 30 14.5s18.167 18.667 25.5 33s13 32.833 17 55.5
c2.66699 19.333 5.16699 43 7.5 71s3.5 60.333 3.5 97c0 70.667 -7 126 -21 166c-18 49.333 -47.333 74 -88 74c-45.333 0 -77.333 -24 -96 -72c-8 -23.333 -13.5 -50.333 -16.5 -81s-4.5 -67.667 -4.5 -111z" />
    <glyph glyph-name="odieresis" unicode="&#xf6;" horiz-adv-x="940" 
d="M74 504c1.33301 57.333 4.66797 114.999 10.001 172.999s15.666 104.667 30.999 140c28.667 65.333 72.667 116.833 132 154.5s136.666 56.5 231.999 56.5c94 0 168.667 -18.333 224 -55s94.666 -83 117.999 -139c19.333 -44 31.666 -93.667 36.999 -149
s8 -115.666 8 -180.999c0 -72.667 -3.66699 -135.5 -11 -188.5s-20.666 -99.5 -39.999 -139.5c-35.333 -72.667 -84.166 -122.5 -146.499 -149.5s-132.166 -40.5 -209.499 -40.5c-69.333 0 -128.333 10.833 -177 32.5s-88.667 52.5 -120 92.5c-32.667 44 -55.5 98 -68.5 162
s-19.5 141 -19.5 231zM129.002 1143v266h272v-266h-272zM358.002 499.999c0 -34 1.16797 -66.833 3.50098 -98.5s8.16602 -59.167 17.499 -82.5c16.667 -46.667 47.334 -69.667 92.001 -69c9.33301 0 19.166 1 29.499 3s20.333 6.83301 30 14.5s18.167 18.667 25.5 33
s13 32.833 17 55.5c2.66699 19.333 5.16699 43 7.5 71s3.5 60.333 3.5 97c0 70.667 -7 126 -21 166c-18 49.333 -47.333 74 -88 74c-45.333 0 -77.333 -24 -96 -72c-8 -23.333 -13.5 -50.333 -16.5 -81s-4.5 -67.667 -4.5 -111zM530.003 1143v266h275v-266h-275z" />
    <glyph glyph-name="divide" unicode="&#xf7;" 
d="M37 489v228h926v-228h-926zM336 207c0 22 4.33594 42.833 13.0029 62.5s20.667 36.667 36 51s33.166 26 53.499 35s42.166 13.5 65.499 13.5s44.833 -4.5 64.5 -13.5s37 -20.667 52 -35s27 -31.333 36 -51s13.5 -40.5 13.5 -62.5c0 -45.333 -16.167 -84 -48.5 -116
s-71.5 -48 -117.5 -48c-46.667 0 -86.334 16 -119.001 48s-49 70.667 -49 116zM336.003 993c0 45.333 16.3301 83.666 48.9971 114.999s72.334 47 119.001 47s86 -15.667 118 -47s48 -69.666 48 -114.999c0 -22 -4.5 -42.833 -13.5 -62.5s-21 -36.667 -36 -51
s-32.333 -26 -52 -35s-41.167 -13.5 -64.5 -13.5s-45.166 4.5 -65.499 13.5s-38.166 20.667 -53.499 35s-27.333 31.5 -36 51.5s-13 40.667 -13 62z" />
    <glyph glyph-name="oslash" unicode="&#xf8;" horiz-adv-x="940" 
d="M74 504c1.33301 57.333 4.66699 114.999 10 172.999s15.666 104.667 30.999 140c28.667 65.333 72.667 116.833 132 154.5s136.666 56.5 231.999 56.5c49.333 0 93.166 -5.5 131.499 -16.5s71.833 -25.833 100.5 -44.5l73 112l62 -43l-78 -121
c23.333 -24.667 41 -51.667 53 -81c19.333 -44 31.666 -93.667 36.999 -149s8 -115.666 8 -180.999c0 -72.667 -3.66699 -135.5 -11 -188.5s-20.666 -99.5 -39.999 -139.5c-35.333 -72.667 -84.166 -122.5 -146.499 -149.5s-132.166 -40.5 -209.499 -40.5
c-101.333 0 -182.666 23 -243.999 69l-61 -94l-60 41l68 107v2c-32.667 44 -55.5 98 -68.5 162s-19.5 141 -19.5 231zM358.001 457.499c0 -13 0.666992 -26.167 2 -39.5l191 297c-18 32.667 -43.333 49 -76 49c-45.333 0 -77.333 -24 -96 -72
c-8 -23.333 -13.5 -50.333 -16.5 -81s-4.5 -67.667 -4.5 -111v-42.5zM381.001 312.999c16.667 -42 46.668 -62.999 90.001 -62.999c9.33301 0 19.166 1 29.499 3s20.333 6.83301 30 14.5s18.167 18.667 25.5 33s13 32.833 17 55.5c2.66699 19.333 5.16699 43 7.5 71
s3.5 60.333 3.5 97c0 35.333 -2 67.666 -6 96.999z" />
    <glyph glyph-name="ugrave" unicode="&#xf9;" horiz-adv-x="987" 
d="M106 301v712.999h287v-641c0 -39.333 10 -68.333 30 -87s43.667 -28 71 -28c30 0 55.167 9.83301 75.5 29.5s30.5 48.834 30.5 87.501v639h287v-1014h-287v82l-8 2c-23.333 -27.333 -52.333 -49.833 -87 -67.5s-70 -26.5 -106 -26.5c-102.667 0 -177.167 28 -223.5 84
s-69.5 131.667 -69.5 227zM188 1464l248 103l199 -389l-158 -84z" />
    <glyph glyph-name="uacute" unicode="&#xfa;" horiz-adv-x="987" 
d="M106 301v712.999h287v-641c0 -39.333 10 -68.333 30 -87s43.667 -28 71 -28c30 0 55.167 9.83301 75.5 29.5s30.5 48.834 30.5 87.501v639h287v-1014h-287v82l-8 2c-23.333 -27.333 -52.333 -49.833 -87 -67.5s-70 -26.5 -106 -26.5c-102.667 0 -177.167 28 -223.5 84
s-69.5 131.667 -69.5 227zM344 1167l191 400l245 -99l-276 -374z" />
    <glyph glyph-name="ucircumflex" unicode="&#xfb;" horiz-adv-x="987" 
d="M106 301v712.999h287v-641c0 -39.333 10 -68.333 30 -87s43.667 -28 71 -28c30 0 55.167 9.83301 75.5 29.5s30.5 48.834 30.5 87.501v639h287v-1014h-287v82l-8 2c-23.333 -27.333 -52.333 -49.833 -87 -67.5s-70 -26.5 -106 -26.5c-102.667 0 -177.167 28 -223.5 84
s-69.5 131.667 -69.5 227zM127 1159l289 322h186l283 -320l-111 -100l-268 203c-12 -8 -30.667 -21.667 -56 -41l-80 -61l-79 -59.5c-24.667 -18.333 -43 -31.5 -55 -39.5z" />
    <glyph glyph-name="udieresis" unicode="&#xfc;" horiz-adv-x="987" 
d="M106 301v712.999h287v-641c0 -39.333 10 -68.333 30 -87s43.667 -28 71 -28c30 0 55.167 9.83301 75.5 29.5s30.5 48.834 30.5 87.501v639h287v-1014h-287v82l-8 2c-23.333 -27.333 -52.333 -49.833 -87 -67.5s-70 -26.5 -106 -26.5c-102.667 0 -177.167 28 -223.5 84
s-69.5 131.667 -69.5 227zM162 1143v266h272v-266h-272zM563 1143v266h275v-266h-275z" />
    <glyph glyph-name="yacute" unicode="&#xfd;" horiz-adv-x="905" 
d="M2 1014h307l70 -328l63 -280h11l65 278l82 330h299l-379 -1192c-26 -82 -65.5 -141.167 -118.5 -177.5s-117.833 -54.5 -194.5 -54.5h-101v246h60c56 0 94.333 35 115 105l32 112zM324 1167l190 400l246 -99l-277 -374z" />
    <glyph glyph-name="thorn" unicode="&#xfe;" horiz-adv-x="956" 
d="M98 -412l-0.00292969 1868h287v-514l6 -4c23.333 30 51.666 51.833 84.999 65.5s65 20.5 95 20.5c75.333 0 134.166 -17 176.499 -51s74 -77 95 -129s34.333 -108.667 40 -170s8.5 -119.333 8.5 -174c0 -61.333 -3.5 -122.5 -10.5 -183.5s-21.667 -115.667 -44 -164
s-54.666 -87.833 -96.999 -118.5s-99.166 -46 -170.499 -46c-13.333 0 -28.166 2 -44.499 6s-32.666 9.83301 -48.999 17.5s-31.666 16.5 -45.999 26.5s-26.5 22 -36.5 36l-8 -2v-484h-287zM384.997 510c0 -27.333 1.00098 -56 3.00098 -86s6.5 -57.333 13.5 -82
s17.667 -45.167 32 -61.5s33.833 -24.5 58.5 -24.5s44 7.83301 58 23.5s24.833 35.5 32.5 59.5s12.5 50.667 14.5 80s3 57.666 3 84.999c0 36.667 -1 70.667 -3 102s-6.83301 58 -14.5 80s-18.334 39.167 -32.001 51.5s-31.834 18.5 -54.501 18.5
c-45.333 0 -75.166 -21.167 -89.499 -63.5s-21.5 -103.166 -21.5 -182.499z" />
    <glyph glyph-name="ydieresis" unicode="&#xff;" horiz-adv-x="905" 
d="M2 1014h307l70 -328l63 -280h11l65 278l82 330h299l-379 -1192c-26 -82 -65.5 -141.167 -118.5 -177.5s-117.833 -54.5 -194.5 -54.5h-101v246h60c56 0 94.333 35 115 105l32 112zM104 1143v266h273v-266h-273zM506 1143v266h274v-266h-274z" />
    <glyph glyph-name="Amacron" unicode="&#x100;" horiz-adv-x="1136" 
d="M6 0l412 1425h295l411 -1425h-319l-70 291h-338l-37.5 -145.5l-40.5 -145.5h-313zM268 1540v234h598v-234h-598zM463 555h205l-39 203l-58 284h-10l-57 -282z" />
    <glyph glyph-name="amacron" unicode="&#x101;" horiz-adv-x="946" 
d="M66 303c0 42 7.16504 81.8311 21.498 119.498s35.833 70.834 64.5 99.501s64.5 51.167 107.5 67.5s93.833 24.5 152.5 24.5h163v60c0 22 -8.16699 43.833 -24.5 65.5s-47.5 32.5 -93.5 32.5c-35.333 0 -66.666 -5.83301 -93.999 -17.5s-50.666 -33.834 -69.999 -66.501
l-207 131c38 75.333 89.5 128.333 154.5 159s139.833 46 224.5 46c57.333 0 110.5 -5.5 159.5 -16.5s91 -29.167 126 -54.5s62.333 -58.666 82 -99.999s29.5 -93.666 29.5 -156.999v-696h-287v82l-8 2c-26 -34 -58.667 -58.167 -98 -72.5s-75 -21.5 -107 -21.5
c-100 0 -174.333 26.667 -223 80s-73 131 -73 233zM181.998 1171v234h598v-234h-598zM343.998 323.998c0 -19.333 7.83301 -38.168 23.5 -56.501s44.167 -27.5 85.5 -27.5c32.667 0 61.167 9.5 85.5 28.5s36.5 46.833 36.5 83.5v62h-124c-38 0 -65.333 -8.16699 -82 -24.5
s-25 -38.166 -25 -65.499z" />
    <glyph glyph-name="Abreve" unicode="&#x102;" horiz-adv-x="1136" 
d="M6 0l412 1425h295l411 -1425h-319l-70 291h-338l-37.5 -145.5l-40.5 -145.5h-313zM240 1831h211.001c0 -15.333 3 -31.5 9 -48.5s14.167 -32.667 24.5 -47s23 -26.666 38 -36.999s31.833 -15.5 50.5 -15.5c20.667 0 38.167 5.16699 52.5 15.5
s26.666 22.666 36.999 36.999s17.833 30 22.5 47s7 33.167 7 48.5h213c-2.66699 -32.667 -10.5 -68.834 -23.5 -108.501s-32.5 -76.5 -58.5 -110.5s-59.5 -62.667 -100.5 -86s-90.833 -35 -149.5 -35c-61.333 0 -112.833 11.667 -154.5 35s-75.334 52 -101.001 86
s-44.667 70.833 -57 110.5s-19.166 75.834 -20.499 108.501zM463.001 555h205l-39 203l-58 284h-10l-57 -282z" />
    <glyph glyph-name="abreve" unicode="&#x103;" horiz-adv-x="946" 
d="M66 303c0 42 7.16504 81.8311 21.498 119.498s35.833 70.834 64.5 99.501s64.5 51.167 107.5 67.5s93.833 24.5 152.5 24.5h163v60c0 22 -8.16699 43.833 -24.5 65.5s-47.5 32.5 -93.5 32.5c-35.333 0 -66.666 -5.83301 -93.999 -17.5s-50.666 -33.834 -69.999 -66.501
l-207 131c38 75.333 89.5 128.333 154.5 159s139.833 46 224.5 46c57.333 0 110.5 -5.5 159.5 -16.5s91 -29.167 126 -54.5s62.333 -58.666 82 -99.999s29.5 -93.666 29.5 -156.999v-696h-287v82l-8 2c-26 -34 -58.667 -58.167 -98 -72.5s-75 -21.5 -107 -21.5
c-100 0 -174.333 26.667 -223 80s-73 131 -73 233zM155.998 1456h211.001c0 -15.333 3 -31.5 9 -48.5s14.167 -33 24.5 -48s23 -27.167 38 -36.5s31.833 -14 50.5 -14c20.667 0 38.167 4.66699 52.5 14s26.666 21.5 36.999 36.5s17.833 31.167 22.5 48.5s7 33.333 7 48h213
c-2.66699 -34 -10.5 -71.167 -23.5 -111.5s-32.5 -77.833 -58.5 -112.5s-59.5 -63.667 -100.5 -87s-90.833 -35 -149.5 -35c-61.333 0 -112.833 11.667 -154.5 35s-75.334 52.333 -101.001 87s-44.667 72.167 -57 112.5s-19.166 77.5 -20.499 111.5zM343.999 323.998
c0 -19.333 7.83301 -38.168 23.5 -56.501s44.167 -27.5 85.5 -27.5c32.667 0 61.167 9.5 85.5 28.5s36.5 46.833 36.5 83.5v62h-124c-38 0 -65.333 -8.16699 -82 -24.5s-25 -38.166 -25 -65.499z" />
    <glyph glyph-name="Aogonek" unicode="&#x104;" horiz-adv-x="1136" 
d="M6 0l412 1425h295l411 -1425h-147c-31.333 -46.667 -51.833 -86.334 -61.5 -119.001s-14.5 -58 -14.5 -76c0 -23.333 7.16699 -41 21.5 -53s33.166 -18 56.499 -18c12 0 28 2.33301 48 7s43.667 12.334 71 23.001l51 -131c-32.667 -19.333 -67.5 -34 -104.5 -44
s-72.5 -15 -106.5 -15c-61.333 0 -112.166 18.833 -152.499 56.5s-60.5 86.5 -60.5 146.5c0 30 6.5 63.333 19.5 100s34.5 77.667 64.5 123h-4l-70 291h-338l-37.5 -145.5l-40.5 -145.5h-313zM463 555h205l-39 203l-58 284h-10l-57 -282z" />
    <glyph glyph-name="aogonek" unicode="&#x105;" horiz-adv-x="946" 
d="M66 303c0 42 7.16504 81.8311 21.498 119.498s35.833 70.834 64.5 99.501s64.5 51.167 107.5 67.5s93.833 24.5 152.5 24.5h163v60c0 22 -8.16699 43.833 -24.5 65.5s-47.5 32.5 -93.5 32.5c-35.333 0 -66.666 -5.83301 -93.999 -17.5s-50.666 -33.834 -69.999 -66.501
l-207 131c38 75.333 89.5 128.333 154.5 159s139.833 46 224.5 46c57.333 0 110.5 -5.5 159.5 -16.5s91 -29.167 126 -54.5s62.333 -58.666 82 -99.999s29.5 -93.666 29.5 -156.999v-696h-121c-31.333 -46.667 -51.666 -86.334 -60.999 -119.001s-14 -58 -14 -76
c0 -23.333 7.16699 -41 21.5 -53s32.833 -18 55.5 -18c12 0 28 2.33301 48 7s43.667 12.334 71 23.001l51 -131c-32.667 -19.333 -67.334 -34 -104.001 -44s-72.334 -15 -107.001 -15c-61.333 0 -112.166 18.833 -152.499 56.5s-60.5 86.5 -60.5 146.5
c0 62.667 28.667 137.667 86 225v80l-8 2c-26 -34 -58.667 -58.167 -98 -72.5s-75 -21.5 -107 -21.5c-100 0 -174.333 26.667 -223 80s-73 131 -73 233zM343.998 323.998c0 -19.333 7.83301 -38.168 23.5 -56.501s44.167 -27.5 85.5 -27.5c32.667 0 61.167 9.5 85.5 28.5
s36.5 46.833 36.5 83.5v62h-124c-38 0 -65.333 -8.16699 -82 -24.5s-25 -38.166 -25 -65.499z" />
    <glyph glyph-name="Cacute" unicode="&#x106;" horiz-adv-x="1052" 
d="M92 471l0.000976562 508.001c0 53.333 8.16699 107 24.5 161s42.666 102.833 78.999 146.5s83.5 79.5 141.5 107.5s128.667 42 212 42c65.333 0 124 -10 176 -30s96.333 -46.333 133 -79s66.667 -70.5 90 -113.5s39.666 -87.833 48.999 -134.5l-280 -84
c-2.66699 13.333 -7.16699 29.333 -13.5 48s-16.333 35.5 -30 50.5s-30.667 28 -51 39s-44.833 16.5 -73.5 16.5c-30 0 -55.333 -5.16699 -76 -15.5s-37 -23.333 -49 -39s-20.833 -32.667 -26.5 -51s-8.5 -35.833 -8.5 -52.5v-528c0 -54.667 12 -99.834 36 -135.501
s65.333 -53.5 124 -53.5c40.667 0 76.834 13.333 108.501 40s50.167 63.334 55.5 110.001l282 -82c-20.667 -110.667 -71.167 -197.334 -151.5 -260.001s-178.5 -94 -294.5 -94c-82 0 -152 13 -210 39s-105.167 61.167 -141.5 105.5s-63 95.833 -80 154.5
s-25.5 120 -25.5 184zM350.001 1626l355 264l172 -204l-420 -199z" />
    <glyph glyph-name="cacute" unicode="&#x107;" horiz-adv-x="864" 
d="M59 502c0 74 6.49902 142.997 19.499 206.997s34.833 119.5 65.5 166.5s71.334 83.833 122.001 110.5s113.667 40 189 40c86 0 161 -19.833 225 -59.5s109.667 -98.167 137 -175.5l-242 -117c-15.333 32.667 -31 55.834 -47 69.501s-35.667 20.5 -59 20.5
c-52 0 -85.167 -23.833 -99.5 -71.5s-21.5 -111.167 -21.5 -190.5c0 -86 7.83301 -149.167 23.5 -189.5s48.167 -60.5 97.5 -60.5c24.667 0 45.167 7.16699 61.5 21.5s32.166 36.5 47.499 66.5l241 -119c-27.333 -75.333 -72.666 -132.666 -135.999 -171.999
s-138 -59 -224 -59c-76.667 0 -140.667 12.667 -192 38s-92.333 60.833 -123 106.5s-52.5 99.834 -65.5 162.501s-19.5 131 -19.5 205zM318.999 1167l191 400l246 -99l-277 -374z" />
    <glyph glyph-name="Ccircumflex" unicode="&#x108;" horiz-adv-x="1052" 
d="M92 471l0.000976562 508.001c0 53.333 8.16699 107 24.5 161s42.666 102.833 78.999 146.5s83.5 79.5 141.5 107.5s128.667 42 212 42c65.333 0 124 -10 176 -30s96.333 -46.333 133 -79s66.667 -70.5 90 -113.5s39.666 -87.833 48.999 -134.5l-280 -84
c-2.66699 13.333 -7.16699 29.333 -13.5 48s-16.333 35.5 -30 50.5s-30.667 28 -51 39s-44.833 16.5 -73.5 16.5c-30 0 -55.333 -5.16699 -76 -15.5s-37 -23.333 -49 -39s-20.833 -32.667 -26.5 -51s-8.5 -35.833 -8.5 -52.5v-528c0 -54.667 12 -99.834 36 -135.501
s65.333 -53.5 124 -53.5c40.667 0 76.834 13.333 108.501 40s50.167 63.334 55.5 110.001l282 -82c-20.667 -110.667 -71.167 -197.334 -151.5 -260.001s-178.5 -94 -294.5 -94c-82 0 -152 13 -210 39s-105.167 61.167 -141.5 105.5s-63 95.833 -80 154.5
s-25.5 120 -25.5 184zM166.001 1591l291 271h180l287 -271l-105 -108l-274 162l-277 -162z" />
    <glyph glyph-name="ccircumflex" unicode="&#x109;" horiz-adv-x="864" 
d="M59 502c0 74 6.49902 142.997 19.499 206.997s34.833 119.5 65.5 166.5s71.334 83.833 122.001 110.5s113.667 40 189 40c86 0 161 -19.833 225 -59.5s109.667 -98.167 137 -175.5l-242 -117c-15.333 32.667 -31 55.834 -47 69.501s-35.667 20.5 -59 20.5
c-52 0 -85.167 -23.833 -99.5 -71.5s-21.5 -111.167 -21.5 -190.5c0 -86 7.83301 -149.167 23.5 -189.5s48.167 -60.5 97.5 -60.5c24.667 0 45.167 7.16699 61.5 21.5s32.166 36.5 47.499 66.5l241 -119c-27.333 -75.333 -72.666 -132.666 -135.999 -171.999
s-138 -59 -224 -59c-76.667 0 -140.667 12.667 -192 38s-92.333 60.833 -123 106.5s-52.5 99.834 -65.5 162.501s-19.5 131 -19.5 205zM87.999 1159l289 322h186l283 -320l-111 -100l-268 203c-12 -8 -30.667 -21.667 -56 -41l-80 -61l-79 -59.5
c-24.667 -18.333 -43 -31.5 -55 -39.5z" />
    <glyph glyph-name="Cdotaccent" unicode="&#x10a;" horiz-adv-x="1052" 
d="M92 471l0.000976562 508.001c0 53.333 8.16699 107 24.5 161s42.666 102.833 78.999 146.5s83.5 79.5 141.5 107.5s128.667 42 212 42c65.333 0 124 -10 176 -30s96.333 -46.333 133 -79s66.667 -70.5 90 -113.5s39.666 -87.833 48.999 -134.5l-280 -84
c-2.66699 13.333 -7.16699 29.333 -13.5 48s-16.333 35.5 -30 50.5s-30.667 28 -51 39s-44.833 16.5 -73.5 16.5c-30 0 -55.333 -5.16699 -76 -15.5s-37 -23.333 -49 -39s-20.833 -32.667 -26.5 -51s-8.5 -35.833 -8.5 -52.5v-528c0 -54.667 12 -99.834 36 -135.501
s65.333 -53.5 124 -53.5c40.667 0 76.834 13.333 108.501 40s50.167 63.334 55.5 110.001l282 -82c-20.667 -110.667 -71.167 -197.334 -151.5 -260.001s-178.5 -94 -294.5 -94c-82 0 -152 13 -210 39s-105.167 61.167 -141.5 105.5s-63 95.833 -80 154.5
s-25.5 120 -25.5 184zM399.001 1520v266h273v-266h-273z" />
    <glyph glyph-name="cdotaccent" unicode="&#x10b;" horiz-adv-x="864" 
d="M59 502c0 74 6.49902 142.997 19.499 206.997s34.833 119.5 65.5 166.5s71.334 83.833 122.001 110.5s113.667 40 189 40c86 0 161 -19.833 225 -59.5s109.667 -98.167 137 -175.5l-242 -117c-15.333 32.667 -31 55.834 -47 69.501s-35.667 20.5 -59 20.5
c-52 0 -85.167 -23.833 -99.5 -71.5s-21.5 -111.167 -21.5 -190.5c0 -86 7.83301 -149.167 23.5 -189.5s48.167 -60.5 97.5 -60.5c24.667 0 45.167 7.16699 61.5 21.5s32.166 36.5 47.499 66.5l241 -119c-27.333 -75.333 -72.666 -132.666 -135.999 -171.999
s-138 -59 -224 -59c-76.667 0 -140.667 12.667 -192 38s-92.333 60.833 -123 106.5s-52.5 99.834 -65.5 162.501s-19.5 131 -19.5 205zM306.999 1143v266h273v-266h-273z" />
    <glyph glyph-name="Ccaron" unicode="&#x10c;" horiz-adv-x="1052" 
d="M92 471l0.000976562 508.001c0 53.333 8.16699 107 24.5 161s42.666 102.833 78.999 146.5s83.5 79.5 141.5 107.5s128.667 42 212 42c65.333 0 124 -10 176 -30s96.333 -46.333 133 -79s66.667 -70.5 90 -113.5s39.666 -87.833 48.999 -134.5l-280 -84
c-2.66699 13.333 -7.16699 29.333 -13.5 48s-16.333 35.5 -30 50.5s-30.667 28 -51 39s-44.833 16.5 -73.5 16.5c-30 0 -55.333 -5.16699 -76 -15.5s-37 -23.333 -49 -39s-20.833 -32.667 -26.5 -51s-8.5 -35.833 -8.5 -52.5v-528c0 -54.667 12 -99.834 36 -135.501
s65.333 -53.5 124 -53.5c40.667 0 76.834 13.333 108.501 40s50.167 63.334 55.5 110.001l282 -82c-20.667 -110.667 -71.167 -197.334 -151.5 -260.001s-178.5 -94 -294.5 -94c-82 0 -152 13 -210 39s-105.167 61.167 -141.5 105.5s-63 95.833 -80 154.5
s-25.5 120 -25.5 184zM168.001 1755l102 109l275 -162l274 162l107 -109l-287 -266h-182z" />
    <glyph glyph-name="ccaron" unicode="&#x10d;" horiz-adv-x="864" 
d="M59 502c0 74 6.49902 142.997 19.499 206.997s34.833 119.5 65.5 166.5s71.334 83.833 122.001 110.5s113.667 40 189 40c86 0 161 -19.833 225 -59.5s109.667 -98.167 137 -175.5l-242 -117c-15.333 32.667 -31 55.834 -47 69.501s-35.667 20.5 -59 20.5
c-52 0 -85.167 -23.833 -99.5 -71.5s-21.5 -111.167 -21.5 -190.5c0 -86 7.83301 -149.167 23.5 -189.5s48.167 -60.5 97.5 -60.5c24.667 0 45.167 7.16699 61.5 21.5s32.166 36.5 47.499 66.5l241 -119c-27.333 -75.333 -72.666 -132.666 -135.999 -171.999
s-138 -59 -224 -59c-76.667 0 -140.667 12.667 -192 38s-92.333 60.833 -123 106.5s-52.5 99.834 -65.5 162.501s-19.5 131 -19.5 205zM65.999 1382l108 99c12 -8 30.333 -21.667 55 -41l79 -60.5l80 -60.5c25.333 -19.333 44 -33 56 -41l269 203l110 -99l-282 -321h-187z
" />
    <glyph glyph-name="Dcaron" unicode="&#x10e;" horiz-adv-x="1130" 
d="M111 1755l102 109l274 -162l275 162l106 -109l-286 -266h-183zM125 0v1425h471c95.333 0 176.833 -17.667 244.5 -53s117.167 -94 148.5 -176c19.333 -48 30.666 -107.167 33.999 -177.5s5 -148.5 5 -234.5c0 -124 -0.666992 -229.333 -2 -316
s-13.666 -160.667 -36.999 -222c-18 -48 -40.833 -87.667 -68.5 -119s-60 -56.166 -97 -74.499s-77 -31.666 -120 -39.999s-87.833 -12.5 -134.5 -12.5h-444zM420 273.998l125 0.000976562c75.333 0 125.5 19.167 150.5 57.5s37.5 90.833 37.5 157.5v345
c0 40.667 -2 80.167 -6 118.5s-12.5 72.166 -25.5 101.499s-32.167 52.5 -57.5 69.5s-59 25.5 -101 25.5h-123v-875z" />
    <glyph glyph-name="dcaron" unicode="&#x10f;" horiz-adv-x="1175" 
d="M68 514c0 61.333 3.66797 122.331 11.001 182.998s22.666 115.334 45.999 164.001s56.166 88.334 98.499 119.001s98.166 46 167.499 46c26 0 56.833 -7.83301 92.5 -23.5s62.834 -36.5 81.501 -62.5l8 2v545h287v-1487h-287v72l-6 4
c-23.333 -30 -51.666 -51.833 -84.999 -65.5s-65 -20.5 -95 -20.5c-76.667 0 -136.5 15.667 -179.5 47s-74.667 71.833 -95 121.5s-32.833 106 -37.5 169s-7 125.167 -7 186.5zM362.001 521.998c0 -36.667 1.5 -71.332 4.5 -103.999s8.16699 -60.667 15.5 -84
s17.833 -41.833 31.5 -55.5s32.167 -20.5 55.5 -20.5c45.333 0 74 20.833 86 62.5s18 102.167 18 181.5c0 27.333 -0.666992 56 -2 86s-5.66602 57.667 -12.999 83s-17.833 46.166 -31.5 62.499s-32.834 24.5 -57.501 24.5s-44.167 -7.16699 -58.5 -21.5
s-24.833 -32.833 -31.5 -55.5s-11.167 -48 -13.5 -76s-3.5 -55.667 -3.5 -83zM940.001 999l66 222h-60v268h279v-258l-148 -232h-137z" />
    <glyph glyph-name="Dcroat" unicode="&#x110;" horiz-adv-x="1130" 
d="M33 637v179.998h92v608h471c95.333 0 176.833 -17.667 244.5 -53s117.167 -94 148.5 -176c19.333 -48 30.666 -107.167 33.999 -177.5s5 -148.5 5 -234.5c0 -124 -0.666992 -229.333 -2 -316s-13.666 -160.667 -36.999 -222c-18 -48 -40.833 -87.667 -68.5 -119
s-60 -56.166 -97 -74.499s-77 -31.666 -120 -39.999s-87.833 -12.5 -134.5 -12.5h-444v637h-92zM420 273.998l125 0.000976562c75.333 0 125.5 19.167 150.5 57.5s37.5 90.833 37.5 157.5v345c0 40.667 -2 80.167 -6 118.5s-12.5 72.166 -25.5 101.499
s-32.167 52.5 -57.5 69.5s-59 25.5 -101 25.5h-123v-332h192v-180h-192v-363z" />
    <glyph glyph-name="dcroat" unicode="&#x111;" horiz-adv-x="978" 
d="M76 514c0 61.333 3.6709 122.331 11.0039 182.998s22.666 115.334 45.999 164.001s56.166 88.334 98.499 119.001s98.166 46 167.499 46c26 0 56.833 -7.83301 92.5 -23.5s62.834 -36.5 81.501 -62.5l9 2v199h-246v168h246v178h286v-178h88v-168h-88v-1141h-286v72l-7 4
c-23.333 -30 -51.666 -51.833 -84.999 -65.5s-65 -20.5 -95 -20.5c-76.667 0 -136.334 15.667 -179.001 47s-74.334 71.833 -95.001 121.5s-33.334 106 -38.001 169s-7 125.167 -7 186.5zM371.004 521.998c0 -36.667 1.33594 -71.332 4.00293 -103.999
s7.66699 -60.667 15 -84s17.833 -41.833 31.5 -55.5s32.167 -20.5 55.5 -20.5c45.333 0 74.166 20.833 86.499 62.5s18.5 102.167 18.5 181.5c0 27.333 -0.666992 56 -2 86s-5.83301 57.667 -13.5 83s-18.334 46.166 -32.001 62.499s-32.834 24.5 -57.501 24.5
s-44.167 -7.16699 -58.5 -21.5s-24.833 -32.833 -31.5 -55.5s-11 -48 -13 -76s-3 -55.667 -3 -83z" />
    <glyph glyph-name="Emacron" unicode="&#x112;" 
d="M125 0v1425h829v-274h-532v-295h459v-272h-459v-303h532v-281h-829zM233 1540v234h598v-234h-598z" />
    <glyph glyph-name="emacron" unicode="&#x113;" horiz-adv-x="950" 
d="M74 506c0 79.333 6.83496 150.999 20.502 214.999s36.167 118.5 67.5 163.5s73 79.833 125 104.5s116.667 37 194 37c82 0 149 -13.667 201 -41s92.667 -63.833 122 -109.5s49.5 -99.167 60.5 -160.5s16.5 -127 16.5 -197v-80h-516v-16
c0 -23.333 1.33301 -45.166 4 -65.499s8 -38.333 16 -54s19.167 -28 33.5 -37s33.166 -13.5 56.499 -13.5c28.667 0 54.667 6.5 78 19.5s46.666 36.5 69.999 70.5l239 -129c-35.333 -76.667 -87.833 -133 -157.5 -169s-145.5 -54 -227.5 -54
c-75.333 0 -138.5 11.5 -189.5 34.5s-92.5 56.833 -124.5 101.5s-54.833 98.667 -68.5 162s-20.5 136 -20.5 218zM182.002 1171v234h598v-234h-598zM365.002 617.999l214.997 0.000976562c0 18 -1.5 35.833 -4.5 53.5s-8.16699 33.334 -15.5 47.001
s-18.166 24.667 -32.499 33s-33.166 12.5 -56.499 12.5c-19.333 0 -35.833 -4.5 -49.5 -13.5s-24.5 -20.333 -32.5 -34s-13.667 -29.334 -17 -47.001s-5.66602 -34.834 -6.99902 -51.501z" />
    <glyph glyph-name="Ebreve" unicode="&#x114;" 
d="M125 0v1425h829v-274h-532v-295h459v-272h-459v-303h532v-281h-829zM213 1827h210.999c0 -15.333 3 -31.5 9 -48.5s14.167 -32.667 24.5 -47s23 -26.666 38 -36.999s32.167 -15.5 51.5 -15.5c20.667 0 38.167 5.16699 52.5 15.5s26.5 22.666 36.5 36.999s17.5 30 22.5 47
s7.5 33.167 7.5 48.5h213c-2.66699 -32.667 -10.5 -68.834 -23.5 -108.501s-32.5 -76.667 -58.5 -111s-59.5 -63 -100.5 -86s-90.833 -34.5 -149.5 -34.5c-61.333 0 -112.833 11.5 -154.5 34.5s-75.5 51.667 -101.5 86s-45.167 71.333 -57.5 111
s-19.166 75.834 -20.499 108.501z" />
    <glyph glyph-name="ebreve" unicode="&#x115;" horiz-adv-x="950" 
d="M74 506c0 79.333 6.83496 150.999 20.502 214.999s36.167 118.5 67.5 163.5s73 79.833 125 104.5s116.667 37 194 37c82 0 149 -13.667 201 -41s92.667 -63.833 122 -109.5s49.5 -99.167 60.5 -160.5s16.5 -127 16.5 -197v-80h-516v-16
c0 -23.333 1.33301 -45.166 4 -65.499s8 -38.333 16 -54s19.167 -28 33.5 -37s33.166 -13.5 56.499 -13.5c28.667 0 54.667 6.5 78 19.5s46.666 36.5 69.999 70.5l239 -129c-35.333 -76.667 -87.833 -133 -157.5 -169s-145.5 -54 -227.5 -54
c-75.333 0 -138.5 11.5 -189.5 34.5s-92.5 56.833 -124.5 101.5s-54.833 98.667 -68.5 162s-20.5 136 -20.5 218zM150.002 1456h210.002c0 -15.333 3.16699 -31.5 9.5 -48.5s14.666 -33 24.999 -48s23 -27.167 38 -36.5s31.833 -14 50.5 -14
c20.667 0 38.167 4.66699 52.5 14s26.666 21.5 36.999 36.5s17.833 31.167 22.5 48.5s7 33.333 7 48h213c-2.66699 -34 -10.5 -71.167 -23.5 -111.5s-32.5 -77.833 -58.5 -112.5s-59.5 -63.667 -100.5 -87s-90.833 -35 -149.5 -35c-61.333 0 -112.833 11.667 -154.5 35
s-75.5 52.333 -101.5 87s-45 72.167 -57 112.5s-18.667 77.5 -20 111.5zM365.004 617.999l214.997 0.000976562c0 18 -1.5 35.833 -4.5 53.5s-8.16699 33.334 -15.5 47.001s-18.166 24.667 -32.499 33s-33.166 12.5 -56.499 12.5c-19.333 0 -35.833 -4.5 -49.5 -13.5
s-24.5 -20.333 -32.5 -34s-13.667 -29.334 -17 -47.001s-5.66602 -34.834 -6.99902 -51.501z" />
    <glyph glyph-name="Edotaccent" unicode="&#x116;" 
d="M125 0v1425h829v-274h-532v-295h459v-272h-459v-303h532v-281h-829zM408 1511v267h272v-267h-272z" />
    <glyph glyph-name="edotaccent" unicode="&#x117;" horiz-adv-x="950" 
d="M74 506c0 79.333 6.83496 150.999 20.502 214.999s36.167 118.5 67.5 163.5s73 79.833 125 104.5s116.667 37 194 37c82 0 149 -13.667 201 -41s92.667 -63.833 122 -109.5s49.5 -99.167 60.5 -160.5s16.5 -127 16.5 -197v-80h-516v-16
c0 -23.333 1.33301 -45.166 4 -65.499s8 -38.333 16 -54s19.167 -28 33.5 -37s33.166 -13.5 56.499 -13.5c28.667 0 54.667 6.5 78 19.5s46.666 36.5 69.999 70.5l239 -129c-35.333 -76.667 -87.833 -133 -157.5 -169s-145.5 -54 -227.5 -54
c-75.333 0 -138.5 11.5 -189.5 34.5s-92.5 56.833 -124.5 101.5s-54.833 98.667 -68.5 162s-20.5 136 -20.5 218zM348.002 1143v266h273v-266h-273zM365.002 617.999l214.997 0.000976562c0 18 -1.5 35.833 -4.5 53.5s-8.16699 33.334 -15.5 47.001
s-18.166 24.667 -32.499 33s-33.166 12.5 -56.499 12.5c-19.333 0 -35.833 -4.5 -49.5 -13.5s-24.5 -20.333 -32.5 -34s-13.667 -29.334 -17 -47.001s-5.66602 -34.834 -6.99902 -51.501z" />
    <glyph glyph-name="Eogonek" unicode="&#x118;" 
d="M125 0v1425h829v-274h-532v-295h459v-272h-459v-303h532v-281c-31.333 -46.667 -51.666 -86.334 -60.999 -119.001s-14 -58 -14 -76c0 -23.333 7.16699 -41 21.5 -53s32.833 -18 55.5 -18c12 0 28 2.33301 48 7s43.667 12.334 71 23.001l51 -131
c-32.667 -19.333 -67.334 -34 -104.001 -44s-72.334 -15 -107.001 -15c-61.333 0 -112.166 18.833 -152.499 56.5s-60.5 86.5 -60.5 146.5c0 30 6.5 63.333 19.5 100s34.5 77.667 64.5 123h-661z" />
    <glyph glyph-name="eogonek" unicode="&#x119;" horiz-adv-x="950" 
d="M74 506c0 79.333 6.83496 150.997 20.502 214.997s36.167 118.5 67.5 163.5s73 79.833 125 104.5s116.667 37 194 37c82 0 149 -13.667 201 -41s92.667 -63.833 122 -109.5s49.5 -99.167 60.5 -160.5s16.5 -127 16.5 -197v-80h-516v-16
c0 -23.333 1.33301 -45.166 4 -65.499s8 -38.333 16 -54s19.167 -28 33.5 -37s33.166 -13.5 56.499 -13.5c28.667 0 54.667 6.5 78 19.5s46.666 36.5 69.999 70.5l239 -129c-30 -65.333 -73.667 -116 -131 -152c-31.333 -46.667 -51.833 -86.167 -61.5 -118.5
s-14.5 -57.5 -14.5 -75.5c0 -23.333 7.16699 -41.166 21.5 -53.499s33.166 -18.5 56.499 -18.5c12 0 28 2.5 48 7.5s43.667 12.833 71 23.5l51 -131c-32.667 -19.333 -67.5 -34.166 -104.5 -44.499s-72.5 -15.5 -106.5 -15.5c-61.333 0 -112.166 18.833 -152.499 56.5
s-60.5 86.5 -60.5 146.5c0 42 14.333 93.333 43 154c-6.66699 0 -14.167 -0.333008 -22.5 -1s-15.833 -1 -22.5 -1c-75.333 0 -138.5 11.5 -189.5 34.5s-92.5 56.833 -124.5 101.5s-54.833 98.667 -68.5 162s-20.5 136 -20.5 218zM365.002 617.997l214.997 0.000976562
c0 18 -1.5 35.833 -4.5 53.5s-8.16699 33.334 -15.5 47.001s-18.166 24.667 -32.499 33s-33.166 12.5 -56.499 12.5c-19.333 0 -35.833 -4.5 -49.5 -13.5s-24.5 -20.333 -32.5 -34s-13.667 -29.334 -17 -47.001s-5.66602 -34.834 -6.99902 -51.501z" />
    <glyph glyph-name="Ecaron" unicode="&#x11a;" 
d="M125 0v1425h829v-274h-532v-295h459v-272h-459v-303h532v-281h-829zM164 1755l102 109l275 -162l274 162l107 -109l-287 -266h-182z" />
    <glyph glyph-name="ecaron" unicode="&#x11b;" horiz-adv-x="950" 
d="M74 506c0 79.333 6.83496 150.999 20.502 214.999s36.167 118.5 67.5 163.5s73 79.833 125 104.5s116.667 37 194 37c82 0 149 -13.667 201 -41s92.667 -63.833 122 -109.5s49.5 -99.167 60.5 -160.5s16.5 -127 16.5 -197v-80h-516v-16
c0 -23.333 1.33301 -45.166 4 -65.499s8 -38.333 16 -54s19.167 -28 33.5 -37s33.166 -13.5 56.499 -13.5c28.667 0 54.667 6.5 78 19.5s46.666 36.5 69.999 70.5l239 -129c-35.333 -76.667 -87.833 -133 -157.5 -169s-145.5 -54 -227.5 -54
c-75.333 0 -138.5 11.5 -189.5 34.5s-92.5 56.833 -124.5 101.5s-54.833 98.667 -68.5 162s-20.5 136 -20.5 218zM100.002 1382l109 99c12 -8 30.333 -21.667 55 -41l79 -60.5l80 -60.5c25.333 -19.333 44 -33 56 -41l269 203l110 -99l-283 -321h-186zM365.002 617.999
l214.997 0.000976562c0 18 -1.5 35.833 -4.5 53.5s-8.16699 33.334 -15.5 47.001s-18.166 24.667 -32.499 33s-33.166 12.5 -56.499 12.5c-19.333 0 -35.833 -4.5 -49.5 -13.5s-24.5 -20.333 -32.5 -34s-13.667 -29.334 -17 -47.001s-5.66602 -34.834 -6.99902 -51.501z" />
    <glyph glyph-name="Gcircumflex" unicode="&#x11c;" horiz-adv-x="1103" 
d="M102 471l0.000976562 508.002c0 53.333 8.33301 107 25 161s43 102.833 79 146.5s83 79.5 141 107.5s128.667 42 212 42c65.333 0 124 -10 176 -30s96.5 -46.333 133.5 -79s67 -70.5 90 -113.5s39.5 -87.833 49.5 -134.5l-281 -84c-2.66699 13.333 -7 29.333 -13 48
s-15.833 35.5 -29.5 50.5s-30.834 28 -51.501 39s-45.334 16.5 -74.001 16.5c-30 0 -55.167 -5.16699 -75.5 -15.5s-36.666 -23.333 -48.999 -39s-21.333 -32.667 -27 -51s-8.5 -35.833 -8.5 -52.5v-528c0 -53.333 12 -98.5 36 -135.5s64.667 -55.5 122 -55.5
c62.667 0 106.667 15.5 132 46.5s38 68.167 38 111.5v111h-192v252h487v-310c0 -74 -9.5 -141.333 -28.5 -202s-48 -112.834 -87 -156.501s-87.5 -77.334 -145.5 -101.001s-125.333 -35.5 -202 -35.5c-82 0 -152 13 -210 39s-105 61.167 -141 105.5
s-62.667 95.833 -80 154.5s-26 120 -26 184zM170.001 1591l291 271h180l287 -271l-105 -108l-274 162l-277 -162z" />
    <glyph glyph-name="gcircumflex" unicode="&#x11d;" horiz-adv-x="956" 
d="M66 506c0 54.667 2.66504 112.334 7.99805 173.001s18.5 116.667 39.5 168s52.667 93.666 95 126.999s100.5 50 174.5 50c30 0 62 -7.5 96 -22.5s62.667 -37.5 86 -67.5l6 4v76h287v-1028c0 -61.333 -8.5 -117 -25.5 -167s-42.5 -92.667 -76.5 -128s-76.667 -63 -128 -83
s-110.333 -30 -177 -30c-151.333 0 -272.333 53.333 -363 160l201 186c46.667 -57.333 100.667 -86 162 -86c32.667 0 60.834 9.66699 84.501 29s35.5 46 35.5 80v147l-8 2c-9.33301 -13.333 -21.5 -25.5 -36.5 -36.5s-31 -20.667 -48 -29s-34.167 -14.833 -51.5 -19.5
s-32.666 -7 -45.999 -7c-74 0 -132.167 15.333 -174.5 46s-74 70 -95 118s-33.833 102 -38.5 162s-7 118.667 -7 176zM108.998 1159l288 322h187l282 -320l-110 -100l-269 203c-12 -8 -30.667 -21.667 -56 -41l-80 -61l-78.5 -59.5
c-24.333 -18.333 -42.833 -31.5 -55.5 -39.5zM355.998 498c0 -27.333 1.00195 -54.3311 3.00195 -80.998s6.5 -50.667 13.5 -72s17.667 -38.5 32 -51.5s33.833 -19.5 58.5 -19.5s44.167 7.5 58.5 22.5s25.166 34.167 32.499 57.5s12 49.666 14 78.999s3 57.666 3 84.999
c0 79.333 -6.83301 138.833 -20.5 178.5s-42.834 59.5 -87.501 59.5c-23.333 0 -41.833 -6.5 -55.5 -19.5s-24.167 -30.833 -31.5 -53.5s-12.5 -50 -15.5 -82s-4.5 -66.333 -4.5 -103z" />
    <glyph glyph-name="Gbreve" unicode="&#x11e;" horiz-adv-x="1103" 
d="M102 471l0.000976562 508.002c0 53.333 8.33301 107 25 161s43 102.833 79 146.5s83 79.5 141 107.5s128.667 42 212 42c65.333 0 124 -10 176 -30s96.5 -46.333 133.5 -79s67 -70.5 90 -113.5s39.5 -87.833 49.5 -134.5l-281 -84c-2.66699 13.333 -7 29.333 -13 48
s-15.833 35.5 -29.5 50.5s-30.834 28 -51.501 39s-45.334 16.5 -74.001 16.5c-30 0 -55.167 -5.16699 -75.5 -15.5s-36.666 -23.333 -48.999 -39s-21.333 -32.667 -27 -51s-8.5 -35.833 -8.5 -52.5v-528c0 -53.333 12 -98.5 36 -135.5s64.667 -55.5 122 -55.5
c62.667 0 106.667 15.5 132 46.5s38 68.167 38 111.5v111h-192v252h487v-310c0 -74 -9.5 -141.333 -28.5 -202s-48 -112.834 -87 -156.501s-87.5 -77.334 -145.5 -101.001s-125.333 -35.5 -202 -35.5c-82 0 -152 13 -210 39s-105 61.167 -141 105.5
s-62.667 95.833 -80 154.5s-26 120 -26 184zM231.001 1831h211.001c0 -15.333 3.16699 -31.5 9.5 -48.5s14.666 -32.667 24.999 -47s23 -26.666 38 -36.999s31.833 -15.5 50.5 -15.5c20.667 0 38.167 5.16699 52.5 15.5s26.666 22.666 36.999 36.999s17.833 30 22.5 47
s7 33.167 7 48.5h213c-2.66699 -32.667 -10.5 -68.834 -23.5 -108.501s-32.5 -76.5 -58.5 -110.5s-59.5 -62.667 -100.5 -86s-90.833 -35 -149.5 -35c-61.333 0 -112.833 11.667 -154.5 35s-75.5 52 -101.5 86s-45.167 70.833 -57.5 110.5s-19.166 75.834 -20.499 108.501z
" />
    <glyph glyph-name="gbreve" unicode="&#x11f;" horiz-adv-x="956" 
d="M66 506c0 54.667 2.66504 112.334 7.99805 173.001s18.5 116.667 39.5 168s52.667 93.666 95 126.999s100.5 50 174.5 50c30 0 62 -7.5 96 -22.5s62.667 -37.5 86 -67.5l6 4v76h287v-1028c0 -61.333 -8.5 -117 -25.5 -167s-42.5 -92.667 -76.5 -128s-76.667 -63 -128 -83
s-110.333 -30 -177 -30c-151.333 0 -272.333 53.333 -363 160l201 186c46.667 -57.333 100.667 -86 162 -86c32.667 0 60.834 9.66699 84.501 29s35.5 46 35.5 80v147l-8 2c-9.33301 -13.333 -21.5 -25.5 -36.5 -36.5s-31 -20.667 -48 -29s-34.167 -14.833 -51.5 -19.5
s-32.666 -7 -45.999 -7c-74 0 -132.167 15.333 -174.5 46s-74 70 -95 118s-33.833 102 -38.5 162s-7 118.667 -7 176zM163.998 1456h210.999c0 -15.333 3 -31.5 9 -48.5s14.167 -33 24.5 -48s23 -27.167 38 -36.5s32.167 -14 51.5 -14c20.667 0 38 4.66699 52 14
s26.167 21.5 36.5 36.5s17.833 31.167 22.5 48.5s7 33.333 7 48h213c-2.66699 -34 -10.5 -71.167 -23.5 -111.5s-32.333 -77.833 -58 -112.5s-59 -63.667 -100 -87s-90.833 -35 -149.5 -35c-61.333 0 -112.833 11.667 -154.5 35s-75.5 52.333 -101.5 87
s-45.167 72.167 -57.5 112.5s-19.166 77.5 -20.499 111.5zM355.997 498c0 -27.333 1.00195 -54.3311 3.00195 -80.998s6.5 -50.667 13.5 -72s17.667 -38.5 32 -51.5s33.833 -19.5 58.5 -19.5s44.167 7.5 58.5 22.5s25.166 34.167 32.499 57.5s12 49.666 14 78.999
s3 57.666 3 84.999c0 79.333 -6.83301 138.833 -20.5 178.5s-42.834 59.5 -87.501 59.5c-23.333 0 -41.833 -6.5 -55.5 -19.5s-24.167 -30.833 -31.5 -53.5s-12.5 -50 -15.5 -82s-4.5 -66.333 -4.5 -103z" />
    <glyph glyph-name="Gdotaccent" unicode="&#x120;" horiz-adv-x="1103" 
d="M102 471l0.000976562 508.002c0 53.333 8.33301 107 25 161s43 102.833 79 146.5s83 79.5 141 107.5s128.667 42 212 42c65.333 0 124 -10 176 -30s96.5 -46.333 133.5 -79s67 -70.5 90 -113.5s39.5 -87.833 49.5 -134.5l-281 -84c-2.66699 13.333 -7 29.333 -13 48
s-15.833 35.5 -29.5 50.5s-30.834 28 -51.501 39s-45.334 16.5 -74.001 16.5c-30 0 -55.167 -5.16699 -75.5 -15.5s-36.666 -23.333 -48.999 -39s-21.333 -32.667 -27 -51s-8.5 -35.833 -8.5 -52.5v-528c0 -53.333 12 -98.5 36 -135.5s64.667 -55.5 122 -55.5
c62.667 0 106.667 15.5 132 46.5s38 68.167 38 111.5v111h-192v252h487v-310c0 -74 -9.5 -141.333 -28.5 -202s-48 -112.834 -87 -156.501s-87.5 -77.334 -145.5 -101.001s-125.333 -35.5 -202 -35.5c-82 0 -152 13 -210 39s-105 61.167 -141 105.5
s-62.667 95.833 -80 154.5s-26 120 -26 184zM418.001 1511v267h272v-267h-272z" />
    <glyph glyph-name="gdotaccent" unicode="&#x121;" horiz-adv-x="956" 
d="M66 506c0 54.667 2.66504 112.334 7.99805 173.001s18.5 116.667 39.5 168s52.667 93.666 95 126.999s100.5 50 174.5 50c30 0 62 -7.5 96 -22.5s62.667 -37.5 86 -67.5l6 4v76h287v-1028c0 -61.333 -8.5 -117 -25.5 -167s-42.5 -92.667 -76.5 -128s-76.667 -63 -128 -83
s-110.333 -30 -177 -30c-151.333 0 -272.333 53.333 -363 160l201 186c46.667 -57.333 100.667 -86 162 -86c32.667 0 60.834 9.66699 84.501 29s35.5 46 35.5 80v147l-8 2c-9.33301 -13.333 -21.5 -25.5 -36.5 -36.5s-31 -20.667 -48 -29s-34.167 -14.833 -51.5 -19.5
s-32.666 -7 -45.999 -7c-74 0 -132.167 15.333 -174.5 46s-74 70 -95 118s-33.833 102 -38.5 162s-7 118.667 -7 176zM355.998 498c0 -27.333 1.00195 -54.3311 3.00195 -80.998s6.5 -50.667 13.5 -72s17.667 -38.5 32 -51.5s33.833 -19.5 58.5 -19.5s44.167 7.5 58.5 22.5
s25.166 34.167 32.499 57.5s12 49.666 14 78.999s3 57.666 3 84.999c0 79.333 -6.83301 138.833 -20.5 178.5s-42.834 59.5 -87.501 59.5c-23.333 0 -41.833 -6.5 -55.5 -19.5s-24.167 -30.833 -31.5 -53.5s-12.5 -50 -15.5 -82s-4.5 -66.333 -4.5 -103zM381 1143v266h272
v-266h-272z" />
    <glyph glyph-name="Gcommaaccent" unicode="&#x122;" horiz-adv-x="1103" 
d="M102 471l0.000976562 508.002c0 53.333 8.33301 107 25 161s43 102.833 79 146.5s83 79.5 141 107.5s128.667 42 212 42c65.333 0 124 -10 176 -30s96.5 -46.333 133.5 -79s67 -70.5 90 -113.5s39.5 -87.833 49.5 -134.5l-281 -84c-2.66699 13.333 -7 29.333 -13 48
s-15.833 35.5 -29.5 50.5s-30.834 28 -51.501 39s-45.334 16.5 -74.001 16.5c-30 0 -55.167 -5.16699 -75.5 -15.5s-36.666 -23.333 -48.999 -39s-21.333 -32.667 -27 -51s-8.5 -35.833 -8.5 -52.5v-528c0 -53.333 12 -98.5 36 -135.5s64.667 -55.5 122 -55.5
c62.667 0 106.667 15.5 132 46.5s38 68.167 38 111.5v111h-192v252h487v-310c0 -74 -9.5 -141.333 -28.5 -202s-48 -112.834 -87 -156.501s-87.5 -77.334 -145.5 -101.001s-125.333 -35.5 -202 -35.5c-82 0 -152 13 -210 39s-105 61.167 -141 105.5
s-62.667 95.833 -80 154.5s-26 120 -26 184zM395.001 -603.998l66 221h-60v268h279v-258l-148 -231h-137z" />
    <glyph glyph-name="gcommaaccent" unicode="&#x123;" horiz-adv-x="956" 
d="M66 506c0 54.667 2.66504 112.334 7.99805 173.001s18.5 116.667 39.5 168s52.667 93.666 95 126.999s100.5 50 174.5 50c30 0 62 -7.5 96 -22.5s62.667 -37.5 86 -67.5l6 4v76h287v-1028c0 -61.333 -8.5 -117 -25.5 -167s-42.5 -92.667 -76.5 -128s-76.667 -63 -128 -83
s-110.333 -30 -177 -30c-151.333 0 -272.333 53.333 -363 160l201 186c46.667 -57.333 100.667 -86 162 -86c32.667 0 60.834 9.66699 84.501 29s35.5 46 35.5 80v147l-8 2c-9.33301 -13.333 -21.5 -25.5 -36.5 -36.5s-31 -20.667 -48 -29s-34.167 -14.833 -51.5 -19.5
s-32.666 -7 -45.999 -7c-74 0 -132.167 15.333 -174.5 46s-74 70 -95 118s-33.833 102 -38.5 162s-7 118.667 -7 176zM355.998 498c0 -27.333 1.00195 -54.3311 3.00195 -80.998s6.5 -50.667 13.5 -72s17.667 -38.5 32 -51.5s33.833 -19.5 58.5 -19.5s44.167 7.5 58.5 22.5
s25.166 34.167 32.499 57.5s12 49.666 14 78.999s3 57.666 3 84.999c0 79.333 -6.83301 138.833 -20.5 178.5s-42.834 59.5 -87.501 59.5c-23.333 0 -41.833 -6.5 -55.5 -19.5s-24.167 -30.833 -31.5 -53.5s-12.5 -50 -15.5 -82s-4.5 -66.333 -4.5 -103zM369 1176v258
l147 229h135l-63 -219h57v-268h-276z" />
    <glyph glyph-name="Hcircumflex" unicode="&#x124;" horiz-adv-x="1161" 
d="M123 0v1425h297v-569h323v569h293v-1425h-293v586h-323v-586h-297zM195 1591l290 271h181l286 -271l-104 -108l-275 162l-276 -162z" />
    <glyph glyph-name="hcircumflex" unicode="&#x125;" horiz-adv-x="987" 
d="M-137 1591l291 271h180l287 -271l-105 -108l-274 162l-277 -162zM109 0l0.00195312 1487h286v-549l11 -2c23.333 23.333 51.666 43.833 84.999 61.5s67.666 26.5 102.999 26.5c94 0 166.667 -29 218 -87s77 -134 77 -228v-709h-287v641
c0 39.333 -9.83301 68.333 -29.5 87s-43.167 28 -70.5 28c-30 0 -55.333 -10 -76 -30s-31 -49 -31 -87v-639h-286z" />
    <glyph glyph-name="Hbar" unicode="&#x126;" horiz-adv-x="1161" 
d="M29 1057v162h94v206h297v-206h323v206h293v-206h88v-162h-88v-1057h-293v586h-323v-586h-297v1057h-94zM420 856h323v201h-323v-201z" />
    <glyph glyph-name="hbar" unicode="&#x127;" horiz-adv-x="987" 
d="M0 1153l0.00195312 164h109v170h286v-170h273v-164h-273v-215l11 -2c23.333 23.333 51.666 43.833 84.999 61.5s67.666 26.5 102.999 26.5c94 0 166.667 -29 218 -87s77 -134 77 -228v-709h-287v641c0 39.333 -9.83301 68.333 -29.5 87s-43.167 28 -70.5 28
c-30 0 -55.333 -10 -76 -30s-31 -49 -31 -87v-639h-286v1153h-109z" />
    <glyph glyph-name="Itilde" unicode="&#x128;" horiz-adv-x="677" 
d="M-41 1569c32.667 74 70.5 127.999 113.5 161.999s89.833 51 140.5 51c24.667 0 48.167 -4.83301 70.5 -14.5s43.833 -19.667 64.5 -30l57.5 -28.5c17.667 -8.66699 34.167 -13 49.5 -13c22 0 41.833 6.16699 59.5 18.5s40.167 35.5 67.5 69.5
c23.333 -12 46.166 -24.667 68.499 -38l68.5 -40c-35.333 -78 -72.166 -133 -110.499 -165s-79.5 -48 -123.5 -48c-26 0 -50.5 4.5 -73.5 13.5s-45.5 18.5 -67.5 28.5l-61.5 28.5c-19 9 -37.5 13.5 -55.5 13.5c-20.667 0 -41.5 -6.16699 -62.5 -18.5
s-45.167 -36.166 -72.5 -71.499zM195 -0.000976562v1425h297v-1425h-297z" />
    <glyph glyph-name="itilde" unicode="&#x129;" horiz-adv-x="677" 
d="M-41 1221c32.667 74 70.5 127.999 113.5 161.999s89.833 51 140.5 51c24.667 0 48.167 -4.83301 70.5 -14.5s43.833 -19.667 64.5 -30l57.5 -28.5c17.667 -8.66699 34.167 -13 49.5 -13c22 0 41.833 6 59.5 18s40.167 35.333 67.5 70
c23.333 -12 46.166 -24.667 68.499 -38l68.5 -40c-35.333 -78 -72.166 -133 -110.499 -165s-79.5 -48 -123.5 -48c-26 0 -50.5 4.33301 -73.5 13s-45.5 18.167 -67.5 28.5l-61.5 29c-19 9 -37.5 13.5 -55.5 13.5c-20.667 0 -41.5 -6.16699 -62.5 -18.5
s-45.167 -36.166 -72.5 -71.499zM203 -0.000976562v1014h286v-1014h-286z" />
    <glyph glyph-name="Imacron" unicode="&#x12a;" horiz-adv-x="548" 
d="M-25 1540v234h598v-234h-598zM129 0v1425h297v-1425h-297z" />
    <glyph glyph-name="imacron" unicode="&#x12b;" horiz-adv-x="557" 
d="M-20 1171v234h598v-234h-598zM135 0v1014h287v-1014h-287z" />
    <glyph glyph-name="Ibreve" unicode="&#x12c;" horiz-adv-x="589" 
d="M-10 1841l210.999 0.000976562c0 -15.333 3 -31.5 9 -48.5s14.167 -32.667 24.5 -47s23 -26.5 38 -36.5s32.167 -15 51.5 -15c20.667 0 38 5 52 15s26.167 22.167 36.5 36.5s17.833 30.166 22.5 47.499s7 33.333 7 48h213c-2.66699 -32.667 -10.5 -68.834 -23.5 -108.501
s-32.333 -76.5 -58 -110.5s-59 -62.667 -100 -86s-90.833 -35 -149.5 -35c-61.333 0 -113 11.667 -155 35s-75.833 52 -101.5 86s-44.667 70.833 -57 110.5s-19.166 75.834 -20.499 108.501zM161.999 0.000976562v1425h297v-1425h-297z" />
    <glyph glyph-name="ibreve" unicode="&#x12d;" horiz-adv-x="583" 
d="M-41 1456h210.999c0 -15.333 3 -31.5 9 -48.5s14.167 -33 24.5 -48s23 -27.167 38 -36.5s32.167 -14 51.5 -14c20.667 0 38.167 4.66699 52.5 14s26.5 21.5 36.5 36.5s17.5 31.167 22.5 48.5s7.5 33.333 7.5 48h213c-2.66699 -34 -10.5 -71.167 -23.5 -111.5
s-32.5 -77.833 -58.5 -112.5s-59.5 -63.667 -100.5 -87s-90.833 -35 -149.5 -35c-61.333 0 -112.833 11.667 -154.5 35s-75.5 52.333 -101.5 87s-45.167 72.167 -57.5 112.5s-19.166 77.5 -20.499 111.5zM146.999 0v1014h287v-1014h-287z" />
    <glyph glyph-name="Iogonek" unicode="&#x12e;" horiz-adv-x="548" 
d="M106 -221c0 30 6.5 63 19.5 99s33.833 76.667 62.5 122h-59v1425h297v-1425h-68c-31.333 -46.667 -51.666 -86 -60.999 -118s-14 -57 -14 -75c0 -23.333 7.16699 -41 21.5 -53s32.833 -18 55.5 -18c12 0 28 2.33301 48 7s43.667 12.667 71 24l51 -132
c-32.667 -19.333 -67.334 -34 -104.001 -44s-72.334 -15 -107.001 -15c-61.333 0 -112.166 18.833 -152.499 56.5s-60.5 86.5 -60.5 146.5z" />
    <glyph glyph-name="iogonek" unicode="&#x12f;" horiz-adv-x="518" 
d="M90 -221c0 30 6.5 63 19.5 99s33.833 76.667 62.5 122h-55v1014h286v-1014h-61c-31.333 -46.667 -51.833 -86 -61.5 -118s-14.5 -57 -14.5 -75c0 -23.333 7.16699 -41 21.5 -53s33.166 -18 56.499 -18c12 0 28 2.33301 48 7s43.667 12.667 71 24l51 -132
c-32.667 -19.333 -67.5 -34 -104.5 -44s-72.5 -15 -106.5 -15c-61.333 0 -112.166 18.833 -152.499 56.5s-60.5 86.5 -60.5 146.5zM117 1165v260h286v-260h-286z" />
    <glyph glyph-name="Idotaccent" unicode="&#x130;" horiz-adv-x="548" 
d="M129 0v1425h297v-1425h-297zM135 1511v267h273v-267h-273z" />
    <glyph glyph-name="dotlessi" unicode="&#x131;" horiz-adv-x="518" 
d="M117 0v1014h286v-1014h-286z" />
    <glyph glyph-name="IJ" unicode="&#x132;" horiz-adv-x="1417" 
d="M129 0v1425h297v-1425h-297zM498 170l194 199c12 -19.333 25.667 -35.5 41 -48.5s30.833 -23.667 46.5 -32s31 -14.166 46 -17.499s27.833 -5 38.5 -5c42 0 74.333 14 97 42s34 63.333 34 106v1011h295v-1022c0 -74 -10.833 -136.833 -32.5 -188.5
s-51.334 -94.167 -89.001 -127.5s-82.167 -57.833 -133.5 -73.5s-105.666 -23.5 -162.999 -23.5c-74 0 -142.667 13.667 -206 41s-119.333 73.666 -168 138.999z" />
    <glyph glyph-name="ij" unicode="&#x133;" horiz-adv-x="1028" 
d="M117 0v1014h286v-1014h-286zM117 1165v260h286v-260h-286zM475 -147h51c38 0 62.833 13.5 74.5 40.5s17.5 57.833 17.5 92.5v1030h287v-1106c0 -104 -32.333 -182.667 -97 -236s-151.667 -80 -261 -80h-72v259zM618 1165v260h287v-260h-287z" />
    <glyph glyph-name="Jcircumflex" unicode="&#x134;" horiz-adv-x="892" 
d="M-16 172l194 199.001c12 -19.333 25.667 -35.5 41 -48.5s30.833 -23.5 46.5 -31.5s31 -13.833 46 -17.5s27.833 -5.5 38.5 -5.5c42 0 74.333 14 97 42s34 63.333 34 106v1011h295v-1021c0 -74 -10.833 -137 -32.5 -189s-51.334 -94.667 -89.001 -128
s-82.167 -57.833 -133.5 -73.5s-105.666 -23.5 -162.999 -23.5c-74 0 -142.667 13.667 -206 41s-119.333 73.666 -168 138.999zM246 1595l291 271h180l287 -271l-105 -108l-274 162l-277 -162z" />
    <glyph glyph-name="jcircumflex" unicode="&#x135;" horiz-adv-x="675" 
d="M-41 1159l289 322h186l283 -320l-111 -100l-268 203c-12 -8 -30.667 -21.667 -56 -41l-80 -61l-79 -59.5c-24.667 -18.333 -43 -31.5 -55 -39.5zM43 -147h51c38 0 63.167 13.5 75.5 40.5s18.5 57.833 18.5 92.5v1030h287v-1106c0 -104 -32.667 -182.667 -98 -236
s-152 -80 -260 -80h-74v259z" />
    <glyph glyph-name="Kcommaaccent" unicode="&#x136;" horiz-adv-x="1130" 
d="M123 0v1425h297v-528h10c12 18 24.167 37.5 36.5 58.5l53.5 88l93.5 146.5l156.5 235h352l-397 -583l212.5 -421l215.5 -421h-336l-138.5 282.5l-137.5 284.5l-121 -186v-381h-297zM455 -563l65 221h-59v268h278v-258l-147 -231h-137z" />
    <glyph glyph-name="kcommaaccent" unicode="&#x137;" horiz-adv-x="989" 
d="M109 0v1483h284v-764h6l217 293h363l-330 -402l348 -610h-344l-198 377l-62 -84v-293h-284zM371 -604l65 221h-59v268h278v-258l-147 -231h-137z" />
    <glyph glyph-name="kgreenlandic" unicode="&#x138;" horiz-adv-x="989" 
d="M109 0v1012h284v-293h6l217 293h363l-330 -402l348 -610h-333l-201 381l-70 -88v-293h-284z" />
    <glyph glyph-name="Lacute" unicode="&#x139;" horiz-adv-x="987" 
d="M125 0v1425h297v-1144h532v-281h-829zM152 1626l354 264l172 -204l-420 -199z" />
    <glyph glyph-name="lacute" unicode="&#x13a;" horiz-adv-x="532" 
d="M98 283l0.000976562 1204h287v-1141c0 -39.333 7.16699 -65.166 21.5 -77.499s35.166 -18.5 62.499 -18.5h33v-254h-105c-95.333 0 -169 21.5 -221 64.5s-78 117.167 -78 222.5zM104.001 1657l355 264l172 -205l-420 -198z" />
    <glyph glyph-name="Lcommaaccent" unicode="&#x13b;" horiz-adv-x="987" 
d="M125 0v1425h297v-1144h532v-281h-829zM403 -604l66 221h-59v268h278v-258l-147 -231h-138z" />
    <glyph glyph-name="lcommaaccent" unicode="&#x13c;" horiz-adv-x="532" 
d="M98 283l0.000976562 1204h287v-1141c0 -39.333 7.16699 -65.166 21.5 -77.499s35.166 -18.5 62.499 -18.5h33v-254h-105c-95.333 0 -169 21.5 -221 64.5s-78 117.167 -78 222.5zM143.001 -600.001l66 221h-59v268h278v-258l-147 -231h-138z" />
    <glyph glyph-name="Lcaron" unicode="&#x13d;" horiz-adv-x="987" 
d="M125 0v1425h297v-1144h532v-281h-829zM557 936l66 221h-60v268h279v-258l-148 -231h-137z" />
    <glyph glyph-name="lcaron" unicode="&#x13e;" horiz-adv-x="722" 
d="M98 283l0.000976562 1204h287v-1141c0 -39.333 7.16699 -65.166 21.5 -77.499s35.166 -18.5 62.499 -18.5h33v-254h-105c-95.333 0 -169 21.5 -221 64.5s-78 117.167 -78 222.5zM465.001 992.999l65 221h-59v269h279v-258l-148 -232h-137z" />
    <glyph glyph-name="Ldot" unicode="&#x13f;" horiz-adv-x="987" 
d="M125 0v1425h297v-1144h532v-281h-829zM600 618v267h272v-267h-272z" />
    <glyph glyph-name="ldot" unicode="&#x140;" horiz-adv-x="704" 
d="M98 283l0.000976562 1204h287v-1141c0 -39.333 7.16699 -65.166 21.5 -77.499s35.166 -18.5 62.499 -18.5h33v-254h-105c-95.333 0 -169 21.5 -221 64.5s-78 117.167 -78 222.5zM461.001 654.999v267h272v-267h-272z" />
    <glyph glyph-name="Lslash" unicode="&#x141;" horiz-adv-x="1048" 
d="M0 567l186 119v739h297v-548l152 98l94 -150l-246 -157v-392h533v-276h-830v477l-92 -59z" />
    <glyph glyph-name="lslash" unicode="&#x142;" horiz-adv-x="671" 
d="M0 645l182.001 114.999v727h287v-543l106 68l95 -150l-201 -129v-387c0 -39.333 7.16699 -65.166 21.5 -77.499s35.166 -18.5 62.499 -18.5h33v-254h-105c-95.333 0 -169 21.5 -221 64.5s-78 117.167 -78 222.5v268l-86 -55z" />
    <glyph glyph-name="Nacute" unicode="&#x143;" horiz-adv-x="1220" 
d="M121 0v1425h262l233 -426l187 -344l6 2v768h295v-1425h-260l-264 471l-156 305l-6 -2v-774h-297zM393 1626l355 264l172 -204l-420 -199z" />
    <glyph glyph-name="nacute" unicode="&#x144;" horiz-adv-x="987" 
d="M104 0v1014h287v-82l8 -2c23.333 27.333 52.5 49.833 87.5 67.5s70.167 26.5 105.5 26.5c102.667 0 177.167 -28 223.5 -84s69.5 -131.667 69.5 -227v-713h-287v641c0 39.333 -9.83301 68.333 -29.5 87s-43.167 28 -70.5 28c-30 0 -55.333 -10 -76 -30s-31 -49 -31 -87
v-639h-287zM330 1167l190 400l246 -99l-277 -374z" />
    <glyph glyph-name="Ncommaaccent" unicode="&#x145;" horiz-adv-x="1220" 
d="M121 0v1425h262l233 -426l187 -344l6 2v768h295v-1425h-260l-264 475l-156 301l-6 -2v-774h-297zM471 -563l66 221h-60v268h279v-258l-148 -231h-137z" />
    <glyph glyph-name="ncommaaccent" unicode="&#x146;" horiz-adv-x="987" 
d="M104 0v1014h287v-82l8 -2c23.333 27.333 52.5 49.833 87.5 67.5s70.167 26.5 105.5 26.5c102.667 0 177.167 -28 223.5 -84s69.5 -131.667 69.5 -227v-713h-287v641c0 39.333 -9.83301 68.333 -29.5 87s-43.167 28 -70.5 28c-30 0 -55.333 -10 -76 -30s-31 -49 -31 -87
v-639h-287zM342 -604l66 221h-60v268h279v-258l-148 -231h-137z" />
    <glyph glyph-name="Ncaron" unicode="&#x147;" horiz-adv-x="1220" 
d="M121 0v1425h262l233 -426l187 -344l6 2v768h295v-1425h-260l-264 475l-156 301l-6 -2v-774h-297zM240 1755l102 109l274 -162l275 162l106 -109l-286 -266h-183z" />
    <glyph glyph-name="ncaron" unicode="&#x148;" horiz-adv-x="987" 
d="M86 1382l109 99c12 -8 30.333 -21.667 55 -41l79 -60.5l79.5 -60.5c25 -19.333 43.833 -33 56.5 -41l268 203l111 -99l-283 -321h-186zM104 0v1014h287v-82l8 -2c23.333 27.333 52.5 49.833 87.5 67.5s70.167 26.5 105.5 26.5c102.667 0 177.167 -28 223.5 -84
s69.5 -131.667 69.5 -227v-713h-287v641c0 39.333 -9.83301 68.333 -29.5 87s-43.167 28 -70.5 28c-30 0 -55.333 -10 -76 -30s-31 -49 -31 -87v-639h-287z" />
    <glyph glyph-name="napostrophe" unicode="&#x149;" horiz-adv-x="1067" 
d="M-23 885l66 221h-59v268h278v-258l-147 -231h-138zM266 0v1014h287v-82l8 -2c23.333 27.333 52.333 49.833 87 67.5s70 26.5 106 26.5c102.667 0 177.167 -28 223.5 -84s69.5 -131.667 69.5 -227v-713h-287v641c0 39.333 -10 68.333 -30 87s-43.667 28 -71 28
c-30 0 -55.167 -10 -75.5 -30s-30.5 -49 -30.5 -87v-639h-287z" />
    <glyph glyph-name="Eng" unicode="&#x14a;" horiz-adv-x="1220" 
d="M121 0l0.00195312 1425h262l116.5 -211.5l116.5 -214.5l185 -344c2.66699 0 4 0.333008 4 1s1.33301 1 4 1v768h293v-1536c0 -52 -7.5 -95 -22.5 -129s-34.833 -61.167 -59.5 -81.5s-53.334 -35 -86.001 -44s-67 -13.5 -103 -13.5
c-50.667 0 -102.334 7.66699 -155.001 23l22 231c31.333 0 59 2 83 6s36 20.333 36 49v133l-194 355l-199 370c-2.66699 0 -4 -0.333008 -4 -1s-1.33301 -1 -4 -1v-786h-295z" />
    <glyph glyph-name="eng" unicode="&#x14b;" horiz-adv-x="987" 
d="M104 0l0.00292969 1014h287v-82c1.33301 0 2.33301 -0.333008 3 -1s1.66699 -1 3 -1c24.667 26 56.5 48.167 95.5 66.5s76.167 27.5 111.5 27.5c62.667 0 112.5 -9.83301 149.5 -29.5s65 -46.667 84 -81s31.333 -74.333 37 -120s8.5 -94.5 8.5 -146.5v-758
c0 -52 -7.5 -95 -22.5 -129s-34.833 -61.167 -59.5 -81.5s-53.334 -35 -86.001 -44s-67 -13.5 -103 -13.5c-50.667 0 -102.334 7.66699 -155.001 23l22 231c31.333 0 59 2 83 6s36 20.333 36 49v711c0 39.333 -9.83301 68.333 -29.5 87s-43.834 28 -72.501 28
c-30 0 -55 -10 -75 -30s-30 -49 -30 -87v-639h-287z" />
    <glyph glyph-name="Omacron" unicode="&#x14c;" horiz-adv-x="1095" 
d="M90 471l-0.00195312 508c0 53.333 8.16699 107 24.5 161s43 102.833 80 146.5s84.5 79.5 142.5 107.5s128.667 42 212 42c78 0 145.667 -13.333 203 -40s104.333 -61.5 141 -104.5s64.334 -91.833 83.001 -146.5s28 -110 28 -166v-530
c0 -70.667 -11.333 -134.5 -34 -191.5s-54.167 -105.667 -94.5 -146s-88.166 -71 -143.499 -92s-116.333 -31.5 -183 -31.5c-82 0 -152 13 -210 39s-105.5 61.167 -142.5 105.5s-64 95.833 -81 154.5s-25.5 120 -25.5 184zM245.998 1540v234h598v-234h-598zM384.998 463
c0 -54.667 12.667 -99.833 38 -135.5s67.333 -53.5 126 -53.5c42 0 78.5 13.667 109.5 41s46.5 65 46.5 113v563c0 13.333 -2.5 29 -7.5 47s-13.667 35.167 -26 51.5s-28.333 30.333 -48 42s-44.5 17.5 -74.5 17.5s-55.333 -5.16699 -76 -15.5s-37.5 -23.333 -50.5 -39
s-22.5 -32.667 -28.5 -51s-9 -35.833 -9 -52.5v-528z" />
    <glyph glyph-name="omacron" unicode="&#x14d;" horiz-adv-x="940" 
d="M74 504c1.33301 57.333 4.66797 114.999 10.001 172.999s15.666 104.667 30.999 140c28.667 65.333 72.667 116.833 132 154.5s136.666 56.5 231.999 56.5c94 0 168.667 -18.333 224 -55s94.666 -83 117.999 -139c19.333 -44 31.666 -93.667 36.999 -149
s8 -115.666 8 -180.999c0 -72.667 -3.66699 -135.5 -11 -188.5s-20.666 -99.5 -39.999 -139.5c-35.333 -72.667 -84.166 -122.5 -146.499 -149.5s-132.166 -40.5 -209.499 -40.5c-69.333 0 -128.333 10.833 -177 32.5s-88.667 52.5 -120 92.5c-32.667 44 -55.5 98 -68.5 162
s-19.5 141 -19.5 231zM180.002 1171v234h598v-234h-598zM358.002 499.999c0 -34 1.16797 -66.833 3.50098 -98.5s8.16602 -59.167 17.499 -82.5c16.667 -46.667 47.334 -69.667 92.001 -69c9.33301 0 19.166 1 29.499 3s20.333 6.83301 30 14.5s18.167 18.667 25.5 33
s13 32.833 17 55.5c2.66699 19.333 5.16699 43 7.5 71s3.5 60.333 3.5 97c0 70.667 -7 126 -21 166c-18 49.333 -47.333 74 -88 74c-45.333 0 -77.333 -24 -96 -72c-8 -23.333 -13.5 -50.333 -16.5 -81s-4.5 -67.667 -4.5 -111z" />
    <glyph glyph-name="Obreve" unicode="&#x14e;" horiz-adv-x="1095" 
d="M90 471l-0.00195312 508c0 53.333 8.16699 107 24.5 161s43 102.833 80 146.5s84.5 79.5 142.5 107.5s128.667 42 212 42c78 0 145.667 -13.333 203 -40s104.333 -61.5 141 -104.5s64.334 -91.833 83.001 -146.5s28 -110 28 -166v-530
c0 -70.667 -11.333 -134.5 -34 -191.5s-54.167 -105.667 -94.5 -146s-88.166 -71 -143.499 -92s-116.333 -31.5 -183 -31.5c-82 0 -152 13 -210 39s-105.5 61.167 -142.5 105.5s-64 95.833 -81 154.5s-25.5 120 -25.5 184zM214.998 1831h210.999c0 -15.333 3 -31.5 9 -48.5
s14.167 -32.667 24.5 -47s23 -26.666 38 -36.999s32.167 -15.5 51.5 -15.5c20.667 0 38.167 5.16699 52.5 15.5s26.5 22.666 36.5 36.999s17.5 30 22.5 47s7.5 33.167 7.5 48.5h213c-2.66699 -32.667 -10.5 -68.834 -23.5 -108.501s-32.5 -76.5 -58.5 -110.5
s-59.5 -62.667 -100.5 -86s-90.833 -35 -149.5 -35c-61.333 0 -112.833 11.667 -154.5 35s-75.5 52 -101.5 86s-45.167 70.833 -57.5 110.5s-19.166 75.834 -20.499 108.501zM384.997 463c0 -54.667 12.667 -99.833 38 -135.5s67.333 -53.5 126 -53.5
c42 0 78.5 13.667 109.5 41s46.5 65 46.5 113v563c0 13.333 -2.5 29 -7.5 47s-13.667 35.167 -26 51.5s-28.333 30.333 -48 42s-44.5 17.5 -74.5 17.5s-55.333 -5.16699 -76 -15.5s-37.5 -23.333 -50.5 -39s-22.5 -32.667 -28.5 -51s-9 -35.833 -9 -52.5v-528z" />
    <glyph glyph-name="obreve" unicode="&#x14f;" horiz-adv-x="940" 
d="M74 504c1.33301 57.333 4.66797 114.999 10.001 172.999s15.666 104.667 30.999 140c28.667 65.333 72.667 116.833 132 154.5s136.666 56.5 231.999 56.5c94 0 168.667 -18.333 224 -55s94.666 -83 117.999 -139c19.333 -44 31.666 -93.667 36.999 -149
s8 -115.666 8 -180.999c0 -72.667 -3.66699 -135.5 -11 -188.5s-20.666 -99.5 -39.999 -139.5c-35.333 -72.667 -84.166 -122.5 -146.499 -149.5s-132.166 -40.5 -209.499 -40.5c-69.333 0 -128.333 10.833 -177 32.5s-88.667 52.5 -120 92.5c-32.667 44 -55.5 98 -68.5 162
s-19.5 141 -19.5 231zM141.002 1456h211c0 -15.333 3.16699 -31.5 9.5 -48.5s14.5 -33 24.5 -48s22.5 -27.167 37.5 -36.5s32.167 -14 51.5 -14c20.667 0 38.167 4.66699 52.5 14s26.666 21.5 36.999 36.5s17.833 31.167 22.5 48.5s7 33.333 7 48h213
c-2.66699 -34 -10.5 -71.167 -23.5 -111.5s-32.5 -77.833 -58.5 -112.5s-59.5 -63.667 -100.5 -87s-90.833 -35 -149.5 -35c-61.333 0 -112.833 11.667 -154.5 35s-75.5 52.333 -101.5 87s-45.167 72.167 -57.5 112.5s-19.166 77.5 -20.499 111.5zM358.002 499.999
c0 -34 1.16797 -66.833 3.50098 -98.5s8.16602 -59.167 17.499 -82.5c16.667 -46.667 47.334 -69.667 92.001 -69c9.33301 0 19.166 1 29.499 3s20.333 6.83301 30 14.5s18.167 18.667 25.5 33s13 32.833 17 55.5c2.66699 19.333 5.16699 43 7.5 71s3.5 60.333 3.5 97
c0 70.667 -7 126 -21 166c-18 49.333 -47.333 74 -88 74c-45.333 0 -77.333 -24 -96 -72c-8 -23.333 -13.5 -50.333 -16.5 -81s-4.5 -67.667 -4.5 -111z" />
    <glyph glyph-name="Ohungarumlaut" unicode="&#x150;" horiz-adv-x="1095" 
d="M90 471l-0.00195312 508c0 53.333 8.16699 107 24.5 161s43 102.833 80 146.5s84.5 79.5 142.5 107.5s128.667 42 212 42c78 0 145.667 -13.333 203 -40s104.333 -61.5 141 -104.5s64.334 -91.833 83.001 -146.5s28 -110 28 -166v-530
c0 -70.667 -11.333 -134.5 -34 -191.5s-54.167 -105.667 -94.5 -146s-88.166 -71 -143.499 -92s-116.333 -31.5 -183 -31.5c-82 0 -152 13 -210 39s-105.5 61.167 -142.5 105.5s-64 95.833 -81 154.5s-25.5 120 -25.5 184zM161.998 1599l325 299l185 -174l-389 -254z
M384.998 463c0 -54.667 12.667 -99.833 38 -135.5s67.333 -53.5 126 -53.5c42 0 78.5 13.667 109.5 41s46.5 65 46.5 113v563c0 13.333 -2.5 29 -7.5 47s-13.667 35.167 -26 51.5s-28.333 30.333 -48 42s-44.5 17.5 -74.5 17.5s-55.333 -5.16699 -76 -15.5
s-37.5 -23.333 -50.5 -39s-22.5 -32.667 -28.5 -51s-9 -35.833 -9 -52.5v-528zM577.998 1604l331 292l183 -176l-396 -245z" />
    <glyph glyph-name="ohungarumlaut" unicode="&#x151;" horiz-adv-x="940" 
d="M74 504c1.33301 57.333 4.66797 114.999 10.001 172.999s15.666 104.667 30.999 140c28.667 65.333 72.667 116.833 132 154.5s136.666 56.5 231.999 56.5c94 0 168.667 -18.333 224 -55s94.666 -83 117.999 -139c19.333 -44 31.666 -93.667 36.999 -149
s8 -115.666 8 -180.999c0 -72.667 -3.66699 -135.5 -11 -188.5s-20.666 -99.5 -39.999 -139.5c-35.333 -72.667 -84.166 -122.5 -146.499 -149.5s-132.166 -40.5 -209.499 -40.5c-69.333 0 -128.333 10.833 -177 32.5s-88.667 52.5 -120 92.5c-32.667 44 -55.5 98 -68.5 162
s-19.5 141 -19.5 231zM172.002 1196l190 399l246 -98l-276 -375zM358.002 499.999c0 -34 1.16797 -66.833 3.50098 -98.5s8.16602 -59.167 17.499 -82.5c16.667 -46.667 47.334 -69.667 92.001 -69c9.33301 0 19.166 1 29.499 3s20.333 6.83301 30 14.5
s18.167 18.667 25.5 33s13 32.833 17 55.5c2.66699 19.333 5.16699 43 7.5 71s3.5 60.333 3.5 97c0 70.667 -7 126 -21 166c-18 49.333 -47.333 74 -88 74c-45.333 0 -77.333 -24 -96 -72c-8 -23.333 -13.5 -50.333 -16.5 -81s-4.5 -67.667 -4.5 -111zM496.003 1167l190 400
l246 -99l-277 -374z" />
    <glyph glyph-name="OE" unicode="&#x152;" horiz-adv-x="1523" 
d="M90 471l0.000976562 508c0 53.333 8.16699 107 24.5 161s43 102.833 80 146.5s84.5 79.5 142.5 107.5s128.667 42 212 42c19.333 0 38.166 -1 56.499 -3s35.5 -4.66699 51.5 -8h816v-274h-533v-295h459v-272h-459v-303h533v-281h-807c-36.667 -8 -75.667 -12 -117 -12
c-82 0 -152 13 -210 39s-105.5 61.167 -142.5 105.5s-64 95.833 -81 154.5s-25.5 120 -25.5 184zM385.001 463c0 -54.667 12.668 -99.833 38.001 -135.5s67.333 -53.5 126 -53.5c35.333 0 66.666 9.66699 93.999 29v817c-12 8 -25.833 14.833 -41.5 20.5
s-33.167 8.5 -52.5 8.5c-30 0 -55.333 -5.16699 -76 -15.5s-37.5 -23.333 -50.5 -39s-22.5 -32.667 -28.5 -51s-9 -35.833 -9 -52.5v-528z" />
    <glyph glyph-name="oe" unicode="&#x153;" horiz-adv-x="1458" 
d="M70 504c1.33301 57.333 5.33398 114.999 12.001 172.999s17.667 104.667 33 140c28.667 65.333 74.334 116.833 137.001 154.5s138.334 56.5 227.001 56.5c57.333 0 106.833 -7.16699 148.5 -21.5s77.5 -33.833 107.5 -58.5c31.333 26 68.5 45.5 111.5 58.5
s93.167 19.5 150.5 19.5c82 0 149 -13.667 201 -41s92.667 -63.833 122 -109.5s49.5 -99.167 60.5 -160.5s16.5 -127 16.5 -197v-80h-516v-16c0 -23.333 1.33301 -45.166 4 -65.499s8 -38.333 16 -54s19.167 -28 33.5 -37s33.166 -13.5 56.499 -13.5
c28.667 0 54.667 6.5 78 19.5s46.666 36.5 69.999 70.5l239 -129c-35.333 -76.667 -87.833 -133 -157.5 -169s-145.5 -54 -227.5 -54c-110.667 0 -197.334 26 -260.001 78c-35.333 -31.333 -76.5 -52.833 -123.5 -64.5s-97.167 -17.5 -150.5 -17.5
c-69.333 0 -128.333 10.833 -177 32.5s-88.667 52.5 -120 92.5c-32.667 44 -56.167 98 -70.5 162s-21.5 141 -21.5 231zM358.001 499.999c0 -34 1.16699 -66.832 3.5 -98.499s8.16602 -59.167 17.499 -82.5c16.667 -46.667 47.334 -69.667 92.001 -69
c9.33301 0 19.166 1 29.499 3s20.333 6.83301 30 14.5s18.167 18.667 25.5 33s13 32.833 17 55.5c2.66699 19.333 4.83398 43 6.50098 71s2.5 60.333 2.5 97c0 35.333 -1.5 66.666 -4.5 93.999s-7.83301 51.333 -14.5 72c-18 49.333 -47.333 74 -88 74
c-45.333 0 -77.333 -24 -96 -72c-8 -23.333 -13.5 -50.333 -16.5 -81s-4.5 -67.667 -4.5 -111zM881.001 618l214.994 0.000976562c0 18 -1.5 35.833 -4.5 53.5s-8.16699 33.334 -15.5 47.001s-18.166 24.667 -32.499 33s-33.166 12.5 -56.499 12.5
c-19.333 0 -35.666 -4.5 -48.999 -13.5s-24.166 -20.333 -32.499 -34s-14.166 -29.334 -17.499 -47.001s-5.66602 -34.834 -6.99902 -51.501z" />
    <glyph glyph-name="Racute" unicode="&#x154;" horiz-adv-x="1124" 
d="M125 0v1425h471c60 0 117 -8.16699 171 -24.5s101.167 -41.5 141.5 -75.5s72 -77.333 95 -130s34.5 -115.667 34.5 -189c0 -91.333 -17.667 -169.833 -53 -235.5s-87.333 -117.167 -156 -154.5l230 -616h-322l-190 563h-125v-563h-297zM317 1626l355 264l172 -204
l-420 -199zM422 834h160c48 0 88.667 12.667 122 38s50 69.333 50 132c0 54.667 -15.333 93.5 -46 116.5s-70 34.5 -118 34.5h-168v-321z" />
    <glyph glyph-name="racute" unicode="&#x155;" horiz-adv-x="745" 
d="M113 -2l-0.000976562 1016h284v-113l6 -2c26 45.333 58.167 77.5 96.5 96.5s80.166 28.5 125.499 28.5c22 0 42.833 -2 62.5 -6s38.167 -12.333 55.5 -25l-51 -266c-23.333 10.667 -45.166 18.167 -65.499 22.5s-40.166 6.5 -59.499 6.5c-50.667 0 -91 -13.333 -121 -40
s-45 -70.667 -45 -132v-586h-288zM241.999 1167l190 400l246 -99l-277 -374z" />
    <glyph glyph-name="Rcommaaccent" unicode="&#x156;" horiz-adv-x="1124" 
d="M125 0v1425h471c60 0 117 -8.16699 171 -24.5s101.167 -41.5 141.5 -75.5s72 -77.333 95 -130s34.5 -115.667 34.5 -189c0 -91.333 -17.667 -169.833 -53 -235.5s-87.333 -117.167 -156 -154.5l230 -616h-322l-190 563h-125v-563h-297zM422 834h160
c48 0 88.667 12.667 122 38s50 69.333 50 132c0 54.667 -15.333 93.5 -46 116.5s-70 34.5 -118 34.5h-168v-321zM440 -563l66 221h-60v268h279v-258l-147 -231h-138z" />
    <glyph glyph-name="rcommaaccent" unicode="&#x157;" horiz-adv-x="745" 
d="M113 -2l-0.000976562 1016h284v-113l6 -2c26 45.333 58.167 77.5 96.5 96.5s80.166 28.5 125.499 28.5c22 0 42.833 -2 62.5 -6s38.167 -12.333 55.5 -25l-51 -266c-23.333 10.667 -45.166 18.167 -65.499 22.5s-40.166 6.5 -59.499 6.5c-50.667 0 -91 -13.333 -121 -40
s-45 -70.667 -45 -132v-586h-288zM112.999 -602l65 221h-59v268h278v-258l-147 -231h-137z" />
    <glyph glyph-name="Rcaron" unicode="&#x158;" horiz-adv-x="1124" 
d="M102 1755l103 109l274 -162l275 162l106 -109l-287 -266h-182zM125 0v1425h471c60 0 117 -8.16699 171 -24.5s101.167 -41.5 141.5 -75.5s72 -77.333 95 -130s34.5 -115.667 34.5 -189c0 -91.333 -17.667 -169.833 -53 -235.5s-87.333 -117.167 -156 -154.5l230 -616
h-322l-190 563h-125v-563h-297zM422 834h160c48 0 88.667 12.667 122 38s50 69.333 50 132c0 54.667 -15.333 93.5 -46 116.5s-70 34.5 -118 34.5h-168v-321z" />
    <glyph glyph-name="rcaron" unicode="&#x159;" horiz-adv-x="745" 
d="M0 1382l109 99c12 -8 30.333 -21.667 55 -41l79 -60.5l79.5 -60.5c25 -19.333 43.833 -33 56.5 -41l268 203l111 -99l-283 -321h-186zM113 -2l-0.000976562 1016h284v-113l6 -2c26 45.333 58.167 77.5 96.5 96.5s80.166 28.5 125.499 28.5c22 0 42.833 -2 62.5 -6
s38.167 -12.333 55.5 -25l-51 -266c-23.333 10.667 -45.166 18.167 -65.499 22.5s-40.166 6.5 -59.499 6.5c-50.667 0 -91 -13.333 -121 -40s-45 -70.667 -45 -132v-586h-288z" />
    <glyph glyph-name="Sacute" unicode="&#x15a;" horiz-adv-x="1083" 
d="M63 231l234.004 189.005c36.667 -52 75.167 -90.333 115.5 -115s86.5 -37 138.5 -37c62.667 0 106 13.667 130 41s36 61 36 101c0 27.333 -6.5 50.833 -19.5 70.5s-30.833 37 -53.5 52s-49 28 -79 39s-62.667 21.167 -98 30.5c-65.333 20.667 -121.333 44 -168 70
s-84.667 55.333 -114 88s-50.833 70.167 -64.5 112.5s-20.5 90.166 -20.5 143.499c0 61.333 11 117.666 33 168.999s52.833 95.666 92.5 132.999s87.167 66.333 142.5 87s116.333 31 183 31c108 0 196.5 -16.833 265.5 -50.5s127.167 -83.167 174.5 -148.5l-213 -201
c-68 80.667 -143.667 121 -227 121c-44 0 -80 -11.667 -108 -35s-42 -54 -42 -92c0 -20.667 6.83301 -39.167 20.5 -55.5s32.167 -31.333 55.5 -45s50.666 -26.667 81.999 -39s64.666 -23.833 99.999 -34.5c70.667 -22 130 -47 178 -75s86.333 -60 115 -96
s48.834 -75.833 60.501 -119.5s17.5 -91.5 17.5 -143.5c0 -136.667 -42 -242.834 -126 -318.501s-203 -113.5 -357 -113.5c-60 0 -114.333 6.16699 -163 18.5s-92.334 29 -131.001 50s-73.834 46.167 -105.501 75.5s-59.834 61.666 -84.501 96.999zM350.004 1626l355 264
l172 -204l-420 -199z" />
    <glyph glyph-name="sacute" unicode="&#x15b;" horiz-adv-x="905" 
d="M51 172l198.998 168.003c26 -38 55 -64.5 87 -79.5s67.667 -22.5 107 -22.5c38 0 67.333 8.16699 88 24.5s31 33.833 31 52.5c0 23.333 -7.5 40.833 -22.5 52.5s-40.167 20.834 -75.5 27.501c-45.333 8 -91.166 18.5 -137.499 31.5s-88 31.167 -125 54.5
s-67.333 53.166 -91 89.499s-35.5 82.5 -35.5 138.5c0 49.333 10.167 93.333 30.5 132s48 71.667 83 99s75.333 48.166 121 62.499s94.5 21.5 146.5 21.5c91.333 0 166.666 -13.667 225.999 -41s111 -65 155 -113l-172 -180c-26 30 -54.333 51.833 -85 65.5
s-68 20.5 -112 20.5c-39.333 0 -66.5 -6.83301 -81.5 -20.5s-22.5 -27.167 -22.5 -40.5c0 -12 4 -22.167 12 -30.5s18.833 -15.333 32.5 -21s28.334 -10.5 44.001 -14.5s31.834 -7.33301 48.501 -10c46.667 -9.33301 91.334 -20.833 134.001 -34.5
s80.5 -32.834 113.5 -57.501s59 -55.834 78 -93.501s28.5 -84.5 28.5 -140.5c0 -96.667 -35.833 -174.667 -107.5 -234s-170.167 -89 -295.5 -89c-92.667 0 -170.834 14 -234.501 42s-119.5 74.667 -167.5 140zM314.998 1167l191 400l246 -99l-277 -374z" />
    <glyph glyph-name="Scircumflex" unicode="&#x15c;" horiz-adv-x="1083" 
d="M63 231l234.004 189.005c36.667 -52 75.167 -90.333 115.5 -115s86.5 -37 138.5 -37c62.667 0 106 13.667 130 41s36 61 36 101c0 27.333 -6.5 50.833 -19.5 70.5s-30.833 37 -53.5 52s-49 28 -79 39s-62.667 21.167 -98 30.5c-65.333 20.667 -121.333 44 -168 70
s-84.667 55.333 -114 88s-50.833 70.167 -64.5 112.5s-20.5 90.166 -20.5 143.499c0 61.333 11 117.666 33 168.999s52.833 95.666 92.5 132.999s87.167 66.333 142.5 87s116.333 31 183 31c108 0 196.5 -16.833 265.5 -50.5s127.167 -83.167 174.5 -148.5l-213 -201
c-68 80.667 -143.667 121 -227 121c-44 0 -80 -11.667 -108 -35s-42 -54 -42 -92c0 -20.667 6.83301 -39.167 20.5 -55.5s32.167 -31.333 55.5 -45s50.666 -26.667 81.999 -39s64.666 -23.833 99.999 -34.5c70.667 -22 130 -47 178 -75s86.333 -60 115 -96
s48.834 -75.833 60.501 -119.5s17.5 -91.5 17.5 -143.5c0 -136.667 -42 -242.834 -126 -318.501s-203 -113.5 -357 -113.5c-60 0 -114.333 6.16699 -163 18.5s-92.334 29 -131.001 50s-73.834 46.167 -105.501 75.5s-59.834 61.666 -84.501 96.999zM174.004 1591l291 271
h180l287 -271l-105 -108l-274 162l-277 -162z" />
    <glyph glyph-name="scircumflex" unicode="&#x15d;" horiz-adv-x="905" 
d="M51 172l198.998 168.003c26 -38 55 -64.5 87 -79.5s67.667 -22.5 107 -22.5c38 0 67.333 8.16699 88 24.5s31 33.833 31 52.5c0 23.333 -7.5 40.833 -22.5 52.5s-40.167 20.834 -75.5 27.501c-45.333 8 -91.166 18.5 -137.499 31.5s-88 31.167 -125 54.5
s-67.333 53.166 -91 89.499s-35.5 82.5 -35.5 138.5c0 49.333 10.167 93.333 30.5 132s48 71.667 83 99s75.333 48.166 121 62.499s94.5 21.5 146.5 21.5c91.333 0 166.666 -13.667 225.999 -41s111 -65 155 -113l-172 -180c-26 30 -54.333 51.833 -85 65.5
s-68 20.5 -112 20.5c-39.333 0 -66.5 -6.83301 -81.5 -20.5s-22.5 -27.167 -22.5 -40.5c0 -12 4 -22.167 12 -30.5s18.833 -15.333 32.5 -21s28.334 -10.5 44.001 -14.5s31.834 -7.33301 48.501 -10c46.667 -9.33301 91.334 -20.833 134.001 -34.5
s80.5 -32.834 113.5 -57.501s59 -55.834 78 -93.501s28.5 -84.5 28.5 -140.5c0 -96.667 -35.833 -174.667 -107.5 -234s-170.167 -89 -295.5 -89c-92.667 0 -170.834 14 -234.501 42s-119.5 74.667 -167.5 140zM83.998 1159l289 322h186l283 -320l-111 -100l-268 203
c-12 -8 -30.667 -21.667 -56 -41l-80 -61l-79 -59.5c-24.667 -18.333 -43 -31.5 -55 -39.5z" />
    <glyph glyph-name="Scedilla" unicode="&#x15e;" horiz-adv-x="1083" 
d="M63 231l234.004 189.004c36.667 -52 75.167 -90.333 115.5 -115s86.5 -37 138.5 -37c62.667 0 106 13.667 130 41s36 61 36 101c0 27.333 -6.5 50.833 -19.5 70.5s-30.833 37 -53.5 52s-49 28 -79 39s-62.667 21.167 -98 30.5c-65.333 20.667 -121.333 44 -168 70
s-84.667 55.333 -114 88s-50.833 70.167 -64.5 112.5s-20.5 90.166 -20.5 143.499c0 61.333 11 117.666 33 168.999s52.833 95.666 92.5 132.999s87.167 66.333 142.5 87s116.333 31 183 31c108 0 196.5 -16.833 265.5 -50.5s127.167 -83.167 174.5 -148.5l-213 -201
c-68 80.667 -143.667 121 -227 121c-44 0 -80 -11.667 -108 -35s-42 -54 -42 -92c0 -20.667 6.83301 -39.167 20.5 -55.5s32.167 -31.333 55.5 -45s50.666 -26.667 81.999 -39s64.666 -23.833 99.999 -34.5c70.667 -22 130 -47 178 -75s86.333 -60 115 -96
s48.834 -75.833 60.501 -119.5s17.5 -91.5 17.5 -143.5c0 -134 -40.333 -238.5 -121 -313.5s-195.334 -114.5 -344.001 -118.5l-20 -64c36.667 -4 67 -12.5 91 -25.5s43.5 -28 58.5 -45s25.5 -35.333 31.5 -55s9 -38.5 9 -56.5c0 -50.667 -17.667 -94 -53 -130
s-92 -54 -170 -54c-36.667 1.33301 -73.834 4.66602 -111.501 9.99902s-73.5 17.666 -107.5 36.999l47 125c31.333 -15.333 57.333 -25 78 -29s40.334 -6 59.001 -6c20.667 0 38.167 5.83301 52.5 17.5s21.5 26.167 21.5 43.5c0 19.333 -5.83301 33.5 -17.5 42.5
s-25.5 13.5 -41.5 13.5c-10.667 0 -20.334 -2.33301 -29.001 -7c-12 8 -24.167 15.5 -36.5 22.5s-24.833 14.833 -37.5 23.5l45 145c-87.333 13.333 -160.333 40.833 -219 82.5s-109.334 91.834 -152.001 150.501z" />
    <glyph glyph-name="scedilla" unicode="&#x15f;" horiz-adv-x="905" 
d="M51 172l198.999 168.005c26 -38 55 -64.5 87 -79.5s67.667 -22.5 107 -22.5c38 0 67.333 8.16699 88 24.5s31 33.833 31 52.5c0 23.333 -7.5 40.833 -22.5 52.5s-40.167 20.834 -75.5 27.501c-45.333 8 -91.166 18.5 -137.499 31.5s-88 31.167 -125 54.5
s-67.333 53.166 -91 89.499s-35.5 82.5 -35.5 138.5c0 49.333 10.167 93.333 30.5 132s48 71.667 83 99s75.333 48.166 121 62.499s94.5 21.5 146.5 21.5c91.333 0 166.666 -13.667 225.999 -41s111 -65 155 -113l-172 -180c-26 30 -54.333 51.833 -85 65.5
s-68 20.5 -112 20.5c-39.333 0 -66.5 -6.83301 -81.5 -20.5s-22.5 -27.167 -22.5 -40.5c0 -12 4 -22.167 12 -30.5s18.833 -15.333 32.5 -21s28.334 -10.5 44.001 -14.5s31.834 -7.33301 48.501 -10c46.667 -9.33301 91.334 -20.833 134.001 -34.5
s80.5 -32.834 113.5 -57.501s59 -55.834 78 -93.501s28.5 -84.5 28.5 -140.5c0 -86 -29 -157.667 -87 -215s-138.333 -91.333 -241 -102l-22 -70c36.667 -4 67 -12.5 91 -25.5s43.5 -28 58.5 -45s25.5 -35.333 31.5 -55s9 -38.5 9 -56.5c0 -50.667 -17.667 -94 -53 -130
s-92 -54 -170 -54c-36.667 1.33301 -73.834 4.66602 -111.501 9.99902s-73.5 17.666 -107.5 36.999l47 125c31.333 -15.333 57.333 -25 78 -29s40.334 -6 59.001 -6c20.667 0 38.167 5.83301 52.5 17.5s21.5 26.167 21.5 43.5c0 19.333 -5.83301 33.5 -17.5 42.5
s-25.5 13.5 -41.5 13.5c-10.667 0 -20.334 -2.33301 -29.001 -7c-12 8 -24.167 15.5 -36.5 22.5s-24.833 14.833 -37.5 23.5l43 139c-76.667 5.33301 -141.834 22 -195.501 50s-102.5 71.333 -146.5 130z" />
    <glyph glyph-name="Scaron" unicode="&#x160;" horiz-adv-x="1083" 
d="M63 231l234.004 189.005c36.667 -52 75.167 -90.333 115.5 -115s86.5 -37 138.5 -37c62.667 0 106 13.667 130 41s36 61 36 101c0 27.333 -6.5 50.833 -19.5 70.5s-30.833 37 -53.5 52s-49 28 -79 39s-62.667 21.167 -98 30.5c-65.333 20.667 -121.333 44 -168 70
s-84.667 55.333 -114 88s-50.833 70.167 -64.5 112.5s-20.5 90.166 -20.5 143.499c0 61.333 11 117.666 33 168.999s52.833 95.666 92.5 132.999s87.167 66.333 142.5 87s116.333 31 183 31c108 0 196.5 -16.833 265.5 -50.5s127.167 -83.167 174.5 -148.5l-213 -201
c-68 80.667 -143.667 121 -227 121c-44 0 -80 -11.667 -108 -35s-42 -54 -42 -92c0 -20.667 6.83301 -39.167 20.5 -55.5s32.167 -31.333 55.5 -45s50.666 -26.667 81.999 -39s64.666 -23.833 99.999 -34.5c70.667 -22 130 -47 178 -75s86.333 -60 115 -96
s48.834 -75.833 60.501 -119.5s17.5 -91.5 17.5 -143.5c0 -136.667 -42 -242.834 -126 -318.501s-203 -113.5 -357 -113.5c-60 0 -114.333 6.16699 -163 18.5s-92.334 29 -131.001 50s-73.834 46.167 -105.501 75.5s-59.834 61.666 -84.501 96.999zM170.004 1755l102 109
l275 -162l274 162l107 -109l-287 -266h-182z" />
    <glyph glyph-name="scaron" unicode="&#x161;" horiz-adv-x="905" 
d="M51 172l198.998 168.003c26 -38 55 -64.5 87 -79.5s67.667 -22.5 107 -22.5c38 0 67.333 8.16699 88 24.5s31 33.833 31 52.5c0 23.333 -7.5 40.833 -22.5 52.5s-40.167 20.834 -75.5 27.501c-45.333 8 -91.166 18.5 -137.499 31.5s-88 31.167 -125 54.5
s-67.333 53.166 -91 89.499s-35.5 82.5 -35.5 138.5c0 49.333 10.167 93.333 30.5 132s48 71.667 83 99s75.333 48.166 121 62.499s94.5 21.5 146.5 21.5c91.333 0 166.666 -13.667 225.999 -41s111 -65 155 -113l-172 -180c-26 30 -54.333 51.833 -85 65.5
s-68 20.5 -112 20.5c-39.333 0 -66.5 -6.83301 -81.5 -20.5s-22.5 -27.167 -22.5 -40.5c0 -12 4 -22.167 12 -30.5s18.833 -15.333 32.5 -21s28.334 -10.5 44.001 -14.5s31.834 -7.33301 48.501 -10c46.667 -9.33301 91.334 -20.833 134.001 -34.5
s80.5 -32.834 113.5 -57.501s59 -55.834 78 -93.501s28.5 -84.5 28.5 -140.5c0 -96.667 -35.833 -174.667 -107.5 -234s-170.167 -89 -295.5 -89c-92.667 0 -170.834 14 -234.501 42s-119.5 74.667 -167.5 140zM83.998 1382l109 99c12 -8 30.333 -21.667 55 -41l79 -60.5
l79.5 -60.5c25 -19.333 43.833 -33 56.5 -41l268 203l111 -99l-283 -321h-186z" />
    <glyph glyph-name="Tcommaaccent" unicode="&#x162;" horiz-adv-x="937" 
d="M12 1155v270h906v-270h-306v-1155h-295v1155h-305zM322 -604l65 221h-59v268h278v-258l-147 -231h-137z" />
    <glyph glyph-name="tcommaaccent" unicode="&#x163;" horiz-adv-x="624" 
d="M49 791l-0.000976562 225h103v272h274v-272h135v-225h-133v-437c0 -34 5.83301 -59.167 17.5 -75.5s35.834 -24.5 72.501 -24.5h43v-254h-135c-90 0 -158.5 25.667 -205.5 77s-70.5 114.333 -70.5 189v525h-101zM163.999 -604l65 221h-59v268h279v-258l-148 -231h-137z
" />
    <glyph glyph-name="Tcaron" unicode="&#x164;" horiz-adv-x="937" 
d="M12 1155v270h906v-270h-306v-1155h-295v1155h-305zM92 1755l103 109l274 -162l274 162l107 -109l-287 -266h-182z" />
    <glyph glyph-name="tcaron" unicode="&#x165;" horiz-adv-x="753" 
d="M49 791l-0.000976562 225h103v272h274v-272h135v-225h-133v-437c0 -34 5.83301 -59.167 17.5 -75.5s35.834 -24.5 72.501 -24.5h43v-254h-135c-90 0 -158.5 25.667 -205.5 77s-70.5 114.333 -70.5 189v525h-101zM521.999 1135l66 221h-60v268h279v-258l-148 -231h-137z
" />
    <glyph glyph-name="Tbar" unicode="&#x166;" horiz-adv-x="937" 
d="M12 1155v270h906v-270h-306v-324h260v-182h-260v-649h-295v649h-241v182h241v324h-305z" />
    <glyph glyph-name="tbar" unicode="&#x167;" horiz-adv-x="624" 
d="M49 475l-0.000976562 170h101v146h-101v225h103v272h274v-272h135v-225h-133v-146h133v-170h-133v-121c0 -34 5.83301 -59.167 17.5 -75.5s35.834 -24.5 72.501 -24.5h43v-254h-135c-90 0 -158.5 25.667 -205.5 77s-70.5 114.333 -70.5 189v209h-101z" />
    <glyph glyph-name="Utilde" unicode="&#x168;" horiz-adv-x="1128" 
d="M109 471l-0.000976562 954.001h294v-962c0 -54.667 12.667 -99.834 38 -135.501s67.333 -53.5 126 -53.5c42 0 78.5 14.667 109.5 44s46.5 68 46.5 116v991h299v-976c0 -70.667 -11.333 -134.5 -34 -191.5s-54 -105.667 -94 -146s-87.667 -71 -143 -92
s-116.666 -31.5 -183.999 -31.5c-82 0 -152 13 -210 39s-105.333 61.167 -142 105.5s-63.5 95.833 -80.5 154.5s-25.5 120 -25.5 184zM192.999 1579c32.667 74 70.3281 127.999 112.995 161.999s89.334 51 140.001 51c24.667 0 48.334 -4.83301 71.001 -14.5
s44.167 -19.5 64.5 -29.5l57.5 -28.5c18 -9 34.333 -13.5 49 -13.5c22 0 41.833 6.16699 59.5 18.5s40.167 35.5 67.5 69.5c23.333 -12 46.333 -24.5 69 -37.5l68 -40.5c-35.333 -78 -72.166 -133 -110.499 -165s-79.166 -48 -122.499 -48c-26 0 -50.667 4.5 -74 13.5
s-45.833 18.667 -67.5 29l-61.5 28.5c-19.333 8.66699 -37.666 13 -54.999 13c-20.667 0 -41.5 -6.16699 -62.5 -18.5s-45.167 -36.166 -72.5 -71.499z" />
    <glyph glyph-name="utilde" unicode="&#x169;" horiz-adv-x="987" 
d="M106 301v712.999h287v-641c0 -39.333 10 -68.333 30 -87s43.667 -28 71 -28c30 0 55.167 9.83301 75.5 29.5s30.5 48.834 30.5 87.501v639h287v-1014h-287v82l-8 2c-23.333 -27.333 -52.333 -49.833 -87 -67.5s-70 -26.5 -106 -26.5c-102.667 0 -177.167 28 -223.5 84
s-69.5 131.667 -69.5 227zM113 1221c32.667 74 70.501 127.999 113.501 161.999s89.833 51 140.5 51c24.667 0 48.167 -4.83301 70.5 -14.5s43.666 -19.667 63.999 -30l57.5 -28.5c18 -8.66699 34.333 -13 49 -13c22 0 41.833 6 59.5 18s40.167 35.333 67.5 70
c23.333 -12 46.333 -24.667 69 -38l68 -40c-35.333 -78 -72 -133 -110 -165s-79 -48 -123 -48c-26 0 -50.667 4.33301 -74 13s-45.833 18.167 -67.5 28.5l-61 29c-19 9 -37.5 13.5 -55.5 13.5c-20.667 0 -41.5 -6.16699 -62.5 -18.5s-45.167 -36.166 -72.5 -71.499z" />
    <glyph glyph-name="Umacron" unicode="&#x16a;" horiz-adv-x="1128" 
d="M109 471l-0.000976562 954.001h294v-962c0 -54.667 12.667 -99.834 38 -135.501s67.333 -53.5 126 -53.5c42 0 78.5 14.667 109.5 44s46.5 68 46.5 116v991h299v-976c0 -70.667 -11.333 -134.5 -34 -191.5s-54 -105.667 -94 -146s-87.667 -71 -143 -92
s-116.666 -31.5 -183.999 -31.5c-82 0 -152 13 -210 39s-105.333 61.167 -142 105.5s-63.5 95.833 -80.5 154.5s-25.5 120 -25.5 184zM265.999 1540v234h598v-234h-598z" />
    <glyph glyph-name="umacron" unicode="&#x16b;" horiz-adv-x="987" 
d="M106 301v712.999h287v-641c0 -39.333 10 -68.333 30 -87s43.667 -28 71 -28c30 0 55.167 9.83301 75.5 29.5s30.5 48.834 30.5 87.501v639h287v-1014h-287v82l-8 2c-23.333 -27.333 -52.333 -49.833 -87 -67.5s-70 -26.5 -106 -26.5c-102.667 0 -177.167 28 -223.5 84
s-69.5 131.667 -69.5 227zM201 1171v234h598v-234h-598z" />
    <glyph glyph-name="Ubreve" unicode="&#x16c;" horiz-adv-x="1128" 
d="M109 471l-0.000976562 954.001h294v-962c0 -54.667 12.667 -99.834 38 -135.501s67.333 -53.5 126 -53.5c42 0 78.5 14.667 109.5 44s46.5 68 46.5 116v991h299v-976c0 -70.667 -11.333 -134.5 -34 -191.5s-54 -105.667 -94 -146s-87.667 -71 -143 -92
s-116.666 -31.5 -183.999 -31.5c-82 0 -152 13 -210 39s-105.333 61.167 -142 105.5s-63.5 95.833 -80.5 154.5s-25.5 120 -25.5 184zM235.999 1831h210.002c0 -15.333 3.16699 -31.5 9.5 -48.5s14.666 -32.667 24.999 -47s23 -26.666 38 -36.999s31.833 -15.5 50.5 -15.5
c20.667 0 38.167 5.16699 52.5 15.5s26.666 22.666 36.999 36.999s17.833 30 22.5 47s7 33.167 7 48.5h213c-2.66699 -32.667 -10.5 -68.834 -23.5 -108.501s-32.5 -76.5 -58.5 -110.5s-59.5 -62.667 -100.5 -86s-90.833 -35 -149.5 -35
c-61.333 0 -112.833 11.667 -154.5 35s-75.5 52 -101.5 86s-45 70.833 -57 110.5s-18.667 75.834 -20 108.501z" />
    <glyph glyph-name="ubreve" unicode="&#x16d;" horiz-adv-x="987" 
d="M106 301v712.999h287v-641c0 -39.333 10 -68.333 30 -87s43.667 -28 71 -28c30 0 55.167 9.83301 75.5 29.5s30.5 48.834 30.5 87.501v639h287v-1014h-287v82l-8 2c-23.333 -27.333 -52.333 -49.833 -87 -67.5s-70 -26.5 -106 -26.5c-102.667 0 -177.167 28 -223.5 84
s-69.5 131.667 -69.5 227zM168 1456h210.999c0 -15.333 3 -31.5 9 -48.5s14.167 -33 24.5 -48s23 -27.167 38 -36.5s32.167 -14 51.5 -14c20.667 0 38 4.66699 52 14s26.167 21.5 36.5 36.5s18 31.167 23 48.5s7.5 33.333 7.5 48h213
c-2.66699 -34 -10.5 -71.167 -23.5 -111.5s-32.5 -77.833 -58.5 -112.5s-59.5 -63.667 -100.5 -87s-90.833 -35 -149.5 -35c-61.333 0 -112.833 11.667 -154.5 35s-75.5 52.333 -101.5 87s-45.167 72.167 -57.5 112.5s-19.166 77.5 -20.499 111.5z" />
    <glyph glyph-name="Uring" unicode="&#x16e;" horiz-adv-x="1128" 
d="M109 471l-0.000976562 954.001h294v-962c0 -54.667 12.667 -99.834 38 -135.501s67.333 -53.5 126 -53.5c42 0 78.5 14.667 109.5 44s46.5 68 46.5 116v991h299v-976c0 -70.667 -11.333 -134.5 -34 -191.5s-54 -105.667 -94 -146s-87.667 -71 -143 -92
s-116.666 -31.5 -183.999 -31.5c-82 0 -152 13 -210 39s-105.333 61.167 -142 105.5s-63.5 95.833 -80.5 154.5s-25.5 120 -25.5 184zM331.999 1677c0 30 6.16602 58.667 18.499 86s28.666 51.333 48.999 72s44.5 36.834 72.5 48.501s58.333 17.5 91 17.5
s63 -5.83301 91 -17.5s52.333 -27.834 73 -48.501s36.834 -44.667 48.501 -72s17.5 -56 17.5 -86c0 -31.333 -5.83301 -60.333 -17.5 -87s-28.167 -50.167 -49.5 -70.5s-46 -36.333 -74 -48s-58.333 -17.5 -91 -17.5c-31.333 0 -61 5.83301 -89 17.5
s-52.167 27.667 -72.5 48s-36.666 43.833 -48.999 70.5s-18.5 55.667 -18.5 87zM488.998 1675c0 -19.333 7.16699 -35.666 21.5 -48.999s31.833 -20 52.5 -20c19.333 0 36.166 6.66699 50.499 20s21.5 29.666 21.5 48.999s-7.16699 35.833 -21.5 49.5
s-31.166 20.5 -50.499 20.5c-20.667 0 -38.167 -6.83301 -52.5 -20.5s-21.5 -30.167 -21.5 -49.5z" />
    <glyph glyph-name="uring" unicode="&#x16f;" horiz-adv-x="987" 
d="M106 301v712.999h287v-641c0 -39.333 10 -68.333 30 -87s43.667 -28 71 -28c30 0 55.167 9.83301 75.5 29.5s30.5 48.834 30.5 87.501v639h287v-1014h-287v82l-8 2c-23.333 -27.333 -52.333 -49.833 -87 -67.5s-70 -26.5 -106 -26.5c-102.667 0 -177.167 28 -223.5 84
s-69.5 131.667 -69.5 227zM270 1294c0 30 6.16699 58.667 18.5 86s28.833 51.333 49.5 72s45 36.834 73 48.501s58.333 17.5 91 17.5s63 -5.83301 91 -17.5s52.167 -27.834 72.5 -48.501s36.333 -44.667 48 -72s17.5 -56 17.5 -86c0 -31.333 -5.83301 -60.333 -17.5 -87
s-28 -50.167 -49 -70.5s-45.5 -36.333 -73.5 -48s-58.333 -17.5 -91 -17.5c-31.333 0 -61 5.83301 -89 17.5s-52.333 27.667 -73 48s-37.167 43.833 -49.5 70.5s-18.5 55.667 -18.5 87zM428 1292c0 -19.333 7.16699 -35.666 21.5 -48.999s31.833 -20 52.5 -20
c19.333 0 36 6.66699 50 20s21 29.666 21 48.999s-7.16699 35.833 -21.5 49.5s-30.833 20.5 -49.5 20.5c-20.667 0 -38.167 -6.83301 -52.5 -20.5s-21.5 -30.167 -21.5 -49.5z" />
    <glyph glyph-name="Uhungarumlaut" unicode="&#x170;" horiz-adv-x="1128" 
d="M109 471l-0.000976562 954.001h294v-962c0 -54.667 12.667 -99.834 38 -135.501s67.333 -53.5 126 -53.5c42 0 78.5 14.667 109.5 44s46.5 68 46.5 116v991h299v-976c0 -70.667 -11.333 -134.5 -34 -191.5s-54 -105.667 -94 -146s-87.667 -71 -143 -92
s-116.666 -31.5 -183.999 -31.5c-82 0 -152 13 -210 39s-105.333 61.167 -142 105.5s-63.5 95.833 -80.5 154.5s-25.5 120 -25.5 184zM169.999 1599l326 299l184 -174l-389 -254zM585.999 1604l332 292l182 -176l-395 -245z" />
    <glyph glyph-name="uhungarumlaut" unicode="&#x171;" horiz-adv-x="987" 
d="M106 301v712.999h287v-641c0 -39.333 10 -68.333 30 -87s43.667 -28 71 -28c30 0 55.167 9.83301 75.5 29.5s30.5 48.834 30.5 87.501v639h287v-1014h-287v82l-8 2c-23.333 -27.333 -52.333 -49.833 -87 -67.5s-70 -26.5 -106 -26.5c-102.667 0 -177.167 28 -223.5 84
s-69.5 131.667 -69.5 227zM160 1196l190 399l246 -98l-277 -375zM483 1167l191 400l246 -99l-277 -374z" />
    <glyph glyph-name="Uogonek" unicode="&#x172;" horiz-adv-x="1128" 
d="M109 471l0.00195312 954.003h294v-962c0 -54.667 12.667 -99.834 38 -135.501s67.333 -53.5 126 -53.5c42 0 78.5 14.667 109.5 44s46.5 68 46.5 116v991h299v-976c0 -64 -9.16699 -122.333 -27.5 -175s-44 -98.5 -77 -137.5s-72.667 -70.833 -119 -95.5
s-97.5 -40.334 -153.5 -47.001c-27.333 -42 -45.833 -78.833 -55.5 -110.5s-14.5 -56.167 -14.5 -73.5c0 -23.333 7.16699 -41.166 21.5 -53.499s33.166 -18.5 56.499 -18.5c12 0 28 2.33301 48 7s43.667 12.667 71 24l51 -131
c-32.667 -19.333 -67.334 -34.166 -104.001 -44.499s-72.334 -15.5 -107.001 -15.5c-61.333 0 -112.166 18.833 -152.499 56.5s-60.5 86.5 -60.5 146.5c0 28.667 5.83301 60.667 17.5 96s31.167 74.333 58.5 117c-65.333 9.33301 -120.833 28.666 -166.5 57.999
s-83.5 65.166 -113.5 107.499s-51.833 90.166 -65.5 143.499s-20.5 109.333 -20.5 168z" />
    <glyph glyph-name="uogonek" unicode="&#x173;" horiz-adv-x="987" 
d="M106 301v712.997h287v-641c0 -39.333 10 -68.333 30 -87s43.667 -28 71 -28c30 0 55.167 9.83301 75.5 29.5s30.5 48.834 30.5 87.501v639h287v-1014h-121c-30 -45.333 -49.833 -84 -59.5 -116s-14.5 -56.667 -14.5 -74c0 -23.333 7.16699 -41.166 21.5 -53.499
s33.166 -18.5 56.499 -18.5c12 0 28 2.33301 48 7s43.667 12.667 71 24l51 -131c-32.667 -19.333 -67.5 -34.166 -104.5 -44.499s-72.5 -15.5 -106.5 -15.5c-61.333 0 -112.166 18.833 -152.499 56.5s-60.5 86.5 -60.5 146.5c0 30 6.5 63.5 19.5 100.5
s34.5 77.833 64.5 122.5v78l-8 2c-23.333 -27.333 -52.333 -49.833 -87 -67.5s-70 -26.5 -106 -26.5c-102.667 0 -177.167 28 -223.5 84s-69.5 131.667 -69.5 227z" />
    <glyph glyph-name="Wcircumflex" unicode="&#x174;" horiz-adv-x="1531" 
d="M8 1423l324 0.000976562l45 -259l43 -257c8 -48 15.5 -95.5 22.5 -142.5s14.5 -94.167 22.5 -141.5h8c15.333 65.333 29.833 131.166 43.5 197.499l42.5 197.5l92 405h232l48 -203.5l46 -203.5c15.333 -66.667 30 -133.5 44 -200.5l44 -201.5h10l20.5 141.5l20.5 141.5
l84 526h324l-301 -1425h-267l-55.5 222.5l-54.5 221.5l-74 306h-8l-36.5 -155c-12.333 -51.333 -25.5 -103 -39.5 -155c-16.667 -74 -35.167 -147.833 -55.5 -221.5s-39.5 -146.5 -57.5 -218.5h-266zM383 1591l291 271h180l287 -271l-105 -108l-274 162l-277 -162z" />
    <glyph glyph-name="wcircumflex" unicode="&#x175;" horiz-adv-x="1368" 
d="M14 1014h305l54 -301l53 -289h10l62 289l61 301h250l63 -303l66 -287h10l53 291l52 299h299l-269 -1014h-278l-55 227l-62 277h-8l-62 -275l-57 -229h-276zM295 1159l289.001 322h186l283 -320l-111 -100l-268 203c-12 -8 -30.667 -21.667 -56 -41l-80 -61l-79 -59.5
c-24.667 -18.333 -43.334 -31.5 -56.001 -39.5z" />
    <glyph glyph-name="Ycircumflex" unicode="&#x176;" horiz-adv-x="1044" 
d="M10 1430h330l94 -291l84 -273h12l88 275l105 284h315l-368 -854v-571h-291v571zM156 1591l290 271h181l286 -271l-104 -108l-274 162l-277 -162z" />
    <glyph glyph-name="ycircumflex" unicode="&#x177;" horiz-adv-x="905" 
d="M2 1014h307l70 -328l63 -280h11l65 278l82 330h299l-379 -1192c-26 -82 -65.5 -141.167 -118.5 -177.5s-117.833 -54.5 -194.5 -54.5h-101v246h60c56 0 94.333 35 115 105l32 112zM70 1159l288 322h187l282 -320l-110 -100l-268 203c-12 -8 -30.833 -21.667 -56.5 -41
l-80.5 -61l-78.5 -59.5c-24.333 -18.333 -42.833 -31.5 -55.5 -39.5z" />
    <glyph glyph-name="Ydieresis" unicode="&#x178;" horiz-adv-x="1044" 
d="M10 1430h330l94 -291l84 -273h12l88 275l105 284h315l-368 -854v-571h-291v571zM190 1509v269h279v-269h-279zM590 1509v269h276v-269h-276z" />
    <glyph glyph-name="Zacute" unicode="&#x179;" horiz-adv-x="931" 
d="M51 0v258l484 897h-461v270h807v-249l-482 -895h482v-281h-830zM268 1626l355 264l172 -204l-420 -199z" />
    <glyph glyph-name="zacute" unicode="&#x17a;" horiz-adv-x="833" 
d="M57 0v246l377 518h-350v250h690v-232l-379 -520h379v-262h-717zM309 1167l191 400l245 -99l-276 -374z" />
    <glyph glyph-name="Zdotaccent" unicode="&#x17b;" horiz-adv-x="931" 
d="M51 0v258l484 897h-461v270h807v-249l-482 -895h482v-281h-830zM340 1511v267h272v-267h-272z" />
    <glyph glyph-name="zdotaccent" unicode="&#x17c;" horiz-adv-x="833" 
d="M57 0v246l377 518h-350v250h690v-232l-379 -520h379v-262h-717zM307 1143v266h273v-266h-273z" />
    <glyph glyph-name="Zcaron" unicode="&#x17d;" horiz-adv-x="931" 
d="M51 0v258l484 897h-461v270h807v-249l-482 -895h482v-281h-830zM117 1755l102 109l275 -162l274 162l106 -109l-286 -266h-182z" />
    <glyph glyph-name="zcaron" unicode="&#x17e;" horiz-adv-x="833" 
d="M43 1382l109 99c12 -8 30.333 -21.667 55 -41l79 -60.5l79.5 -60.5c25 -19.333 43.833 -33 56.5 -41l268 203l111 -99l-283 -321h-186zM57 0v246l377 518h-350v250h690v-232l-379 -520h379v-262h-717z" />
    <glyph glyph-name="florin" unicode="&#x192;" 
d="M18 -139l68.001 222.999c30 -13.333 53.167 -21.5 69.5 -24.5s30.833 -4.5 43.5 -4.5c31.333 0 55.5 14.667 72.5 44s29.5 78.333 37.5 147l47 405h-137l-2 238h174l15 125c5.33301 49.333 15.166 99.166 29.499 149.499s35.833 95.333 64.5 135s65.5 72.167 110.5 97.5
s100.167 38 165.5 38c32.667 0 67.167 -2.83301 103.5 -8.5s70.166 -15.167 101.499 -28.5l-57 -232c-32.667 13.333 -58 21.166 -76 23.499s-36.333 3.5 -55 3.5c-18 0 -33.5 -5.16699 -46.5 -15.5s-24 -23.666 -33 -39.999s-16.167 -34.666 -21.5 -54.999
s-9.33301 -40.833 -12 -61.5l-16 -131h167l3 -238h-199l-47 -405c-8 -64 -19.667 -123 -35 -177s-36.166 -100.167 -62.499 -138.5s-59.333 -68 -99 -89s-88.167 -31.5 -145.5 -31.5c-28.667 0 -64.167 4.33301 -106.5 13s-82.833 21.334 -121.5 38.001z" />
    <glyph glyph-name="Ohorn" unicode="&#x1a0;" horiz-adv-x="1142" 
d="M90 471v507.999c0 53.333 8.16699 107 24.5 161s43 102.833 80 146.5s84.5 79.5 142.5 107.5s128.667 42 212 42c66.667 0 125.667 -10 177 -30s95.333 -46.333 132 -79c27.333 10.667 46.833 30.834 58.5 60.501s17.5 73.167 17.5 130.5v127h213v-175
c0 -78 -15.333 -143.5 -46 -196.5s-73.334 -93.167 -128.001 -120.5c20.667 -56 31 -114 31 -174v-530c0 -70.667 -11.333 -134.5 -34 -191.5s-54.167 -105.667 -94.5 -146s-88.166 -71 -143.499 -92s-116.333 -31.5 -183 -31.5c-82 0 -152 13 -210 39
s-105.5 61.167 -142.5 105.5s-64 95.833 -81 154.5s-25.5 120 -25.5 184zM385 462.999c0 -54.667 12.667 -99.833 38 -135.5s67.333 -53.5 126 -53.5c42 0 78.5 13.667 109.5 41s46.5 65 46.5 113v563c0 13.333 -2.5 29 -7.5 47s-13.667 35.167 -26 51.5
s-28.333 30.333 -48 42s-44.5 17.5 -74.5 17.5s-55.333 -5.16699 -76 -15.5s-37.5 -23.333 -50.5 -39s-22.5 -32.667 -28.5 -51s-9 -35.833 -9 -52.5v-528z" />
    <glyph glyph-name="ohorn" unicode="&#x1a1;" horiz-adv-x="1032" 
d="M74 504c1.33301 57.333 4.66504 115 9.99805 173s15.666 104.667 30.999 140c28.667 65.333 72.667 116.833 132 154.5s136.666 56.5 231.999 56.5c64 0 119 -9.16699 165 -27.5s84 -42.5 114 -72.5c23.333 10.667 40.666 30.667 51.999 60s17 71.333 17 126v123h213
v-170c0 -82 -16.667 -150.667 -50 -206s-80.666 -95.333 -141.999 -120c6.66699 -35.333 11.334 -72.833 14.001 -112.5s4 -81.167 4 -124.5c0 -72.667 -3.66699 -135.5 -11 -188.5s-20.666 -99.5 -39.999 -139.5c-35.333 -72.667 -84.166 -122.5 -146.499 -149.5
s-132.166 -40.5 -209.499 -40.5c-69.333 0 -128.333 10.833 -177 32.5s-88.667 52.5 -120 92.5c-32.667 44 -55.5 98 -68.5 162s-19.5 141 -19.5 231zM357.999 500c0 -34 1.16797 -66.833 3.50098 -98.5s8.16602 -59.167 17.499 -82.5
c16.667 -46.667 47.334 -69.667 92.001 -69c9.33301 0 19.166 1 29.499 3s20.333 6.83301 30 14.5s18.167 18.667 25.5 33s13 32.833 17 55.5c2.66699 19.333 5.16699 43 7.5 71s3.5 60.333 3.5 97c0 70.667 -7 126 -21 166c-18 49.333 -47.333 74 -88 74
c-45.333 0 -77.333 -24 -96 -72c-8 -23.333 -13.5 -50.333 -16.5 -81s-4.5 -67.667 -4.5 -111z" />
    <glyph glyph-name="Uhorn" unicode="&#x1af;" horiz-adv-x="1290" 
d="M109 471l-0.000976562 954h294v-962c0 -54.667 12.667 -99.834 38 -135.501s67.333 -53.5 126 -53.5c42 0 78.5 14.667 109.5 44s46.5 68 46.5 116v991h299v-100c34 8 58.833 26.333 74.5 55s23.5 75.334 23.5 140.001v125h213v-175c0 -106.667 -28 -190.667 -84 -252
s-131.667 -94 -227 -98v-671c0 -70.667 -11.333 -134.5 -34 -191.5s-54 -105.667 -94 -146s-87.667 -71 -143 -92s-116.666 -31.5 -183.999 -31.5c-82 0 -152 13 -210 39s-105.333 61.167 -142 105.5s-63.5 95.833 -80.5 154.5s-25.5 120 -25.5 184z" />
    <glyph glyph-name="uhorn" unicode="&#x1b0;" horiz-adv-x="1171" 
d="M106 301v713h287v-641c0 -39.333 10 -68.333 30 -87s43.667 -28 71 -28c30 0 55.167 9.83301 75.5 29.5s30.5 48.834 30.5 87.501v639h287v-96c31.333 9.33301 53.833 28.666 67.5 57.999s20.5 75.333 20.5 138v123h215v-170c0 -104 -27 -186.667 -81 -248
s-128 -95.333 -222 -102v-717h-287v82l-8 2c-23.333 -27.333 -52.333 -49.833 -87 -67.5s-70 -26.5 -106 -26.5c-102.667 0 -177.167 28 -223.5 84s-69.5 131.667 -69.5 227z" />
    <glyph glyph-name="AEacute" unicode="&#x1fc;" horiz-adv-x="1775" 
d="M53 0l633 1425h1010v-274h-535v-295h459v-272h-459v-303h535v-281h-832v307h-352l-125 -307h-334zM621 578h243v571h-8zM903 1626l354 264l173 -204l-420 -199z" />
    <glyph glyph-name="aeacute" unicode="&#x1fd;" horiz-adv-x="1454" 
d="M66 303c0 42 7.16406 81.832 21.4971 119.499s35.833 70.834 64.5 99.501s64.5 51.167 107.5 67.5s93.833 24.5 152.5 24.5h163v39c0 10.667 -2.66699 22.667 -8 36s-13.166 25.666 -23.499 36.999s-23.333 21.166 -39 29.499s-34.167 12.5 -55.5 12.5
c-35.333 0 -66.5 -6.5 -93.5 -19.5s-47.833 -33.167 -62.5 -60.5l-207 131c38 75.333 89.5 128.333 154.5 159s139.833 46 224.5 46c54.667 0 106.5 -5.16699 155.5 -15.5s88.5 -33.166 118.5 -68.499c27.333 31.333 61.166 53.5 101.499 66.5s86.5 19.5 138.5 19.5
c82 0 149.333 -13.667 202 -41s94 -63.833 124 -109.5s50.667 -99.167 62 -160.5s17 -127 17 -197v-102h-516c0 -50.667 6.83301 -90.667 20.5 -120s43.834 -44 90.501 -44c28.667 0 54.667 6.5 78 19.5s46.333 36.5 69 70.5l242 -131
c-35.333 -76.667 -86.833 -132.667 -154.5 -168s-142.5 -53 -224.5 -53c-70.667 0 -131 9.83301 -181 29.5s-91.333 48.5 -124 86.5c-32.667 -31.333 -66.167 -55.166 -100.5 -71.499s-66.166 -27.833 -95.499 -34.5s-55.166 -10 -77.499 -10h-48.5
c-100 0 -174.333 26.667 -223 80s-73 131 -73 233zM343.997 323.999c0 -19.333 7.83301 -38.168 23.5 -56.501s44.167 -27.5 85.5 -27.5c32.667 0 61.167 9.5 85.5 28.5s36.5 46.833 36.5 83.5v62h-124c-38 0 -65.333 -8.16699 -82 -24.5s-25 -38.166 -25 -65.499z
M630.997 1167l190 400l246 -99l-276 -374zM867.997 617.997l219 0.000976562c0 18 -1.33301 35.833 -4 53.5s-8 33.334 -16 47.001s-19.5 24.667 -34.5 33s-34.167 12.5 -57.5 12.5c-20.667 0 -37.5 -4.5 -50.5 -13.5s-23.5 -20.333 -31.5 -34
s-13.833 -29.334 -17.5 -47.001s-6.16699 -34.834 -7.5 -51.501z" />
    <glyph glyph-name="Oslashacute" unicode="&#x1fe;" horiz-adv-x="1095" 
d="M84 43l79.999 132.999c-26 42 -44.833 88 -56.5 138s-17.5 102.333 -17.5 157v508c0 53.333 8.16699 107 24.5 161s43 102.833 80 146.5s84.5 79.5 142.5 107.5s128.667 42 212 42c65.333 0 123.333 -9.66699 174 -29s94.334 -44.666 131.001 -75.999l64 107l88 -58
l-80 -133c26 -39.333 45.5 -81.833 58.5 -127.5s19.5 -92.5 19.5 -140.5v-530c0 -70.667 -11.333 -134.5 -34 -191.5s-54.167 -105.667 -94.5 -146s-88.166 -71 -143.499 -92s-116.333 -31.5 -183 -31.5c-70.667 0 -132.334 9.5 -185.001 28.5s-97.667 45.5 -135 79.5
l-63 -106zM380.999 1626l354 264l172 -204l-420 -199zM384.999 546.999l305 510c-10.667 23.333 -27 44.5 -49 63.5s-52.667 28.5 -92 28.5c-30 0 -55.333 -5.16699 -76 -15.5s-37.5 -23.333 -50.5 -39s-22.5 -32.667 -28.5 -51s-9 -35.833 -9 -52.5v-444zM396.999 374.999
c10.667 -31.333 28.333 -56 53 -74s57.667 -27 99 -27c42 0 78.5 13.667 109.5 41s46.5 65 46.5 113v453z" />
    <glyph glyph-name="oslashacute" unicode="&#x1ff;" horiz-adv-x="940" 
d="M74 504c1.33301 57.333 4.66699 114.999 10 172.999s15.666 104.667 30.999 140c28.667 65.333 72.667 116.833 132 154.5s136.666 56.5 231.999 56.5c49.333 0 93.166 -5.5 131.499 -16.5s71.833 -25.833 100.5 -44.5l73 112l62 -43l-78 -121
c23.333 -24.667 41 -51.667 53 -81c19.333 -44 31.666 -93.667 36.999 -149s8 -115.666 8 -180.999c0 -72.667 -3.66699 -135.5 -11 -188.5s-20.666 -99.5 -39.999 -139.5c-35.333 -72.667 -84.166 -122.5 -146.499 -149.5s-132.166 -40.5 -209.499 -40.5
c-101.333 0 -182.666 23 -243.999 69l-61 -94l-60 41l68 107v2c-32.667 44 -55.5 98 -68.5 162s-19.5 141 -19.5 231zM328.001 1167l190 400l246 -99l-277 -374zM358.001 457.499c0 -13 0.666992 -26.167 2 -39.5l191 297c-18 32.667 -43.333 49 -76 49
c-45.333 0 -77.333 -24 -96 -72c-8 -23.333 -13.5 -50.333 -16.5 -81s-4.5 -67.667 -4.5 -111v-42.5zM381.001 312.999c16.667 -42 46.668 -62.999 90.001 -62.999c9.33301 0 19.166 1 29.499 3s20.333 6.83301 30 14.5s18.167 18.667 25.5 33s13 32.833 17 55.5
c2.66699 19.333 5.16699 43 7.5 71s3.5 60.333 3.5 97c0 35.333 -2 67.666 -6 96.999z" />
    <glyph glyph-name="Scommaaccent" unicode="&#x218;" horiz-adv-x="1083" 
d="M63 231l234.004 189.005c36.667 -52 75.167 -90.333 115.5 -115s86.5 -37 138.5 -37c62.667 0 106 13.667 130 41s36 61 36 101c0 27.333 -6.5 50.833 -19.5 70.5s-30.833 37 -53.5 52s-49 28 -79 39s-62.667 21.167 -98 30.5c-65.333 20.667 -121.333 44 -168 70
s-84.667 55.333 -114 88s-50.833 70.167 -64.5 112.5s-20.5 90.166 -20.5 143.499c0 61.333 11 117.666 33 168.999s52.833 95.666 92.5 132.999s87.167 66.333 142.5 87s116.333 31 183 31c108 0 196.5 -16.833 265.5 -50.5s127.167 -83.167 174.5 -148.5l-213 -201
c-68 80.667 -143.667 121 -227 121c-44 0 -80 -11.667 -108 -35s-42 -54 -42 -92c0 -20.667 6.83301 -39.167 20.5 -55.5s32.167 -31.333 55.5 -45s50.666 -26.667 81.999 -39s64.666 -23.833 99.999 -34.5c70.667 -22 130 -47 178 -75s86.333 -60 115 -96
s48.834 -75.833 60.501 -119.5s17.5 -91.5 17.5 -143.5c0 -136.667 -42 -242.834 -126 -318.501s-203 -113.5 -357 -113.5c-60 0 -114.333 6.16699 -163 18.5s-92.334 29 -131.001 50s-73.834 46.167 -105.501 75.5s-59.834 61.666 -84.501 96.999zM393.004 -603.995l66 221
h-60v268h279v-258l-148 -231h-137z" />
    <glyph glyph-name="scommaaccent" unicode="&#x219;" horiz-adv-x="905" 
d="M51 172l198.998 168.003c26 -38 55 -64.5 87 -79.5s67.667 -22.5 107 -22.5c38 0 67.333 8.16699 88 24.5s31 33.833 31 52.5c0 23.333 -7.5 40.833 -22.5 52.5s-40.167 20.834 -75.5 27.501c-45.333 8 -91.166 18.5 -137.499 31.5s-88 31.167 -125 54.5
s-67.333 53.166 -91 89.499s-35.5 82.5 -35.5 138.5c0 49.333 10.167 93.333 30.5 132s48 71.667 83 99s75.333 48.166 121 62.499s94.5 21.5 146.5 21.5c91.333 0 166.666 -13.667 225.999 -41s111 -65 155 -113l-172 -180c-26 30 -54.333 51.833 -85 65.5
s-68 20.5 -112 20.5c-39.333 0 -66.5 -6.83301 -81.5 -20.5s-22.5 -27.167 -22.5 -40.5c0 -12 4 -22.167 12 -30.5s18.833 -15.333 32.5 -21s28.334 -10.5 44.001 -14.5s31.834 -7.33301 48.501 -10c46.667 -9.33301 91.334 -20.833 134.001 -34.5
s80.5 -32.834 113.5 -57.501s59 -55.834 78 -93.501s28.5 -84.5 28.5 -140.5c0 -96.667 -35.833 -174.667 -107.5 -234s-170.167 -89 -295.5 -89c-92.667 0 -170.834 14 -234.501 42s-119.5 74.667 -167.5 140zM296.998 -603.997l65 221h-59v268h279v-258l-148 -231h-137z
" />
    <glyph glyph-name="circumflex" unicode="&#x2c6;" horiz-adv-x="923" 
d="M98 1159l289 322h186l283 -320l-111 -100l-268 203c-12 -8 -30.667 -21.667 -56 -41l-80 -61l-79 -59.5c-24.667 -18.333 -43 -31.5 -55 -39.5z" />
    <glyph glyph-name="caron" unicode="&#x2c7;" horiz-adv-x="923" 
d="M98 1382l109 99c12 -8 30.333 -21.667 55 -41l79 -60.5l80 -60.5c25.333 -19.333 44 -33 56 -41l268 203l111 -99l-283 -321h-186z" />
    <glyph glyph-name="breve" unicode="&#x2d8;" horiz-adv-x="1042" 
d="M176 1456h210.999c0 -15.333 3.16699 -31.5 9.5 -48.5s14.5 -33 24.5 -48s22.5 -27.167 37.5 -36.5s32.167 -14 51.5 -14c20.667 0 38.167 4.66699 52.5 14s26.5 21.5 36.5 36.5s17.5 31.167 22.5 48.5s7.5 33.333 7.5 48h213c-2.66699 -34 -10.5 -71.167 -23.5 -111.5
s-32.5 -77.833 -58.5 -112.5s-59.5 -63.667 -100.5 -87s-90.833 -35 -149.5 -35c-61.333 0 -112.833 11.667 -154.5 35s-75.5 52.333 -101.5 87s-45.167 72.167 -57.5 112.5s-19.166 77.5 -20.499 111.5z" />
    <glyph glyph-name="dotaccent" unicode="&#x2d9;" horiz-adv-x="763" 
d="M266 1143v266h273v-266h-273z" />
    <glyph glyph-name="ring" unicode="&#x2da;" horiz-adv-x="946" 
d="M281 1294c0 30 5.99902 58.667 17.999 86s28.333 51.333 49 72s45 36.834 73 48.501s58.333 17.5 91 17.5s63 -5.83301 91 -17.5s52.333 -27.834 73 -48.501s36.667 -44.667 48 -72s17 -56 17 -86c0 -31.333 -5.66699 -60.333 -17 -87s-27.666 -50.167 -48.999 -70.5
s-46 -36.333 -74 -48s-58.333 -17.5 -91 -17.5c-31.333 0 -61 5.83301 -89 17.5s-52.333 27.667 -73 48s-37 43.833 -49 70.5s-18 55.667 -18 87zM437.999 1292c0 -19.333 7.16699 -35.666 21.5 -48.999s31.833 -20 52.5 -20c19.333 0 36.166 6.66699 50.499 20
s21.5 29.666 21.5 48.999s-7.16699 35.833 -21.5 49.5s-31.166 20.5 -50.499 20.5c-20.667 0 -38.167 -6.83301 -52.5 -20.5s-21.5 -30.167 -21.5 -49.5z" />
    <glyph glyph-name="ogonek" unicode="&#x2db;" horiz-adv-x="704" 
d="M297 -223c0 31.333 7.5 66.499 22.5 105.499s38.167 82.167 69.5 129.5h170c-35.333 -50.667 -58.5 -93 -69.5 -127s-16.5 -60.667 -16.5 -80c0 -23.333 7.16699 -41 21.5 -53s33.166 -18 56.499 -18c12 0 28 2.33301 48 7s43.667 12.334 71 23.001l51 -131
c-32.667 -19.333 -67.5 -34 -104.5 -44s-72.5 -15 -106.5 -15c-61.333 0 -112.166 18.833 -152.499 56.5s-60.5 86.5 -60.5 146.5z" />
    <glyph glyph-name="tilde" unicode="&#x2dc;" horiz-adv-x="899" 
d="M80 1221c32.667 74 70.498 127.999 113.498 161.999s89.833 51 140.5 51c24.667 0 48.167 -4.83301 70.5 -14.5s43.833 -19.667 64.5 -30l57.5 -28.5c17.667 -8.66699 33.834 -13 48.501 -13c22 0 42 6 60 18s40.333 35.333 67 70c23.333 -12 46.333 -24.667 69 -38
l69 -40c-35.333 -78 -72.166 -133 -110.499 -165s-79.5 -48 -123.5 -48c-26 0 -50.5 4.33301 -73.5 13s-45.5 18.167 -67.5 28.5l-61.5 29c-19 9 -37.5 13.5 -55.5 13.5c-20.667 0 -41.5 -6.16699 -62.5 -18.5s-45.167 -36.166 -72.5 -71.499z" />
    <glyph glyph-name="hungarumlaut" unicode="&#x2dd;" horiz-adv-x="1007" 
d="M199 1196l190 399l246 -98l-277 -375zM522 1167l191 400l245 -99l-276 -374z" />
    <glyph glyph-name="Omega" unicode="&#x3a9;" horiz-adv-x="1099" 
d="M63 0l-0.00292969 269.999h103c0 2.66699 0.333008 4.33398 1 5.00098s1 2 1 4c-31.333 27.333 -52.166 63.5 -62.499 108.5s-15.5 94.167 -15.5 147.5v444c0 53.333 8.16699 107 24.5 161s43 102.833 80 146.5s84.5 79.5 142.5 107.5s128.667 42 212 42
c78 0 145.667 -13.333 203 -40s104.333 -61.5 141 -104.5s64.334 -91.833 83.001 -146.5s28 -110 28 -166v-457c0 -52 -5.5 -99.5 -16.5 -142.5s-32.167 -77.5 -63.5 -103.5c0 -1.33301 0.333008 -2.33301 1 -3s1 -1.66699 1 -3h106v-270h-432v287
c28.667 10.667 53.334 29 74.001 55s31 56.667 31 92v557c0 13.333 -2.5 29 -7.5 47s-13.667 35.167 -26 51.5s-28.333 30.333 -48 42s-44.5 17.5 -74.5 17.5s-55.333 -5.16699 -76 -15.5s-37.5 -23.333 -50.5 -39s-22.5 -32.667 -28.5 -51s-9 -35.833 -9 -52.5v-522
c0 -44 8.83301 -82.667 26.5 -116s45.167 -55.333 82.5 -66v-287h-431z" />
    <glyph glyph-name="pi" unicode="&#x3c0;" horiz-adv-x="987" 
d="M102 0v1016h781v-1016h-289v793h-207v-793h-285z" />
    <glyph glyph-name="afii10023" unicode="&#x401;" 
d="M125 0v1425h829v-274h-532v-295h459v-272h-459v-303h532v-281h-829zM199 1509v269h278v-269h-278zM598 1509v269h276v-269h-276z" />
    <glyph glyph-name="afii10051" unicode="&#x402;" horiz-adv-x="1306" 
d="M10 1157l0.00292969 266h953v-266h-369v-297l4 -2c27.333 30 65.5 55 114.5 75s96.833 30 143.5 30c69.333 0 127 -12 173 -36s82.667 -57.167 110 -99.5s46.333 -92.833 57 -151.5s16 -123 16 -193c0 -83.333 -6.83301 -158 -20.5 -224s-38.5 -121.5 -74.5 -166.5
s-85.5 -78.167 -148.5 -99.5s-143.5 -29.333 -241.5 -24v234c44 0 78.167 8.5 102.5 25.5s42.666 38.833 54.999 65.5s20.166 56 23.499 88s5 62.333 5 91c0 30 -1.66699 58.667 -5 86s-10.5 51.333 -21.5 72s-26.333 37 -46 49s-45.834 18 -78.501 18
c-38 0 -72.833 -10.167 -104.5 -30.5s-53.5 -42.833 -65.5 -67.5v-600h-295v1157h-287z" />
    <glyph glyph-name="afii10052" unicode="&#x403;" horiz-adv-x="983" 
d="M125 0v1425h829v-274h-532v-1151h-297zM334 1626l354 264l172 -204l-420 -199z" />
    <glyph glyph-name="afii10053" unicode="&#x404;" horiz-adv-x="1052" 
d="M92 463l-0.000976562 86v319v82c0 27.333 1.33301 54.666 4 81.999c5.33301 58.667 19.333 112.667 42 162s53.167 91.666 91.5 126.999s84.5 63.333 138.5 84s115.667 31 185 31c65.333 0 124 -9 176 -27s97.167 -43.333 135.5 -76s68.666 -71.167 90.999 -115.5
s36.833 -93.166 43.5 -146.499l-284 -76c-6.66699 45.333 -24 83.333 -52 114s-65.333 46 -112 46c-28.667 0 -53.334 -5.16699 -74.001 -15.5s-37.334 -23.666 -50.001 -39.999s-22.167 -34.333 -28.5 -54s-9.5 -39.834 -9.5 -60.501v-131h313v-270h-313v-113
c0 -23.333 1.66699 -46.833 5 -70.5s10.5 -45.167 21.5 -64.5s26.833 -35.5 47.5 -48.5s48 -19.5 82 -19.5c46.667 0 83.834 14.333 111.501 43s45.167 68.334 52.5 119.001l144.5 -36.5c48.333 -12.333 96.166 -25.5 143.499 -39.5
c-19.333 -112 -67.166 -201 -143.499 -267s-177.166 -99 -302.499 -99c-143.333 0 -252.166 34.167 -326.499 102.5s-117.166 164.5 -128.499 288.5c-2.66699 27.333 -4 55.333 -4 84z" />
    <glyph glyph-name="afii10054" unicode="&#x405;" horiz-adv-x="1083" 
d="M63 231l234.004 189.005c36.667 -52 75.167 -90.333 115.5 -115s86.5 -37 138.5 -37c62.667 0 106 13.667 130 41s36 61 36 101c0 27.333 -6.5 50.833 -19.5 70.5s-30.833 37 -53.5 52s-49 28 -79 39s-62.667 21.167 -98 30.5c-65.333 20.667 -121.333 44 -168 70
s-84.667 55.333 -114 88s-50.833 70.167 -64.5 112.5s-20.5 90.166 -20.5 143.499c0 61.333 11 117.666 33 168.999s52.833 95.666 92.5 132.999s87.167 66.333 142.5 87s116.333 31 183 31c108 0 196.5 -16.833 265.5 -50.5s127.167 -83.167 174.5 -148.5l-213 -201
c-68 80.667 -143.667 121 -227 121c-44 0 -80 -11.667 -108 -35s-42 -54 -42 -92c0 -20.667 6.83301 -39.167 20.5 -55.5s32.167 -31.333 55.5 -45s50.666 -26.667 81.999 -39s64.666 -23.833 99.999 -34.5c70.667 -22 130 -47 178 -75s86.333 -60 115 -96
s48.834 -75.833 60.501 -119.5s17.5 -91.5 17.5 -143.5c0 -136.667 -42 -242.834 -126 -318.501s-203 -113.5 -357 -113.5c-60 0 -114.333 6.16699 -163 18.5s-92.334 29 -131.001 50s-73.834 46.167 -105.501 75.5s-59.834 61.666 -84.501 96.999z" />
    <glyph glyph-name="afii10055" unicode="&#x406;" horiz-adv-x="548" 
d="M129 0v1425h297v-1425h-297z" />
    <glyph glyph-name="afii10056" unicode="&#x407;" horiz-adv-x="548" 
d="M-74 1509v267h273v-267h-273zM129 0v1425h297v-1425h-297zM328 1509v267h274v-267h-274z" />
    <glyph glyph-name="afii10057" unicode="&#x408;" horiz-adv-x="892" 
d="M-16 170l194 199c12 -19.333 25.667 -35.5 41 -48.5s30.833 -23.667 46.5 -32s31 -14.166 46 -17.499s27.833 -5 38.5 -5c42 0 74.333 14 97 42s34 63.333 34 106v1011h295v-1022c0 -74 -10.833 -136.833 -32.5 -188.5s-51.334 -94.167 -89.001 -127.5
s-82.167 -57.833 -133.5 -73.5s-105.666 -23.5 -162.999 -23.5c-74 0 -142.667 13.667 -206 41s-119.333 73.666 -168 138.999z" />
    <glyph glyph-name="afii10058" unicode="&#x409;" horiz-adv-x="1671" 
d="M10 201c53.333 19.333 94.6689 42.832 124.002 70.499s51.166 61.334 65.499 101.001s23.166 86.5 26.499 140.5s5 116.333 5 187v725h777v-534h180c75.333 0 140.833 -11 196.5 -33s101.667 -52 138 -90s63.333 -84 81 -138s26.5 -112.333 26.5 -175
c0 -75.333 -10.833 -141.333 -32.5 -198s-52 -104.167 -91 -142.5s-86.167 -67 -141.5 -86s-116.333 -28.5 -183 -28.5h-471v1149h-211v-438c0 -104 -4.83301 -198.333 -14.5 -283s-29.167 -158.667 -58.5 -222s-72 -114.833 -128 -154.5s-129.667 -66.5 -221 -80.5z
M1006 273.999l165 0.000976562c54.667 0 95.667 16.167 123 48.5s41 74.5 41 126.5c0 61.333 -14.667 104.166 -44 128.499s-70 36.5 -122 36.5h-163v-340z" />
    <glyph glyph-name="afii10059" unicode="&#x40a;" horiz-adv-x="1632" 
d="M115 0v1425h297v-540h264v540h297v-540h180c75.333 0 141 -10.667 197 -32s102 -51 138 -89s62.833 -83.667 80.5 -137s26.5 -111.333 26.5 -174c0 -76.667 -10.833 -143 -32.5 -199s-52 -103.167 -91 -141.5s-86.167 -66.666 -141.5 -84.999s-116.333 -27.5 -183 -27.5
h-471v608h-264v-608h-297zM971 273.999h165.999c54.667 0 95.5 15.5 122.5 46.5s40.5 72.167 40.5 123.5c0 61.333 -14.667 104 -44 128s-69.666 36 -120.999 36h-164v-334z" />
    <glyph glyph-name="afii10060" unicode="&#x40b;" horiz-adv-x="1308" 
d="M29 1155l-0.00195312 269.999h968v-270h-385v-295l6 -2c31.333 30 72.333 55.333 123 76s101.334 31 152.001 31c56 0 104.167 -8.66699 144.5 -26s73.833 -40.666 100.5 -69.999s46 -64.5 58 -105.5s18 -84.5 18 -130.5v-633h-296v551c0 42 -9 77.333 -27 106
s-55 43 -111 43c-27.333 0 -56.666 -8.16699 -87.999 -24.5s-58 -38.833 -80 -67.5v-608h-297v1155h-286z" />
    <glyph glyph-name="afii10061" unicode="&#x40c;" horiz-adv-x="1124" 
d="M125 0l0.000976562 1427h297v-577h74c19.333 0 38.833 3 58.5 9s38 16.5 55 31.5s33 35.167 48 60.5s27.167 57.333 36.5 96l97 374h284l-108 -424c-16.667 -69.333 -42 -126.166 -76 -170.499s-73 -74.166 -117 -89.499c57.333 -19.333 102 -50.666 134 -93.999
s56.333 -100 73 -170l117 -473h-299l-92 385c-20.667 75.333 -46.334 128.333 -77.001 159s-72 46 -124 46h-84v-590h-297zM393.001 1626l355 264l172 -204l-420 -199z" />
    <glyph glyph-name="afii10062" unicode="&#x40e;" horiz-adv-x="1034" 
d="M18 1423l308.001 -0.000976562l116 -395l93 -307h10l84 309l50.5 197.5l51.5 197.5h287l-305 -997c-8 -27.333 -16.167 -53.333 -24.5 -78s-17.166 -48.334 -26.499 -71.001c-22 -61.333 -45.667 -110.5 -71 -147.5s-53.333 -65.833 -84 -86.5
s-63.834 -34.667 -99.501 -42s-73.834 -11.666 -114.501 -12.999h-115v239h72c28.667 0 52.5 5.5 71.5 16.5s38.167 33.5 57.5 67.5c2.66699 6.66699 6 13.834 10 21.501s7.33301 15.5 10 23.5zM211.001 1821h210.999c0 -15.333 3 -31.5 9 -48.5s14.167 -33 24.5 -48
s23 -27.333 38 -37s32.167 -14.5 51.5 -14.5c20.667 0 38 4.83301 52 14.5s26.167 22 36.5 37s18 31 23 48s7.5 33.167 7.5 48.5h213c-2.66699 -34 -10.5 -71.167 -23.5 -111.5s-32.5 -78 -58.5 -113s-59.5 -64 -100.5 -87s-90.833 -34.5 -149.5 -34.5
c-61.333 0 -112.833 11.5 -154.5 34.5s-75.5 52 -101.5 87s-45.167 72.5 -57.5 112.5s-19.166 77.333 -20.499 112z" />
    <glyph glyph-name="afii10145" unicode="&#x40f;" horiz-adv-x="1144" 
d="M125 0v1425h297v-1144h307v1144h293v-1425h-324v-307h-249v307h-324z" />
    <glyph glyph-name="afii10017" unicode="&#x410;" horiz-adv-x="1136" 
d="M6 0l412 1425h295l411 -1425h-319l-70 291h-338l-37.5 -145.5l-40.5 -145.5h-313zM463 555h205l-39 203l-58 284h-10l-57 -282z" />
    <glyph glyph-name="afii10018" unicode="&#x411;" horiz-adv-x="1062" 
d="M106 0v1425h799v-274h-502v-260h181c75.333 0 140.833 -11 196.5 -33s101.667 -52 138 -90s63.333 -84 81 -138s26.5 -112.333 26.5 -175c0 -76.667 -10.5 -143.334 -31.5 -200.001s-51 -103.834 -90 -141.501s-86.167 -66 -141.5 -85s-116.333 -28.5 -183 -28.5h-474z
M403 274.002l165.999 0.000976562c54.667 0 95.334 15.833 122.001 47.5s40 74.167 40 127.5c0 61.333 -14.333 104.166 -43 128.499s-69 36.5 -121 36.5h-164v-340z" />
    </font>
</defs>
</svg>
