<?xml version="1.0" standalone="no"?>
<!DOCTYPE svg PUBLIC "-//W3C//DTD SVG 1.1//EN" "http://www.w3.org/Graphics/SVG/1.1/DTD/svg11.dtd" >
<svg>
<metadata>
Created by FontForge 20090914 at Thu Jan 26 11:34:54 2017
 By www-data
Copyright (c) 2002, 2005 Parachute&#194;&#168;, www.parachute.gr.  All rights reserved.
</metadata>
<defs>
<font id="." horiz-adv-x="839" >
  <font-face 
    font-family="."
    font-weight="200"
    font-style="italic"
    font-stretch="normal"
    units-per-em="2048"
    panose-1="2 0 0 0 0 0 0 0 0 0"
    ascent="1536"
    descent="-512"
    x-height="1006"
    cap-height="1425"
    bbox="-180 -416 2011 1755"
    underline-thickness="102"
    underline-position="-102"
    slope="-12"
    unicode-range="U+000D-U+FB02"
  />
<missing-glyph horiz-adv-x="748" 
d="M68 0v1365h544v-1365h-544zM136 68h408v1229h-408v-1229z" />
    <glyph glyph-name="uniFB01" unicode="fi" horiz-adv-x="788" 
d="M12 -328l246 1264h-117l15 74h116l45 233c18 90 52.333 153.5 103 190.5s112 55.5 184 55.5c104 0 183.333 -31.333 238 -94l-66 -62c-24.667 27.333 -53 46.166 -85 56.499s-64.333 15.5 -97 15.5c-52 0 -93.667 -14.333 -125 -43s-52.333 -69.667 -63 -123l-44 -229
h406l-197 -1010h-88l183 936h-318l-246 -1264h-90z" />
    <glyph glyph-name="uniFB02" unicode="fl" horiz-adv-x="825" 
d="M14 -328l244 1264h-117l15 74h116l45 229c19.333 92.667 54.333 158.834 105 198.501s112.667 59.5 186 59.5c20.667 0 53.5 -3.66699 98.5 -11s93.5 -23.333 145.5 -48l-236 -1202c-4 -23.333 -6 -44.666 -6 -63.999c0 -28.667 8.16699 -51.834 24.5 -69.501
s46.5 -26.5 90.5 -26.5h25c-1.33301 -8 -4.16602 -21.667 -8.49902 -41s-7.83301 -33 -10.5 -41h-20c-126.667 0 -190.334 52 -191.001 156c0 22 2 45 6 69l224 1155c-23.333 12 -48.333 20.833 -75 26.5s-51.667 8.5 -75 8.5c-108 0 -172.667 -59.333 -194 -178l-44 -221
h211l-14 -74h-211l-244 -1264h-90z" />
    <glyph glyph-name=".notdef" horiz-adv-x="748" 
d="M68 0v1365h544v-1365h-544zM136 68h408v1229h-408v-1229z" />
    <glyph glyph-name="glyph1" horiz-adv-x="2048" 
 />
    <glyph glyph-name="glyph1" horiz-adv-x="2048" 
 />
    <glyph glyph-name="uni000D" unicode="&#xd;" horiz-adv-x="2048" 
 />
    <glyph glyph-name="space" unicode=" " horiz-adv-x="387" 
 />
    <glyph glyph-name="exclam" unicode="!" horiz-adv-x="419" 
d="M76 0l20 111h105c-2.66699 -19.333 -6.16699 -37.833 -10.5 -55.5s-8.5 -36.167 -12.5 -55.5h-102zM164 356l25.5 144.5l34 184.5l38 205.5l36.5 206c11.333 66.333 22.5 127.833 33.5 184.5s19.833 104.667 26.5 144h93l-222 -1069h-65z" />
    <glyph glyph-name="quotedbl" unicode="&#x22;" horiz-adv-x="442" 
d="M225 1063l70 362h72l-70 -362h-72zM399 1063l72 362h70l-70 -362h-72z" />
    <glyph glyph-name="numbersign" unicode="#" horiz-adv-x="849" 
d="M18 0l164 459h-157l10 61h168l141 391h-156l13 64h166l163 455h66l-164 -455h268l164 455h64l-160 -455h162l-12 -64h-173l-141 -391h160l-14 -61h-168l-158 -459h-70l162 459h-268l-162 -459h-68zM270 520h269l139 391h-266z" />
    <glyph glyph-name="dollar" unicode="$" 
d="M8 205c13.333 6.66699 26.334 13.4971 39.001 20.4971s25.667 13.833 39 20.5c22 -48 51.667 -88 89 -120s85.333 -50 144 -54l60 311.5l61 312.5c-83.333 34 -148.833 73 -196.5 117s-71.5 104 -71.5 180c0 64 11 123.333 33 178s51.333 101.834 88 141.501
s80 70.167 130 91.5s103 31.333 159 30c5.33301 27.333 10.333 55 15 83s10.334 56.333 17.001 85h58l-33 -172c35.333 -2.66699 67.666 -10.667 96.999 -24s55.666 -29.166 78.999 -47.499s42.833 -38.333 58.5 -60s27.5 -43.5 35.5 -65.5c-12 -8 -24.5 -15.5 -37.5 -22.5
s-25.5 -14.5 -37.5 -22.5c-16.667 36.667 -40.667 70.334 -72 101.001s-77 49.667 -137 57l-56.5 -289l-56.5 -291c42 -15.333 80.167 -32.166 114.5 -50.499s63.5 -39.5 87.5 -63.5s42.333 -51.333 55 -82s19 -66.334 19 -107.001
c0 -70.667 -9.83301 -135.167 -29.5 -193.5s-48 -108 -85 -149s-81.667 -73 -134 -96s-111.5 -35.167 -177.5 -36.5l-20 -107.5l-20 -109.5h-60l43 219c-75.333 5.33301 -136.833 27.5 -184.5 66.5s-85.167 88.5 -112.5 148.5zM262.001 1001
c0 -27.333 4.83105 -51.5 14.498 -72.5s23.334 -39.667 41.001 -56s38.5 -31 62.5 -44s50.333 -25.5 79 -37.5l104 555c-39.333 1.33301 -77.5 -6.66699 -114.5 -24s-69.167 -41.333 -96.5 -72s-49.166 -67.167 -65.499 -109.5s-24.5 -88.833 -24.5 -139.5zM378.999 69.9971
c50.667 1.33301 96.001 12.5 136.001 33.5s73.667 48.667 101 83s48.5 73.5 63.5 117.5s22.5 91.333 22.5 142c0 31.333 -5.33301 59 -16 83s-25.334 44.5 -44.001 61.5s-40.5 32.333 -65.5 46s-51.833 26.167 -80.5 37.5l-59.5 -301.5z" />
    <glyph glyph-name="percent" unicode="%" horiz-adv-x="1228" 
d="M92 -35l1049 1497h78l-1051 -1497h-76zM135 698c-4 26 -3.33398 52.667 1.99902 80l90 455c12 61.333 35.5 109 70.5 143s87.5 51 157.5 51c31.333 0 60.333 -5 87 -15s48.834 -24 66.501 -42s30.5 -39.833 38.5 -65.5s9.33301 -53.5 4 -83.5l-12 -66l-76 -395
c-10.667 -56 -34.5 -102.833 -71.5 -140.5s-88.833 -56.5 -155.5 -56.5c-42 0 -77.167 6.16699 -105.5 18.5s-50.333 28.333 -66 48s-25.5 42.5 -29.5 68.5zM210.999 770c-6.66699 -39.333 -0.5 -72.3369 18.5 -99.0039s53.833 -40 104.5 -40c52 0 89.167 13.333 111.5 40
s36.833 58.334 43.5 95.001c1.33301 8 4.5 24 9.5 48l16.5 82l19.5 99.5l19.5 99.5c6 30.667 11 57.834 15 81.501s7 39.834 9 48.501c6.66699 36.667 -0.5 68.334 -21.5 95.001s-54.833 40 -101.5 40c-49.333 0 -85.333 -12.667 -108 -38s-38 -56.333 -46 -93z
M669.999 128.996c-4 26 -3.33398 52.667 1.99902 80l90 455c12 61.333 35.5 109 70.5 143s87.167 51 156.5 51c31.333 0 60.333 -5.16699 87 -15.5s48.834 -24.333 66.501 -42s30.667 -39.5 39 -65.5s9.83301 -54 4.5 -84l-12 -65l-76 -396
c-10.667 -56 -34.667 -102.667 -72 -140s-89.333 -56 -156 -56c-42 0 -77 6.16699 -105 18.5s-49.833 28.333 -65.5 48s-25.5 42.5 -29.5 68.5zM744.998 200.996c-6.66699 -39.333 -0.334961 -72.501 18.998 -99.501s54 -40.5 104 -40.5c52 0 89.333 13.333 112 40
s37.334 58.667 44.001 96c1.33301 8 4.33301 24 9 48l16.5 82l19.5 99l19.5 99c6.33301 30.667 11.5 58 15.5 82l8 48c6.66699 36.667 -0.5 68.5 -21.5 95.5s-54.833 40.5 -101.5 40.5c-49.333 0 -85.166 -12.667 -107.499 -38s-37.5 -56.666 -45.5 -93.999z" />
    <glyph glyph-name="ampersand" unicode="&#x26;" horiz-adv-x="1073" 
d="M90 272c0 194 118.666 365.999 355.999 515.999l-71 168c-22 52 -33 106.667 -33 164c0 42 6.83301 82.167 20.5 120.5s34.167 72.166 61.5 101.499s61.833 53 103.5 71s90.5 27 146.5 27s106.5 -9.33301 151.5 -28s81.167 -48.334 108.5 -89.001l-68 -53
c-19.333 31.333 -45.666 54.166 -78.999 68.499s-70.333 21.5 -111 21.5c-45.333 0 -83.666 -7.16699 -114.999 -21.5s-56.833 -33.166 -76.5 -56.499s-34 -49.333 -43 -78s-13.5 -58 -13.5 -88c0 -38 6 -72 18 -102c12 -32.667 27.667 -70.5 47 -113.5l62 -136.5
l67.5 -144.5l63.5 -134l51.5 -108.5c15 -31.333 25.167 -53.333 30.5 -66c31.333 42 56.5 87.333 75.5 136s34.833 94.334 47.5 137.001l82 -2c-15.333 -57.333 -37 -117.166 -65 -179.499s-61 -120.166 -99 -173.499l57.5 -115.5l57.5 -113.5h-101l-82 160
c-66.667 -66.667 -128.667 -112 -186 -136s-117.333 -36 -180 -36c-84.667 0 -153.334 24.167 -206.001 72.5s-79 118.833 -79 211.5zM175.999 278.999c0 -65.333 18.501 -117.668 55.501 -157.001s88.167 -59 153.5 -59c48 0 101.667 14.5 161 43.5
s113.666 70.5 162.999 124.5l-115 242l-113 242c-109.333 -69.333 -187.5 -140.666 -234.5 -213.999s-70.5 -147.333 -70.5 -222z" />
    <glyph glyph-name="quotesingle" unicode="'" horiz-adv-x="333" 
d="M256 1063l72 362h71l-69 -362h-74z" />
    <glyph glyph-name="parenleft" unicode="(" horiz-adv-x="483" 
d="M133 352c0 102.667 12.332 205.17 36.999 307.503s58.167 201.666 100.5 297.999s92.5 187.833 150.5 274.5s120.333 165.334 187 236.001l37 -22c-62.667 -80.667 -120 -165.334 -172 -254.001s-96.667 -180.834 -134 -276.501s-66.333 -193.334 -87 -293.001
s-31 -199.834 -31 -300.501c0 -95.333 8.83301 -188.166 26.5 -278.499s43.834 -175.833 78.501 -256.5l-45 -27c-48 82 -84.667 174.167 -110 276.5s-38 207.5 -38 315.5z" />
    <glyph glyph-name="parenright" unicode=")" horiz-adv-x="483" 
d="M-49 -215c61.333 75.333 118.001 157.67 170.001 247.003s97 182.166 135 278.499s67.667 195 89 296s32 201.833 32 302.5c0 94 -8.83301 186.167 -26.5 276.5s-43.167 176.5 -76.5 258.5l45 22c48 -83.333 84 -174.833 108 -274.5s36 -201.834 36 -306.501
c0 -104 -12.333 -207.833 -37 -311.5s-58.167 -204.334 -100.5 -302.001s-92.833 -190.167 -151.5 -277.5s-121.334 -166 -188.001 -236z" />
    <glyph glyph-name="asterisk" unicode="*" horiz-adv-x="688" 
d="M207 1186l41.002 82l215 -99l35 254h82l-64 -254l254 99c0 -2.66699 0.666992 -8.16699 2 -16.5l4 -26c1.33301 -9 2.66602 -17.5 3.99902 -25.5s2 -12.667 2 -14l-258 -72l125 -199l-82 -53l-94 221l-178 -221l-62 51l199 201c-2.66699 0 -15.667 3.83301 -39 11.5
l-74.5 23.5c-26.333 8 -50.833 15.833 -73.5 23.5s-35.334 12.167 -38.001 13.5z" />
    <glyph glyph-name="plus" unicode="+" 
d="M68 549l14 76h338l69 356h74l-69 -356h337l-14 -76h-338l-69 -361h-74l70 361h-338z" />
    <glyph glyph-name="comma" unicode="," horiz-adv-x="317" 
d="M-35 -199l84 197h-31l23 123h117l-21 -117l-117 -203h-55z" />
    <glyph glyph-name="hyphen" unicode="-" horiz-adv-x="708" 
d="M123 522l18 86h510l-16 -86h-512z" />
    <glyph glyph-name="period" unicode="." horiz-adv-x="309" 
d="M18 0l23 125h115l-23 -125h-115z" />
    <glyph glyph-name="slash" unicode="/" horiz-adv-x="536" 
d="M-104 -86l751 1571h72l-754 -1571h-69z" />
    <glyph glyph-name="zero" unicode="0" 
d="M53.5 193.5c-9.66699 43 -9.16797 91.167 1.49902 144.5l154 784c20.667 102.667 61.667 180.667 123 234s139 80 233 80c42 0 82.167 -7.16699 120.5 -21.5s70.833 -35.5 97.5 -63.5s45.5 -62.167 56.5 -102.5s11.833 -86.5 2.5 -138.5l-156 -805
c-19.333 -108 -60.666 -187.833 -123.999 -239.5s-141.333 -77.5 -234 -77.5c-48 0 -90.833 8.16699 -128.5 24.5s-69 39.833 -94 70.5s-42.333 67.5 -52 110.5zM138.999 328c-13.333 -78 -1.99805 -140.501 34.002 -187.501s90.333 -70.5 163 -70.5
c75.333 0 134.833 23.167 178.5 69.5s72.167 102.833 85.5 169.5l156 799c13.333 70.667 1.66602 129.334 -35.001 176.001s-91.334 70 -164.001 70c-74 0 -132.833 -21.167 -176.5 -63.5s-72.167 -99.833 -85.5 -172.5z" />
    <glyph glyph-name="one" unicode="1" 
d="M305 0l258 1327l-239 -147l18 100l238 145h90l-277 -1425h-88z" />
    <glyph glyph-name="two" unicode="2" 
d="M-43 0l15.998 86l639 778c39.333 49.333 69.666 97.833 90.999 145.5s32 96.167 32 145.5c0 57.333 -16.667 104.5 -50 141.5s-82.666 55.5 -147.999 55.5c-60 0 -114.667 -19.5 -164 -58.5s-83.666 -94.167 -102.999 -165.5l-88 19c23.333 90 67.833 160.333 133.5 211
s141.5 76 227.5 76c88.667 0 157.834 -23.667 207.501 -71s74.5 -113.333 74.5 -198c1.33301 -69.333 -13 -132 -43 -188s-64.667 -109.333 -104 -160l-602 -733h532l-14 -84h-637z" />
    <glyph glyph-name="three" unicode="3" 
d="M-37 242l76.001 17.9961c5.33301 -54.667 22 -100 50 -136s78.333 -54 151 -54c54.667 0 101.667 12.167 141 36.5s72.333 57 99 98s46.5 87.5 59.5 139.5s19.5 105.333 19.5 160c0 64 -15 112.667 -45 146s-76.333 50 -139 50h-68l17 82h65
c40.667 0 78.834 9.33301 114.501 28s66.167 45 91.5 79s45.166 74.5 59.499 121.5s21.5 98.5 21.5 154.5c0 54.667 -16.833 99.834 -50.5 135.501s-81.834 53.5 -144.501 53.5c-61.333 0 -114.166 -18.167 -158.499 -54.5s-76.833 -84.5 -97.5 -144.5l-88 19
c26 86 70.167 151.167 132.5 195.5s136.5 66.5 222.5 66.5c91.333 0 159.5 -24.667 204.5 -74s67.5 -113 67.5 -191c0 -36.667 -4.16699 -76.5 -12.5 -119.5s-22 -84.667 -41 -125s-44.167 -77.166 -75.5 -110.499s-70.333 -59 -117 -77c52 -18 86.5 -47.667 103.5 -89
s25.5 -84.666 25.5 -129.999c0 -60 -7.16699 -121.333 -21.5 -184s-37.833 -119.667 -70.5 -171s-76 -93.666 -130 -126.999s-120 -50 -198 -50s-140.833 21.833 -188.5 65.5s-72.834 106.5 -75.501 188.5z" />
    <glyph glyph-name="four" unicode="4" 
d="M-6 240l16 82l613 1103h90l-613 -1103h441l82 419h86l-82 -419h118l-16 -82h-117l-47 -240h-88l47 240h-530z" />
    <glyph glyph-name="five" unicode="5" 
d="M37 242c15.333 2.66699 30.002 5.66504 44.002 8.99805l44 11c1.33301 -56 15.666 -102.333 42.999 -139s77 -55 149 -55c65.333 0 119.666 19.667 162.999 59s77.166 88.333 101.499 147s41.333 121.5 51 188.5s14.5 127.833 14.5 182.5
c0 57.333 -13 105.166 -39 143.499s-73.667 57.5 -143 57.5c-20.667 0 -41.834 -2.83301 -63.501 -8.5s-43.167 -13.5 -64.5 -23.5s-41.166 -22.167 -59.499 -36.5s-34.5 -29.833 -48.5 -46.5h-82l136 694h602l-19 -84h-518l-98 -510h2c38 32.667 78.5 56.334 121.5 71.001
s84.5 22 124.5 22c86 0 147 -22.167 183 -66.5s54 -106.166 54 -185.499c0 -46.667 -2.33301 -95.5 -7 -146.5s-13.167 -102.167 -25.5 -153.5s-28.666 -100.166 -48.999 -146.499s-46.666 -87 -78.999 -122s-70.333 -63 -114 -84s-94.834 -31.5 -153.501 -31.5
c-76.667 0 -140.5 20.167 -191.5 60.5s-77.167 104.833 -78.5 193.5z" />
    <glyph glyph-name="six" unicode="6" 
d="M53 260c0 82 12.667 160.168 38 234.501s53 135.5 83 183.5l238.5 372.5l238.5 374.5h92l-428 -680c26 16.667 54.5 29.5 85.5 38.5s61.5 13.5 91.5 13.5c158.667 0 237.667 -89 237 -267c0 -62.667 -7.5 -126 -22.5 -190s-38.5 -122.333 -70.5 -175
s-74 -95.334 -126 -128.001s-114.667 -49 -188 -49c-86 0 -152.333 22.833 -199 68.5s-70 113.5 -70 203.5zM141 276.001c0 -69.333 15.5 -121.331 46.5 -155.998s79.167 -52 144.5 -52c57.333 0 105.5 14.667 144.5 44s70.333 66.166 94 110.499s41 93.166 52 146.499
s16.5 103.666 16.5 150.999c0 66.667 -14.667 116.5 -44 149.5s-76 49.5 -140 49.5c-58.667 0 -109.167 -17.167 -151.5 -51.5s-75.833 -77.166 -100.5 -128.499c-18 -38 -32.833 -79.667 -44.5 -125s-17.5 -91.333 -17.5 -138z" />
    <glyph glyph-name="seven" unicode="7" 
d="M80 0l708 1343h-473l-39 -202h-83l55 284h647l-14 -82l-709 -1343h-92z" />
    <glyph glyph-name="eight" unicode="8" 
d="M31 268c0 38 4 81.333 12 130s22.333 95.5 43 140.5s47.667 85.667 81 122s76 61.833 128 76.5c-35.333 19.333 -64 46.666 -86 81.999s-33 77 -33 125c0 61.333 7.16699 121.333 21.5 180s36.833 111.334 67.5 158.001s71 84 121 112s109.667 42 179 42
c88.667 0 157.334 -24.667 206.001 -74s73 -113 73 -191c0 -44 -4.16699 -89 -12.5 -135s-22 -89.167 -41 -129.5s-43.833 -75.833 -74.5 -106.5s-69.334 -52.334 -116.001 -65.001c39.333 -19.333 70 -48.333 92 -87s33.667 -88.667 35 -150
c0 -62.667 -7.5 -124.5 -22.5 -185.5s-38.833 -115.667 -71.5 -164s-74.667 -87.166 -126 -116.499s-113 -44 -185 -44c-94 0 -166 25.833 -216 77.5s-75 119.167 -75 202.5zM117 285c0 -27.333 3.33203 -53.9971 9.99902 -79.9971s17.834 -49.333 33.501 -70
s36.834 -37.334 63.501 -50.001s60.667 -19 102 -19c57.333 0 105.666 12.833 144.999 38.5s71.333 58.667 96 99s42.834 85.166 54.501 134.499s18.167 97 19.5 143c0 60 -15.833 111.5 -47.5 154.5s-82.834 64.5 -153.501 64.5c-60 0 -110.833 -13.167 -152.5 -39.5
s-75 -60 -100 -101s-43 -85.833 -54 -134.5s-16.5 -95.334 -16.5 -140.001zM263.999 944.003c0 -49.333 17.168 -89.667 51.501 -121s81.5 -47 141.5 -47c57.333 0 105 11.333 143 34s68.667 52 92 88s40.166 76.5 50.499 121.5s15.5 90.833 15.5 137.5
c0 57.333 -17.833 104.833 -53.5 142.5s-86.167 56.5 -151.5 56.5c-57.333 0 -104.5 -13 -141.5 -39s-66.333 -58.833 -88 -98.5s-37 -84 -46 -133s-13.5 -96.167 -13.5 -141.5z" />
    <glyph glyph-name="nine" unicode="9" 
d="M133 0l434 682.002h-2c-24.667 -19.333 -53 -33.333 -85 -42s-63 -13 -93 -13c-84.667 0 -145.334 26.5 -182.001 79.5s-55 123.5 -55 211.5c0 58.667 7.5 118.667 22.5 180s38.5 117.166 70.5 167.499s73.167 91.666 123.5 123.999s111.833 48.5 184.5 48.5
c88.667 0 155.834 -24.333 201.501 -73s68.5 -118 68.5 -208c-1.33301 -82 -13.5 -159.167 -36.5 -231.5s-49.5 -132.5 -79.5 -180.5l-478 -745h-94zM240 903.002c0 -66.667 14.3281 -116.331 42.9951 -148.998s75 -49 139 -49c57.333 0 105.833 13.5 145.5 40.5
s71.334 62 95.001 105s41 90.167 52 141.5s16.5 101.666 16.5 150.999c0 69.333 -15.667 122.166 -47 158.499s-79.666 54.5 -144.999 54.5c-57.333 0 -105.166 -14.667 -143.499 -44s-69.166 -66.5 -92.499 -111.5s-39.666 -94.167 -48.999 -147.5s-14 -103.333 -14 -150z
" />
    <glyph glyph-name="colon" unicode=":" horiz-adv-x="317" 
d="M18 0l25 125h115l-25 -125h-115zM143 635l23 125h115l-23 -125h-115z" />
    <glyph glyph-name="semicolon" unicode=";" horiz-adv-x="317" 
d="M-35 -199l84 197h-31l23 123h117l-21 -117l-117 -203h-55zM141 635c5.33301 20.667 9.83301 41.167 13.5 61.5l11.5 61.5h117c-5.33301 -20.667 -9.83301 -41.167 -13.5 -61.5l-11.5 -61.5h-117z" />
    <glyph glyph-name="less" unicode="&#x3c;" 
d="M74 551l14 71.999l805 366l-14 -84l-717 -323c12 -5.33301 33.333 -16.333 64 -33l105.5 -56.5l126 -68.5l126 -69.5l105.5 -58.5c30.667 -17.333 53 -28.666 67 -33.999l-19 -78z" />
    <glyph glyph-name="equal" unicode="=" 
d="M31 371l16 75h752l-17 -75h-751zM96 700l15 74h749l-14 -74h-750z" />
    <glyph glyph-name="greater" unicode="&#x3e;" 
d="M2 184l15.999 86.001c15.333 5.33301 41.833 16.666 79.5 33.999l128 58.5l151.5 68.5l151.5 68.5l128 57.5c37.667 16.667 63.834 27.667 78.501 33l-590 323l17 76l665 -366l-14 -72z" />
    <glyph glyph-name="question" unicode="?" horiz-adv-x="806" 
d="M190 1133c34 100 86.001 175.499 156.001 226.499s150 76.5 240 76.5c96.667 0 170 -25.667 220 -77s75 -116.666 75 -195.999c0 -61.333 -11 -118.666 -33 -171.999s-47.333 -96.333 -76 -129l-74 -76c-46.667 -48 -91 -96.167 -133 -144.5s-72 -105.833 -90 -172.5
c-5.33301 -23.333 -10 -47 -14 -71l-12 -70h-91l27 135c18 82 57.667 158.333 119 229c32.667 40.667 66.667 78.5 102 113.5s69.666 70.833 102.999 107.5c26 28.667 46.5 63.5 61.5 104.5s22.5 86.833 22.5 137.5c0 57.333 -17.167 104.5 -51.5 141.5
s-87.5 55.5 -159.5 55.5c-76.667 0 -140.667 -23.333 -192 -70s-88.333 -103.334 -111 -170.001zM287.001 -0.000976562l24 113h107l-25 -113h-106z" />
    <glyph glyph-name="at" unicode="@" horiz-adv-x="1540" 
d="M129 526c0 128.667 20.168 248.671 60.501 360.004s96.666 208.166 168.999 290.499s159 147.166 260 194.499s212.167 71 333.5 71c86 0 164.167 -12.667 234.5 -38s130.5 -61.166 180.5 -107.499s88.667 -102.666 116 -168.999s41 -140.5 41 -222.5
c0 -90 -10.667 -172.5 -32 -247.5s-50 -139.833 -86 -194.5s-78 -97.334 -126 -128.001s-99.333 -46 -154 -46c-16.667 0 -34.5 2.33301 -53.5 7s-37.333 12.167 -55 22.5s-33 24.333 -46 42s-20.167 39.5 -21.5 65.5c-35.333 -48 -74.833 -81.5 -118.5 -100.5
s-84.5 -28.5 -122.5 -28.5s-70.5 6.16699 -97.5 18.5s-48.667 28.666 -65 48.999s-27.833 43.166 -34.5 68.499s-10 50.333 -10 75c0 57.333 5.5 119.166 16.5 185.499s30 127.833 57 184.5s63.5 103.667 109.5 141s103 56 171 56c39.333 0 76.166 -9.83301 110.499 -29.5
s58.833 -47.167 73.5 -82.5h2l23 102h74l-115 -555c-8 -39.333 -2.16699 -74.5 17.5 -105.5s50.167 -46.5 91.5 -46.5c44 0 85.333 14 124 42s72.334 66.333 101.001 115s51.5 105.667 68.5 171s25.5 136.333 25.5 213c0 75.333 -12.667 142.333 -38 201
s-60.166 108.5 -104.499 149.5s-96.833 72 -157.5 93s-126.667 31.5 -198 31.5c-116 0 -220 -22.5 -312 -67.5s-170.5 -106 -235.5 -183s-114.833 -166 -149.5 -267s-52 -207.5 -52 -319.5c0 -168 46.333 -300.833 139 -398.5s228 -146.5 406 -146.5
c136.667 0 265 26 385 78l22 -68c-65.333 -23.333 -131.833 -42.5 -199.5 -57.5s-136.834 -22.5 -207.501 -22.5c-194 0 -346 52.333 -456 157s-165 253.667 -165 447zM573.001 526.004c0 -46.667 11 -86.001 33 -118.001s61 -48 117 -48c58.667 0 108.5 20.833 149.5 62.5
s71.167 91.834 90.5 150.501c13.333 46.667 24.166 94.167 32.499 142.5s12.5 94.5 12.5 138.5c0 46.667 -13.667 83.667 -41 111s-65 41 -113 41c-53.333 0 -97.666 -16.167 -132.999 -48.5s-64 -72.333 -86 -120s-37.833 -99.5 -47.5 -155.5s-14.5 -108 -14.5 -156z" />
    <glyph glyph-name="A" unicode="A" horiz-adv-x="972" 
d="M-57 0l342 712.5l344 712.5h98l68.5 -712.5l68.5 -712.5h-92l-29 360h-536l-84 -180l-86 -180h-94zM246 442h491.001c-8 83.333 -15.333 166.333 -22 249s-14.334 165.667 -23.001 249c-5.33301 61.333 -10 123.5 -14 186.5s-9.33301 125.167 -16 186.5h-5l-165 -357
l-27 -55l-44.5 -91l-52 -109.5l-52 -109.5l-44 -92z" />
    <glyph glyph-name="B" unicode="B" horiz-adv-x="1005" 
d="M49 0l277.002 1425h381c105.333 0 186.166 -25.5 242.499 -76.5s84.5 -122.833 84.5 -215.5c0 -88.667 -21.167 -168.667 -63.5 -240s-109.833 -121.333 -202.5 -150l-2 -4c57.333 -12 100.333 -43.333 129 -94s43 -106.667 43 -168
c-1.33301 -84.667 -15.333 -157.334 -42 -218.001s-61.834 -110.167 -105.501 -148.5s-93.5 -66.333 -149.5 -84s-114.667 -26.5 -176 -26.5h-416zM154.002 84.001h327c60 0 113 10.5 159 31.5s84.333 49.667 115 86s53.5 77.333 68.5 123s22.5 93.167 22.5 142.5
c0 72.667 -19.167 129.667 -57.5 171s-97.833 62 -178.5 62h-336zM291.002 780.001l217 0.000976562c19.333 0 38.833 0.333008 58.5 1s39.167 1.66699 58.5 3c46.667 1.33301 89.667 10.666 129 27.999s73 40.333 101 69s49.833 62 65.5 100s23.5 80.333 23.5 127
c0 75.333 -22.5 133 -67.5 173s-110.5 60 -196.5 60h-281l-55.5 -280z" />
    <glyph glyph-name="C" unicode="C" horiz-adv-x="935" 
d="M88 301c0 26 2.33105 54.999 6.99805 86.999s9.33398 60.333 14.001 85l88 449c12 62.667 27.5 125 46.5 187s45.333 117 79 165s77 87 130 117s120.5 45 202.5 45c110.667 0 196 -26.667 256 -80s95 -122.333 105 -207l-45.5 -15.5c-15 -5 -30.5 -9.5 -46.5 -13.5
c-2.66699 65.333 -27.667 119.666 -75 162.999s-112 65 -194 65c-69.333 0 -125.833 -13.667 -169.5 -41s-79.167 -62.833 -106.5 -106.5s-48.166 -92.167 -62.499 -145.5s-26.166 -106.666 -35.499 -159.999l-78 -406c-6.66699 -31.333 -11.834 -63.666 -15.501 -96.999
s-5.5 -61.666 -5.5 -84.999c0 -31.333 4.5 -61.333 13.5 -90s23.333 -53.834 43 -75.501s45.5 -39.334 77.5 -53.001s71.333 -20.5 118 -20.5c82 0 151.333 20.833 208 62.5s100.667 101.834 132 180.501l43.5 -15c13.667 -4.66699 27.834 -9 42.501 -13
c-35.333 -100 -89.833 -174.167 -163.5 -222.5s-161.834 -72.5 -264.501 -72.5c-114.667 0 -200.667 29.333 -258 88s-86 133.667 -86 225z" />
    <glyph glyph-name="D" unicode="D" horiz-adv-x="1032" 
d="M51 0l274.999 1425h389c117.333 0 201.5 -25.833 252.5 -77.5s76.5 -124.167 76.5 -217.5c0 -18 -1.33301 -41.5 -4 -70.5s-6.66699 -62 -12 -99l-17.5 -117c-6.33301 -41 -13.5 -82.5 -21.5 -124.5c-20.667 -106.667 -40.834 -204 -60.501 -292
s-41.167 -155.333 -64.5 -202c-23.333 -44 -49.666 -80.5 -78.999 -109.5s-61.666 -52.167 -96.999 -69.5s-73.5 -29.333 -114.5 -36s-84.167 -10 -129.5 -10h-393zM157.999 84l299.002 0.000976562c76.667 0 142.167 14.667 196.5 44s95.166 70.666 122.499 123.999
c15.333 26 28.5 57 39.5 93s19.833 69.667 26.5 101l45 216.5c14.667 71.667 27.667 143.167 39 214.5l24 159c4 24.667 6 48 6 70c0 28 -2.66699 54.667 -8 80c-10.667 45.333 -34.834 82.5 -72.501 111.5s-97.5 43.5 -179.5 43.5h-295z" />
    <glyph glyph-name="E" unicode="E" horiz-adv-x="892" 
d="M51 0l277 1425h714l-18 -84h-623l-110 -573h538l-16 -82h-537l-118 -602h622l-14 -84h-715z" />
    <glyph glyph-name="F" unicode="F" horiz-adv-x="870" 
d="M51 0l277 1425h714l-16 -84h-623l-110 -575h536l-16 -82h-537l-131 -684h-94z" />
    <glyph glyph-name="G" unicode="G" horiz-adv-x="991" 
d="M84 303c0 26 2.00293 54.998 6.00293 86.998s8 60.333 12 85l88 449c12 62.667 27.667 125 47 187s45.833 117 79.5 165s77 87 130 117s120.5 45 202.5 45c110.667 0 196 -26.667 256 -80s95 -122.333 105 -207l-92 -29c-2.66699 65.333 -27.667 119.666 -75 162.999
s-112 65 -194 65c-69.333 0 -125.833 -13.667 -169.5 -41s-79.167 -62.833 -106.5 -106.5s-48.166 -92.167 -62.499 -145.5s-26.5 -106.666 -36.5 -159.999l-77 -405c-6.66699 -31.333 -12.5 -65.5 -17.5 -102.5s-7.5 -67.167 -7.5 -90.5
c0 -31.333 4.83301 -60.666 14.5 -87.999s24.667 -51.166 45 -71.499s46.5 -36.666 78.5 -48.999s71.333 -18.5 118 -18.5c83.333 0 153.666 20.833 210.999 62.5s99.666 97.167 126.999 166.5c12 28.667 22.167 58.667 30.5 90s15.833 62.666 22.5 93.999l33 160h-248
l17 82h337c-6.66699 -42 -14.334 -83.833 -23.001 -125.5l-28 -128.5c-12 -69.333 -31 -136.333 -57 -201c-35.333 -90 -88.5 -159.5 -159.5 -208.5s-159.167 -73.5 -264.5 -73.5c-114.667 0 -200.334 29.333 -257.001 88s-85 133.667 -85 225z" />
    <glyph glyph-name="H" unicode="H" horiz-adv-x="1048" 
d="M51 0l279 1425h90l-129 -657h604l127 657h92l-278 -1425h-91l134 684h-603l-133 -684h-92z" />
    <glyph glyph-name="I" unicode="I" horiz-adv-x="391" 
d="M68 0l278 1425h90l-276 -1425h-92z" />
    <glyph glyph-name="J" unicode="J" horiz-adv-x="778" 
d="M-37 86l64.0029 60.9971c10.667 -12 24.167 -22.5 40.5 -31.5s33.666 -16.833 51.999 -23.5s36.833 -11.667 55.5 -15s36 -5 52 -5c35.333 0 69.166 4.33301 101.499 13s61.833 24.334 88.5 47.001s50.167 52.834 70.5 90.501s36.166 85.834 47.499 144.501l206 1058h93
l-209 -1079c-24.667 -126.667 -70.167 -218 -136.5 -274s-155.5 -84 -267.5 -84c-48 0 -96.5 8.5 -145.5 25.5s-86.5 41.167 -112.5 72.5z" />
    <glyph glyph-name="K" unicode="K" horiz-adv-x="1013" 
d="M47 0l279 1425h90c-27.333 -146 -57.5 -293.667 -90.5 -443s-62.833 -297 -89.5 -443h2l766 886h104l-471 -555l262 -870h-96l-118.5 394.5l-119.5 393.5l-350 -401l-78 -387h-90z" />
    <glyph glyph-name="L" unicode="L" horiz-adv-x="806" 
d="M66 0l276 1425h90l-262 -1341h612l-16 -84h-700z" />
    <glyph glyph-name="M" unicode="M" horiz-adv-x="1290" 
d="M47 0l279 1425h88l112.5 -505.5l114.5 -503.5h2c9.33301 16.667 29.833 49.834 61.5 99.501l110 175l133 215l134 219l113.5 185.5l71 115h96l-279 -1425h-88l116.5 602l117.5 602h-2l-283.5 -465l-290.5 -460h-69l-106.5 453l-106.5 456h-2l-232 -1188h-90z" />
    <glyph glyph-name="N" unicode="N" horiz-adv-x="1107" 
d="M49 0l279 1425h88l424 -1232h4l239 1232h86l-274 -1425h-88l-106.5 312.5l-105.5 305l-106.5 308l-109.5 319.5h-2c-6.66699 -40.667 -16.167 -93.834 -28.5 -159.501l-41 -214l-46 -240.5l-47.5 -243l-43 -219l-32 -169h-90z" />
    <glyph glyph-name="O" unicode="O" horiz-adv-x="993" 
d="M90 264c-3.33301 23.333 -5 47.335 -5 72.002c0 32.667 3 66 9 100l115 574c10.667 54.667 26.334 107.834 47.001 159.501s48.667 97 84 136s79 70.5 131 94.5s114.667 36 188 36c66.667 0 124.334 -11.333 173.001 -34s88 -53.334 118 -92.001
c30.667 -38.667 50.667 -83.334 60 -134.001c4.66699 -24 6.66699 -48.667 6 -74c0 -28.667 -2.66699 -58 -8 -88l-109 -596c-10.667 -58.667 -27 -114.334 -49 -167.001s-51 -98.5 -87 -137.5s-79.667 -70 -131 -93s-112.333 -34.5 -183 -34.5
c-72.667 0 -134.334 12.167 -185.001 36.5s-90.334 57 -119.001 98s-47 88.833 -55 143.5zM179 294.002c4.66699 -42.667 17.333 -80.499 38 -113.499s50 -59.333 88 -79s86.667 -29.5 146 -29.5c57.333 0 106.333 9.5 147 28.5s74.667 44.5 102 76.5
s49.666 68.5 66.999 109.5s30 83.5 38 127.5l113 596c4.66699 24.667 7 49 7 73c0.666992 16.667 -0.333008 33.667 -3 51c-5.33301 41.333 -19 77.666 -41 108.999s-52.5 57 -91.5 77s-87.167 30 -144.5 30c-56 0 -103.833 -10 -143.5 -30s-73.167 -46 -100.5 -78
s-49.166 -68.833 -65.499 -110.5s-28.5 -83.5 -36.5 -125.5l-113 -576c-6 -32 -9 -63 -9 -93c0 -14 0.666992 -28.333 2 -43z" />
    <glyph glyph-name="P" unicode="P" horiz-adv-x="952" 
d="M51 0l278.999 1425h366c112 0 198.5 -25.5 259.5 -76.5s91.5 -127.833 91.5 -230.5c0 -76.667 -10.667 -146 -32 -208s-52.5 -115.5 -93.5 -160.5s-91.167 -79.833 -150.5 -104.5s-126.666 -37 -201.999 -37h-307l-119 -608h-92zM278.999 694h294
c116 0 208.167 36.333 276.5 109s102.5 171.667 102.5 297c0 78 -21.833 137.667 -65.5 179s-110.5 62 -200.5 62h-283z" />
    <glyph glyph-name="Q" unicode="Q" horiz-adv-x="997" 
d="M90 264c-3.33301 23.333 -4.99902 47.3301 -4.99902 71.9971c0 32.667 3 66 9 100l115 574c10.667 54.667 26.334 107.834 47.001 159.501s48.667 97 84 136s79 70.5 131 94.5s114.667 36 188 36c66.667 0 124.334 -11.333 173.001 -34s88 -53.167 118 -91.5
s50 -83.166 60 -134.499c4 -24 6 -48.667 6 -74c0 -28.667 -2.66699 -58 -8 -88l-109 -596c-10.667 -50.667 -23.834 -98.5 -39.501 -143.5s-37.167 -85.833 -64.5 -122.5l123 -115l-60 -60l-121 111c-35.333 -31.333 -76.5 -56.166 -123.5 -74.499
s-101.833 -27.5 -164.5 -27.5c-72.667 0 -134.334 12.167 -185.001 36.5s-90.334 57 -119.001 98s-47 88.833 -55 143.5zM179.001 293.997c4.66699 -43.333 17.333 -81.3301 38 -113.997s50 -58.834 88 -78.501s86.667 -29.5 146 -29.5c48 0 90 7.16699 126 21.5
s67.667 33.166 95 56.499l-158 145l64 63l151 -143c19.333 28.667 35.166 60 47.499 94s21.833 69 28.5 105l113 596c4.66699 24.667 7 49 7 73c0 17.333 -1 34.333 -3 51c-6 41.333 -19.833 77.666 -41.5 108.999s-52 57 -91 77s-87.167 30 -144.5 30
c-56 0 -103.833 -10 -143.5 -30s-73.167 -46 -100.5 -78s-49.166 -68.833 -65.499 -110.5s-28.5 -83.5 -36.5 -125.5l-113 -576c-6 -32 -9 -63 -9 -93c0 -14.667 0.666992 -29 2 -43z" />
    <glyph glyph-name="R" unicode="R" horiz-adv-x="993" 
d="M51 0l277 1425h393c108 0 190 -24.833 246 -74.5s84 -123.167 84 -220.5c0 -130 -32.5 -234.5 -97.5 -313.5s-153.5 -127.833 -265.5 -146.5l154 -670h-101l-147 659l-326 -2l-62.5 -328.5l-64.5 -328.5h-90zM285 737h260c52 0 102.833 5.83301 152.5 17.5
s94 32.5 133 62.5s70.5 69.667 94.5 119s36 112 36 188c0 74 -23.333 128.667 -70 164s-111.667 53 -195 53h-295l-58.5 -301z" />
    <glyph glyph-name="S" unicode="S" horiz-adv-x="935" 
d="M47 215l84 45.002c16.667 -57.333 49.5 -102.666 98.5 -135.999s115.167 -50 198.5 -50c60 0 112.167 9.5 156.5 28.5s80.833 44.167 109.5 75.5s50.167 67.833 64.5 109.5s21.5 85.167 21.5 130.5c0 42 -5.83301 77.333 -17.5 106s-28.334 52.667 -50.001 72
s-47.834 35.833 -78.501 49.5s-65.334 26.5 -104.001 38.5c-56 19.333 -103.667 39.166 -143 59.499s-71.666 43.166 -96.999 68.499s-43.833 54 -55.5 86s-17.5 69.333 -17.5 112c0 61.333 9.5 118.333 28.5 171s47 97.667 84 135s81.833 67 134.5 89s113 33 181 33
c91.333 0 164.333 -16.833 219 -50.5s95 -77.834 121 -132.501l-84 -51c-19.333 46.667 -51.166 82.667 -95.499 108s-99.166 38 -164.499 38c-53.333 0 -100.5 -9.33301 -141.5 -28s-74.833 -43.334 -101.5 -74.001s-46.834 -65.5 -60.501 -104.5s-20.5 -79.5 -20.5 -121.5
c0 -36.667 5.83301 -67.667 17.5 -93s28.5 -47.5 50.5 -66.5s49.333 -35.667 82 -50s70.334 -29.166 113.001 -44.499c48 -16.667 90.333 -34.5 127 -53.5s68 -41.167 94 -66.5s45.5 -55 58.5 -89s19.5 -75 19.5 -123c0 -136.667 -40 -245.5 -120 -326.5
s-194.333 -121.5 -343 -121.5c-100 0 -181 20.5 -243 61.5s-104 96.167 -126 165.5z" />
    <glyph glyph-name="T" unicode="T" horiz-adv-x="806" 
d="M190 1341l17 84h782l-18 -84h-342l-262 -1341h-91l263 1341h-349z" />
    <glyph glyph-name="U" unicode="U" horiz-adv-x="1011" 
d="M100 242c-4 23.333 -6.33398 48 -7.00098 74c0 30.667 3 62.667 9 96l199 1013h90l-18.5 -96l-35 -180.5l-44 -224l-44 -224l-35.5 -182.5l-19 -100c-6.66699 -32.667 -10 -64 -10 -94c0 -12 0.666992 -24.667 2 -38c4 -41.333 15.833 -77.5 35.5 -108.5
s48.334 -55.667 86.001 -74s85.167 -27.5 142.5 -27.5s107.166 9.5 149.499 28.5s77.833 44.5 106.5 76.5s51.5 69.167 68.5 111.5s30.167 86.833 39.5 133.5l193 999h92c-4 -18 -10.833 -52.833 -20.5 -104.5l-35 -182l-43 -221l-42 -221l-35 -182.5
c-10.333 -52 -16.833 -86 -19.5 -102c-12 -60 -29.667 -116 -53 -168s-53.666 -97.167 -90.999 -135.5s-82 -68 -134 -89s-113 -31.5 -183 -31.5c-68 0 -126.167 10.5 -174.5 31.5s-86.333 50.667 -114 89s-46.167 82.833 -55.5 133.5z" />
    <glyph glyph-name="V" unicode="V" horiz-adv-x="917" 
d="M219 1425h87.999l23.5 -347c7.66699 -115.333 14.834 -231 21.501 -347l19.5 -294.5l19.5 -297.5h6l66 143.5l70.5 156.5l70.5 156l66 142l313 688h98l-661 -1425h-96z" />
    <glyph glyph-name="W" unicode="W" horiz-adv-x="1406" 
d="M227 1425l88.0059 0.00683594c0 -106.667 0.333008 -212.834 1 -318.501s1 -211.834 1 -318.501v-313.5c0 -103.667 -0.666992 -207.834 -2 -312.501h4l281 665l127 298.5l125 299.5h86c1.33301 -19.333 2.66602 -50 3.99902 -92s2.66602 -91.667 3.99902 -149
s3.16602 -119.833 5.49902 -187.5s4.83301 -136.667 7.5 -207s5 -139.333 7 -207s3.66699 -129.834 5 -186.501s2.66602 -105.834 3.99902 -147.501s2.66602 -71.167 3.99902 -88.5h4l100.5 262l102.5 262l289 741h94l-568 -1425h-96
c-2.66699 109.333 -5.66699 218.166 -9 326.499s-7 217.166 -11 326.499c-2.66699 98 -5.83398 196 -9.50098 294l-11.5 294h-4l-219 -524l-303 -717h-98z" />
    <glyph glyph-name="X" unicode="X" horiz-adv-x="858" 
d="M-61 0l501 731l-204 692h92l174 -606l409 606h105l-481 -694l223 -729h-94l-189 641l-434 -641h-102z" />
    <glyph glyph-name="Y" unicode="Y" horiz-adv-x="835" 
d="M209 1425h88c19.333 -78 36.833 -156.167 52.5 -234.5s32.834 -156.5 51.501 -234.5l29.5 -127.5c10.333 -44.333 21.166 -87.833 32.499 -130.5h4l87 144.5l89 144.5l266 438h99l-516 -829l-115 -596h-88l114 596l-96 415z" />
    <glyph glyph-name="Z" unicode="Z" horiz-adv-x="800" 
d="M-37 0l17 84l851 1257h-571l16 84h672l-16 -82l-854 -1259h598l-17 -84h-696z" />
    <glyph glyph-name="bracketleft" unicode="[" horiz-adv-x="438" 
d="M16 -221l320 1648h262l-14 -69h-176l-295 -1512h178l-15 -67h-260z" />
    <glyph glyph-name="backslash" unicode="\" horiz-adv-x="520" 
d="M197 1477h71l107 -1551h-72z" />
    <glyph glyph-name="bracketright" unicode="]" horiz-adv-x="438" 
d="M-43 -223l12 69h176l295 1512h-178l14 69h261l-320 -1650h-260z" />
    <glyph glyph-name="asciicircum" unicode="^" 
d="M113 725l467 694h69l197 -692h-78l-168 608l-43 -65l-72 -108.5l-87 -130l-87 -130l-71.5 -110l-42.5 -66.5h-84z" />
    <glyph glyph-name="underscore" unicode="_" horiz-adv-x="1007" 
d="M-127 -231l16 75h1004l-14 -75h-1006z" />
    <glyph glyph-name="grave" unicode="`" horiz-adv-x="837" 
d="M436 1442l84 45l172 -320l-47 -24z" />
    <glyph glyph-name="a" unicode="a" horiz-adv-x="876" 
d="M82 268c0 39.333 2.66602 82.002 7.99902 128.002s13 93 23 141c13.333 72.667 31 138.5 53 197.5s49.333 110 82 153s71.5 76.167 116.5 99.5s97.5 35 157.5 35c57.333 0 107.5 -13.333 150.5 -40s72.833 -63.334 89.5 -110.001l2 2l24 134h86l-196 -1008h-86l31 143h-5
c-35.333 -48 -76.166 -85.833 -122.499 -113.5s-103.5 -41.5 -171.5 -41.5c-44 0 -81.333 7.16699 -112 21.5s-55.5 34.5 -74.5 60.5s-33 55.667 -42 89s-13.5 69.666 -13.5 108.999zM171.999 279.002c0 -28.667 3.00098 -55.999 9.00098 -81.999s16.167 -48.333 30.5 -67
s33.166 -33.334 56.499 -44.001s52 -16 86 -16c38 0 72.833 7.5 104.5 22.5s59.5 34.667 83.5 59s44.5 52 61.5 83s30.833 62.167 41.5 93.5c19.333 60 34.833 120.333 46.5 181s20.834 119 27.501 175c2.66699 15.333 4 30 4 44c0 18 -2 35.667 -6 53
c-6.66699 30.667 -18.334 57.334 -35.001 80.001s-38 40.834 -64 54.501s-55.333 20.5 -88 20.5c-53.333 0 -98.333 -11.333 -135 -34s-67 -52.334 -91 -89.001s-43.5 -78.334 -58.5 -125.001s-27.167 -93.667 -36.5 -141c-10.667 -48 -19.5 -95.167 -26.5 -141.5
s-10.5 -88.5 -10.5 -126.5z" />
    <glyph glyph-name="b" unicode="b" horiz-adv-x="823" 
d="M4 0l288.999 1481h88l-61.5 -309.5l-59.5 -311.5h2c26 39.333 64.333 75.5 115 108.5s108.667 49.5 174 49.5c45.333 0 84 -6.83301 116 -20.5s57.5 -32.5 76.5 -56.5s33 -52 42 -84s13.5 -67 13.5 -105c0 -44 -2.5 -93.667 -7.5 -149s-13.5 -111.333 -25.5 -168
s-28.667 -112 -50 -166s-48.333 -101.833 -81 -143.5s-71.334 -75 -116.001 -100s-97 -37.5 -157 -37.5c-61.333 0 -111.666 11.167 -150.999 33.5s-68.666 58.833 -87.999 109.5h-4l-29 -131h-86zM162.999 262c0.666992 -36 7.16602 -68.499 19.499 -97.499
s31.666 -52.333 57.999 -70s63.5 -26.5 111.5 -26.5c46.667 0 88 10.5 124 31.5s67.333 49.333 94 85s49 76.667 67 123s32 93.666 42 141.999s17.5 96.5 22.5 144.5s7.5 91.667 7.5 131c0 69.333 -15.167 121.833 -45.5 157.5s-80.166 53.5 -149.499 53.5
c-34 0 -65.333 -6.5 -94 -19.5s-54.334 -30 -77.001 -51s-42.167 -44.833 -58.5 -71.5s-29.166 -53.667 -38.499 -81c-19.333 -54.667 -35.166 -111.667 -47.499 -171s-21.833 -117 -28.5 -173c-4.66699 -31.333 -7 -63 -7 -95v-12z" />
    <glyph glyph-name="c" unicode="c" horiz-adv-x="753" 
d="M57 289c0 50.667 3.16992 103.83 9.50293 159.497s16.666 110.5 30.999 164.5s33 105.667 56 155s52 92.666 87 129.999s76.333 67 124 89s102.167 33 163.5 33c69.333 0 128 -15.667 176 -47s77.667 -77.666 89 -138.999l-82 -39
c-6.66699 44 -26.834 78.833 -60.501 104.5s-75.834 38.5 -126.501 38.5c-75.333 0 -137.166 -22.5 -185.499 -67.5s-86.5 -100.333 -114.5 -166s-47.333 -135.667 -58 -210s-16 -140.166 -16 -197.499c0 -30 3 -58.667 9 -86s17.167 -51.666 33.5 -72.999
s38.166 -38 65.499 -50s61.333 -18 102 -18c50.667 0 97.5 12.167 140.5 36.5s74.833 58.5 95.5 102.5l78 -41c-31.333 -57.333 -74.333 -101.666 -129 -132.999s-119 -47 -193 -47c-57.333 0 -105 8.16699 -143 24.5s-68.333 38.5 -91 66.5s-38.5 60 -47.5 96
s-13.5 74 -13.5 114z" />
    <glyph glyph-name="d" unicode="d" horiz-adv-x="823" 
d="M53 260c2.66699 50.667 7.50098 104.329 14.501 160.996s17.667 113.334 32 170.001s32.333 110.834 54 162.501s48.667 97 81 136s70.333 70.5 114 94.5s93.5 36 149.5 36c65.333 0 116.166 -14.667 152.499 -44s63.166 -65.333 80.499 -108h2l61.5 309.5l59.5 307.5h88
l-144.5 -742.5l-146.5 -742.5h-86c2.66699 23.333 6.5 45.5 11.5 66.5s9.5 43.167 13.5 66.5h-4c-35.333 -45.333 -75.666 -81.166 -120.999 -107.499s-100 -39.5 -164 -39.5c-46.667 0 -85.667 6.5 -117 19.5s-56.833 31.333 -76.5 55s-33.667 52.334 -42 86.001
s-12.5 71.5 -12.5 113.5zM145.001 280.995c0 -30 2.50098 -57.667 7.50098 -83s14.667 -47.666 29 -66.999s33.833 -34.333 58.5 -45s56.667 -16 96 -16c65.333 0 121.166 20.5 167.499 61.5s79.833 90.833 100.5 149.5c19.333 56 34.833 113.667 46.5 173
s22.167 117.666 31.5 174.999c4.66699 30 7 61 7 93v12c-0.666992 36 -7.5 69.167 -20.5 99.5s-32.833 55 -59.5 74s-62.334 28.5 -107.001 28.5c-68 0 -124.667 -22.5 -170 -67.5s-81.333 -101 -108 -168s-46.167 -138.667 -58.5 -215s-19.166 -144.5 -20.499 -204.5z" />
    <glyph glyph-name="e" unicode="e" horiz-adv-x="831" 
d="M70 279c0 48 2.99707 99.501 8.99707 154.501s15.833 110.167 29.5 165.5s32.167 108.333 55.5 159s51.666 95.667 84.999 135s72.833 70.666 118.5 93.999s97.834 35 156.501 35c98 0 171 -22.5 219 -67.5s72 -100.5 72 -166.5c0 -109.333 -39.5 -195 -118.5 -257
s-203.833 -93 -374.5 -93c-16.667 0 -39.667 0.666992 -69 2s-57.666 3.33301 -84.999 6c-4 -24.667 -7.33301 -49.5 -10 -74.5s-4 -47.833 -4 -68.5c0 -70.667 15.333 -127.5 46 -170.5s83.334 -64.5 158.001 -64.5c48 0 95.833 11.5 143.5 34.5s85.167 54.5 112.5 94.5
l66 -39c-35.333 -52 -80.666 -93.333 -135.999 -124s-120 -46 -194 -46c-56 0 -102 8.83301 -138 26.5s-64.667 40.5 -86 68.5s-36 59.333 -44 94s-12 68.667 -12 102zM181.997 526.001c24.667 -2.66699 52.6699 -5 84.0029 -7s56.666 -3 75.999 -3
c69.333 0 128.666 6.5 177.999 19.5s89.333 31.167 120 54.5s53.167 50.666 67.5 81.999s21.5 65.333 21.5 102c0 50.667 -18.5 91.334 -55.5 122.001s-88.833 46 -155.5 46c-46.667 0 -88.334 -10.167 -125.001 -30.5s-68.667 -49 -96 -86s-50.5 -80.833 -69.5 -131.5
s-34.167 -106.667 -45.5 -168z" />
    <glyph glyph-name="f" unicode="f" horiz-adv-x="460" 
d="M-172 -272l14.002 84.001c8 -1.33301 14.5 -2 19.5 -2h17.5c62.667 0 108 16.333 136 49s46.333 71.334 55 116.001l186 957h-131c2.66699 12 5 24.5 7 37.5s4.33301 25.167 7 36.5h133c6.66699 39.333 14.167 78.166 22.5 116.499s15.833 77.166 22.5 116.499
c15.333 72.667 43.833 132.834 85.5 180.501s103.5 71.5 185.5 71.5c9.33301 0 19.166 -0.333008 29.499 -1s20.833 -1.66699 31.5 -3l-14 -82c-19.333 4 -37 6 -53 6c-32.667 0 -59.667 -5.83301 -81 -17.5s-38.5 -26 -51.5 -43s-22.833 -36.333 -29.5 -58
s-12.334 -42.834 -17.001 -63.501l-43 -223h189l-14 -74h-189l-89 -449.5l-87 -451.5c-8 -42 -18.167 -81.5 -30.5 -118.5s-29.5 -69.5 -51.5 -97.5s-49.667 -50.167 -83 -66.5s-74.666 -24.5 -123.999 -24.5c-9.33301 0 -17.833 0.333008 -25.5 1
s-16.834 1.66699 -27.501 3z" />
    <glyph glyph-name="g" unicode="g" horiz-adv-x="864" 
d="M4 -248l74 45.001c9.33301 -35.333 29.666 -66.333 60.999 -93s73 -40 125 -40c87.333 0 155.666 23.833 204.999 71.5s81.333 109.834 96 186.501l47 225h-4c-36.667 -49.333 -79.167 -87.833 -127.5 -115.5s-104.833 -41.5 -169.5 -41.5
c-46.667 0 -85.167 7.16699 -115.5 21.5s-54.833 33.666 -73.5 57.999s-31.667 53 -39 86s-11 67.833 -11 104.5c0 42 3 88.333 9 139s14.333 102.667 25 156c12 60 28 118 48 174s46.167 105.833 78.5 149.5s71.333 78.5 117 104.5s100.5 39 164.5 39
c54.667 0 103.5 -13 146.5 -39s72.167 -62.333 87.5 -109h2l15 67c4.66699 21.333 9 43.666 13 66.999h86l-46 -239l-48 -247l-51.5 -265l-54.5 -294c-19.333 -116 -61.166 -208.167 -125.499 -276.5s-154.5 -102.5 -270.5 -102.5c-60 0 -115.167 13 -165.5 39
s-83.166 69 -98.499 129zM164 274.001c0 -28.667 2.33105 -55.501 6.99805 -80.501s13.834 -46.5 27.501 -64.5s32.5 -32 56.5 -42s54.333 -15 91 -15s71.5 7.5 104.5 22.5s62.5 34.667 88.5 59s48.167 52.333 66.5 84s31.5 63.834 39.5 96.501l18.5 74
c7 28.667 13.167 58.667 18.5 90s10.5 63.333 15.5 96s8.83301 62.667 11.5 90c1.33301 12.667 2 25 2 37c0 20 -1.66699 39.333 -5 58c-4 30.667 -13.167 57.667 -27.5 81s-34.166 42.166 -59.499 56.499s-57 21.5 -95 21.5c-56 0 -102.333 -11.333 -139 -34
s-67.334 -52.334 -92.001 -89.001s-44.167 -78.167 -58.5 -124.5s-26.833 -94.166 -37.5 -143.499c-9.33301 -49.333 -17.166 -97.166 -23.499 -143.499s-9.5 -89.5 -9.5 -129.5z" />
    <glyph glyph-name="h" unicode="h" horiz-adv-x="884" 
d="M31 0l143.499 744.501l144.5 744.5h87l-123 -629h4c39.333 54.667 86.333 94.667 141 120s108 38 160 38c49.333 0 91.333 -8.5 126 -25.5s62 -40.167 82 -69.5c18.667 -30 30.667 -64.333 36 -103c1.33301 -13.333 2.33301 -26.333 3 -39
c0 -26.667 -3.33301 -54.334 -10 -83.001l-135 -698h-90l37.5 189.5l37 184.5l32 168c9.66699 52.667 18.5 98.667 26.5 138c4 24 6 48 6 72v18c-1.33301 30 -8.16602 56.667 -20.499 80s-31.333 42.5 -57 57.5s-59.167 22.5 -100.5 22.5c-52 0 -97 -10.333 -135 -31
s-70.333 -48 -97 -82s-48.167 -73.167 -64.5 -117.5s-29.5 -89.833 -39.5 -136.5l-108 -563h-86z" />
    <glyph glyph-name="i" unicode="i" horiz-adv-x="358" 
d="M53 0l195 1010h88l-195 -1010h-88zM299 1286l18 98h95l-19 -98h-94z" />
    <glyph glyph-name="j" unicode="j" horiz-adv-x="372" 
d="M-180 -412l13.999 82.001h37c52 0 89.333 15.667 112 47s39.334 75.666 50.001 132.999l112.5 577l112.5 581h90l-114.5 -592l-114.5 -588c-15.333 -72.667 -42.333 -131.167 -81 -175.5s-95.667 -66.5 -171 -66.5h-23.5c-9 0 -16.833 0.666992 -23.5 2zM310.999 1286
l19 96h96l-18 -96h-97z" />
    <glyph glyph-name="k" unicode="k" horiz-adv-x="835" 
d="M33 0l286 1489h87l-211 -1079h2l563 598h106l-350 -375l112.5 -317.5l112.5 -315.5h-94l-98 283.5l-100 283.5l-139.5 -147.5l-137.5 -147.5l-53 -272h-86z" />
    <glyph glyph-name="l" unicode="l" horiz-adv-x="391" 
d="M80 219l248.001 1268h88l-24.5 -129l-44 -224l-53.5 -272.5l-53.5 -272.5l-45 -224.5c-13 -64.333 -21.5 -107.166 -25.5 -128.499c-4 -23.333 -6 -44.666 -6 -63.999c0 -28.667 8.16699 -51.834 24.5 -69.501s47.166 -26.5 92.499 -26.5h24l-18 -82h-21
c-128 0 -192 51.333 -192 154c0 23.333 2 47 6 71z" />
    <glyph glyph-name="m" unicode="m" horiz-adv-x="1456" 
d="M41 0l96.998 503.002l98 503h86l-27 -144h4c39.333 53.333 84.333 92.666 135 117.999s102 38 154 38c65.333 0 119.166 -15.667 161.499 -47s66.833 -73.666 73.5 -126.999c45.333 60 95 104 149 132s111 42 171 42c56 0 101.667 -9.5 137 -28.5
s61.833 -44.333 79.5 -76s27.834 -66.834 30.501 -105.501l2 -30c0 -29.333 -3.33301 -59.333 -10 -90l-135 -688h-88l133 686c4 22 6 43.333 6 64c0 8 -0.333008 16 -1 24c-2 28.667 -9.5 54.667 -22.5 78s-31.667 42.166 -56 56.499s-57.166 21.5 -98.499 21.5
c-45.333 0 -85.666 -9.33301 -120.999 -28s-66.333 -43 -93 -73s-48.167 -64 -64.5 -102s-28.5 -77 -36.5 -117l-119 -610h-88l135 686c4 22 6 43.667 6 65c0 8 -0.333008 16 -1 24c-2 29.333 -9.83301 56 -23.5 80s-33.167 43.167 -58.5 57.5s-58.333 21.5 -99 21.5
c-49.333 0 -92 -10 -128 -30s-66.667 -46.333 -92 -79s-45.833 -70.167 -61.5 -112.5s-27.5 -85.833 -35.5 -130.5l-113 -582h-86z" />
    <glyph glyph-name="n" unicode="n" horiz-adv-x="884" 
d="M33 0l196 1008h86c-5.33301 -24.667 -10.333 -49.334 -15 -74.001s-9 -49.334 -13 -74.001h4c39.333 56 86.333 96.333 141 121s108 37 160 37c50.667 0 93 -8.5 127 -25.5s60.333 -39.833 79 -68.5c18.667 -28 30.667 -61.333 36 -100c2 -14 3 -28.333 3 -43
c0 -24.667 -2.66699 -50 -8 -76l-137 -705h-88l133 680c5.33301 31.333 8 62 8 92s-6 56.667 -18 80s-31 42.166 -57 56.499s-62.333 21.5 -109 21.5c-52 0 -96.667 -10.333 -134 -31s-69.333 -47.667 -96 -81s-48.167 -71.833 -64.5 -115.5s-28.833 -88.167 -37.5 -133.5
l-110 -569h-86z" />
    <glyph glyph-name="o" unicode="o" horiz-adv-x="851" 
d="M66 276c0 39.333 1.66699 79.6689 5 121.002s8.33301 80.333 15 117c13.333 78 32 148.333 56 211s52.333 115.334 85 158.001c35.333 45.333 76.333 79.833 123 103.5s102.667 35.5 168 35.5c53.333 0 98.833 -8.83301 136.5 -26.5s68 -41.5 91 -71.5
s39.667 -63.833 50 -101.5s15.5 -76.834 15.5 -117.501c-1.33301 -42 -5.5 -86.667 -12.5 -134s-15.167 -93 -24.5 -137c-15.333 -72.667 -33.833 -136.834 -55.5 -192.501s-48.5 -102.334 -80.5 -140.001s-70.833 -66 -116.5 -85s-100.167 -28.5 -163.5 -28.5
c-58.667 0 -107 8.5 -145 25.5s-68 39.167 -90 66.5s-37 58 -45 92s-12 68.667 -12 104zM154 307.003c0 -31.333 2.33398 -61.3291 7.00098 -89.9961s14.5 -54.334 29.5 -77.001s36.5 -40.667 64.5 -54s64.667 -20 110 -20c62.667 0 116.167 15.667 160.5 47
s78.166 75.666 101.499 132.999c13.333 30 25.833 64.5 37.5 103.5s22 79.167 31 120.5s15.833 82.833 20.5 124.5s7 81.167 7 118.5c0 74 -19.167 130.667 -57.5 170s-90.833 59 -157.5 59c-46.667 0 -89 -10.167 -127 -30.5s-70 -49.833 -96 -88.5
c-16.667 -24.667 -32.834 -57.334 -48.501 -98.001s-29.667 -85 -42 -133s-22.166 -96.833 -29.499 -146.5s-11 -95.834 -11 -138.501z" />
    <glyph glyph-name="p" unicode="p" horiz-adv-x="856" 
d="M-66 -408l137.499 708.501l139.5 709.5h86l-25 -133h4c35.333 45.333 75.666 81.166 120.999 107.499s100 39.5 164 39.5c86 0 148.833 -23.167 188.5 -69.5s59.5 -112.5 59.5 -198.5c-1.33301 -42 -4.66602 -88.333 -9.99902 -139s-13 -96.667 -23 -138
c-15.333 -69.333 -33.166 -134 -53.499 -194s-46.5 -111.5 -78.5 -154.5s-70.5 -76.833 -115.5 -101.5s-100.5 -37 -166.5 -37c-64 0 -114 14.333 -150 43s-63 64 -81 106h-4l-107 -549h-86zM171.999 291.001c0 -30 2.99707 -58.001 8.99707 -84.001
s16.667 -48.833 32 -68.5s34.5 -35.334 57.5 -47.001s52.167 -17.5 87.5 -17.5c56 0 102.833 12.167 140.5 36.5s68.834 56.333 93.501 96s44.834 85.5 60.501 137.5s28.834 104.667 39.501 158c8 38 14.167 75.833 18.5 113.5s6.5 74.167 6.5 109.5
c0 30 -2.83301 58 -8.5 84s-15.667 48.5 -30 67.5s-33.833 34.333 -58.5 46s-56 17.5 -94 17.5c-65.333 0 -121.166 -20.5 -167.499 -61.5s-79.833 -91.5 -100.5 -151.5c-22 -61.333 -39.833 -125.166 -53.5 -191.499s-23.834 -130.166 -30.501 -191.499
c-1.33301 -8 -2 -16.5 -2 -25.5v-27.5z" />
    <glyph glyph-name="q" unicode="q" horiz-adv-x="864" 
d="M72 264c0 48 3 96.833 9 146.5s14.333 101.834 25 156.501c9.33301 54.667 24 109 44 163s46 102.5 78 145.5s71.333 77.833 118 104.5s101.334 40 164.001 40c56 0 106.167 -12.667 150.5 -38s74.166 -62 89.499 -110h4l12 68c4 22 8.66699 44 14 66h86l-136 -707.5
l-136 -704.5h-90c19.333 92.667 37.5 184.834 54.5 276.501s34.833 182.5 53.5 272.5h-2c-27.333 -39.333 -65.5 -75 -114.5 -107s-105.5 -48 -169.5 -48c-48 0 -88 7.83301 -120 23.5s-58 36.167 -78 61.5s-34.333 54.666 -43 87.999s-13 67.666 -13 102.999zM166 283
c0 -68 14.334 -120.836 43.001 -158.503s77.667 -56.5 147 -56.5c34 0 65.167 6.33301 93.5 19s53.666 30 75.999 52s41.666 46.333 57.999 73s30.166 54.334 41.499 83.001c23.333 58.667 41.333 119.667 54 183s21.334 123 26.001 179c1.33301 18 2 36 2 54
c0 16 -0.333008 31.667 -1 47c-2.66699 34 -10 64 -22 90s-31 47.167 -57 63.5s-61.667 24.5 -107 24.5c-52 0 -96 -11 -132 -33s-67 -51.667 -93 -89s-47.167 -80.666 -63.5 -129.999s-29.166 -100.666 -38.499 -153.999c-8 -44 -14.5 -87.333 -19.5 -130
s-7.5 -81.667 -7.5 -117z" />
    <glyph glyph-name="r" unicode="r" horiz-adv-x="583" 
d="M47 0l194.997 1010h88l-33 -162h6c39.333 65.333 85.333 110.666 138 135.999s107 38 163 38c32.667 0 59.334 -4 80.001 -12l-31 -95c-15.333 6.66699 -30.666 10.834 -45.999 12.501s-28.666 2.5 -39.999 2.5c-79.333 0 -146.833 -29 -202.5 -87
s-92.5 -133 -110.5 -225l-121 -618h-86z" />
    <glyph glyph-name="s" unicode="s" horiz-adv-x="792" 
d="M20 170l76.0029 41c19.333 -48 48.166 -83.833 86.499 -107.5s90.166 -35.5 155.499 -35.5c35.333 0 69.333 4.66699 102 14s61.334 24 86.001 44s44.5 44.333 59.5 73s22.5 62.667 22.5 102c0 30 -5.5 55 -16.5 75s-26.333 36.667 -46 50s-42.834 24.166 -69.501 32.499
s-55 16.5 -85 24.5c-79.333 22 -141.166 50 -185.499 84s-66.5 83.333 -66.5 148c0 94 32.833 168.667 98.5 224s151.167 83 256.5 83c74 0 134.333 -14.333 181 -43s81 -69.667 103 -123l-82 -41c-31.333 82 -102.333 123 -213 123c-75.333 0 -135.833 -20.5 -181.5 -61.5
s-68.5 -90.167 -68.5 -147.5c0 -26 5.16699 -47.5 15.5 -64.5s25.166 -32 44.499 -45s42.166 -24 68.499 -33s56.833 -18.167 91.5 -27.5c36.667 -9.33301 70.334 -20.166 101.001 -32.499s57 -28 79 -47s39 -41.833 51 -68.5s18 -59.334 18 -98.001
c0 -95.333 -31 -173.666 -93 -234.999s-155.667 -92 -281 -92c-80.667 0 -147.334 15.667 -200.001 47s-88.667 77 -108 137z" />
    <glyph glyph-name="t" unicode="t" horiz-adv-x="487" 
d="M121 134c-0.666992 8.66699 -0.999023 17.665 -0.999023 26.998c0 18.667 1.66699 38 5 58l137 715h-125c2.66699 12 5 24.167 7 36.5s4.66699 24.166 8 35.499h124l54 276h90l-55 -276h172c-2.66699 -10.667 -5.16699 -22.334 -7.5 -35.001s-4.83301 -25 -7.5 -37h-172
l-133 -694c-4 -23.333 -6.33301 -44.666 -7 -63.999s2.66602 -36.166 9.99902 -50.499s20 -25.5 38 -33.5s42.667 -12 74 -12h61l-14 -80h-78c-39.333 0 -71.666 5.83301 -96.999 17.5s-44.833 27.334 -58.5 47.001s-21.834 42.834 -24.501 69.501z" />
    <glyph glyph-name="u" unicode="u" horiz-adv-x="890" 
d="M86 178c-2 15.333 -3.00293 31.3311 -3.00293 47.998c0 24 2.33301 49 7 75l135 707h88l-131 -691c-5.33301 -25.333 -7.66602 -49.666 -6.99902 -72.999v-21c2 -30 9.83301 -56.167 23.5 -78.5s33.834 -40 60.501 -53s62 -19.5 106 -19.5c38 0 74 7.5 108 22.5
s64.667 35.5 92 61.5s50.333 56 69 90s32 70 40 108l125 654h88l-197 -1008h-88l31 143h-6c-39.333 -56 -85.666 -95.833 -138.999 -119.5s-105.333 -35.5 -156 -35.5c-49.333 0 -91 8.16699 -125 24.5s-61.333 38.333 -82 66s-33.667 60.834 -39 99.501z" />
    <glyph glyph-name="v" unicode="v" horiz-adv-x="747" 
d="M98 1008l90 0.00488281l64 -572c5.33301 -50.667 10.333 -102.834 15 -156.501s7 -109.834 7 -168.501h7c83.333 138 161.166 280 233.499 426s138.5 303 198.5 471h98c-34 -92.667 -69.5 -181.834 -106.5 -267.501s-76.333 -169.334 -118 -251.001
s-85.667 -162.834 -132 -243.501s-96.166 -162.667 -149.499 -246h-90z" />
    <glyph glyph-name="w" unicode="w" horiz-adv-x="1243" 
d="M98 1008l89.999 0.00292969l43 -627c2 -40.667 4.33301 -83 7 -127c1.33301 -28 2.33301 -56.667 3 -86c0 -16.667 -0.333008 -33.667 -1 -51h4c69.333 128.667 138.5 268.334 207.5 419.001s135.5 308 199.5 472h103l51 -617c4 -42 7.33301 -84.5 10 -127.5
s4 -89.167 4 -138.5h4c75.333 132.667 146.5 273 213.5 421s127.833 302 182.5 462h92c-31.333 -92.667 -64.5 -181.834 -99.5 -267.501s-71.667 -169.334 -110 -251.001s-79 -162.834 -122 -243.501l-137.5 -246h-92l-54 639c-2.66699 31.333 -5 67.666 -7 108.999
c-1.33301 24.667 -2 51 -2 79c0 18.667 0.333008 38 1 58h-6c-57.333 -157.333 -120.166 -308.333 -188.499 -453s-143.5 -288.667 -225.5 -432h-92z" />
    <glyph glyph-name="x" unicode="x" horiz-adv-x="749" 
d="M-18 0l387.001 518.001c-2.66699 4 -8.5 18.333 -17.5 43l-32 89l-39 112.5l-39 113l-32.5 89c-9.33301 24.333 -14.666 38.833 -15.999 43.5h100l137 -422l305 422h109l-373 -492c1.33301 -4 7.16602 -19 17.499 -45l36 -94l43 -118.5l43 -119l34.5 -94.5
c9.33301 -26 15.666 -41 18.999 -45h-101l-153 444c-2.66699 -4 -12 -16.833 -28 -38.5l-58.5 -81l-73.5 -102.5l-74 -102l-59.5 -82c-16.333 -22.667 -25.833 -35.334 -28.5 -38.001h-106z" />
    <glyph glyph-name="y" unicode="y" horiz-adv-x="737" 
d="M-113 -322c48 4 93.4971 15.3359 136.497 34.0029s82.833 54 119.5 106c16.667 22 30.834 42.5 42.501 61.5s24.834 44.167 39.501 75.5l-131 1051h88c6.66699 -70.667 14.167 -141.334 22.5 -212.001l24.5 -212c5.33301 -44 10.5 -89.167 15.5 -135.5
s9.5 -92.833 13.5 -139.5c4 -39.333 9.16699 -85 15.5 -137s9.5 -95.667 9.5 -131h4c36.667 62.667 74.167 133.667 112.5 213s75.833 161.666 112.5 246.999l107.5 258c35 86.667 66.833 169.667 95.5 249h88c-90 -240 -177.667 -452.333 -263 -637
s-171.666 -348.667 -258.999 -492c-22 -36.667 -46.333 -71.834 -73 -105.501s-56 -62.667 -88 -87s-67.5 -44 -106.5 -59s-81.167 -22.5 -126.5 -22.5v75z" />
    <glyph glyph-name="z" unicode="z" horiz-adv-x="722" 
d="M-35 0l15 78l673 852h-473l15 78h575l-14 -76l-672 -852h502l-17 -80h-604z" />
    <glyph glyph-name="braceleft" unicode="{" horiz-adv-x="452" 
d="M90 584l9.99805 51.002c31.333 8 58.333 22.333 81 43s41.5 45.334 56.5 74.001s27 59.667 36 93s16.833 65.666 23.5 96.999l55 279c10.667 61.333 33.834 110.666 69.501 147.999s79.5 56 131.5 56h72l-13 -57h-45c-26 0 -47.5 -6.16699 -64.5 -18.5
s-31.333 -27.666 -43 -45.999s-20.5 -38.5 -26.5 -60.5s-11 -42.333 -15 -61l-53 -279c-16.667 -83.333 -43.834 -149.833 -81.501 -199.5s-72.167 -80.167 -103.5 -91.5l-2 -4c32.667 -10.667 56.834 -39.834 72.501 -87.501s16.167 -111.167 1.5 -190.5l-57 -305
c-4 -20.667 -7.16699 -42.334 -9.5 -65.001s-1.33301 -43.167 3 -61.5s12.5 -33.333 24.5 -45s30.333 -17.5 55 -17.5h47l-12 -59h-59c-52 0 -90 19.5 -114 58.5s-29.667 89.833 -17 152.5l55 288c16.667 87.333 21.834 156 15.501 206s-37.5 84 -93.5 102z" />
    <glyph glyph-name="bar" unicode="|" horiz-adv-x="358" 
d="M150 -332v1802h69v-1802h-69z" />
    <glyph glyph-name="braceright" unicode="}" horiz-adv-x="452" 
d="M-76 -223l13 58.999h45c24.667 0 45.834 6.16699 63.501 18.5s32.167 27.666 43.5 45.999s20.166 38.833 26.499 61.5s11.5 45 15.5 67l57 293c15.333 80.667 40.333 144.834 75 192.501s70.667 76.834 108 87.501v4c-28.667 10.667 -51.667 41 -69 91
s-17.666 116.667 -0.999023 200l53 277c4 22 7.16699 44.5 9.5 67.5s1.33301 43.667 -3 62s-12.666 33.666 -24.999 45.999s-30.5 18.5 -54.5 18.5h-48l11 55h65c53.333 0 91 -19.333 113 -58s26.667 -89 14 -151l-55 -278c-6.66699 -32.667 -11.5 -65.5 -14.5 -98.5
s-2.33301 -63.333 2 -91s13.333 -51.834 27 -72.501s34.834 -35 63.501 -43l-10 -56c-60 -15.333 -103.333 -48.166 -130 -98.499s-48.334 -119.166 -65.001 -206.499l-57 -288c-10.667 -61.333 -33.834 -110.833 -69.501 -148.5s-80.834 -56.5 -135.501 -56.5h-68z" />
    <glyph glyph-name="asciitilde" unicode="~" 
d="M51 481c30 36.667 64.1631 65.998 102.496 87.998s77.833 33 118.5 33c34 0 65.833 -5.83301 95.5 -17.5s58.5 -24.334 86.5 -38.001s56 -26.167 84 -37.5s56.333 -17 85 -17c27.333 0 52.833 5.66699 76.5 17s49.167 35 76.5 71l51 -37
c-27.333 -39.333 -58.666 -70.333 -93.999 -93s-75.666 -34 -120.999 -34c-31.333 0 -61.666 5.83301 -90.999 17.5s-58.333 23.834 -87 36.501s-57.667 24.834 -87 36.501s-58.333 17.5 -87 17.5s-55.667 -7.16699 -81 -21.5s-51.666 -35.166 -78.999 -62.499z" />
    <glyph glyph-name="cent" unicode="&#xa2;" horiz-adv-x="768" 
d="M57 289c0 74 6.83301 152.5 20.5 235.5s37.334 160 71.001 231s78.834 131.167 135.501 180.5s128 76.666 214 81.999l39 199h55l-39 -197c64 -4 117.167 -21.667 159.5 -53s69.166 -75.666 80.499 -132.999l-82 -39c-6.66699 42 -25.5 75.667 -56.5 101
s-70.167 39.333 -117.5 42l-168 -868c48 1.33301 92.667 14.166 134 38.499s72.333 57.833 93 100.5l78 -41c-31.333 -57.333 -74.333 -101.666 -129 -132.999s-119 -47 -193 -47l-41 -213h-55l41 217c-46.667 5.33301 -85.334 16.833 -116.001 34.5
s-55.167 39.834 -73.5 66.501s-31.333 56.667 -39 90s-11.5 68.666 -11.5 105.999zM150 297c0 -27.333 2.66797 -53.335 8.00098 -78.002s14.166 -47.167 26.499 -67.5s29 -37.666 50 -51.999s47.167 -23.5 78.5 -27.5l168 862
c-66.667 -9.33301 -121.5 -37.666 -164.5 -84.999s-76.833 -102.666 -101.5 -165.999s-41.667 -129.833 -51 -199.5s-14 -131.834 -14 -186.501z" />
    <glyph glyph-name="sterling" unicode="&#xa3;" 
d="M-18 0c1.33301 12 3 24.5 5 37.5s4.33301 26.5 7 40.5c65.333 78 120.166 163.333 164.499 256s74.833 195 91.5 307h-154l15 72h143c0 4 0.333008 8.33301 1 13s1 9.66699 1 15c0 49.333 -4.5 100.333 -13.5 153s-13.5 102.667 -13.5 150c0 53.333 8.66699 104 26 152
s42.333 89.667 75 125s72.167 63.333 118.5 84s98.833 31 157.5 31c87.333 0 156 -20.5 206 -61.5s80.333 -104.5 91 -190.5l-43 -14.5c-13.333 -4.33301 -27.666 -8.5 -42.999 -12.5c-6.66699 65.333 -27 114.833 -61 148.5s-86 50.5 -156 50.5
c-38 0 -73.833 -7.5 -107.5 -22.5s-63 -36.833 -88 -65.5s-44.667 -63.167 -59 -103.5s-21.5 -85.833 -21.5 -136.5c0 -44 3.66699 -88.5 11 -133.5s11 -93.833 11 -146.5c0 -6.66699 -0.333008 -12.5 -1 -17.5s-1 -10.833 -1 -17.5h258c-2.66699 -12 -5 -24 -7 -36
s-4.33301 -24 -7 -36h-252c-19.333 -109.333 -47.333 -209.333 -84 -300s-88 -177 -154 -259h594l-16 -82h-694z" />
    <glyph glyph-name="yen" unicode="&#xa5;" 
d="M27 356c2.66699 10.667 4.99902 21.666 6.99902 32.999s4.33301 22.333 7 33h289l26 141c0 8 -0.333008 16.167 -1 24.5s-1 15.833 -1 22.5h-276l12 64h252l-81 374.5l-81 376.5h90l154 -735h2l91 154l98.5 166l112.5 189l132 226h94l-454 -751h262
c-1.33301 -10.667 -3 -21.167 -5 -31.5s-4.33301 -21.166 -7 -32.499h-285l-25 -63l-24 -125h299c-2.66699 -10.667 -5 -21.5 -7 -32.5s-4.66699 -22.167 -8 -33.5h-297l-71 -356h-84c10.667 60 21.834 119.333 33.501 178l35.5 178h-290z" />
    <glyph glyph-name="section" unicode="&#xa7;" horiz-adv-x="880" 
d="M27 -45l25.5068 28.498c9 9.66699 18.167 18.5 27.5 26.5c61.333 -60 137.666 -90 228.999 -90c42 0 81.833 5.5 119.5 16.5s70.167 27 97.5 48s49.166 47 65.499 78s24.5 66.833 24.5 107.5c0 48 -18 90.667 -54 128s-95 76 -177 116c-78 39.333 -136 77.833 -174 115.5
s-57 84.5 -57 140.5c0 60 17.667 114.5 53 163.5s83.666 90.5 144.999 124.5c-23.333 24.667 -41.333 50.334 -54 77.001s-19 57 -19 91c0 42 8.16699 82.333 24.5 121s39.833 72 70.5 100s67.5 50.167 110.5 66.5s90.5 24.5 142.5 24.5c114.667 0 206.667 -33.667 276 -101
l-57 -65c-31.333 31.333 -66.166 53.833 -104.499 67.5s-78.5 20.5 -120.5 20.5c-36.667 0 -70.834 -5.83301 -102.501 -17.5s-58.834 -27.334 -81.501 -47.001s-40.334 -43.167 -53.001 -70.5s-19 -56 -19 -86c0 -27.333 6 -51.666 18 -72.999s28.667 -41.166 50 -59.499
s45.333 -35.333 72 -51l83 -46.5l89 -51.5c29.333 -17.667 55.666 -37.667 78.999 -60s41.666 -47.5 54.999 -75.5s20 -59 20 -93c0 -57.333 -16.333 -110 -49 -158s-77.667 -91 -135 -129c36.667 -50.667 55 -106 55 -166c0 -48 -9.5 -92 -28.5 -132
s-45.833 -75 -80.5 -105s-76 -53.667 -124 -71s-100.667 -26 -158 -26c-54.667 0 -107.5 10.667 -158.5 32s-92.833 48.333 -125.5 81zM242.007 685.998c0 -38 14 -71.666 42 -100.999s60.667 -55.333 98 -78s75.5 -42.834 114.5 -60.501s70.167 -34.834 93.5 -51.501
c46.667 26 84.167 59.833 112.5 101.5s42.5 83.167 42.5 124.5c0 34 -8.5 63.167 -25.5 87.5s-40.167 46.833 -69.5 67.5s-64.333 41.5 -105 62.5s-85 45.167 -133 72.5c-44 -23.333 -83.333 -54.666 -118 -93.999s-52 -83 -52 -131z" />
    <glyph glyph-name="dieresis" unicode="&#xa8;" horiz-adv-x="841" 
d="M301 1223l18 104h99l-21 -104h-96zM643 1223l21 104h96l-21 -104h-96z" />
    <glyph glyph-name="copyright" unicode="&#xa9;" horiz-adv-x="1519" 
d="M111 698c0 102.667 15.6699 198.001 47.0029 286.001s75.666 164.5 132.999 229.5s126.666 115.5 207.999 151.5s171.666 54 270.999 54c100 0 190.5 -18 271.5 -54s150.167 -86.5 207.5 -151.5s101.833 -141.5 133.5 -229.5s47.5 -183.333 47.5 -286
s-15.833 -197.5 -47.5 -284.5s-76.167 -162.667 -133.5 -227s-126.5 -114.5 -207.5 -150.5s-171.5 -54 -271.5 -54c-101.333 0 -192.5 18 -273.5 54s-150.167 86.167 -207.5 150.5s-101.333 140.166 -132 227.499s-46 182 -46 284zM186.003 698.001
c0 -91.333 14.002 -176.5 42.002 -255.5s67.667 -147.5 119 -205.5s112.833 -103.833 184.5 -137.5s151.167 -50.5 238.5 -50.5s167.166 16.833 239.499 50.5s133.833 79.5 184.5 137.5s90 126.5 118 205.5s42 164.167 42 255.5s-14 177 -42 257s-67.667 149 -119 207
s-112.833 103.833 -184.5 137.5s-151.167 50.5 -238.5 50.5c-90 0 -170.833 -17.167 -242.5 -51.5s-132.834 -80.833 -183.501 -139.5s-89.667 -127.5 -117 -206.5s-41 -163.833 -41 -254.5zM512.005 526.001v321.999c0 78 23.5 141.833 70.5 191.5s110.833 74.5 191.5 74.5
c61.333 0 115 -16.333 161 -49s74.333 -79.667 85 -141l-70 -25c-8 44 -27.667 79.167 -59 105.5s-70.333 39.5 -117 39.5c-61.333 0 -108 -19 -140 -57s-48 -83 -48 -135v-328c0 -52 16 -97.333 48 -136s78.667 -58 140 -58c46.667 0 85 13 115 39s49.667 62 59 108l74 -22
c-12 -61.333 -41 -109.166 -87 -143.499s-99.667 -51.5 -161 -51.5c-82 0 -146.167 24.667 -192.5 74s-69.5 113.333 -69.5 192z" />
    <glyph glyph-name="guillemotleft" unicode="&#xab;" horiz-adv-x="763" 
d="M111 461l297 366h92l-297 -368l151 -365h-88zM377 461l297 366h92l-299 -368l154 -365h-89z" />
    <glyph glyph-name="registered" unicode="&#xae;" horiz-adv-x="1056" 
d="M129 1008c0 62.667 9.49902 121 28.499 175s46.333 100.333 82 139s78 69.334 127 92.001s104.167 34 165.5 34c60 0 115 -11.333 165 -34s92.5 -53.334 127.5 -92.001s62 -85 81 -139s28.5 -112.333 28.5 -175s-9.5 -120.667 -28.5 -174s-46 -99.5 -81 -138.5
s-77.167 -69.833 -126.5 -92.5s-104.666 -34 -165.999 -34s-116.833 11.333 -166.5 34s-92 53.5 -127 92.5s-62 85 -81 138s-28.5 111.167 -28.5 174.5zM183.999 1010c0 -56 8.16602 -107.666 24.499 -154.999s40 -88.333 71 -123s67.667 -61.834 110 -81.501
s89.833 -29.5 142.5 -29.5c53.333 0 101.5 10.167 144.5 30.5s79.167 47.833 108.5 82.5s52 75.667 68 123s24 98.333 24 153s-8.33301 105.5 -25 152.5s-40 87.833 -70 122.5s-66.167 62 -108.5 82s-89.5 30 -141.5 30c-53.333 0 -101.333 -10 -144 -30
s-79.167 -47.333 -109.5 -82s-53.666 -75.5 -69.999 -122.5s-24.5 -97.833 -24.5 -152.5zM388.998 748.001l-0.000976562 515.999h164c44 0 79.833 -12.333 107.5 -37s41.5 -61 41.5 -109c0 -31.333 -8.5 -59.666 -25.5 -84.999s-41.167 -43.333 -72.5 -54l51.5 -115.5
l53.5 -115.5h-66c-15.333 38 -31.166 75.333 -47.499 112l-48.5 113h-101v-225h-57zM445.997 1022l99 0.000976562c28.667 0 52.167 8.16699 70.5 24.5s27.5 40.166 27.5 71.499c0 30 -9.5 52.833 -28.5 68.5s-42.167 23.5 -69.5 23.5h-99v-188z" />
    <glyph glyph-name="degree" unicode="&#xb0;" horiz-adv-x="659" 
d="M115 1208c0 30 5.83301 58.667 17.5 86s27.334 50.666 47.001 69.999s42.834 34.666 69.501 45.999s55 17 85 17c32.667 0 62.334 -5.66699 89.001 -17s49.834 -26.666 69.501 -45.999s35 -42.666 46 -69.999s16.5 -56 16.5 -86c0 -31.333 -5.83301 -60.333 -17.5 -87
s-27.334 -49.834 -47.001 -69.501s-42.834 -35.334 -69.501 -47.001s-55.667 -17.5 -87 -17.5c-30 0 -58.333 5.83301 -85 17.5s-49.834 27.334 -69.501 47.001s-35.334 42.834 -47.001 69.501s-17.5 55.667 -17.5 87zM180 1208c0 -44 14.667 -81.167 44 -111.5
s66 -45.5 110 -45.5s80.833 14.5 110.5 43.5s44.5 66.833 44.5 113.5c0 44 -15 81.333 -45 112s-66.667 46 -110 46c-42 0 -78.167 -15.333 -108.5 -46s-45.5 -68 -45.5 -112z" />
    <glyph glyph-name="acute" unicode="&#xb4;" horiz-adv-x="843" 
d="M510 1169l190 312l91 -37l-230 -297z" />
    <glyph glyph-name="paragraph" unicode="&#xb6;" horiz-adv-x="921" 
d="M133 1038c0 54.667 7.83203 108.668 23.499 162.001s40 100.833 73 142.5s74.333 75.5 124 101.5s107.834 39 174.501 39h471c-2.66699 -15.333 -5 -30.833 -7 -46.5s-4.33301 -30.834 -7 -45.501h-115l-198 -1557h-92l198 1557h-170l-196 -1557h-93l56.5 449.5
l56.5 451.5c-90 0 -162.333 26 -217 78s-82 127 -82 225z" />
    <glyph glyph-name="periodcentered" unicode="&#xb7;" horiz-adv-x="317" 
d="M135 479l23 125h116l-24 -125h-115z" />
    <glyph glyph-name="cedilla" unicode="&#xb8;" horiz-adv-x="864" 
d="M119 -379l24 54.999c23.333 -10.667 45.666 -17.334 66.999 -20.001s40.666 -4 57.999 -4c30 0 58.333 7.83301 85 23.5s40 41.167 40 76.5c0 30 -12.667 52.167 -38 66.5s-53.666 20.166 -84.999 17.499l-26 25l80 164h57l-64 -134c30 -2.66699 55 -8.66699 75 -18
s35.833 -20.166 47.5 -32.499s19.834 -25.666 24.501 -39.999s7 -28.5 7 -42.5c0 -19.333 -4.16699 -38.5 -12.5 -57.5s-21 -36.667 -38 -53s-38.833 -29.666 -65.5 -39.999s-59 -15.5 -97 -15.5c-19.333 0 -40.833 2.16699 -64.5 6.5s-48.5 11.833 -74.5 22.5z" />
    <glyph glyph-name="guillemotright" unicode="&#xbb;" horiz-adv-x="763" 
d="M37 92l301 369l-156 366h88l158 -366l-299 -369h-92zM303 92l299 369l-153 366h88l157 -366l-301 -369h-90z" />
    <glyph glyph-name="florin" unicode="&#x192;" 
d="M-51 -170c0 1.33301 1.66797 5.83301 5.00098 13.5s6.66602 15.834 9.99902 24.501l9 23.5c2.66699 7 5 11.833 7 14.5c32.667 -10.667 64 -16.334 94 -17.001c60 0 109.5 22.667 148.5 68s70.5 123 94.5 233l125 566h-174l8 80h183l53 243c10.667 52 25 99.833 43 143.5
s40.333 81.167 67 112.5s58.334 56 95.001 74s79.667 27 129 27c20.667 0 41.5 -1.83301 62.5 -5.5s40.5 -8.16699 58.5 -13.5l-27 -82c-16.667 5.33301 -34.167 9.83301 -52.5 13.5s-35.5 5.5 -51.5 5.5c-53.333 0 -100.833 -20.833 -142.5 -62.5
s-73.5 -113.167 -95.5 -214.5l-51 -241h209l-8 -80h-218l-122 -561c-27.333 -124 -66.333 -219.167 -117 -285.5s-123 -99.5 -217 -99.5c-19.333 0 -40.333 1.66699 -63 5s-43.334 8.33301 -62.001 15z" />
    <glyph glyph-name="circumflex" unicode="&#x2c6;" horiz-adv-x="847" 
d="M309 1186l299 252h72l192 -250l-45 -37l-196 199l-287 -201z" />
    <glyph glyph-name="ring" unicode="&#x2da;" horiz-adv-x="847" 
d="M453 1274c0 28.667 5.66992 55.3359 17.0029 80.0029s26.666 46.5 45.999 65.5s41.666 34 66.999 45s51.666 16.5 78.999 16.5c44 0 79.833 -13.333 107.5 -40s41.5 -60.667 41.5 -102c0 -28.667 -6.16699 -55.834 -18.5 -81.501s-28.333 -47.834 -48 -66.501
s-42.5 -33.5 -68.5 -44.5s-52.667 -16.5 -80 -16.5c-42 0 -76.333 13.667 -103 41s-40 61.666 -40 102.999zM510.003 1284c0 -28.667 8.83105 -52.166 26.498 -70.499s40.834 -27.5 69.501 -27.5c38 0 71.833 14 101.5 42s44.5 61.667 44.5 101
c0 27.333 -9.33301 50.166 -28 68.499s-43 27.5 -73 27.5c-35.333 0 -67.666 -14 -96.999 -42s-44 -61 -44 -99z" />
    <glyph glyph-name="tilde" unicode="&#x2dc;" horiz-adv-x="864" 
d="M309 1247c52 75.333 111.331 113 177.998 113c22 0 43 -4.16699 63 -12.5s39.833 -17.5 59.5 -27.5s39 -19.167 58 -27.5s39.5 -12.5 61.5 -12.5c20.667 0 40.5 5.83301 59.5 17.5s39.5 31.167 61.5 58.5l51 -31c-23.333 -45.333 -52 -77.5 -86 -96.5
s-66 -28.5 -96 -28.5c-23.333 0 -45.166 4.16699 -65.499 12.5s-40.166 17.5 -59.499 27.5s-38.5 19.167 -57.5 27.5s-38.167 12.5 -57.5 12.5c-20.667 0 -40.167 -5.83301 -58.5 -17.5s-38.5 -29.167 -60.5 -52.5z" />
    <glyph glyph-name="afii10023" unicode="&#x401;" horiz-adv-x="892" 
d="M51 0l277 1425h714l-18 -84h-623l-110 -573h538l-16 -82h-537l-118 -602h622l-14 -84h-715zM477 1530l19 104h98l-19 -104h-98zM809 1530l20 104h99l-21 -104h-98z" />
    <glyph glyph-name="afii10051" unicode="&#x402;" horiz-adv-x="1171" 
d="M170 1341l15.998 82.001h881l-16 -82h-455l-52.5 -270c-17 -90 -35.167 -180 -54.5 -270c1.33301 0 3 -0.666992 5 -2c20.667 24.667 43.834 46.834 69.501 66.501s52.834 36.667 81.501 51s58.334 25.666 89.001 33.999s60.334 12.5 89.001 12.5
c87.333 0 157.666 -24.667 210.999 -74s80 -127.333 80 -234c0 -84.667 -8.5 -167.834 -25.5 -249.501s-45 -155 -84 -220s-90.167 -117.667 -153.5 -158s-141 -60.5 -233 -60.5c-12 0 -21.333 0.666992 -28 2l16 74h23c72.667 0 134.167 17.833 184.5 53.5
s91.166 81.334 122.499 137.001s54.166 118.667 68.499 189s21.5 139.833 21.5 208.5c0 38 -3.66699 72 -11 102s-19.666 56 -36.999 78s-40.333 38.833 -69 50.5s-64 17.5 -106 17.5c-38 0 -74.833 -7.16699 -110.5 -21.5s-68.5 -33.5 -98.5 -57.5s-57 -51.333 -81 -82
s-43.333 -62.334 -58 -95.001l-119 -623h-88l260 1341h-338z" />
    <glyph glyph-name="afii10052" unicode="&#x403;" horiz-adv-x="868" 
d="M51 0l276.999 1425h708l-16 -86h-617c-1.33301 -5.33301 -5.66602 -27.833 -12.999 -67.5l-28.5 -152.5l-40 -209.5l-47 -239.5l-47 -240l-40 -210l-29 -152.5c-7.66699 -39.667 -12.167 -62.167 -13.5 -67.5h-94zM609.999 1536l310 219l57 -78l-334 -186z" />
    <glyph glyph-name="afii10053" unicode="&#x404;" horiz-adv-x="931" 
d="M88 301c0 26 2.33105 54.999 6.99805 86.999s9.33398 60.333 14.001 85l88 449c12 62.667 27.5 125 46.5 187s45.333 117 79 165s77 87 130 117s120.5 45 202.5 45c110.667 0 196 -26.667 256 -80s95 -122.333 105 -207l-45.5 -15.5c-15 -5 -30.5 -9.5 -46.5 -13.5
c-2.66699 65.333 -27.667 119.666 -75 162.999s-112 65 -194 65c-69.333 0 -125.833 -13.667 -169.5 -41s-79.167 -62.833 -106.5 -106.5s-48.166 -92.167 -62.499 -145.5s-26.166 -106.666 -35.499 -159.999l-25 -131h457l-19 -84h-454l-37 -191
c-6.66699 -31.333 -11.834 -63.666 -15.501 -96.999s-5.5 -61.666 -5.5 -84.999c0 -31.333 4.5 -61.333 13.5 -90s23.333 -53.834 43 -75.501s45.5 -39.334 77.5 -53.001s71.333 -20.5 118 -20.5c82 0 151.333 20.833 208 62.5s100.667 101.834 132 180.501l43.5 -15
c13.667 -4.66699 27.834 -9 42.501 -13c-35.333 -100 -89.833 -174.167 -163.5 -222.5s-161.834 -72.5 -264.501 -72.5c-114.667 0 -200.667 29.333 -258 88s-86 133.667 -86 225z" />
    <glyph glyph-name="afii10054" unicode="&#x405;" horiz-adv-x="935" 
d="M47 215l84 45.002c16.667 -57.333 49.5 -102.666 98.5 -135.999s115.167 -50 198.5 -50c60 0 112.167 9.5 156.5 28.5s80.833 44.167 109.5 75.5s50.167 67.833 64.5 109.5s21.5 85.167 21.5 130.5c0 42 -5.83301 77.333 -17.5 106s-28.334 52.667 -50.001 72
s-47.834 35.833 -78.501 49.5s-65.334 26.5 -104.001 38.5c-56 19.333 -103.667 39.166 -143 59.499s-71.666 43.166 -96.999 68.499s-43.833 54 -55.5 86s-17.5 69.333 -17.5 112c0 61.333 9.5 118.333 28.5 171s47 97.667 84 135s81.833 67 134.5 89s113 33 181 33
c91.333 0 164.333 -16.833 219 -50.5s95 -77.834 121 -132.501l-84 -51c-19.333 46.667 -51.166 82.667 -95.499 108s-99.166 38 -164.499 38c-53.333 0 -100.5 -9.33301 -141.5 -28s-74.833 -43.334 -101.5 -74.001s-46.834 -65.5 -60.501 -104.5s-20.5 -79.5 -20.5 -121.5
c0 -36.667 5.83301 -67.667 17.5 -93s28.5 -47.5 50.5 -66.5s49.333 -35.667 82 -50s70.334 -29.166 113.001 -44.499c48 -16.667 90.333 -34.5 127 -53.5s68 -41.167 94 -66.5s45.5 -55 58.5 -89s19.5 -75 19.5 -123c0 -136.667 -40 -245.5 -120 -326.5
s-194.333 -121.5 -343 -121.5c-100 0 -181 20.5 -243 61.5s-104 96.167 -126 165.5z" />
    <glyph glyph-name="afii10055" unicode="&#x406;" horiz-adv-x="391" 
d="M68 0l278 1425h90l-276 -1425h-92z" />
    <glyph glyph-name="afii10056" unicode="&#x407;" horiz-adv-x="393" 
d="M68 0l278 1425h90l-276 -1425h-92zM193 1581l20 102h98l-20 -102h-98zM537 1581l20 102h98l-20 -102h-98z" />
    <glyph glyph-name="afii10057" unicode="&#x408;" horiz-adv-x="778" 
d="M-37 86l64.0029 60.9971c10.667 -12 24.167 -22.5 40.5 -31.5s33.666 -16.833 51.999 -23.5s36.833 -11.667 55.5 -15s36 -5 52 -5c35.333 0 69.166 4.33301 101.499 13s61.833 24.334 88.5 47.001s50.167 52.834 70.5 90.501s36.166 85.834 47.499 144.501l206 1058h93
l-209 -1079c-24.667 -126.667 -70.167 -218 -136.5 -274s-155.5 -84 -267.5 -84c-48 0 -96.5 8.5 -145.5 25.5s-86.5 41.167 -112.5 72.5z" />
    <glyph glyph-name="afii10058" unicode="&#x409;" horiz-adv-x="1574" 
d="M-68 43c44 24.667 83 51 117 79s65 65.5 93 112.5s53.667 107 77 180s46.666 167.5 69.999 283.5l141 727h594l-123 -641h287c58.667 0 109.5 -8.16699 152.5 -24.5s78.5 -38.5 106.5 -66.5s48.833 -61 62.5 -99s20.5 -79 20.5 -123c0 -69.333 -11 -133 -33 -191
s-53.5 -107.833 -94.5 -149.5s-91.167 -73.834 -150.5 -96.501s-125.666 -34 -198.999 -34h-396l258 1341h-411l-127 -653c-23.333 -117.333 -47.666 -216 -72.999 -296s-54.333 -147.167 -87 -201.5s-69.834 -98.666 -111.501 -132.999s-89.167 -63.833 -142.5 -88.5z
M766 86h293c58.667 0 111.167 9.5 157.5 28.5s85.833 45 118.5 78s57.667 72 75 117s26 94.167 26 147.5c0 70.667 -21.167 128.5 -63.5 173.5s-106.5 67.5 -192.5 67.5h-295z" />
    <glyph glyph-name="afii10059" unicode="&#x40a;" horiz-adv-x="1556" 
d="M37 0l276 1425h95l-127 -645h512l125 645h92l-127 -645h286c58.667 0 109.5 -8.16699 152.5 -24.5s78.5 -38.833 106.5 -67.5s48.833 -62 62.5 -100s20.5 -79 20.5 -123c0 -69.333 -10.5 -132.833 -31.5 -190.5s-52 -106.5 -93 -146.5s-90.833 -71.333 -149.5 -94
s-125 -34 -199 -34h-397l135 696h-512l-133 -696h-94zM748 86l294 0.000976562c58.667 0 111 9.16699 157 27.5s85 44 117 77s56.5 71.667 73.5 116s25.5 93.166 25.5 146.499c0 69.333 -20.833 126.833 -62.5 172.5s-105.5 68.5 -191.5 68.5h-295z" />
    <glyph glyph-name="afii10060" unicode="&#x40b;" horiz-adv-x="1179" 
d="M178 1341l17.001 83.999h884l-16 -84h-459l-100 -522h4c45.333 48 97.666 84 156.999 108s114.666 36 165.999 36c105.333 0 183.333 -28.667 234 -86s65.667 -137.333 45 -240l-123 -637h-90l121 614c15.333 80.667 6.83301 145.334 -25.5 194.001s-95.5 73 -189.5 73
c-35.333 0 -69.833 -5.83301 -103.5 -17.5s-65.5 -27.834 -95.5 -48.501s-56.667 -45.667 -80 -75s-41.666 -61.666 -54.999 -96.999l-125 -643h-90l260 1341h-336z" />
    <glyph glyph-name="afii10061" unicode="&#x40c;" horiz-adv-x="968" 
d="M49 0l274.999 1425h90l-125 -641h239c23.333 0 48.333 3.16699 75 9.5s53.334 17.666 80.001 33.999s53 38.5 79 66.5s49 64.667 69 110l203 421h88l-190 -403c-31.333 -69.333 -67.5 -128 -108.5 -176s-87.5 -79.333 -139.5 -94c60 -16.667 100.333 -49.5 121 -98.5
s33 -109.167 37 -180.5l28 -473h-88l-26 469c-2.66699 48 -9.83398 87 -21.501 117s-27.167 53.5 -46.5 70.5s-41.166 28.5 -65.499 34.5s-50.833 9 -79.5 9h-271l-135 -700h-88zM570.999 1536l308 219l57 -78l-334 -186z" />
    <glyph glyph-name="afii10062" unicode="&#x40e;" horiz-adv-x="905" 
d="M59 -14l14.999 73h47c38 0 77.5 15.833 118.5 47.5s79.167 82.167 114.5 151.5l43 82l-82 541.5l-82 541.5h93l71 -489c2.66699 -15.333 7.16699 -45.833 13.5 -91.5l20.5 -145c7.33301 -51 13.833 -99.167 19.5 -144.5s9.83398 -75.333 12.501 -90
c1.33301 0 2.33301 0.333008 3 1s1.66699 1 3 1l102.5 198.5l104.5 198.5l287 563h98l-598 -1140c-52 -101.333 -105.333 -176.5 -160 -225.5s-114.667 -73.5 -180 -73.5h-64zM421.999 1681h76c-2.66699 -42 10.333 -78.333 39 -109s64.667 -46 108 -46
c44 0 85.333 14.667 124 44s65.667 66.333 81 111h80c-8 -27.333 -20 -55 -36 -83s-35.833 -52.833 -59.5 -74.5s-51.667 -39.334 -84 -53.001s-68.833 -20.5 -109.5 -20.5s-75.667 6.83301 -105 20.5s-53 31.334 -71 53.001s-30.333 46.167 -37 73.5s-8.66699 55.333 -6 84
z" />
    <glyph glyph-name="afii10145" unicode="&#x40f;" horiz-adv-x="1038" 
d="M47 0l264 1425h92l-249 -1339h596l249 1339h95l-265 -1425h-344l-55 -293h-94l55 293h-344z" />
    <glyph glyph-name="afii10017" unicode="&#x410;" horiz-adv-x="972" 
d="M-57 0l342 712.5l344 712.5h98l68.5 -712.5l68.5 -712.5h-92l-29 360h-536l-84 -180l-86 -180h-94zM246 442h491.001c-8 83.333 -15.333 166.333 -22 249s-14.334 165.667 -23.001 249c-5.33301 61.333 -10 123.5 -14 186.5s-9.33301 125.167 -16 186.5h-5l-165 -357
l-27 -55l-44.5 -91l-52 -109.5l-52 -109.5l-44 -92z" />
    <glyph glyph-name="afii10018" unicode="&#x411;" horiz-adv-x="944" 
d="M12 0l277 1425h663l-18 -84h-569l-23.5 -123.5l-29 -149.5l-30 -148.5c-9.66699 -47.667 -17.167 -88.5 -22.5 -122.5h287c49.333 0 94.333 -7.16699 135 -21.5s76.5 -34.833 107.5 -61.5s55 -59.167 72 -97.5s25.5 -82.166 25.5 -131.499
c0 -68 -10.333 -131.333 -31 -190s-51 -109.834 -91 -153.501s-89.833 -78.167 -149.5 -103.5s-128.167 -38 -205.5 -38h-398zM121 86h278.001c116 0 210.667 32.5 284 97.5s110.666 159.5 111.999 283.5c0 74 -22.167 133.5 -66.5 178.5s-109.833 67.5 -196.5 67.5h-288
l-28.5 -141.5l-34 -173.5l-34 -172c-11 -55.333 -19.833 -102 -26.5 -140z" />
    <glyph glyph-name="afii10019" unicode="&#x412;" horiz-adv-x="1005" 
d="M49 0l277.002 1425h381c105.333 0 186.166 -25.5 242.499 -76.5s84.5 -122.833 84.5 -215.5c0 -88.667 -21.167 -168.667 -63.5 -240s-109.833 -121.333 -202.5 -150l-2 -4c57.333 -12 100.333 -43.333 129 -94s43 -106.667 43 -168
c-1.33301 -84.667 -15.333 -157.334 -42 -218.001s-61.834 -110.167 -105.501 -148.5s-93.5 -66.333 -149.5 -84s-114.667 -26.5 -176 -26.5h-416zM154.002 84.001h327c60 0 113 10.5 159 31.5s84.333 49.667 115 86s53.5 77.333 68.5 123s22.5 93.167 22.5 142.5
c0 72.667 -19.167 129.667 -57.5 171s-97.833 62 -178.5 62h-336zM291.002 780.001l217 0.000976562c19.333 0 38.833 0.333008 58.5 1s39.167 1.66699 58.5 3c46.667 1.33301 89.667 10.666 129 27.999s73 40.333 101 69s49.833 62 65.5 100s23.5 80.333 23.5 127
c0 75.333 -22.5 133 -67.5 173s-110.5 60 -196.5 60h-281l-55.5 -280z" />
    <glyph glyph-name="afii10020" unicode="&#x413;" horiz-adv-x="868" 
d="M51 0l276.999 1425h708l-16 -86h-617c-1.33301 -5.33301 -5.66602 -27.833 -12.999 -67.5l-28.5 -152.5l-40 -209.5l-47 -239.5l-47 -240l-40 -210l-29 -152.5c-7.66699 -39.667 -12.167 -62.167 -13.5 -67.5h-94z" />
    <glyph glyph-name="afii10021" unicode="&#x414;" horiz-adv-x="1157" 
d="M-109 -291c10.667 61.333 22 122.498 34 183.498s23.333 122.167 34 183.5c12 1.33301 24.167 2.33301 36.5 3s24.833 2.33398 37.5 5.00098c26 20.667 52 45.334 78 74.001s50.5 63.834 73.5 105.501s44.833 90.5 65.5 146.5s39 120 55 192l191 823h710l-130 -671.5
l-130 -671.5h90l-73 -373h-86c10.667 49.333 20.167 98.166 28.5 146.499s17.833 96.5 28.5 144.5h-903l-54 -291h-86zM152 79.998l701.999 0.00195312l120.5 630.5l123.5 630.5h-535l-168 -727c-19.333 -82 -38.166 -151.167 -56.499 -207.5s-37.333 -104.333 -57 -144
s-40.167 -73.834 -61.5 -102.501s-44 -55.334 -68 -80.001z" />
    <glyph glyph-name="afii10022" unicode="&#x415;" horiz-adv-x="892" 
d="M51 0l277 1425h714l-18 -84h-623l-110 -573h538l-16 -82h-537l-118 -602h622l-14 -84h-715z" />
    <glyph glyph-name="afii10024" unicode="&#x416;" horiz-adv-x="1521" 
d="M-53 0c62.667 155.333 130.328 310.998 202.995 466.998c16.667 34 33.334 66.333 50.001 97s35.667 58 57 82s45 44.5 71 61.5s56 29.5 90 37.5c-49.333 15.333 -84.166 46.833 -104.499 94.5s-33.5 106.5 -39.5 176.5l-32 407h84l36 -426
c2.66699 -45.333 11 -82.166 25 -110.499s31.167 -50.666 51.5 -66.999s42.833 -27.666 67.5 -33.999s49.334 -9.5 74.001 -9.5h200l63.5 324l61.5 325h90l-125 -649h183c23.333 0 49.333 3.5 78 10.5s58 19.667 88 38s59 43.166 87 74.499s53.333 71 76 119l191 405h86
l-172 -381c-34 -75.333 -73.167 -139.833 -117.5 -193.5s-93.166 -88.167 -146.499 -103.5c58.667 -16.667 98.5 -49.834 119.5 -99.501s32.833 -109.167 35.5 -178.5l31 -467h-90c-4 78 -8.16699 155.167 -12.5 231.5s-9.16602 153.5 -14.499 231.5
c-2.66699 48 -10.167 87 -22.5 117s-27.666 53.5 -45.999 70.5s-39.833 28.5 -64.5 34.5s-51.334 9 -80.001 9h-225l-133 -694h-90l135 694h-209c-30 0 -59 -2.66699 -87 -8s-55.333 -16.166 -82 -32.499s-52.667 -39.5 -78 -69.5s-49.333 -70.333 -72 -121l-203 -463h-88z
" />
    <glyph glyph-name="afii10025" unicode="&#x417;" horiz-adv-x="942" 
d="M16 276c8 5.33301 20.999 10.5029 38.999 15.5029s33.667 10.167 47 15.5c0 -42 7.5 -78 22.5 -108s35.167 -54.667 60.5 -74s54.833 -33.333 88.5 -42s68.834 -13 105.501 -13c54.667 0 104.167 10.5 148.5 31.5s82.166 50.667 113.499 89s55.833 84.166 73.5 137.499
s26.5 111.333 26.5 174c0 61.333 -17.667 111.166 -53 149.499s-81.666 57.5 -138.999 57.5h-123l16 86h121c39.333 0 76.833 8.16699 112.5 24.5s66.5 39.166 92.5 68.499s46.5 65.166 61.5 107.499s22.5 90.166 22.5 143.499c0 69.333 -22.833 121.833 -68.5 157.5
s-103.5 53.5 -173.5 53.5c-76.667 0 -145 -18.833 -205 -56.5s-103.667 -92.167 -131 -163.5l-81 37c38 91.333 94.167 159 168.5 203s159.166 66 254.499 66c108 0 190.333 -26.333 247 -79s85 -120.667 85 -204c0 -36.667 -4 -75.5 -12 -116.5s-21.667 -80.333 -41 -118
s-44.666 -71.167 -75.999 -100.5s-69.333 -50.666 -114 -63.999h-3c0 -1.33301 0.5 -2.33301 1.5 -3s1.5 -1.66699 1.5 -3c27.333 -10.667 49.5 -25 66.5 -43s30.167 -38 39.5 -60s15.833 -44.5 19.5 -67.5s5.5 -45.5 5.5 -67.5c0 -80.667 -11.333 -153 -34 -217
s-54.5 -118.667 -95.5 -164s-90.167 -80.166 -147.5 -104.499s-121.333 -36.5 -192 -36.5c-46.667 0 -90.834 5.33301 -132.501 16s-78.5 28 -110.5 52s-57.667 54.167 -77 90.5s-29.666 79.5 -30.999 129.5z" />
    <glyph glyph-name="afii10026" unicode="&#x418;" horiz-adv-x="1073" 
d="M43 0l276.001 1425h91l-240 -1226c1.33301 0 2.66602 -0.666992 3.99902 -2l352 489l535 739h84l-277 -1425h-88l120 613.5l120 615.5h-2c-8 -9.33301 -16.833 -20.5 -26.5 -33.5l-46.5 -64l-88 -120l-148 -204.5l-258.5 -360.5l-319.5 -446.5h-88z" />
    <glyph glyph-name="afii10027" unicode="&#x419;" horiz-adv-x="1073" 
d="M43 0l276.001 1425h91l-240 -1226c1.33301 0 2.66602 -0.666992 3.99902 -2l352 489l535 739h84l-277 -1425h-88l120 613.5l120 615.5h-2c-8 -9.33301 -16.833 -20.5 -26.5 -33.5l-46.5 -64l-88 -120l-148 -204.5l-258.5 -360.5l-319.5 -446.5h-88zM537.001 1729
l75.002 0.000976562c-2.66699 -42 10.333 -78.5 39 -109.5s65 -46.5 109 -46.5s85.333 14.667 124 44s65.667 66.666 81 111.999h79c-8 -27.333 -19.833 -55 -35.5 -83s-35.5 -53 -59.5 -75s-52 -39.833 -84 -53.5s-68.333 -20.5 -109 -20.5s-75.834 6.83301 -105.501 20.5
s-53.334 31.5 -71.001 53.5s-30 46.667 -37 74s-8.83301 55.333 -5.5 84z" />
    <glyph glyph-name="afii10028" unicode="&#x41a;" horiz-adv-x="980" 
d="M49 0l274.999 1425h90l-125 -641h239c23.333 0 48.333 3.16699 75 9.5s53.334 17.666 80.001 33.999s53 38.5 79 66.5s49 64.667 69 110l203 421h88l-190 -403c-31.333 -69.333 -67.5 -128 -108.5 -176s-87.5 -79.333 -139.5 -94c60 -16.667 100.333 -49.5 121 -98.5
s33 -109.167 37 -180.5l28 -473h-88l-26 469c-2.66699 48 -9.83398 87 -21.501 117s-27.167 53.5 -46.5 70.5s-41.166 28.5 -65.499 34.5s-50.833 9 -79.5 9h-271l-135 -700h-88z" />
    <glyph glyph-name="afii10029" unicode="&#x41b;" horiz-adv-x="1058" 
d="M-72 41c45.333 26 84.668 52.9961 118.001 80.9961s63.666 66.833 90.999 116.5s53 115.167 77 196.5s49.667 189 77 323l129 667h694l-276 -1425h-93l261 1339h-514l-130 -659c-23.333 -117.333 -47.5 -215.666 -72.5 -294.999s-53.167 -145.666 -84.5 -198.999
s-66.833 -96.666 -106.5 -129.999s-86.167 -61.666 -139.5 -84.999c-6.66699 12 -12 24 -16 36s-9 23.333 -15 34z" />
    <glyph glyph-name="afii10030" unicode="&#x41c;" horiz-adv-x="1290" 
d="M47 0l279 1425h88l112.5 -505.5l114.5 -503.5h2c9.33301 16.667 29.833 49.834 61.5 99.501l110 175l133 215l134 219l113.5 185.5l71 115h96l-279 -1425h-88l116.5 602l117.5 602h-2l-283.5 -465l-290.5 -460h-69l-106.5 453l-106.5 456h-2l-232 -1188h-90z" />
    <glyph glyph-name="afii10031" unicode="&#x41d;" horiz-adv-x="1048" 
d="M51 0l279 1425h90l-129 -657h604l127 657h92l-278 -1425h-91l134 684h-603l-133 -684h-92z" />
    <glyph glyph-name="afii10032" unicode="&#x41e;" horiz-adv-x="993" 
d="M90 264c-8 54.667 -6.66699 112 4 172l115 574c10.667 54.667 26.334 107.834 47.001 159.501s48.667 97 84 136s79 70.5 131 94.5s114.667 36 188 36c66.667 0 124.334 -11.333 173.001 -34s88 -53.167 118 -91.5s49.833 -83 59.5 -134s9.16699 -105.167 -1.5 -162.5
l-109 -596c-10.667 -58.667 -27 -114.334 -49 -167.001s-51 -98.5 -87 -137.5s-79.667 -70 -131 -93s-112.333 -34.5 -183 -34.5c-72.667 0 -134.334 12.167 -185.001 36.5s-90.334 57 -119.001 98s-47 88.833 -55 143.5zM179 293.5c4.66699 -43 17.333 -80.832 38 -113.499
s50 -58.834 88 -78.501s86.667 -29.5 146 -29.5c57.333 0 106.333 9.5 147 28.5s74.667 44.5 102 76.5s49.666 68.5 66.999 109.5s30 83.5 38 127.5l113 596c8 42 9.16699 83.5 3.5 124.5s-19.334 77.167 -41.001 108.5s-52 57 -91 77s-87.167 30 -144.5 30
c-56 0 -103.833 -10 -143.5 -30s-73.167 -46 -100.5 -78s-49.166 -68.833 -65.499 -110.5s-28.5 -83.5 -36.5 -125.5l-113 -576c-9.33301 -48 -11.666 -93.5 -6.99902 -136.5z" />
    <glyph glyph-name="afii10033" unicode="&#x41f;" horiz-adv-x="1044" 
d="M51 0l277 1425h780l-277 -1425h-90l260 1343h-600l-260 -1343h-90z" />
    <glyph glyph-name="afii10034" unicode="&#x420;" horiz-adv-x="952" 
d="M51 0l278.999 1425h366c112 0 198.5 -25.5 259.5 -76.5s91.5 -127.833 91.5 -230.5c0 -76.667 -10.667 -146 -32 -208s-52.5 -115.5 -93.5 -160.5s-91.167 -79.833 -150.5 -104.5s-126.666 -37 -201.999 -37h-307l-119 -608h-92zM278.999 694h294
c116 0 208.167 36.333 276.5 109s102.5 171.667 102.5 297c0 78 -21.833 137.667 -65.5 179s-110.5 62 -200.5 62h-283z" />
    <glyph glyph-name="afii10035" unicode="&#x421;" horiz-adv-x="935" 
d="M88 301c0 26 2.33105 54.999 6.99805 86.999s9.33398 60.333 14.001 85l88 449c12 62.667 27.5 125 46.5 187s45.333 117 79 165s77 87 130 117s120.5 45 202.5 45c110.667 0 196 -26.667 256 -80s95 -122.333 105 -207l-45.5 -15.5c-15 -5 -30.5 -9.5 -46.5 -13.5
c-2.66699 65.333 -27.667 119.666 -75 162.999s-112 65 -194 65c-69.333 0 -125.833 -13.667 -169.5 -41s-79.167 -62.833 -106.5 -106.5s-48.166 -92.167 -62.499 -145.5s-26.166 -106.666 -35.499 -159.999l-78 -406c-6.66699 -31.333 -11.834 -63.666 -15.501 -96.999
s-5.5 -61.666 -5.5 -84.999c0 -31.333 4.5 -61.333 13.5 -90s23.333 -53.834 43 -75.501s45.5 -39.334 77.5 -53.001s71.333 -20.5 118 -20.5c82 0 151.333 20.833 208 62.5s100.667 101.834 132 180.501l43.5 -15c13.667 -4.66699 27.834 -9 42.501 -13
c-35.333 -100 -89.833 -174.167 -163.5 -222.5s-161.834 -72.5 -264.501 -72.5c-114.667 0 -200.667 29.333 -258 88s-86 133.667 -86 225z" />
    <glyph glyph-name="afii10036" unicode="&#x422;" horiz-adv-x="806" 
d="M190 1341l17 84h782l-18 -84h-342l-262 -1341h-91l263 1341h-349z" />
    <glyph glyph-name="afii10037" unicode="&#x423;" horiz-adv-x="905" 
d="M59 -14l14.999 73h47c38 0 77.5 15.833 118.5 47.5s79.167 82.167 114.5 151.5l43 82l-82 541.5l-82 541.5h93l71 -489c2.66699 -15.333 7.16699 -45.833 13.5 -91.5l20.5 -145c7.33301 -51 13.833 -99.167 19.5 -144.5s9.83398 -75.333 12.501 -90
c1.33301 0 2.33301 0.333008 3 1s1.66699 1 3 1l102.5 198.5l104.5 198.5l287 563h98l-598 -1140c-52 -101.333 -105.333 -176.5 -160 -225.5s-114.667 -73.5 -180 -73.5h-64z" />
    <glyph glyph-name="afii10038" unicode="&#x424;" horiz-adv-x="1222" 
d="M127 522c1.33301 58.667 5.00195 118.828 11.002 180.495s18 122.5 36 182.5c18 62.667 42.667 121.334 74 176.001s69.833 102.834 115.5 144.501s100.334 75 164.001 100s136.167 39.167 217.5 42.5l17 77h90l-16 -77c70.667 -2.66699 130.667 -16 180 -40
s89 -55.833 119 -95.5s51.5 -85.167 64.5 -136.5s19.5 -105.666 19.5 -162.999c0 -58.667 -3.83301 -116.667 -11.5 -174s-19.834 -114.666 -36.501 -171.999c-19.333 -64 -44.5 -123.333 -75.5 -178s-70.167 -101.834 -117.5 -141.501s-102.333 -71 -165 -94
s-134.334 -34.5 -215.001 -34.5l-23 -119h-90l23 119c-22 -1.33301 -41.833 0.333984 -59.5 5.00098l-49.5 13c-50.667 13.333 -93.334 32.333 -128.001 57s-62.5 53.834 -83.5 87.501s-36.333 71 -46 112s-14.5 83.833 -14.5 128.5zM215.002 525.994
c0 -94 23.5 -170.33 70.5 -228.997s125.833 -91.334 236.5 -98.001l207 1065c-91.333 -2.66699 -169.5 -24.834 -234.5 -66.501s-118.333 -96.334 -160 -164.001s-72 -145.167 -91 -232.5s-28.5 -179 -28.5 -275zM614.002 198.997
c95.333 2.66699 176.166 24.167 242.499 64.5s119.333 92.833 159 157.5s68.334 138.667 86.001 222s26.5 169.333 26.5 258c0 109.333 -23.833 196.5 -71.5 261.5s-126.167 98.833 -235.5 101.5z" />
    <glyph glyph-name="afii10039" unicode="&#x425;" horiz-adv-x="858" 
d="M-61 0l501 731l-204 692h92l174 -606l409 606h105l-481 -694l223 -729h-94l-189 641l-434 -641h-102z" />
    <glyph glyph-name="afii10040" unicode="&#x426;" horiz-adv-x="1048" 
d="M51 0l275 1425h88l-256 -1339h598l258 1339h92l-260 -1341h90l-72 -377h-90l57 293h-780z" />
    <glyph glyph-name="afii10041" unicode="&#x427;" horiz-adv-x="935" 
d="M170 979l84.0029 445.999h90l-82 -421c-10.667 -53.333 -15.667 -100.833 -15 -142.5s9.16699 -77.167 25.5 -106.5s41.5 -51.833 75.5 -67.5s79.667 -23.5 137 -23.5c48 0 100 6 156 18s108 31 156 57l133 688h92l-277 -1427h-92
c2.66699 10.667 7.16699 32.834 13.5 66.501l22.5 117l28.5 142c10.333 50.333 19.666 97.833 27.999 142.5l21.5 117c6 33.333 10.333 55.333 13 66c-50.667 -26 -105.334 -44 -164.001 -54s-108.334 -15 -149.001 -15c-122.667 0 -209.667 32 -261 96
s-63.333 164.333 -36 301z" />
    <glyph glyph-name="afii10042" unicode="&#x428;" horiz-adv-x="1552" 
d="M45 0l279 1425h90l-262 -1339h507l261 1339h94l-262 -1339h516l262 1339h92l-279 -1425h-1298z" />
    <glyph glyph-name="afii10043" unicode="&#x429;" horiz-adv-x="1566" 
d="M45 0l274 1425h91l-258 -1339h507l259 1339h92l-258 -1339h514l260 1339h92l-260 -1341h92l-74 -377h-86l58 293h-1303z" />
    <glyph glyph-name="afii10044" unicode="&#x42a;" horiz-adv-x="1226" 
d="M186 1337l17 86.001h465l-123 -639h286c58.667 0 109.667 -8.16699 153 -24.5s79 -38.5 107 -66.5s48.833 -61 62.5 -99s20.5 -79 20.5 -123c0 -69.333 -11 -133 -33 -191s-53.5 -107.833 -94.5 -149.5s-90.833 -73.834 -149.5 -96.501s-125 -34 -199 -34h-399l260 1337
h-373zM408 86.001h293.999c58.667 0 111.334 9.5 158.001 28.5s86 45 118 78s56.5 72 73.5 117s25.5 94.167 25.5 147.5c0 70.667 -20.833 128.5 -62.5 173.5s-105.5 67.5 -191.5 67.5h-297z" />
    <glyph glyph-name="afii10045" unicode="&#x42b;" horiz-adv-x="1224" 
d="M25 0l38.499 198.499l47 242.5l51 264.5l51.5 266.5l47.5 245.5l40.5 205.5h92l-63.5 -320.5l-61.5 -320.5h287c58.667 0 109.5 -8.16699 152.5 -24.5s78.5 -38.5 106.5 -66.5s48.833 -61 62.5 -99s20.5 -79 20.5 -123c0 -75.333 -11.667 -142 -35 -200
s-56.833 -107.167 -100.5 -147.5s-96.167 -70.666 -157.5 -90.999s-129.666 -30.5 -204.999 -30.5h-374zM132.999 85.999h293c116 0 207.5 33.167 274.5 99.5s100.5 153.166 100.5 260.499c0 72.667 -20.167 132.834 -60.5 180.501s-104.833 71.5 -193.5 71.5h-295z
M931.999 -0.000976562l276 1425h95l-279 -1425h-92z" />
    <glyph glyph-name="afii10046" unicode="&#x42c;" horiz-adv-x="935" 
d="M2 0l38.4971 198.499l47.5 242.5l51.5 264.5l51 266.5l47 245.5l41.5 205.5h92l-123 -641h284c58.667 0 109.667 -8.16699 153 -24.5s79.333 -38.5 108 -66.5s49.834 -61 63.501 -99s20.5 -79 20.5 -123c0 -75.333 -11.667 -142 -35 -200
s-56.166 -107.167 -98.499 -147.5s-93.166 -70.666 -152.499 -90.999s-126 -30.5 -200 -30.5h-389zM110.997 85.999l291.998 -0.000976562c57.333 0 109.333 8.5 156 25.5s86.334 41.5 119.001 73.5s57.834 70.333 75.501 115s26.5 93.334 26.5 146.001
c0 74 -20.167 134.5 -60.5 181.5s-105.5 70.5 -195.5 70.5h-295z" />
    <glyph glyph-name="afii10047" unicode="&#x42d;" horiz-adv-x="915" 
d="M37 258l89.9961 33.002c5.33301 -61.333 31.5 -112.166 78.5 -152.499s110.167 -60.5 189.5 -60.5c69.333 0 126 13.667 170 41s79.667 62.833 107 106.5s47.833 92.167 61.5 145.5s25.834 106.333 36.501 159l29 152h-453l19 86h450l33 168
c6.66699 31.333 11.667 63.666 15 96.999s5 61.666 5 84.999c0 30 -4.33301 59.667 -13 89s-23 55 -43 77s-46 39.833 -78 53.5s-71.333 20.5 -118 20.5c-76.667 0 -142.5 -18.833 -197.5 -56.5s-98.167 -91.167 -129.5 -160.5l-84 37c38 87.333 92.5 152.5 163.5 195.5
s154.167 64.5 249.5 64.5c114.667 0 200.834 -29.333 258.501 -88s86.5 -134 86.5 -226c0 -26 -2.5 -55 -7.5 -87l-13.5 -85l-88 -448c-12 -64 -27.667 -126.833 -47 -188.5s-45.666 -116.334 -78.999 -164.001s-76.666 -86.5 -129.999 -116.5s-121 -45 -203 -45
c-106.667 0 -190 24.833 -250 74.5s-96 114.167 -108 193.5z" />
    <glyph glyph-name="afii10048" unicode="&#x42e;" horiz-adv-x="1269" 
d="M35 0l276 1425h90l-62.5 -330.5l-64.5 -330.5h191l55 260c12 54.667 28 106.834 48 156.501s46.333 93.334 79 131.001s74 67.834 124 90.501s110.333 34 181 34c110.667 0 195.334 -29.833 254.001 -89.5s88 -137.834 88 -234.501
c0 -32.667 -3.33301 -70.167 -10 -112.5l-20 -122.5l-18.5 -99.5l-21 -115l-20.5 -116l-18 -100.5c-12 -60 -27.667 -117.667 -47 -173s-46 -104.166 -80 -146.499s-77 -76 -129 -101s-117.667 -37.5 -197 -37.5c-72.667 0 -132.834 11.833 -180.501 35.5
s-84.5 55.334 -110.5 95.001s-42 85.834 -48 138.501s-3.66699 107 7 163l48 264h-189l-135 -684h-90zM483.5 300.995c1 -43.333 10.165 -82.499 27.498 -117.499s44.333 -63 81 -84s85.667 -31.5 147 -31.5c58.667 0 108.5 10.5 149.5 31.5s74.833 48.5 101.5 82.5
s47.834 72.5 63.501 115.5s27.834 86.5 36.501 130.5c19.333 98 37.666 196.833 54.999 296.5l51 293.5c6.66699 42 7.66699 83.167 3 123.5s-16.5 76.166 -35.5 107.499s-46.333 56.333 -82 75s-80.834 28 -135.501 28c-61.333 0 -112.166 -11.333 -152.499 -34
s-73.5 -52.334 -99.5 -89.001s-46.167 -78 -60.5 -124s-26.166 -91.333 -35.499 -136l-102 -535c-9.33301 -45.333 -13.5 -89.666 -12.5 -132.999z" />
    <glyph glyph-name="afii10049" unicode="&#x42f;" horiz-adv-x="1026" 
d="M-16 0l180 446c26 62.667 55.667 117 89 163s78.666 79.333 135.999 100c-57.333 22 -99 56.167 -125 102.5s-39 100.833 -39 163.5c0 69.333 11 132 33 188s53.5 103.5 94.5 142.5s89.833 68.667 146.5 89s119.667 30.5 189 30.5h397l-274 -1425h-90l129 670h-291
c-28.667 0 -56.667 -3.16699 -84 -9.5s-53.666 -18 -78.999 -35s-49.5 -40.833 -72.5 -71.5s-44.833 -70 -65.5 -118l-178 -436h-96zM317 981c0 -79.333 23.668 -137.332 71.001 -173.999s111.333 -55 192 -55h286l115 591h-295c-53.333 0 -102.5 -7.83301 -147.5 -23.5
s-83.833 -38.834 -116.5 -69.501s-58.334 -68.5 -77.001 -113.5s-28 -96.833 -28 -155.5z" />
    <glyph glyph-name="afii10065" unicode="&#x430;" horiz-adv-x="876" 
d="M82 268c0 39.333 2.66602 82.002 7.99902 128.002s13 93 23 141c13.333 72.667 31 138.5 53 197.5s49.333 110 82 153s71.5 76.167 116.5 99.5s97.5 35 157.5 35c57.333 0 107.5 -13.333 150.5 -40s72.833 -63.334 89.5 -110.001l2 2l24 134h86l-196 -1008h-86l31 143h-5
c-35.333 -48 -76.166 -85.833 -122.499 -113.5s-103.5 -41.5 -171.5 -41.5c-44 0 -81.333 7.16699 -112 21.5s-55.5 34.5 -74.5 60.5s-33 55.667 -42 89s-13.5 69.666 -13.5 108.999zM171.999 279.002c0 -28.667 3.00195 -55.999 9.00195 -81.999s16.167 -48.333 30.5 -67
s33.166 -33.334 56.499 -44.001s52 -16 86 -16c38 0 72.833 7.5 104.5 22.5s59.5 34.667 83.5 59s44.5 52 61.5 83s30.833 62.167 41.5 93.5c19.333 60 34.833 120.333 46.5 181s20.834 119 27.501 175c5.33301 34 4.66602 66.333 -2.00098 97
s-18.334 57.334 -35.001 80.001s-38 40.834 -64 54.501s-55.333 20.5 -88 20.5c-53.333 0 -98.333 -11.333 -135 -34s-67 -52.334 -91 -89.001s-43.5 -78.334 -58.5 -125.001s-27.167 -93.667 -36.5 -141c-10.667 -48 -19.5 -95.167 -26.5 -141.5s-10.5 -88.5 -10.5 -126.5z
" />
    <glyph glyph-name="afii10066" unicode="&#x431;" horiz-adv-x="856" 
d="M66 283c0 31.333 1.99609 66.8311 5.99609 106.498s9.33301 83.167 16 130.5c9.33301 57.333 17.833 105.833 25.5 145.5l20.5 103.5l15.5 74.5l12.5 57.5c26 112 55.667 203.167 89 273.5s75.333 126.666 126 168.999s112.5 73 185.5 92s161.833 32.833 266.5 41.5
l5 -76c-86 -5.33301 -159.167 -14.5 -219.5 -27.5s-111.666 -34.833 -153.999 -65.5s-78.5 -72 -108.5 -124s-57.333 -119 -82 -201c-16.667 -53.333 -33 -114.666 -49 -183.999c1.33301 0 2.33301 -0.333008 3 -1s1.66699 -1 3 -1c20.667 34 43.334 62.667 68.001 86
s50.334 41.333 77.001 54s53.167 21.834 79.5 27.501s51.166 8.5 74.499 8.5c49.333 0 91.5 -8.16699 126.5 -24.5s63 -37.833 84 -64.5s36.667 -57.167 47 -91.5s15.5 -69.833 15.5 -106.5c0 -39.333 -2.83301 -80.166 -8.5 -122.499s-12.5 -85.5 -20.5 -129.5
c-13.333 -68 -30.666 -129.333 -51.999 -184s-48 -101.5 -80 -140.5s-71.167 -69 -117.5 -90s-101.166 -31.5 -164.499 -31.5c-52 0 -96.333 7.16699 -133 21.5s-66.667 34.5 -90 60.5s-40.333 57 -51 93s-16 76 -16 120zM153.996 282.998
c0 -31.333 3.33691 -60.334 10.0039 -87.001s18.167 -50 34.5 -70s38.166 -35.5 65.499 -46.5s61.666 -16.5 102.999 -16.5c78 0 142 25.333 192 76c23.333 24.667 45.166 60.834 65.499 108.501s38.166 102.5 53.499 164.5c9.33301 40.667 17.166 82.167 23.499 124.5
s10.166 85.5 11.499 129.5c0 31.333 -3.5 61 -10.5 89s-18.333 52.167 -34 72.5s-36.834 36.666 -63.501 48.999s-60.334 18.5 -101.001 18.5c-42 0 -80.167 -8.16699 -114.5 -24.5s-65.166 -39.5 -92.499 -69.5c-39.333 -44 -67.666 -93.667 -84.999 -149
s-30 -111.666 -38 -168.999c-5.33301 -32.667 -9.66602 -65.667 -12.999 -99s-5.66602 -67 -6.99902 -101z" />
    <glyph glyph-name="afii10067" unicode="&#x432;" horiz-adv-x="854" 
d="M57 240c0 45.333 4.99805 87.668 14.998 127.001l67 315c9.33301 44 23 86.333 41 127s42.333 76.834 73 108.501s68.167 57 112.5 76s97.833 28.5 160.5 28.5c50.667 0 93.5 -6.5 128.5 -19.5s63.333 -30 85 -51s37.334 -44.833 47.001 -71.5s14.5 -53 14.5 -79
c0 -22 -3.5 -45 -10.5 -69s-17.667 -46.5 -32 -67.5s-31.666 -40 -51.999 -57s-44.833 -30.5 -73.5 -40.5c52 -16.667 88.5 -43.334 109.5 -80.001s31.5 -76.667 31.5 -120c0 -54.667 -9.83301 -105.334 -29.5 -152.001s-48 -87 -85 -121s-81.333 -60.5 -133 -79.5
s-109.167 -28.5 -172.5 -28.5c-94 0 -167 21.833 -219 65.5s-78 106.5 -78 188.5zM142.998 258.002c0 -53.333 16.0029 -98.334 48.0029 -135.001s86.333 -55 163 -55c53.333 0 100.5 8.16699 141.5 24.5s75.833 37.833 104.5 64.5s50.167 57.667 64.5 93
s21.5 71.333 21.5 108c0 52 -16.333 93 -49 123s-84 45 -154 45h-116l16 78h94c69.333 0 124.666 17.5 165.999 52.5s62.666 78.833 63.999 131.5c0 40.667 -14.833 76.5 -44.5 107.5s-78.5 46.5 -146.5 46.5c-44 0 -82.333 -7.16699 -115 -21.5
s-60.834 -33.166 -84.501 -56.499s-42.667 -50 -57 -80s-24.5 -60 -30.5 -90l-75 -356l-7.5 -42.5c-2.33301 -13 -3.5 -25.5 -3.5 -37.5z" />
    <glyph glyph-name="afii10068" unicode="&#x433;" horiz-adv-x="778" 
d="M37 209c0 49.333 7.83301 92.333 23.5 129s38.5 69 68.5 97s66.833 52 110.5 72s93.5 38 149.5 54c102.667 30 177.5 61.5 224.5 94.5s70.5 78.167 70.5 135.5c0 50.667 -17.667 87.834 -53 111.501s-84 35.5 -146 35.5c-52 0 -103.167 -10.667 -153.5 -32
s-89.166 -52.333 -116.499 -93l-68 45c35.333 53.333 82.833 94 142.5 122s126.167 42 199.5 42c39.333 0 76.5 -4.16699 111.5 -12.5s65.167 -21.333 90.5 -39s45.5 -40.167 60.5 -67.5s22.5 -60 22.5 -98c0 -44 -8.16699 -82.333 -24.5 -115s-39.5 -61.334 -69.5 -86.001
s-66.167 -46.167 -108.5 -64.5s-89.5 -35.833 -141.5 -52.5c-44 -13.333 -84.667 -26.5 -122 -39.5s-69.333 -29 -96 -48s-47.5 -42.5 -62.5 -70.5s-22.5 -63.333 -22.5 -106c0 -57.333 20.167 -97.833 60.5 -121.5s93.166 -35.5 158.499 -35.5
c45.333 0 93.5 10.833 144.5 32.5s94.5 53.834 130.5 96.501l63 -45c-78.667 -110.667 -198.667 -166 -360 -166c-83.333 0 -152 18.667 -206 56s-81 93.666 -81 168.999z" />
    <glyph glyph-name="afii10069" unicode="&#x434;" horiz-adv-x="868" 
d="M61 315c0 31.333 1.83398 62.833 5.50098 94.5s8.83398 61.834 15.501 90.501c15.333 69.333 32.166 130 50.499 182s40.5 96.333 66.5 133c31.333 45.333 71.5 82.666 120.5 111.999s106.5 44 172.5 44c53.333 0 104.5 -14.333 153.5 -43s83.167 -72.334 102.5 -131.001
c5.33301 0 10.333 12.167 15 36.5s8.33398 51.166 11.001 80.499s4.66699 56.666 6 81.999s2 39.333 2 42c0 44 -3.33301 86.5 -10 127.5s-20 76.833 -40 107.5s-47 55.167 -81 73.5s-78.333 27.5 -133 27.5c-24.667 0 -52.334 -2 -83.001 -6s-63.667 -10.667 -99 -20
l-14 73c39.333 10.667 75.333 18.167 108 22.5s64.667 6.5 96 6.5c65.333 0 119.666 -10.667 162.999 -32s77.5 -49.666 102.5 -84.999s42.667 -77.166 53 -125.499s15.5 -99.833 15.5 -154.5c0 -62.667 -5.83301 -143.5 -17.5 -242.5s-33.167 -215.5 -64.5 -349.5
c-18 -72.667 -38.833 -138.334 -62.5 -197.001s-52.5 -108.5 -86.5 -149.5s-74 -72.667 -120 -95s-98.333 -33.5 -157 -33.5c-60 0 -109.167 9.5 -147.5 28.5s-68 43.833 -89 74.5s-35.333 65.834 -43 105.501s-11.5 79.834 -11.5 120.501zM145.001 303
c0 -18 1.16699 -35.4971 3.5 -52.4971s6.16602 -32.833 11.499 -47.5c9.33301 -38 29.666 -70.833 60.999 -98.5s78.333 -41.5 141 -41.5c48 0 90.167 11.667 126.5 35s66.833 53.333 91.5 90c16.667 22 32.334 50.5 47.001 85.5s28.167 72.5 40.5 112.5
s22.333 80.167 30 120.5s11.5 76.833 11.5 109.5v41c0 14 -0.666992 27 -2 39c-5.33301 57.333 -25.833 104.166 -61.5 140.499s-86.167 55.166 -151.5 56.499c-34 0 -66.5 -5.83301 -97.5 -17.5s-59.5 -29.834 -85.5 -54.501c-26 -26 -49.167 -58.667 -69.5 -98
s-37.666 -82.333 -51.999 -129s-25.333 -95.167 -33 -145.5s-11.5 -98.833 -11.5 -145.5z" />
    <glyph glyph-name="afii10070" unicode="&#x435;" horiz-adv-x="831" 
d="M70 279c0 48 2.99707 99.501 8.99707 154.501s15.833 110.167 29.5 165.5s32.167 108.333 55.5 159s51.666 95.667 84.999 135s72.833 70.666 118.5 93.999s97.834 35 156.501 35c98 0 171 -22.5 219 -67.5s72 -100.5 72 -166.5c0 -109.333 -39.5 -195 -118.5 -257
s-203.833 -93 -374.5 -93c-16.667 0 -39.667 0.666992 -69 2s-57.666 3.33301 -84.999 6c-4 -24.667 -7.33301 -49.5 -10 -74.5s-4 -47.833 -4 -68.5c0 -70.667 15.333 -127.5 46 -170.5s83.334 -64.5 158.001 -64.5c48 0 95.833 11.5 143.5 34.5s85.167 54.5 112.5 94.5
l66 -39c-35.333 -52 -80.666 -93.333 -135.999 -124s-120 -46 -194 -46c-56 0 -102 8.83301 -138 26.5s-64.667 40.5 -86 68.5s-36 59.333 -44 94s-12 68.667 -12 102zM181.997 526.001c24.667 -2.66699 52.6699 -5 84.0029 -7s56.666 -3 75.999 -3
c69.333 0 128.666 6.5 177.999 19.5s89.333 31.167 120 54.5s53.167 50.666 67.5 81.999s21.5 65.333 21.5 102c0 50.667 -18.5 91.334 -55.5 122.001s-88.833 46 -155.5 46c-46.667 0 -88.334 -10.167 -125.001 -30.5s-68.667 -49 -96 -86s-50.5 -80.833 -69.5 -131.5
s-34.167 -106.667 -45.5 -168z" />
    <glyph glyph-name="afii10072" unicode="&#x436;" horiz-adv-x="1603" 
d="M-18 125l63.0049 42.998c16.667 -36.667 39.667 -63.667 69 -81s61.666 -26 96.999 -26c53.333 0 97.666 12.667 132.999 38s64.666 56.666 87.999 93.999c13.333 24.667 27.333 57 42 97s27.667 84 39 132s20.5 96.833 27.5 146.5s10.5 96.5 10.5 140.5
c0 66.667 -14.333 121.834 -43 165.501s-78 65.5 -148 65.5c-79.333 0 -145.333 -34 -198 -102l-56 49c68 88.667 158.333 133 271 133c45.333 0 84.333 -7.83301 117 -23.5s59.5 -36.834 80.5 -63.501s36.333 -57.5 46 -92.5s14.5 -71.5 14.5 -109.5
c0 -31.333 -2 -69.166 -6 -113.499s-11 -88.5 -21 -132.5h6c50.667 87.333 96.167 174.5 136.5 261.5s82.5 173.5 126.5 259.5h67l-145 -768c1.33301 0 2.33301 -0.333008 3 -1s1.66699 -1 3 -1l88 183l88 177l87 166c28 52 58.333 97 91 135s69.167 68 109.5 90
s87.833 33 142.5 33c58.667 0 108.834 -12 150.501 -36s70.834 -59 87.501 -105l-66 -39c-13.333 32.667 -35.833 57.834 -67.5 75.501s-65.167 26.5 -100.5 26.5c-39.333 0 -79.5 -13 -120.5 -39s-78.667 -66 -113 -120s-62.333 -123.667 -84 -209
s-32.5 -187.333 -32.5 -306c0 -30 3 -57.167 9 -81.5s16.5 -45.833 31.5 -64.5s34.833 -33.167 59.5 -43.5s54.667 -15.5 90 -15.5c42 0 81.667 11.333 119 34s68.666 52.334 93.999 89.001l58 -43c-31.333 -48 -70.333 -85.833 -117 -113.5s-103.334 -41.5 -170.001 -41.5
c-50.667 0 -92.667 7.83301 -126 23.5s-59.833 36.167 -79.5 61.5s-33.667 54.333 -42 87s-12.5 66.667 -12.5 102c0 16.667 0.333008 32.5 1 47.5s2 31 4 48s4.66699 36 8 57l12 74.5h-7l-121.5 -244.5l-117.5 -244.5h-80l141 743h-4l-65.5 -133l-61.5 -119.5l-63.5 -119
c-21.667 -40.333 -46.167 -83.5 -73.5 -129.5c-18 -36.667 -36.833 -70.5 -56.5 -101.5s-42.834 -58 -69.501 -81s-57.334 -41 -92.001 -54s-76.667 -19.5 -126 -19.5c-57.333 0 -105.5 11.833 -144.5 35.5s-65.833 58.167 -80.5 103.5z" />
    <glyph glyph-name="afii10073" unicode="&#x437;" horiz-adv-x="757" 
d="M-6 160l71.998 37.001c15.333 -40.667 40.333 -72.667 75 -96s78.334 -35 131.001 -35c78 0 143.667 23.167 197 69.5s80 115.166 80 206.499c0 48 -16.333 83.5 -49 106.5s-71 34.5 -115 34.5h-102c2.66699 5.33301 5.66699 18 9 38s5.66602 32.667 6.99902 38h102
c26 0 52.333 4.5 79 13.5s50.334 22.667 71.001 41s37.5 41.5 50.5 69.5s19.5 61 19.5 99c0 50.667 -19.833 88.334 -59.5 113.001s-86.167 37 -139.5 37c-50.667 0 -96.5 -10.667 -137.5 -32s-73.833 -52.333 -98.5 -93c-5.33301 2.66699 -16.5 9.5 -33.5 20.5l-31.5 20.5
c32.667 57.333 77 99.333 133 126s116.667 40 182 40c84.667 0 151.667 -18.5 201 -55.5s74 -90.167 74 -159.5c0 -19.333 -2.5 -42.333 -7.5 -69s-14 -53.334 -27 -80.001s-31.5 -52 -55.5 -76s-54.333 -42 -91 -54c38 -12 65.667 -34.5 83 -67.5s26 -67.833 26 -104.5
c0 -60 -9.16699 -112.5 -27.5 -157.5s-44 -82.5 -77 -112.5s-72 -52.5 -117 -67.5s-94.167 -22.5 -147.5 -22.5c-68 0 -125.167 14.333 -171.5 43s-81.166 71.667 -104.499 129z" />
    <glyph glyph-name="afii10074" unicode="&#x438;" horiz-adv-x="890" 
d="M86 178.5c-5.33301 38.333 -4.00195 79.167 3.99805 122.5l135 707h88l-131 -691c-6.66699 -32.667 -9 -64 -7 -94s9.83301 -56.167 23.5 -78.5s33.834 -40 60.501 -53s62 -19.5 106 -19.5c38 0 74 7.5 108 22.5s64.667 35.5 92 61.5s50.333 56 69 90s32 70 40 108
l125 654h88l-197 -1008h-88l31 143h-6c-39.333 -56 -85.666 -95.833 -138.999 -119.5s-105.333 -35.5 -156 -35.5c-49.333 0 -91 8.16699 -125 24.5s-61.333 38.5 -82 66.5s-33.667 61.167 -39 99.5z" />
    <glyph glyph-name="afii10075" unicode="&#x439;" horiz-adv-x="890" 
d="M86 178.5c-5.33301 38.333 -4.00195 79.167 3.99805 122.5l135 707h88l-131 -691c-6.66699 -32.667 -9 -64 -7 -94s9.83301 -56.167 23.5 -78.5s33.834 -40 60.501 -53s62 -19.5 106 -19.5c38 0 74 7.5 108 22.5s64.667 35.5 92 61.5s50.333 56 69 90s32 70 40 108
l125 654h88l-197 -1008h-88l31 143h-6c-39.333 -56 -85.666 -95.833 -138.999 -119.5s-105.333 -35.5 -156 -35.5c-49.333 0 -91 8.16699 -125 24.5s-61.333 38.5 -82 66.5s-33.667 61.167 -39 99.5zM357.998 1401l76.001 0.000976562c-2.66699 -42 10.333 -78.5 39 -109.5
s65 -46.5 109 -46.5s85.333 14.667 124 44s65.334 66.666 80.001 111.999h80c-8 -27.333 -19.833 -55 -35.5 -83s-35.5 -53 -59.5 -75s-52 -39.833 -84 -53.5s-68.333 -20.5 -109 -20.5s-75.834 6.83301 -105.501 20.5s-53.334 31.5 -71.001 53.5s-30 46.667 -37 74
s-9.16699 55.333 -6.5 84z" />
    <glyph glyph-name="afii10076" unicode="&#x43a;" horiz-adv-x="817" 
d="M29 0l194.001 1008h88l-90 -457h187c18 0 36.833 2 56.5 6s39.334 11.5 59.001 22.5s38.667 26.333 57 46s35.166 45.167 50.499 76.5l147 306h86l-137 -291c-23.333 -49.333 -49 -90.666 -77 -123.999s-62.333 -55.666 -103 -66.999
c45.333 -12 74.666 -35.5 87.999 -70.5s22.333 -77.5 27 -127.5l28 -328h-84l-24 315c-5.33301 66.667 -22.833 110.334 -52.5 131.001s-68.167 31 -115.5 31h-207l-90 -477h-88z" />
    <glyph glyph-name="afii10077" unicode="&#x43b;" horiz-adv-x="868" 
d="M-68 39c39.333 22 73.1709 45.167 101.504 69.5s52.666 56 72.999 95s39.333 88.5 57 148.5s36.167 136.667 55.5 230l84 426h561l-96 -506l-98 -502h-88l91 463.5l89 466.5h-391l-77 -388c-22.667 -108.667 -48.334 -200.834 -77.001 -276.501
s-62.834 -137.167 -102.501 -184.5s-91.5 -84.666 -155.5 -111.999c-4 12 -8.33301 23.5 -13 34.5s-9.33398 22.833 -14.001 35.5z" />
    <glyph glyph-name="afii10078" unicode="&#x43c;" horiz-adv-x="1067" 
d="M23 0l96 502l98 504h84l209 -703l243.5 351l241.5 352h90l-196 -1006h-88l78 405.5l79 405.5l-434 -618h-65l-74 238l-51.5 166l-35.5 118l-28 94h-2l-79.5 -405.5l-77.5 -403.5h-88z" />
    <glyph glyph-name="afii10079" unicode="&#x43d;" horiz-adv-x="864" 
d="M23 0l196 1008h88l-88 -457h477l88 457h90l-194 -1008h-90l92 477h-477l-92 -477h-90z" />
    <glyph glyph-name="afii10080" unicode="&#x43e;" horiz-adv-x="851" 
d="M66 276c0 39.333 1.66699 79.6689 5 121.002s8.33301 80.333 15 117c13.333 78 32 148.333 56 211s52.333 115.334 85 158.001c35.333 45.333 76.333 79.833 123 103.5s102.667 35.5 168 35.5c53.333 0 98.833 -8.83301 136.5 -26.5s68 -41.5 91 -71.5
s39.667 -63.833 50 -101.5s15.5 -76.834 15.5 -117.501c-1.33301 -42 -5.5 -86.667 -12.5 -134s-15.167 -93 -24.5 -137c-15.333 -72.667 -33.833 -136.834 -55.5 -192.501s-48.5 -102.334 -80.5 -140.001s-70.833 -66 -116.5 -85s-100.167 -28.5 -163.5 -28.5
c-58.667 0 -107 8.5 -145 25.5s-68 39.167 -90 66.5s-37 58 -45 92s-12 68.667 -12 104zM154 307.003c0 -31.333 2.33398 -61.3291 7.00098 -89.9961s14.5 -54.334 29.5 -77.001s36.5 -40.667 64.5 -54s64.667 -20 110 -20c62.667 0 116.167 15.667 160.5 47
s78.166 75.666 101.499 132.999c13.333 30 25.833 64.5 37.5 103.5s22 79.167 31 120.5s15.833 82.833 20.5 124.5s7 81.167 7 118.5c0 74 -19.167 130.667 -57.5 170s-90.833 59 -157.5 59c-46.667 0 -89 -10.167 -127 -30.5s-70 -49.833 -96 -88.5
c-16.667 -24.667 -32.834 -57.334 -48.501 -98.001s-29.667 -85 -42 -133s-22.166 -96.833 -29.499 -146.5s-11 -95.834 -11 -138.501z" />
    <glyph glyph-name="afii10081" unicode="&#x43f;" horiz-adv-x="884" 
d="M33 0l196 1008h86c-5.33301 -24.667 -10.333 -49.334 -15 -74.001s-9 -49.334 -13 -74.001h4c39.333 56 86.333 96.333 141 121s108 37 160 37c50.667 0 93 -8.5 127 -25.5s60.5 -39.833 79.5 -68.5s31 -62.167 36 -100.5s3.16699 -77.833 -5.5 -118.5l-137 -705h-88
l133 680c5.33301 31.333 8 62 8 92s-6 56.667 -18 80s-31 42.166 -57 56.499s-62.333 21.5 -109 21.5c-52 0 -96.667 -10.333 -134 -31s-69.333 -47.667 -96 -81s-48.167 -71.833 -64.5 -115.5s-28.833 -88.167 -37.5 -133.5l-110 -569h-86z" />
    <glyph glyph-name="afii10082" unicode="&#x440;" horiz-adv-x="856" 
d="M-66 -408l137.499 708.501l139.5 709.5h86l-25 -133h4c35.333 45.333 75.666 81.166 120.999 107.499s100 39.5 164 39.5c86 0 148.833 -23.167 188.5 -69.5s59.5 -112.5 59.5 -198.5c-1.33301 -42 -4.66602 -88.333 -9.99902 -139s-13 -96.667 -23 -138
c-15.333 -69.333 -33.166 -134 -53.499 -194s-46.5 -111.5 -78.5 -154.5s-70.5 -76.833 -115.5 -101.5s-100.5 -37 -166.5 -37c-64 0 -114 14.333 -150 43s-63 64 -81 106h-4l-107 -549h-86zM171.999 291.001c0 -30 2.99707 -58.001 8.99707 -84.001
s16.667 -48.833 32 -68.5s34.5 -35.334 57.5 -47.001s52.167 -17.5 87.5 -17.5c56 0 102.833 12.167 140.5 36.5s68.834 56.333 93.501 96s44.834 85.5 60.501 137.5s28.834 104.667 39.501 158c8 38 14.167 75.833 18.5 113.5s6.5 74.167 6.5 109.5
c0 30 -2.83301 58 -8.5 84s-15.667 48.5 -30 67.5s-33.833 34.333 -58.5 46s-56 17.5 -94 17.5c-65.333 0 -121.166 -20.5 -167.499 -61.5s-79.833 -91.5 -100.5 -151.5c-22 -61.333 -39.833 -125.166 -53.5 -191.499s-23.834 -130.166 -30.501 -191.499
c-1.33301 -8 -2 -16.5 -2 -25.5v-27.5z" />
    <glyph glyph-name="afii10083" unicode="&#x441;" horiz-adv-x="753" 
d="M57 289c0 50.667 3.16992 103.83 9.50293 159.497s16.666 110.5 30.999 164.5s33 105.667 56 155s52 92.666 87 129.999s76.333 67 124 89s102.167 33 163.5 33c69.333 0 128 -15.667 176 -47s77.667 -77.666 89 -138.999l-82 -39
c-6.66699 44 -26.834 78.833 -60.501 104.5s-75.834 38.5 -126.501 38.5c-75.333 0 -137.166 -22.5 -185.499 -67.5s-86.5 -100.333 -114.5 -166s-47.333 -135.667 -58 -210s-16 -140.166 -16 -197.499c0 -30 3 -58.667 9 -86s17.167 -51.666 33.5 -72.999
s38.166 -38 65.499 -50s61.333 -18 102 -18c50.667 0 97.5 12.167 140.5 36.5s74.833 58.5 95.5 102.5l78 -41c-31.333 -57.333 -74.333 -101.666 -129 -132.999s-119 -47 -193 -47c-57.333 0 -105 8.16699 -143 24.5s-68.333 38.5 -91 66.5s-38.5 60 -47.5 96
s-13.5 74 -13.5 114z" />
    <glyph glyph-name="afii10084" unicode="&#x442;" horiz-adv-x="1456" 
d="M41 0l96.999 503.002l98 503h86l-27 -144h4c39.333 53.333 84.333 92.666 135 117.999s102 38 154 38c65.333 0 119.166 -15.667 161.499 -47s66.833 -73.666 73.5 -126.999c45.333 60 95 104 149 132s111 42 171 42c56 0 101.667 -9.5 137 -28.5
s61.833 -44.333 79.5 -76s28 -66.834 31 -105.501s0.166992 -78.667 -8.5 -120l-135 -688h-88l133 686c5.33301 30 7 59.333 5 88s-9.5 54.667 -22.5 78s-31.667 42.166 -56 56.499s-57.166 21.5 -98.499 21.5c-45.333 0 -85.666 -9.33301 -120.999 -28s-66.333 -43 -93 -73
s-48.167 -64 -64.5 -102s-28.5 -77 -36.5 -117l-119 -610h-88l135 686c5.33301 30 7 59.667 5 89s-9.83301 56 -23.5 80s-33.167 43.167 -58.5 57.5s-58.333 21.5 -99 21.5c-49.333 0 -92 -10 -128 -30s-66.667 -46.333 -92 -79s-45.833 -70.167 -61.5 -112.5
s-27.5 -85.833 -35.5 -130.5l-113 -582h-86z" />
    <glyph glyph-name="afii10085" unicode="&#x443;" horiz-adv-x="737" 
d="M-113 -322c48 4 93.4971 15.3359 136.497 34.0029s82.833 54 119.5 106c16.667 22 30.834 42.5 42.501 61.5s24.834 44.167 39.501 75.5l-131 1051h88c6.66699 -70.667 14.167 -141.334 22.5 -212.001l24.5 -212c5.33301 -44 10.5 -89.167 15.5 -135.5
s9.5 -92.833 13.5 -139.5c4 -39.333 9.16699 -85 15.5 -137s9.5 -95.667 9.5 -131h4c36.667 62.667 74.167 133.667 112.5 213s75.833 161.666 112.5 246.999l107.5 258c35 86.667 66.833 169.667 95.5 249h88c-90 -240 -177.667 -452.333 -263 -637
s-171.666 -348.667 -258.999 -492c-22 -36.667 -46.333 -71.834 -73 -105.501s-56 -62.667 -88 -87s-67.5 -44 -106.5 -59s-81.167 -22.5 -126.5 -22.5v75z" />
    <glyph glyph-name="afii10086" unicode="&#x444;" horiz-adv-x="1028" 
d="M70 301c1.33301 57.333 6.33105 114.333 14.998 171s20.167 110.667 34.5 162s31.5 97.833 51.5 139.5s42.333 76.167 67 103.5c40.667 45.333 87.667 82.166 141 110.499s122.333 40.5 207 36.5l82 424h88l-84 -424c86 -4 153.167 -24.167 201.5 -60.5
s80.833 -82.5 97.5 -138.5c9.33301 -34 14.333 -70.167 15 -108.5s-1 -76.5 -5 -114.5s-10.167 -75.833 -18.5 -113.5s-17.166 -73.5 -26.499 -107.5c-15.333 -56 -34.833 -107.833 -58.5 -155.5s-54 -89 -91 -124s-81.5 -62.667 -133.5 -83s-113.333 -31.166 -184 -32.499
l-76 -392h-86l36.5 195.5c12.333 65 25.5 130.5 39.5 196.5c-56 4 -103.833 14.5 -143.5 31.5s-72.167 39.167 -97.5 66.5s-43.666 59.5 -54.999 96.5s-17 77.167 -17 120.5zM154.998 331c-2 -55.333 4.99805 -102.333 20.998 -141
c28.667 -75.333 101.667 -117.666 219 -126.999l88 438.5l86 438.5c-69.333 1.33301 -128.666 -12.334 -177.999 -41.001s-89.666 -69 -120.999 -121c-16.667 -28.667 -34.167 -68.167 -52.5 -118.5s-32.833 -103.833 -43.5 -160.5s-17 -112.667 -19 -168zM482.996 63
c56 0 104.833 9.33301 146.5 28s77.167 44 106.5 76s54 69.833 74 113.5s36 90.834 48 141.501c8 30 15.5 62.667 22.5 98s12.167 70.833 15.5 106.5s4 69.167 2 100.5s-7.66699 58.666 -17 81.999c-15.333 36.667 -40 67 -74 91s-84 37.333 -150 40z" />
    <glyph glyph-name="afii10087" unicode="&#x445;" horiz-adv-x="749" 
d="M-18 0l387.001 518.001c-2.66699 4 -8.5 18.333 -17.5 43l-32 89l-39 112.5l-39 113l-32.5 89c-9.33301 24.333 -14.666 38.833 -15.999 43.5h100l137 -422l305 422h109l-373 -492c1.33301 -4 7.16602 -19 17.499 -45l36 -94l43 -118.5l43 -119l34.5 -94.5
c9.33301 -26 15.666 -41 18.999 -45h-101l-153 444c-2.66699 -4 -12 -16.833 -28 -38.5l-58.5 -81l-73.5 -102.5l-74 -102l-59.5 -82c-16.333 -22.667 -25.833 -35.334 -28.5 -38.001h-106z" />
    <glyph glyph-name="afii10088" unicode="&#x446;" horiz-adv-x="903" 
d="M84 188.5c-4 39.667 -2.00098 81.1709 5.99902 124.504l135 695h90l-133 -676c-6.66699 -34 -9 -66.833 -7 -98.5s9.83301 -59.334 23.5 -83.001s33.834 -42.667 60.501 -57s61 -21.5 103 -21.5s80.833 9.16699 116.5 27.5s67.167 42.166 94.5 71.499
s50 63.166 68 101.499s31 77.833 39 118.5l119 617h88l-154 -775c-2.66699 -16.667 -4.66699 -34.667 -6 -54s-0.333008 -38.333 3 -57s9.83301 -35.5 19.5 -50.5s24.167 -27.167 43.5 -36.5l-74 -289h-78l64 250c-27.333 19.333 -45.5 43.333 -54.5 72s-12.833 55 -11.5 79
h-2c-38 -54.667 -85.667 -94.834 -143 -120.501s-112 -38.5 -164 -38.5c-53.333 0 -97.5 8.83301 -132.5 26.5s-61.667 41.167 -80 70.5s-29.5 63.833 -33.5 103.5z" />
    <glyph glyph-name="afii10089" unicode="&#x447;" horiz-adv-x="790" 
d="M100 700l60.001 308.001h86l-60 -301c-15.333 -70.667 -7.5 -126.334 23.5 -167.001s90.833 -61 179.5 -61c35.333 0 75.666 6.16699 120.999 18.5s87 28.833 125 49.5l90 461h90l-197 -1008h-88l88 461c-39.333 -20.667 -82.5 -36.167 -129.5 -46.5
s-86.833 -15.5 -119.5 -15.5c-102.667 0 -178.167 24.667 -226.5 74s-62.5 125 -42.5 227z" />
    <glyph glyph-name="afii10090" unicode="&#x448;" horiz-adv-x="1413" 
d="M67.5 197.5c-3 39 -0.167969 78.835 8.49902 119.502l135 689h88l-133 -687c-5.33301 -30 -7 -59.333 -5 -88s9.5 -54.5 22.5 -77.5s31.667 -41.667 56 -56s57.166 -21.5 98.499 -21.5c45.333 0 85.666 9.16699 120.999 27.5s66.333 42.5 93 72.5
s48.167 64.167 64.5 102.5s28.5 77.166 36.5 116.499l119 611h88l-135 -687c-6.66699 -30 -8.66699 -59.667 -6 -89s10.834 -55.833 24.501 -79.5s33.167 -42.667 58.5 -57s58.333 -21.5 99 -21.5c49.333 0 92 9.83301 128 29.5s66.667 45.834 92 78.501
s45.833 70.167 61.5 112.5s27.834 86.166 36.501 131.499l112 582h86l-97 -503l-97 -503h-86l26 143h-4c-39.333 -53.333 -84.333 -92.5 -135 -117.5s-102 -37.5 -154 -37.5c-65.333 0 -119.166 15.667 -161.499 47s-66.833 73.666 -73.5 126.999
c-45.333 -60 -95 -104 -149 -132s-111 -42 -171 -42c-56 0 -101.667 9.5 -137 28.5s-61.833 44.167 -79.5 75.5s-28 66.5 -31 105.5z" />
    <glyph glyph-name="afii10091" unicode="&#x449;" horiz-adv-x="1452" 
d="M82 196.5c-2.66699 39.667 0.000976562 79.8291 8.00098 120.496l135 689h88l-133 -687c-5.33301 -30 -7 -59.333 -5 -88s9.16699 -54.5 21.5 -77.5s31.166 -41.667 56.499 -56s58.333 -21.5 99 -21.5c44 0 83.667 8.83301 119 26.5s66.333 41.167 93 70.5
s48.5 63.5 65.5 102.5s29.833 78.833 38.5 119.5l118 611h88l-74.5 -373c-22.333 -109.333 -42.5 -214 -60.5 -314c-5.33301 -31.333 -7 -61.666 -5 -90.999s9.5 -55.5 22.5 -78.5s32.5 -41.667 58.5 -56s59.333 -21.5 100 -21.5s78.5 8.5 113.5 25.5
s65.833 40.167 92.5 69.5s49.334 63.166 68.001 101.499s32 78.5 40 120.5l119 617h88l-142 -727c-2.66699 -20.667 -6.33398 -42.667 -11.001 -66s-6.33398 -46.166 -5.00098 -68.499s6.5 -43.166 15.5 -62.499s24.833 -35 47.5 -47l-73 -287h-76l65 250
c-27.333 18 -46 41.333 -56 70s-13.667 55 -11 79h-2c-20.667 -28.667 -43.334 -52.834 -68.001 -72.501s-50.667 -35.667 -78 -48s-54.833 -21.166 -82.5 -26.499s-53.834 -8 -78.501 -8c-65.333 0 -119.666 14 -162.999 42s-67.666 70.667 -72.999 128
c-45.333 -61.333 -94.166 -105.666 -146.499 -132.999s-108.5 -41 -168.5 -41c-56 0 -101.5 9.5 -136.5 28.5s-61.667 43.833 -80 74.5s-28.833 65.834 -31.5 105.501z" />
    <glyph glyph-name="afii10092" unicode="&#x44a;" horiz-adv-x="989" 
d="M70 930l14 78.002h381l-19.5 -94.5l-23.5 -118l-23.5 -117.5l-19.5 -94h266c56 0 102.167 -7.83301 138.5 -23.5s65 -35.834 86 -60.501s35.667 -51.667 44 -81s12.5 -57 12.5 -83c0 -52 -10 -99.5 -30 -142.5s-47.333 -79.833 -82 -110.5s-76 -54.5 -124 -71.5
s-99.667 -25.5 -155 -25.5c-53.333 0 -100.5 8.16699 -141.5 24.5s-74.167 40.166 -99.5 71.499s-42.5 68.833 -51.5 112.5s-7.83301 93.5 3.5 149.5l114 586h-290zM326 223.502c5.33301 -31.667 16.501 -59.1689 33.501 -82.502s40.333 -41.666 70 -54.999
s64.834 -20 105.501 -20c49.333 0 92.333 7.16699 129 21.5s68 33.333 94 57s45.5 51.5 58.5 83.5s19.5 66 19.5 102c0 50.667 -17.833 92.334 -53.5 125.001s-88.834 49 -159.501 49h-258l-37 -180c-6.66699 -35.333 -7.33398 -68.833 -2.00098 -100.5z" />
    <glyph glyph-name="afii10093" unicode="&#x44b;" horiz-adv-x="1095" 
d="M74 256c0 24.667 3.33398 54.001 10.001 88.001l131 664h88l-86 -426h266c56 0 102.167 -7.83301 138.5 -23.5s64.666 -35.834 84.999 -60.501s34.666 -51.667 42.999 -81s12.5 -57 12.5 -83c0 -52 -9.5 -99.167 -28.5 -141.5s-46 -78.833 -81 -109.5
s-76.333 -54.5 -124 -71.5s-100.167 -25.5 -157.5 -25.5c-91.333 0 -163.666 23.5 -216.999 70.5s-80 113.5 -80 199.5zM160.001 264.001c0 -57.333 18.001 -104.667 54.001 -142s89 -56 159 -56c48 0 90.667 7.16699 128 21.5s68.666 33.333 93.999 57
s44.833 51.167 58.5 82.5s20.5 65 20.5 101c0 52 -17.833 94.333 -53.5 127s-89.5 49 -161.5 49h-256l-37 -180c-4 -20.667 -6 -40.667 -6 -60zM813.002 0l97.5 502l97.5 506h90l-197 -1008h-88z" />
    <glyph glyph-name="afii10094" unicode="&#x44c;" horiz-adv-x="829" 
d="M85 194.5c-8.66699 43.667 -7.66504 93.502 3.00195 149.502l131 664h90l-86 -424h266c56 0 102.167 -7.83301 138.5 -23.5s64.666 -35.834 84.999 -60.501s34.666 -51.667 42.999 -81s12.5 -57 12.5 -83c0 -52 -9.5 -99.5 -28.5 -142.5s-46 -79.833 -81 -110.5
s-76.333 -54.5 -124 -71.5s-100.167 -25.5 -157.5 -25.5c-53.333 0 -100.5 8.16699 -141.5 24.5s-74.167 40.166 -99.5 71.499s-42.333 68.833 -51 112.5zM170.002 223.502c5.33301 -31.667 16.5 -59.1689 33.5 -82.502s40.333 -41.666 70 -54.999s64.834 -20 105.501 -20
c49.333 0 92.333 7.16699 129 21.5s67.667 33.333 93 57s44.833 51.5 58.5 83.5s20.5 66 20.5 102c0 50.667 -17.833 92.334 -53.5 125.001s-89.5 49 -161.5 49h-256l-37 -180c-6.66699 -35.333 -7.33398 -68.833 -2.00098 -100.5z" />
    <glyph glyph-name="afii10095" unicode="&#x44d;" horiz-adv-x="763" 
d="M16 152l75.999 41.0029c12 -40.667 36.5 -72 73.5 -94s77.5 -33 121.5 -33c60 0 108.333 11.167 145 33.5s66.667 51.166 90 86.499c23.333 32.667 42.5 74.667 57.5 126s27.167 105.666 36.5 162.999h-370c2.66699 12 5 24.167 7 36.5s4.33301 25.5 7 39.5h371
c5.33301 35.333 9 65.666 11 90.999s3 49.666 3 72.999c0 65.333 -15.667 118.5 -47 159.5s-86 61.5 -164 61.5c-44 0 -87.333 -10.333 -130 -31s-77.667 -49.334 -105 -86.001l-66 45c35.333 50.667 78.333 89 129 115s110.667 39 180 39c52 0 96.5 -7.83301 133.5 -23.5
s67 -36.834 90 -63.501s40 -58.5 51 -95.5s16.5 -76.5 16.5 -118.5c-1.33301 -45.333 -5.33301 -94.666 -12 -147.999s-15.5 -106.166 -26.5 -158.499s-24.667 -101.666 -41 -147.999s-34.833 -85.5 -55.5 -117.5c-30 -45.333 -70 -82.833 -120 -112.5
s-113.667 -44.5 -191 -44.5c-65.333 0 -122.666 13.333 -171.999 40s-82.333 68 -99 124z" />
    <glyph glyph-name="afii10096" unicode="&#x44e;" horiz-adv-x="1093" 
d="M33 0l194.001 1006h88l-88 -457h140c15.333 75.333 33.833 142.333 55.5 201s48.167 108 79.5 148s69.166 70.667 113.499 92s96.5 32 156.5 32c52 0 95.667 -8.5 131 -25.5s64.333 -39.5 87 -67.5s39.167 -60.167 49.5 -96.5s15.5 -73.5 15.5 -111.5
c0 -48 -3.5 -96.5 -10.5 -145.5s-15.833 -98.167 -26.5 -147.5c-15.333 -69.333 -33.5 -131.333 -54.5 -186s-47.5 -100.5 -79.5 -137.5s-69.833 -65.333 -113.5 -85s-95.834 -29.5 -156.501 -29.5c-53.333 0 -97.666 7.5 -132.999 22.5s-64.333 34.833 -87 59.5
s-38.667 53.334 -48 86.001s-14 66.667 -14 102c0 36.667 2 72.167 6 106.5s8.66699 70.5 14 108.5h-139c-16.667 -79.333 -32.5 -158.833 -47.5 -238.5l-46.5 -236.5h-86zM416.001 284.999c0 -26 2.33301 -52 7 -78s14.167 -49.667 28.5 -71s34.833 -38.333 61.5 -51
s61.667 -19 105 -19c56 0 102.167 11.833 138.5 35.5s66.5 54.667 90.5 93s42.833 81.333 56.5 129s25.834 96.167 36.501 145.5c8 40.667 14.833 82.167 20.5 124.5s8.5 83.5 8.5 123.5c0 65.333 -16.5 119.166 -49.5 161.499s-84.167 63.5 -153.5 63.5
c-40.667 0 -77.834 -7.5 -111.501 -22.5s-64.167 -40.167 -91.5 -75.5c-28.667 -35.333 -52.5 -84.166 -71.5 -146.499s-36.167 -131.833 -51.5 -208.5c-16.667 -84.667 -24.667 -152.667 -24 -204z" />
    <glyph glyph-name="afii10097" unicode="&#x44f;" horiz-adv-x="849" 
d="M-8 0l108.001 295c16.667 44 38 85 64 123s62 64 108 78c-46.667 18 -80.834 44 -102.501 78s-32.5 74 -32.5 120c0 91.333 30 166.5 90 225.5s143.333 88.5 250 88.5h373l-193 -1008h-88l90 463h-247c-22 0 -43.667 -2 -65 -6s-41.5 -11.833 -60.5 -23.5
s-36.667 -28.167 -53 -49.5s-30.833 -48.333 -43.5 -81l-110 -303h-88zM223.001 694c0 -53.333 19.5 -92.168 58.5 -116.501s89.833 -36.5 152.5 -36.5h240l76 389h-263c-35.333 0 -69 -4.5 -101 -13.5s-60 -23.333 -84 -43s-43.167 -44.167 -57.5 -73.5
s-21.5 -64.666 -21.5 -105.999z" />
    <glyph glyph-name="afii10071" unicode="&#x451;" horiz-adv-x="831" 
d="M70 279c0 48 2.99707 99.501 8.99707 154.501s15.833 110.167 29.5 165.5s32.167 108.333 55.5 159s51.666 95.667 84.999 135s72.833 70.666 118.5 93.999s97.834 35 156.501 35c98 0 171 -22.5 219 -67.5s72 -100.5 72 -166.5c0 -109.333 -39.5 -195 -118.5 -257
s-203.833 -93 -374.5 -93c-16.667 0 -39.667 0.666992 -69 2s-57.666 3.33301 -84.999 6c-4 -24.667 -7.33301 -49.5 -10 -74.5s-4 -47.833 -4 -68.5c0 -70.667 15.333 -127.5 46 -170.5s83.334 -64.5 158.001 -64.5c48 0 95.833 11.5 143.5 34.5s85.167 54.5 112.5 94.5
l66 -39c-35.333 -52 -80.666 -93.333 -135.999 -124s-120 -46 -194 -46c-56 0 -102 8.83301 -138 26.5s-64.667 40.5 -86 68.5s-36 59.333 -44 94s-12 68.667 -12 102zM181.997 526.001c24.667 -2.66699 52.6699 -5 84.0029 -7s56.666 -3 75.999 -3
c69.333 0 128.666 6.5 177.999 19.5s89.333 31.167 120 54.5s53.167 50.666 67.5 81.999s21.5 65.333 21.5 102c0 50.667 -18.5 91.334 -55.5 122.001s-88.833 46 -155.5 46c-46.667 0 -88.334 -10.167 -125.001 -30.5s-68.667 -49 -96 -86s-50.5 -80.833 -69.5 -131.5
s-34.167 -106.667 -45.5 -168zM336 1237l18 104h99l-21 -104h-96zM678 1237l20 104h97l-21 -104h-96z" />
    <glyph glyph-name="afii10099" unicode="&#x452;" horiz-adv-x="878" 
d="M31 0l116.498 596l114.5 596h-110l14 74h110c6.66699 35.333 13.834 71.5 21.501 108.5s14.834 73.167 21.501 108.5h87l-20.5 -108.5l-20.5 -108.5h426l-15 -74h-426l-69 -354h4c35.333 50.667 79 92.334 131 125.001s108.667 49 170 49c48 0 88 -7.5 120 -22.5
s57.5 -36.167 76.5 -63.5s32.667 -60.5 41 -99.5s12.5 -81.833 12.5 -128.5c0 -36.667 -2.5 -78.5 -7.5 -125.5s-11.833 -94.833 -20.5 -143.5s-19.167 -95.167 -31.5 -139.5s-26.833 -81.5 -43.5 -111.5c-35.333 -69.333 -84 -121.833 -146 -157.5
s-149 -54.834 -261 -57.501l14 74c64 2.66699 118.167 13.5 162.5 32.5s81.5 45 111.5 78s53.667 72 71 117s31.333 95.5 42 151.5c9.33301 46.667 15.833 92 19.5 136s5.5 84 5.5 120c0 91.333 -14.333 157.166 -43 197.499s-75.334 60.5 -140.001 60.5
c-49.333 0 -93.333 -11.667 -132 -35s-72.667 -53.666 -102 -90.999s-53.666 -79.333 -72.999 -126s-33 -93 -41 -139l-102 -539h-88z" />
    <glyph glyph-name="afii10100" unicode="&#x453;" horiz-adv-x="798" 
d="M37 209c0 49.333 7.83301 92.333 23.5 129s38.5 69 68.5 97s66.833 52 110.5 72s93.5 38 149.5 54c102.667 30 177.5 61.5 224.5 94.5s70.5 78.167 70.5 135.5c0 50.667 -17.667 87.834 -53 111.501s-84 35.5 -146 35.5c-52 0 -103.167 -10.667 -153.5 -32
s-89.166 -52.333 -116.499 -93l-68 45c35.333 53.333 82.833 94 142.5 122s126.167 42 199.5 42c39.333 0 76.5 -4.16699 111.5 -12.5s65.167 -21.333 90.5 -39s45.5 -40.167 60.5 -67.5s22.5 -60 22.5 -98c0 -44 -8.16699 -82.333 -24.5 -115s-39.5 -61.334 -69.5 -86.001
s-66.167 -46.167 -108.5 -64.5s-89.5 -35.833 -141.5 -52.5c-44 -13.333 -84.667 -26.5 -122 -39.5s-69.333 -29 -96 -48s-47.5 -42.5 -62.5 -70.5s-22.5 -63.333 -22.5 -106c0 -57.333 20.167 -97.833 60.5 -121.5s93.166 -35.5 158.499 -35.5
c45.333 0 93.5 10.833 144.5 32.5s94.5 53.834 130.5 96.501l63 -45c-78.667 -110.667 -198.667 -166 -360 -166c-83.333 0 -152 18.667 -206 56s-81 93.666 -81 168.999zM502 1169l190 312l90 -37l-229 -297z" />
    <glyph glyph-name="afii10101" unicode="&#x454;" horiz-adv-x="763" 
d="M59 285c0 35.333 1.49902 71.832 4.49902 109.499s7.83301 74.834 14.5 111.501c9.33301 65.333 25 128.666 47 189.999s50.667 116 86 164s79 86.667 131 116s114 44 186 44c69.333 0 128 -15.667 176 -47s77.667 -77.666 89 -138.999
c-15.333 -6.66699 -29.166 -13.167 -41.499 -19.5s-25.833 -12.833 -40.5 -19.5c-6.66699 44 -26.834 78.833 -60.501 104.5s-75.834 38.5 -126.501 38.5c-53.333 0 -99.666 -11.333 -138.999 -34s-72.666 -52.334 -99.999 -89.001s-49.5 -78.167 -66.5 -124.5
s-30.5 -92.833 -40.5 -139.5h375l-14 -78h-375c-6.66699 -34 -10.667 -66 -12 -96s-2 -56.667 -2 -80c0 -35.333 3.33301 -67 10 -95s18.167 -52 34.5 -72s38.166 -35.333 65.499 -46s61.333 -16 102 -16c50.667 0 97.167 12.5 139.5 37.5s73.833 59.5 94.5 103.5l78 -41
c-31.333 -57.333 -74.333 -101.666 -129 -132.999s-119 -47 -193 -47c-57.333 0 -104.666 7.5 -141.999 22.5s-67.333 35.833 -90 62.5s-38.5 58 -47.5 94s-13.5 75.333 -13.5 118z" />
    <glyph glyph-name="afii10102" unicode="&#x455;" horiz-adv-x="792" 
d="M20 170l76.0029 41c19.333 -48 48.166 -83.833 86.499 -107.5s90.166 -35.5 155.499 -35.5c35.333 0 69.333 4.66699 102 14s61.334 24 86.001 44s44.5 44.333 59.5 73s22.5 62.667 22.5 102c0 30 -5.5 55 -16.5 75s-26.333 36.667 -46 50s-42.834 24.166 -69.501 32.499
s-55 16.5 -85 24.5c-79.333 22 -141.166 50 -185.499 84s-66.5 83.333 -66.5 148c0 94 32.833 168.667 98.5 224s151.167 83 256.5 83c74 0 134.333 -14.333 181 -43s81 -69.667 103 -123l-82 -41c-31.333 82 -102.333 123 -213 123c-75.333 0 -135.833 -20.5 -181.5 -61.5
s-68.5 -90.167 -68.5 -147.5c0 -26 5.16699 -47.5 15.5 -64.5s25.166 -32 44.499 -45s42.166 -24 68.499 -33s56.833 -18.167 91.5 -27.5c36.667 -9.33301 70.334 -20.166 101.001 -32.499s57 -28 79 -47s39 -41.833 51 -68.5s18 -59.334 18 -98.001
c0 -95.333 -31 -173.666 -93 -234.999s-155.667 -92 -281 -92c-80.667 0 -147.334 15.667 -200.001 47s-88.667 77 -108 137z" />
    <glyph glyph-name="afii10103" unicode="&#x456;" horiz-adv-x="358" 
d="M53 0l195 1010h88l-195 -1010h-88zM299 1286l18 98h95l-19 -98h-94z" />
    <glyph glyph-name="afii10104" unicode="&#x457;" horiz-adv-x="358" 
d="M53 0l195 1010h88l-195 -1010h-88zM94 1223l19 104h98l-21 -104h-96zM436 1223l21 104h96l-21 -104h-96z" />
    <glyph glyph-name="afii10105" unicode="&#x458;" horiz-adv-x="372" 
d="M-180 -412l13.999 82.001h37c52 0 89.333 15.667 112 47s39.334 75.666 50.001 132.999l112.5 577l112.5 581h90l-114.5 -592l-114.5 -588c-15.333 -72.667 -42.333 -131.167 -81 -175.5s-95.667 -66.5 -171 -66.5h-23.5c-9 0 -16.833 0.666992 -23.5 2zM310.999 1286
l19 96h96l-18 -96h-97z" />
    <glyph glyph-name="afii10106" unicode="&#x459;" horiz-adv-x="1316" 
d="M-63 41c45.333 22 83.5029 50 114.503 84s57.5 73.167 79.5 117.5s40.167 94.166 54.5 149.499s27.5 115 39.5 179l84 437h494l-43.5 -214.5l-42.5 -211.5h250c48 0 90.333 -6.83301 127 -20.5s67.334 -31.834 92.001 -54.501s43.5 -49 56.5 -79s19.5 -61.333 19.5 -94
c0 -52 -10 -99.167 -30 -141.5s-47.333 -78.833 -82 -109.5s-76 -54.5 -124 -71.5s-100 -25.5 -156 -25.5c-92.667 0 -165.334 23.833 -218.001 71.5s-79 114.5 -79 200.5c0 30 3 58.667 9 86l114 584h-319l-78 -410c-15.333 -80.667 -32.833 -150.667 -52.5 -210
s-42.834 -111.166 -69.501 -155.499s-57.334 -81.166 -92.001 -110.499s-75.334 -53 -122.001 -71zM659.003 264c0 -57.333 17.834 -104.667 53.501 -142s88.167 -56 157.5 -56c49.333 0 92.833 7.16699 130.5 21.5s69.167 33.333 94.5 57s44.833 51.167 58.5 82.5
s20.5 65 20.5 101c0 52 -17.833 94.333 -53.5 127s-89.834 49 -162.501 49h-258l-34 -180c-4 -20.667 -6.33301 -40.667 -7 -60z" />
    <glyph glyph-name="afii10107" unicode="&#x45a;" horiz-adv-x="1325" 
d="M25 0l194.001 1008h88c-4 -24.667 -9.66699 -56.167 -17 -94.5l-22.5 -119l-23 -117.5l-19.5 -93h410l84 424h90l-86 -424h266c56 0 102.167 -7.83301 138.5 -23.5s65 -35.834 86 -60.501s35.667 -51.667 44 -81s12.5 -57 12.5 -83c0 -52 -10 -99.5 -30 -142.5
s-47.333 -79.833 -82 -110.5s-75.834 -54.5 -123.501 -71.5s-100.167 -25.5 -157.5 -25.5c-53.333 0 -100.5 8.16699 -141.5 24.5s-74.167 40.166 -99.5 71.499s-42.5 68.833 -51.5 112.5s-7.83301 93.5 3.5 149.5l33 160h-410
c-6.66699 -28.667 -14.5 -65.834 -23.5 -111.501l-27 -141.5l-26.5 -140.5l-21 -110.5h-88zM670.001 223.503c5.33301 -31.667 16.5 -59.1689 33.5 -82.502s40.333 -41.666 70 -54.999s64.834 -20 105.501 -20c49.333 0 92.333 7.16699 129 21.5s67.667 33.333 93 57
s44.833 51.5 58.5 83.5s20.5 66 20.5 102c0 50.667 -17.833 92.334 -53.5 125.001s-89.5 49 -161.5 49h-256l-37 -180c-6.66699 -35.333 -7.33398 -68.833 -2.00098 -100.5z" />
    <glyph glyph-name="afii10108" unicode="&#x45b;" horiz-adv-x="884" 
d="M31 0l113.498 592.001l115.5 594h-123l13 71h122l47 232h87l-23.5 -116.5l-22.5 -115.5h416l-12 -71h-418l-31.5 -163l-31.5 -163h4c39.333 54.667 86.333 94.667 141 120s108 38 160 38c49.333 0 91 -8.5 125 -25.5s60.833 -40.167 80.5 -69.5s32 -63.5 37 -102.5
s3.16699 -79.833 -5.5 -122.5l-135 -698h-90l133 680c5.33301 30 8 60 8 90s-6 56.667 -18 80s-30.667 42.5 -56 57.5s-60.666 22.5 -105.999 22.5c-52 0 -96.667 -10.667 -134 -32s-69.666 -49 -96.999 -83s-49.5 -72.833 -66.5 -116.5s-29.833 -88.834 -38.5 -135.501
l-108 -563h-86z" />
    <glyph glyph-name="afii10109" unicode="&#x45c;" horiz-adv-x="817" 
d="M29 0l194.001 1008h88l-90 -457h187c18 0 36.833 2 56.5 6s39.334 11.5 59.001 22.5s38.667 26.333 57 46s35.166 45.167 50.499 76.5l147 306h86l-137 -291c-23.333 -49.333 -49 -90.666 -77 -123.999s-62.333 -55.666 -103 -66.999
c45.333 -12 74.666 -35.5 87.999 -70.5s22.333 -77.5 27 -127.5l28 -328h-84l-24 315c-5.33301 66.667 -22.833 110.334 -52.5 131.001s-68.167 31 -115.5 31h-207l-90 -477h-88zM469.001 1169l190 312l91 -37l-230 -297z" />
    <glyph glyph-name="afii10110" unicode="&#x45e;" horiz-adv-x="737" 
d="M-113 -322c48 4 93.4971 15.3359 136.497 34.0029s82.833 54 119.5 106c16.667 22 30.834 42.5 42.501 61.5s24.834 44.167 39.501 75.5l-131 1051h88c6.66699 -70.667 14.167 -141.334 22.5 -212.001l24.5 -212c5.33301 -44 10.5 -89.167 15.5 -135.5
s9.5 -92.833 13.5 -139.5c4 -39.333 9.16699 -85 15.5 -137s9.5 -95.667 9.5 -131h4c36.667 62.667 74.167 133.667 112.5 213s75.833 161.666 112.5 246.999l107.5 258c35 86.667 66.833 169.667 95.5 249h88c-90 -240 -177.667 -452.333 -263 -637
s-171.666 -348.667 -258.999 -492c-22 -36.667 -46.333 -71.834 -73 -105.501s-56 -62.667 -88 -87s-67.5 -44 -106.5 -59s-81.167 -22.5 -126.5 -22.5v75zM251.997 1401l76 0.000976562c-2.66699 -42 10.333 -78.5 39 -109.5s64.667 -46.5 108 -46.5
c44 0 85.333 14.667 124 44s65.667 66.666 81 111.999h80c-8 -27.333 -20 -55 -36 -83s-35.833 -53 -59.5 -75s-51.667 -39.833 -84 -53.5s-68.833 -20.5 -109.5 -20.5s-75.667 6.83301 -105 20.5s-53 31.5 -71 53.5s-30.333 46.667 -37 74s-8.66699 55.333 -6 84z" />
    <glyph glyph-name="afii10193" unicode="&#x45f;" horiz-adv-x="886" 
d="M86 178.5c-5.33301 38.333 -4.00195 79.167 3.99805 122.5l135 707h88l-131 -691c-6.66699 -32.667 -9 -64 -7 -94s9.83301 -56.167 23.5 -78.5s33.834 -40 60.501 -53s62 -19.5 106 -19.5c38 0 74 7.5 108 22.5s64.667 35.5 92 61.5s50.333 56 69 90s32 70 40 108
l125 654h88l-197 -1008h-88l31 143h-6c-39.333 -56 -85.666 -95.833 -138.999 -119.5s-105.333 -35.5 -156 -35.5c-49.333 0 -91 8.16699 -125 24.5s-61.333 38.5 -82 66.5s-33.667 61.167 -39 99.5zM314.998 -341.999l61.999 276l90 19l-15.5 -66
c-6.33301 -27.333 -13.166 -55.333 -20.499 -84l-20.5 -82.5l-15.5 -62.5h-80z" />
    <glyph glyph-name="afii10050" unicode="&#x490;" horiz-adv-x="864" 
d="M49 0l275 1423h618l49 244h86l-67 -328h-613l-258 -1339h-90z" />
    <glyph glyph-name="afii10098" unicode="&#x491;" horiz-adv-x="718" 
d="M27 0l192 1008h504l43 223h84l-62 -303h-495l-178 -928h-88z" />
    <glyph glyph-name="afii10846" unicode="&#x4d9;" horiz-adv-x="831" 
d="M55 223c0 108 40.999 193.332 122.999 255.999s204.333 94 367 94c16.667 0 39.834 -1 69.501 -3s58.167 -4.33301 85.5 -7c10.667 54.667 16.334 104.667 17.001 150c0 69.333 -15.333 124.833 -46 166.5s-83 62.5 -157 62.5c-48 0 -95.5 -12 -142.5 -36
s-84.833 -55.667 -113.5 -95l-65 41c32.667 54.667 77.334 97 134.001 127s121 45 193 45c52 0 95.833 -7.5 131.5 -22.5s64.667 -36.5 87 -64.5s38.666 -61.167 48.999 -99.5s15.5 -79.833 15.5 -124.5c-2.66699 -80.667 -11.834 -163.667 -27.501 -249
s-41.667 -163.166 -78 -233.499s-83.5 -128.333 -141.5 -174s-130 -68.5 -216 -68.5c-98 0 -170 21.5 -216 64.5s-69 99.833 -69 170.5zM144.999 235.999c0 -49.333 16.834 -89.666 50.501 -120.999s83.167 -47 148.5 -47c48 0 90.667 10.167 128 30.5s70.333 49 99 86
s52.667 80.667 72 131s34.333 105.5 45 165.5c-24.667 4 -53.334 7.16699 -86.001 9.5s-58.667 3.5 -78 3.5c-131.333 0 -227.333 -24.333 -288 -73s-91 -110.334 -91 -185.001z" />
    <glyph glyph-name="endash" unicode="&#x2013;" horiz-adv-x="1007" 
d="M55 496l17 88h925l-18 -88h-924z" />
    <glyph glyph-name="emdash" unicode="&#x2014;" horiz-adv-x="2027" 
d="M49 496l17 88h1945l-16 -88h-1946z" />
    <glyph glyph-name="quoteleft" unicode="&#x2018;" horiz-adv-x="358" 
d="M254 1133l25 127l114 194h56l-84 -197h30l-24 -124h-117z" />
    <glyph glyph-name="quoteright" unicode="&#x2019;" horiz-adv-x="358" 
d="M256 1135l84 196h-31l25 125h117l-25 -127l-115 -194h-55z" />
    <glyph glyph-name="quotesinglbase" unicode="&#x201a;" horiz-adv-x="317" 
d="M-37 -199l84 197h-31l25 123h117l-23 -127l-117 -193h-55z" />
    <glyph glyph-name="quotedblleft" unicode="&#x201c;" horiz-adv-x="495" 
d="M217 1133l25 127l114 194h56l-84 -197h30l-26 -124h-115zM412 1133l24 127l115 194h57l-84 -197h29l-25 -124h-116z" />
    <glyph glyph-name="quotedblright" unicode="&#x201d;" horiz-adv-x="495" 
d="M221 1133l86 198h-31l25 125h117l-25 -127l-117 -196h-55zM416 1133l86 198h-31l27 125h114l-24 -127l-115 -196h-57z" />
    <glyph glyph-name="quotedblbase" unicode="&#x201e;" horiz-adv-x="559" 
d="M-27 -199l84 197h-30l24 123h117l-23 -127l-116 -193h-56zM186 -199l84 197h-30l24 123h117l-23 -127l-116 -193h-56z" />
    <glyph glyph-name="dagger" unicode="&#x2020;" horiz-adv-x="790" 
d="M111 846l16 84h319l97 489h90l-96 -489h321l-16 -84h-322l-239 -1233h-91l240 1233h-319z" />
    <glyph glyph-name="daggerdbl" unicode="&#x2021;" horiz-adv-x="800" 
d="M-2 264l16 82h322l98 500h-321l14 84h324l96 489h90l-96 -489h325l-16 -84h-324l-98 -500h324l-15 -82h-325l-127 -651h-90l127 651h-324z" />
    <glyph glyph-name="bullet" unicode="&#x2022;" horiz-adv-x="727" 
d="M193 555c0 49.333 16.998 91.333 50.998 126s75.667 52 125 52c24.667 0 47.5 -4.66699 68.5 -14s39.333 -22 55 -38s28 -34.833 37 -56.5s13.5 -44.834 13.5 -69.501c0 -49.333 -17.167 -91 -51.5 -125s-75.166 -51 -122.499 -51c-24.667 0 -47.667 4.83301 -69 14.5
s-40.166 22.334 -56.499 38.001s-28.833 34 -37.5 55s-13 43.833 -13 68.5z" />
    <glyph glyph-name="ellipsis" unicode="&#x2026;" horiz-adv-x="1144" 
d="M23 0l22 125h115l-23 -125h-114zM410 0l22 125h115l-23 -125h-114zM801 0l22 125h115l-23 -125h-114z" />
    <glyph glyph-name="guilsinglleft" unicode="&#x2039;" horiz-adv-x="544" 
d="M92 461l299 366h92l-299 -366l156 -367h-90z" />
    <glyph glyph-name="guilsinglright" unicode="&#x203a;" horiz-adv-x="512" 
d="M37 94l301 369l-156 364h88l160 -366l-301 -367h-92z" />
    <glyph glyph-name="Euro" unicode="&#x20ac;" 
d="M59 584l13.001 65h75l29 146h-78l13 63h77l13 64c12 62.667 27.167 125 45.5 187s44 117 77 165s75.667 87 128 117s118.833 45 199.5 45c86 0 157.333 -20.833 214 -62.5s90.667 -102.167 102 -181.5l-90 -29c-9.33301 61.333 -34 108.5 -74 141.5
s-90.667 49.5 -152 49.5c-66.667 0 -121.5 -14 -164.5 -42s-77.833 -64.167 -104.5 -108.5s-47.167 -93.5 -61.5 -147.5s-26.166 -107.667 -35.499 -161l-9 -37h431l-13 -63h-430l-26 -146h430l-13 -65h-430l-32 -197c-6.66699 -36.667 -9.5 -74.167 -8.5 -112.5
s9 -72.833 24 -103.5s38.667 -55.5 71 -74.5s75.166 -28.5 128.499 -28.5c136.667 0 237 66.667 301 200l84 -28c-39.333 -88.667 -93 -152.5 -161 -191.5s-145 -58.5 -231 -58.5c-66.667 0 -121.5 10.833 -164.5 32.5s-76.5 51 -100.5 88s-38.333 80 -43 129
s-2.33398 100.833 6.99902 155.5l33 189h-74z" />
    <glyph glyph-name="trademark" unicode="&#x2122;" horiz-adv-x="1445" 
d="M66 1354v71h491v-71h-209v-715h-74v715h-208zM653 639v784h70l264 -565l260 565h68v-784h-72v606l-116.5 -241.5l-114.5 -243.5h-56l-114.5 242.5l-114.5 242.5h-4v-606h-70z" />
    <glyph glyph-name="lozenge" unicode="&#x25ca;" horiz-adv-x="690" 
d="M51 578l120.5 282l123.5 283h80l124.5 -282.5l125.5 -282.5l-124 -282.5l-126 -283.5h-80l-122.5 282.5zM129 575l205 -471h2l211 471l-106.5 237l-106.5 237h-2z" />
    <glyph glyph-name="uniE000" unicode="&#xe000;" horiz-adv-x="1003" 
d="M0 0v1004h1004v-1004h-1004z" />
    </font>
</defs>
</svg>
